<svg xmlns="http://www.w3.org/2000/svg" width="76" height="17" viewBox="0 0 76 17" fill="none">
    <path d="M47.5735 2.20092V4.49194H46.1375V5.99438H47.5735V11.0994C47.5735 12.8425 48.3621 13.5398 50.346 13.5398C50.6946 13.5398 51.0267 13.4983 51.3172 13.4485V11.9626C51.0682 11.9875 50.9104 12.0041 50.6365 12.0041C49.7483 12.0041 49.3582 11.5891 49.3582 10.6428V5.99438H51.3172V4.49194H49.3582V2.20092H47.5735Z" fill="white"/>
    <path d="M56.371 13.6643C59.0107 13.6643 60.6293 11.8962 60.6293 8.96606C60.6293 6.05248 59.0024 4.27612 56.371 4.27612C53.7314 4.27612 52.1044 6.05248 52.1044 8.96606C52.1044 11.8962 53.7231 13.6643 56.371 13.6643ZM56.371 12.0789C54.8188 12.0789 53.9472 10.9416 53.9472 8.96606C53.9472 7.00707 54.8188 5.86157 56.371 5.86157C57.915 5.86157 58.7949 7.00707 58.7949 8.96606C58.7949 10.9333 57.915 12.0789 56.371 12.0789Z" fill="white"/>
    <path d="M62.0142 13.49H63.7989V8.15258C63.7989 6.88256 64.7535 6.02758 66.1065 6.02758C66.422 6.02758 66.9532 6.08569 67.1026 6.13549V4.37573C66.9117 4.32592 66.5714 4.30102 66.3057 4.30102C65.127 4.30102 64.1226 4.94848 63.8653 5.83666H63.7325V4.45043H62.0142V13.49Z" fill="white"/>
    <path d="M71.5339 5.79516C72.8537 5.79516 73.717 6.71655 73.7585 8.13598H69.1931C69.2927 6.72485 70.2141 5.79516 71.5339 5.79516ZM73.7502 11.0496C73.4182 11.7551 72.6794 12.1453 71.6003 12.1453C70.1726 12.1453 69.2512 11.1409 69.1931 9.55541V9.4558H75.5764V8.83325C75.5764 5.99438 74.0573 4.27612 71.5422 4.27612C68.9939 4.27612 67.3752 6.11059 67.3752 8.99926C67.3752 11.8879 68.9607 13.6643 71.5505 13.6643C73.6174 13.6643 75.0617 12.6682 75.4685 11.0496H73.7502Z" fill="white"/>
    <path d="M35.8699 10.1518C36.0076 12.3715 37.8574 13.7911 40.6105 13.7911C43.5529 13.7911 45.394 12.3027 45.394 9.92813C45.394 8.06117 44.3444 7.02874 41.7978 6.4351L40.4298 6.09956C38.8124 5.72101 38.1585 5.2134 38.1585 4.32724C38.1585 3.20878 39.1737 2.47748 40.6965 2.47748C42.1419 2.47748 43.1399 3.19157 43.3206 4.33584H45.1962C45.0843 2.24519 43.2432 0.773987 40.7223 0.773987C38.0122 0.773987 36.2055 2.24519 36.2055 4.45629C36.2055 6.28024 37.2293 7.36428 39.4748 7.88909L41.0751 8.27625C42.7183 8.66341 43.441 9.23124 43.441 10.1776C43.441 11.2789 42.3054 12.079 40.7567 12.079C39.0963 12.079 37.9434 11.3305 37.7799 10.1518H35.8699Z" fill="white"/>
    <path d="M17.3826 4.30102C16.1541 4.30102 15.0916 4.91528 14.5437 5.94457H14.4109V4.45043H12.6927V16.4949H14.4773V12.1204H14.6185C15.0916 13.0749 16.1126 13.6394 17.3992 13.6394C19.6819 13.6394 21.1346 11.8381 21.1346 8.96606C21.1346 6.09399 19.6819 4.30102 17.3826 4.30102ZM16.8763 12.0373C15.3821 12.0373 14.4441 10.8586 14.4441 8.97436C14.4441 7.08178 15.3821 5.90307 16.8846 5.90307C18.3953 5.90307 19.3001 7.05688 19.3001 8.96606C19.3001 10.8835 18.3953 12.0373 16.8763 12.0373Z" fill="white"/>
    <path d="M27.3794 4.30102C26.1509 4.30102 25.0884 4.91528 24.5405 5.94457H24.4077V4.45043H22.6895V16.4949H24.4741V12.1204H24.6153C25.0884 13.0749 26.1094 13.6394 27.396 13.6394C29.6787 13.6394 31.1314 11.8381 31.1314 8.96606C31.1314 6.09399 29.6787 4.30102 27.3794 4.30102ZM26.8731 12.0373C25.3789 12.0373 24.4409 10.8586 24.4409 8.97436C24.4409 7.08178 25.3789 5.90307 26.8814 5.90307C28.3921 5.90307 29.2969 7.05688 29.2969 8.96606C29.2969 10.8835 28.3921 12.0373 26.8731 12.0373Z" fill="white"/>
    <path d="M9.49067 13.49H11.5383L7.05588 1.07511H4.98243L0.5 13.49H2.47881L3.62308 10.1948H8.35501L9.49067 13.49ZM5.92022 3.32923H6.06647L7.86461 8.57738H4.11348L5.92022 3.32923Z" fill="white"/>
</svg>
