<svg width="20" height="20" viewBox="0 0 20 20" fill="none" xmlns="http://www.w3.org/2000/svg">
<path fill-rule="evenodd" clip-rule="evenodd" d="M9.99984 17.0832C13.9119 17.0832 17.0832 13.9119 17.0832 9.99984C17.0832 6.08782 13.9119 2.9165 9.99984 2.9165C6.08782 2.9165 2.9165 6.08782 2.9165 9.99984C2.9165 13.9119 6.08782 17.0832 9.99984 17.0832ZM18.3332 9.99984C18.3332 14.6022 14.6022 18.3332 9.99984 18.3332C5.39746 18.3332 1.6665 14.6022 1.6665 9.99984C1.6665 5.39746 5.39746 1.6665 9.99984 1.6665C14.6022 1.6665 18.3332 5.39746 18.3332 9.99984Z" fill="color"/>
<path fill-rule="evenodd" clip-rule="evenodd" d="M12.0581 10.0254C12.3021 10.2695 12.6979 10.2695 12.9419 10.0254C13.186 9.78136 13.186 9.38563 12.9419 9.14155L10.4419 6.64155C10.1979 6.39748 9.80214 6.39748 9.55806 6.64155L7.05806 9.14155C6.81398 9.38563 6.81398 9.78136 7.05806 10.0254C7.30214 10.2695 7.69786 10.2695 7.94194 10.0254L9.375 8.59238L9.375 12.9168C9.375 13.262 9.65482 13.5418 10 13.5418C10.3452 13.5418 10.625 13.262 10.625 12.9168L10.625 8.59238L12.0581 10.0254Z" fill="color"/>
</svg>
