<svg width="28" height="28" viewBox="0 0 28 28" fill="none" xmlns="http://www.w3.org/2000/svg">
<g filter="url(#filter0_d_2376_364)">
<g clip-path="url(#clip0_2376_364)">
<path d="M25.6666 24.3704C25.6666 25.0866 25.2315 25.6667 24.6944 25.6667H3.30547C2.76832 25.6667 2.33325 25.0866 2.33325 24.3704V3.62962C2.33325 2.91342 2.76832 2.33333 3.30547 2.33333H24.6944C25.2315 2.33333 25.6666 2.91342 25.6666 3.62962V24.3704Z" fill="url(#paint0_linear_2376_364)"/>
<path d="M20.635 11.4445C20.7664 11.3202 20.6784 11.0992 20.4975 11.0992H16.1913C16.1158 11.0992 16.0468 11.0567 16.0128 10.9893L14.1789 7.35377C14.105 7.20725 13.8958 7.2072 13.8218 7.35368L11.9856 10.9893C11.9516 11.0567 11.8825 11.0992 11.807 11.0992H7.50248C7.32161 11.0992 7.23365 11.3202 7.36505 11.4445L10.5156 14.4246C10.569 14.4751 10.5904 14.5509 10.5713 14.6219L9.38962 19.0053C9.34432 19.1734 9.52043 19.3151 9.67489 19.2349L13.9082 17.0368C13.966 17.0068 14.0348 17.0068 14.0926 17.0368L18.3251 19.2348C18.4796 19.315 18.6557 19.1733 18.6104 19.0053L17.4287 14.6219C17.4096 14.5509 17.431 14.4751 17.4844 14.4246L20.635 11.4445Z" fill="url(#paint1_linear_2376_364)"/>
</g>
</g>
<defs>
<filter id="filter0_d_2376_364" x="1.33325" y="2.33333" width="25.3333" height="25.3333" filterUnits="userSpaceOnUse" color-interpolation-filters="sRGB">
<feFlood flood-opacity="0" result="BackgroundImageFix"/>
<feColorMatrix in="SourceAlpha" type="matrix" values="0 0 0 0 0 0 0 0 0 0 0 0 0 0 0 0 0 0 127 0" result="hardAlpha"/>
<feOffset dy="1"/>
<feGaussianBlur stdDeviation="0.5"/>
<feComposite in2="hardAlpha" operator="out"/>
<feColorMatrix type="matrix" values="0 0 0 0 0 0 0 0 0 0 0 0 0 0 0 0 0 0 0.1 0"/>
<feBlend mode="normal" in2="BackgroundImageFix" result="effect1_dropShadow_2376_364"/>
<feBlend mode="normal" in="SourceGraphic" in2="effect1_dropShadow_2376_364" result="shape"/>
</filter>
<linearGradient id="paint0_linear_2376_364" x1="13.9999" y1="2.33333" x2="13.9999" y2="25.6667" gradientUnits="userSpaceOnUse">
<stop stop-color="#FF5E6B"/>
<stop offset="1" stop-color="#BD1C2A"/>
</linearGradient>
<linearGradient id="paint1_linear_2376_364" x1="14" y1="7" x2="14" y2="19.4444" gradientUnits="userSpaceOnUse">
<stop stop-color="#FFFCEF"/>
<stop offset="1" stop-color="#FFE040"/>
</linearGradient>
<clipPath id="clip0_2376_364">
<rect x="2.33325" y="2.33333" width="23.3333" height="23.3333" rx="11.6667" fill="white"/>
</clipPath>
</defs>
</svg>
