<svg xmlns="http://www.w3.org/2000/svg" width="16" height="16" viewBox="0 0 16 16" fill="none">
    <g clip-path="url(#clip0_604_31759)">
        <path fill-rule="evenodd" clip-rule="evenodd" d="M8.5 2.33331C8.5 2.05717 8.27614 1.83331 8 1.83331C7.72386 1.83331 7.5 2.05717 7.5 2.33331V12.4597L4.30668 9.26642C4.11142 9.07116 3.79483 9.07116 3.59957 9.26642C3.40431 9.46168 3.40431 9.77827 3.59957 9.97353L7.64624 14.0202C7.74001 14.114 7.86718 14.1666 7.99979 14.1666C8.1324 14.1666 8.25958 14.114 8.35335 14.0202L12.4 9.97353C12.5953 9.77827 12.5953 9.46168 12.4 9.26642C12.2047 9.07116 11.8882 9.07116 11.6929 9.26642L8.5 12.4593V2.33331Z" fill="#1B1D29"/>
    </g>
    <defs>
        <clipPath id="clip0_604_31759">
            <rect width="16" height="16" fill="white"/>
        </clipPath>
    </defs>
</svg>
