<svg width="17" height="18" viewBox="0 0 17 18" fill="none" xmlns="http://www.w3.org/2000/svg">
<path d="M4.33366 8.79175C4.33366 8.44657 4.61348 8.16675 4.95866 8.16675H7.87533V5.45842C7.87533 5.11324 8.15515 4.83342 8.50033 4.83342C8.8455 4.83342 9.12533 5.11324 9.12533 5.45842V8.16675H12.042C12.3872 8.16675 12.667 8.44657 12.667 8.79175C12.667 9.13693 12.3872 9.41675 12.042 9.41675H9.12533V12.5417C9.12533 12.8869 8.8455 13.1667 8.50033 13.1667C8.15515 13.1667 7.87533 12.8869 7.87533 12.5417V9.41675H4.95866C4.61348 9.41675 4.33366 9.13693 4.33366 8.79175Z" fill="color"/>
<path fill-rule="evenodd" clip-rule="evenodd" d="M8.50033 17.3334C13.1027 17.3334 16.8337 13.6025 16.8337 9.00008C16.8337 4.39771 13.1027 0.666748 8.50033 0.666748C3.89795 0.666748 0.166992 4.39771 0.166992 9.00008C0.166992 13.6025 3.89795 17.3334 8.50033 17.3334ZM8.50033 16.0834C12.4123 16.0834 15.5837 12.9121 15.5837 9.00008C15.5837 5.08806 12.4123 1.91675 8.50033 1.91675C4.58831 1.91675 1.41699 5.08806 1.41699 9.00008C1.41699 12.9121 4.58831 16.0834 8.50033 16.0834Z" fill="color"/>
</svg>
