<svg width="20" height="20" viewBox="0 0 20 20" fill="none" xmlns="http://www.w3.org/2000/svg">
<path fill-rule="evenodd" clip-rule="evenodd" d="M4.16666 9.79167C4.16666 9.44649 4.44648 9.16667 4.79166 9.16667L15.2083 9.16667C15.5535 9.16667 15.8333 9.44649 15.8333 9.79167C15.8333 10.1369 15.5535 10.4167 15.2083 10.4167L4.79166 10.4167C4.44648 10.4167 4.16666 10.1368 4.16666 9.79167Z" fill=""/>
<path fill-rule="evenodd" clip-rule="evenodd" d="M10 4.16667C10.3452 4.16667 10.625 4.44649 10.625 4.79167V15.2083C10.625 15.5535 10.3452 15.8333 10 15.8333C9.65482 15.8333 9.375 15.5535 9.375 15.2083V4.79167C9.375 4.44649 9.65482 4.16667 10 4.16667Z" fill=""/>
</svg>
