<svg xmlns="http://www.w3.org/2000/svg" width="24" height="24" viewBox="0 0 24 24" fill="none">
    <g clip-path="url(#clip0_1577_17102)">
        <path fill-rule="evenodd" clip-rule="evenodd" d="M10.0994 6.46051C10.3922 6.16761 10.3922 5.69274 10.0994 5.39985C9.80646 5.10695 9.33159 5.10695 9.03869 5.39985L2.96869 11.4698C2.82804 11.6105 2.74902 11.8013 2.74902 12.0002C2.74902 12.1991 2.82804 12.3899 2.96869 12.5305L9.03869 18.6005C9.33159 18.8934 9.80646 18.8934 10.0994 18.6005C10.3922 18.3076 10.3922 17.8327 10.0994 17.5398L5.31 12.7505L20.4997 12.7505C20.9139 12.7505 21.2497 12.4147 21.2497 12.0005C21.2497 11.5863 20.9139 11.2505 20.4997 11.2505L5.30937 11.2505L10.0994 6.46051Z" fill=""/>
    </g>
    <defs>
        <clipPath id="clip0_1577_17102">
            <rect width="24" height="24" fill="white"/>
        </clipPath>
    </defs>
</svg>
