<svg width="20" height="20" viewBox="0 0 20 20" fill="none" xmlns="http://www.w3.org/2000/svg">
<path fill-rule="evenodd" clip-rule="evenodd" d="M6.0415 5.83334C6.0415 5.48817 6.32133 5.20834 6.6665 5.20834H13.3332C13.6783 5.20834 13.9582 5.48817 13.9582 5.83334C13.9582 6.17852 13.6783 6.45834 13.3332 6.45834H6.6665C6.32133 6.45834 6.0415 6.17852 6.0415 5.83334Z" fill="#1B1D29"/>
<path fill-rule="evenodd" clip-rule="evenodd" d="M6.875 9.16666C6.875 8.82148 7.15482 8.54166 7.5 8.54166H12.5C12.8452 8.54166 13.125 8.82148 13.125 9.16666C13.125 9.51183 12.8452 9.79166 12.5 9.79166H7.5C7.15482 9.79166 6.875 9.51183 6.875 9.16666Z" fill="#1B1D29"/>
<path fill-rule="evenodd" clip-rule="evenodd" d="M11.9424 16.5398C12.5075 15.7399 13.4884 15.6816 14.132 16.4148C15.5288 17.9979 16.6668 17.473 16.6668 15.2566V5.86613C16.6746 2.50822 15.9369 1.66666 12.9705 1.66666H7.03762C4.07118 1.66666 3.3335 2.50822 3.3335 5.86613V15.2483C3.3335 17.473 4.47926 17.9896 5.86831 16.4148C6.51182 15.6816 7.49279 15.7399 8.05782 16.5398L8.85044 17.6647C9.48611 18.5562 10.5142 18.5562 11.1498 17.6647L11.9424 16.5398ZM10.1305 16.9412L10.132 16.939L10.9215 15.8186C11.3974 15.1448 12.1163 14.7018 12.9356 14.6545C13.7563 14.607 14.5226 14.9657 15.0703 15.5889C15.1837 15.7174 15.2835 15.815 15.368 15.8884C15.3962 15.7321 15.4168 15.5241 15.4168 15.2566V5.86321C15.4208 4.15796 15.2039 3.56984 14.9954 3.33274C14.8374 3.15314 14.4394 2.91666 12.9705 2.91666H7.03762C5.56922 2.91666 5.17018 3.15292 5.01101 3.33356C4.80107 3.57182 4.5835 4.161 4.5835 5.86613V15.2483C4.5835 15.5196 4.60462 15.7298 4.63347 15.8869C4.71777 15.8139 4.81541 15.7188 4.92881 15.5903C5.47651 14.9662 6.24335 14.607 7.06465 14.6545C7.88397 14.7018 8.60283 15.1448 9.07879 15.8186L9.07963 15.8198L9.86823 16.939L9.86977 16.9411C9.92901 17.0237 9.97696 17.061 10.0001 17.0757C10.0233 17.061 10.0712 17.0237 10.1305 16.9412Z" fill="#1B1D29"/>
</svg>
