<svg xmlns="http://www.w3.org/2000/svg" width="48" height="48" viewBox="0 0 48 48" fill="none">
    <path d="M43.6911 26.0553C44.9655 24.5956 42.0043 22.9054 40.0926 22.2139C36.9065 21.0231 33.7203 20.4469 30.3843 20.1012V30.3192C36.6816 29.6278 41.6295 28.0528 43.6911 26.0553Z" fill="url(#paint0_linear_833_11028)"/>
    <path d="M4.37061 26.1316L23.9747 46.2219L43.7286 25.9779C41.0673 28.6284 33.2332 30.5491 23.9747 30.5491C14.8661 30.5875 7.14441 28.7437 4.37061 26.1316Z" fill="url(#paint1_linear_833_11028)"/>
    <path d="M4.29572 21.9837C3.05875 23.4434 5.98249 25.1336 7.89416 25.825C11.0803 27.0158 14.2664 27.592 17.6025 27.9378V17.7582C11.3052 18.4112 6.31984 19.9862 4.29572 21.9837Z" fill="url(#paint2_linear_833_11028)"/>
    <path d="M43.5787 21.8681L23.9747 1.77783L4.2207 22.0218C6.88205 19.3712 14.7162 17.4506 23.9747 17.4506C33.0832 17.4121 40.8049 19.2944 43.5787 21.8681Z" fill="url(#paint3_linear_833_11028)"/>
    <defs>
        <linearGradient id="paint0_linear_833_11028" x1="37.192" y1="20.1012" x2="37.7214" y2="30.9722" gradientUnits="userSpaceOnUse">
            <stop stop-color="#F3F3F7"/>
            <stop offset="1" stop-color="#F3F3F7" stop-opacity="0"/>
        </linearGradient>
        <linearGradient id="paint1_linear_833_11028" x1="24.0496" y1="25.9779" x2="24.7693" y2="47.5426" gradientUnits="userSpaceOnUse">
            <stop stop-color="#F3F3F7"/>
            <stop offset="1" stop-color="#F3F3F7" stop-opacity="0"/>
        </linearGradient>
        <linearGradient id="paint2_linear_833_11028" x1="10.8012" y1="17.7582" x2="11.3272" y2="28.5885" gradientUnits="userSpaceOnUse">
            <stop stop-color="#F3F3F7"/>
            <stop offset="1" stop-color="#F3F3F7" stop-opacity="0"/>
        </linearGradient>
        <linearGradient id="paint3_linear_833_11028" x1="23.8997" y1="1.77783" x2="24.6194" y2="23.3426" gradientUnits="userSpaceOnUse">
            <stop stop-color="#F3F3F7"/>
            <stop offset="1" stop-color="#F3F3F7" stop-opacity="0"/>
        </linearGradient>
    </defs>
</svg>
