<svg xmlns="http://www.w3.org/2000/svg" width="24" height="24" viewBox="0 0 20 20" fill="none">
    <path fill-rule="evenodd" clip-rule="evenodd" d="M4.97171 7.78468C4.97171 5.83547 6.34601 4.17075 8.27061 3.53058C8.54014 3.24956 8.9027 2.93955 9.26897 2.73368C9.52055 2.59228 9.77388 2.5 10 2.5C10.2338 2.5 10.4966 2.59864 10.7566 2.74823C10.8098 2.77882 10.8628 2.81154 10.9154 2.84598L10.9185 2.84797C11.2115 3.0401 11.492 3.2854 11.7129 3.51351C13.6643 4.14184 15.0699 5.82299 15.0699 7.78468V9.96888C15.0699 10.4299 15.2887 11.1328 15.5411 11.5258L16.5089 12.9693C17.0643 13.8007 16.6183 14.8814 15.6001 15.1838C14.5654 15.4942 13.5074 15.7161 12.4395 15.8495C12.1424 16.7984 11.1589 17.5 10 17.5C9.30813 17.5 8.66687 17.245 8.21125 16.84C7.90741 16.5699 7.67861 16.2265 7.55989 15.8452C6.50343 15.7114 5.45689 15.491 4.43314 15.1838C3.33917 14.8512 2.92683 13.8611 3.52431 12.9693L4.49205 11.5258C4.75292 11.1328 4.97171 10.4299 4.97171 9.96888V7.78468ZM4.61172 13.5449L5.57927 12.1017L5.58208 12.0975C5.78791 11.7874 5.94467 11.412 6.05011 11.0709C6.15549 10.7299 6.23734 10.3335 6.23734 9.96888V7.78468C6.23734 5.89338 7.94667 4.375 10.0208 4.375C12.0865 4.375 13.8043 5.90094 13.8043 7.78468V9.96888C13.8043 10.3332 13.886 10.7289 13.9894 11.0675C14.0932 11.4072 14.2458 11.7781 14.4421 12.0836L14.4479 12.0927L15.4211 13.5444C15.5719 13.771 15.4367 14.0462 15.1991 14.1167L15.1953 14.1179C11.8318 15.1271 8.20431 15.1274 4.84076 14.1187C4.62321 14.0521 4.55482 13.9526 4.53277 13.8992C4.51079 13.8458 4.48956 13.7274 4.61172 13.5449ZM10.9618 15.9772C10.3199 16.0082 9.67661 16.0076 9.03477 15.9754C9.05752 15.9994 9.08134 16.0224 9.10618 16.0445C9.33488 16.2478 9.65825 16.375 10 16.375C10.3828 16.375 10.7287 16.2199 10.9618 15.9772ZM10.6328 6.0625C10.6328 5.75184 10.3495 5.5 10 5.5C9.65051 5.5 9.36719 5.75184 9.36719 6.0625L9.36719 8.6875C9.36719 8.99816 9.65051 9.25 10 9.25C10.3495 9.25 10.6328 8.99816 10.6328 8.6875V6.0625Z" fill=""/>
</svg>
