<svg width="20" height="21" viewBox="0 0 20 21" fill="none" xmlns="http://www.w3.org/2000/svg">
<path fill-rule="evenodd" clip-rule="evenodd" d="M18.3337 10.5999C18.3337 15.1833 14.5837 18.9333 10.0003 18.9333C5.41699 18.9333 1.66699 15.1833 1.66699 10.5999C1.66699 6.0166 5.41699 2.2666 10.0003 2.2666C14.5837 2.2666 18.3337 6.0166 18.3337 10.5999ZM12.8005 7.79959C13.0446 8.04367 13.0446 8.4394 12.8005 8.68348L10.8841 10.5999L12.8005 12.5163C13.0446 12.7603 13.0446 13.1561 12.8005 13.4001C12.5565 13.6442 12.1607 13.6442 11.9167 13.4001L10.0003 11.4838L8.08387 13.4001C7.83979 13.6442 7.44406 13.6442 7.19999 13.4001C6.95591 13.1561 6.95591 12.7603 7.19999 12.5163L9.11638 10.5999L7.19999 8.68348C6.95591 8.4394 6.95591 8.04367 7.19999 7.79959C7.44406 7.55552 7.83979 7.55552 8.08387 7.79959L10.0003 9.71599L11.9167 7.79959C12.1607 7.55552 12.5565 7.55552 12.8005 7.79959Z" fill=""/>
</svg>
