<svg width="20" height="20" viewBox="0 0 20 20" fill="none" xmlns="http://www.w3.org/2000/svg">
<path fill-rule="evenodd" clip-rule="evenodd" d="M5.3665 15.8291L5.36298 15.8291C3.87365 15.8333 3.44188 15.6191 3.28515 15.4644C3.133 15.3143 2.9165 14.8986 2.9165 13.4291V7.71241H17.0832V13.4208C17.0832 14.8897 16.8669 15.3065 16.7137 15.458C16.5555 15.6143 16.1223 15.8291 14.6332 15.8291L5.3665 15.8291ZM17.0827 6.46241H2.91697C2.92814 5.08793 3.1369 4.68937 3.286 4.54196C3.44415 4.38558 3.87734 4.17079 5.3665 4.17079H14.6248C16.1187 4.17079 16.5543 4.38572 16.7135 4.54278C16.8627 4.69004 17.0715 5.08786 17.0827 6.46241ZM1.6665 7.08741V13.4291C1.6665 16.3541 2.40817 17.0875 5.3665 17.0791H14.6332C17.5915 17.0791 18.3332 16.3458 18.3332 13.4208V6.57912C18.3332 3.65412 17.5915 2.92079 14.6248 2.92079H5.3665C2.40817 2.92079 1.6665 3.65412 1.6665 6.57912V7.08741ZM4.37484 13.7541C4.37484 13.4089 4.65466 13.1291 4.99984 13.1291H7.49984C7.84502 13.1291 8.12484 13.4089 8.12484 13.7541C8.12484 14.0993 7.84502 14.3791 7.49984 14.3791H4.99984C4.65466 14.3791 4.37484 14.0993 4.37484 13.7541Z" fill="#1B1D29"/>
<path d="M9.58317 13.1291C9.23799 13.1291 8.95817 13.4089 8.95817 13.7541C8.95817 14.0993 9.23799 14.3791 9.58317 14.3791H10.4165C10.7617 14.3791 11.0415 14.0993 11.0415 13.7541C11.0415 13.4089 10.7617 13.1291 10.4165 13.1291H9.58317Z" fill="#1B1D29"/>
</svg>
