<svg width="24" height="24" viewBox="0 0 24 24" fill="none" xmlns="http://www.w3.org/2000/svg">
<path fill-rule="evenodd" clip-rule="evenodd" d="M12 20.5C16.0016 20.5 19.25 17.2516 19.25 13.25C19.25 9.24843 16.0016 6 12 6C7.99843 6 4.75 9.24843 4.75 13.25C4.75 17.2516 7.99843 20.5 12 20.5ZM12 22C16.83 22 20.75 18.08 20.75 13.25C20.75 8.42 16.83 4.5 12 4.5C7.17 4.5 3.25 8.42 3.25 13.25C3.25 18.08 7.17 22 12 22Z" fill="color"/>
<path fill-rule="evenodd" clip-rule="evenodd" d="M12.75 9C12.75 8.58579 12.4142 8.25 12 8.25C11.5858 8.25 11.25 8.58579 11.25 9V14C11.25 14.3575 11.5001 14.6565 11.8349 14.7318C12.0058 14.7735 12.192 14.7556 12.3601 14.6676L15.0182 13.2767C15.3852 13.0847 15.5271 12.6315 15.335 12.2645C15.143 11.8975 14.6898 11.7557 14.3228 11.9477L12.75 12.7706V9Z" fill="color"/>
<path fill-rule="evenodd" clip-rule="evenodd" d="M8.25 3C8.25 2.58579 8.58579 2.25 9 2.25H15C15.4142 2.25 15.75 2.58579 15.75 3C15.75 3.41421 15.4142 3.75 15 3.75H9C8.58579 3.75 8.25 3.41421 8.25 3Z" fill="color"/>
</svg>
