<svg width="16" height="16" viewBox="0 0 16 16" fill="none" xmlns="http://www.w3.org/2000/svg">
<path fill-rule="evenodd" clip-rule="evenodd" d="M1.57386 3.07334C1.41362 3.47334 1.3335 3.90668 1.3335 4.36001C1.3335 5.05334 1.49374 5.78001 1.81422 6.54001C2.1347 7.29334 2.57536 8.05334 3.12285 8.81334C3.67701 9.57334 4.29794 10.3 4.98564 10.9933C5.68002 11.68 6.40777 12.3 7.17559 12.86C7.93673 13.4133 8.70455 13.8533 9.47237 14.18C10.2402 14.5067 10.9679 14.6667 11.649 14.6667C12.1163 14.6667 12.5503 14.58 12.9509 14.4133C13.3582 14.2467 13.7187 13.9867 14.0459 13.6267C14.2395 13.4133 14.3864 13.1867 14.4999 12.9467C14.6134 12.7067 14.6668 12.46 14.6668 12.22C14.6668 12.0333 14.6268 11.8667 14.56 11.7C14.4866 11.5333 14.3664 11.3933 14.1928 11.2733L11.9828 9.70668C11.8159 9.59334 11.6623 9.50668 11.5154 9.44668C11.3685 9.38668 11.235 9.36001 11.1082 9.36001C10.9412 9.36001 10.7877 9.40668 10.6341 9.50001C10.4806 9.58001 10.3203 9.70668 10.1534 9.87334L9.96634 10.0577L9.64597 10.3733C9.57252 10.4467 9.48573 10.4867 9.37222 10.4867C9.31213 10.4867 9.25872 10.48 9.2053 10.46C9.18388 10.4508 9.16385 10.4417 9.14523 10.4331L9.14521 10.4331C9.12322 10.4231 9.1032 10.4139 9.08512 10.4067C8.85812 10.2867 8.57102 10.0867 8.22383 9.79334C7.86997 9.49334 7.52278 9.16668 7.16224 8.81334C6.81505 8.46001 6.49457 8.10668 6.19412 7.76001C5.90035 7.41334 5.69337 7.12668 5.57319 6.90668C5.56596 6.88502 5.55677 6.86337 5.54669 6.83959L5.54668 6.83958C5.53814 6.81945 5.52896 6.7978 5.51978 6.77334C5.50642 6.72001 5.49975 6.67334 5.49975 6.62001C5.49975 6.51334 5.53313 6.42668 5.60657 6.35334L5.64759 6.31077L6.114 5.82668C6.27424 5.66668 6.4011 5.50668 6.4879 5.35334C6.58137 5.20001 6.62811 5.04001 6.62811 4.88001C6.62811 4.75334 6.59472 4.61334 6.53463 4.47334C6.47454 4.32668 6.38774 4.17334 6.26756 4.00668L4.71857 1.82668C4.59839 1.65334 4.44483 1.53334 4.27124 1.45334C4.10432 1.37334 3.91737 1.33334 3.73043 1.33334C3.23635 1.33334 2.76898 1.54001 2.34168 1.96001C1.98781 2.29334 1.7341 2.66668 1.57386 3.07334ZM4.89122 5.65455L5.40058 5.12588L5.40742 5.11904C5.51891 5.00772 5.58292 4.92054 5.61481 4.86568L5.61243 4.86014L5.60928 4.85246C5.58477 4.79262 5.54035 4.70792 5.45645 4.59156L5.45237 4.58591L3.90006 2.4012L3.89678 2.39646C3.88955 2.38603 3.88418 2.38101 3.8804 2.3779C3.87624 2.37449 3.86815 2.36866 3.8527 2.36154L3.84584 2.35838L3.83903 2.35512C3.81559 2.34388 3.77757 2.33334 3.73043 2.33334C3.545 2.33334 3.31889 2.40168 3.04266 2.67319L3.03508 2.68063L3.02735 2.68792C2.77387 2.92669 2.60718 3.17868 2.50424 3.43994L2.50216 3.44522C2.39242 3.71915 2.3335 4.02538 2.3335 4.36001C2.3335 4.8967 2.45719 5.49067 2.73504 6.15002C3.02121 6.82236 3.42149 7.51676 3.93256 8.22651C4.45455 8.94213 5.04077 9.62857 5.69221 10.2857C6.35071 10.9365 7.03921 11.5228 7.76439 12.0517C8.47073 12.5651 9.17288 12.9659 9.86386 13.2598C10.5314 13.5438 11.1258 13.6667 11.649 13.6667C11.9896 13.6667 12.2926 13.6042 12.5668 13.4901L12.5722 13.4878C12.826 13.384 13.0666 13.2173 13.3054 12.9546C13.4289 12.8184 13.5223 12.6749 13.5959 12.5191C13.6472 12.4107 13.6668 12.3098 13.6668 12.22C13.6668 12.1934 13.6637 12.1628 13.647 12.1132C13.642 12.1089 13.6346 12.1031 13.6242 12.0959L13.6193 12.0926L11.4133 10.5287C11.2876 10.444 11.199 10.3976 11.1373 10.3724L11.1293 10.3693L11.1253 10.3717L11.0961 10.3869C11.0651 10.403 10.9864 10.4547 10.86 10.581L10.8553 10.5856L10.724 10.715L10.3495 11.084C10.099 11.3327 9.76304 11.4867 9.37222 11.4867C9.23481 11.4867 9.05404 11.4712 8.85464 11.3965L8.83307 11.3884L8.81188 11.3794C8.77815 11.3649 8.74693 11.3506 8.72913 11.3425L8.72407 11.3401L8.70816 11.3329L8.66481 11.3156L8.61778 11.2908C8.30354 11.1246 7.95526 10.8756 7.57845 10.5572L7.57717 10.5561C7.19729 10.2341 6.83089 9.88877 6.46231 9.52755L6.45557 9.52095L6.44896 9.51422C6.08387 9.14267 5.74907 8.77337 5.43844 8.41495L5.4348 8.41075L5.43121 8.40652C5.11974 8.03896 4.86312 7.69275 4.6956 7.38608L4.65287 7.30787L4.62995 7.23922L4.62823 7.23515L4.62605 7.23002L4.62605 7.23001L4.62603 7.22998C4.61786 7.21075 4.60068 7.17036 4.58362 7.12493L4.56357 7.07154L4.54972 7.01622C4.51991 6.89715 4.49975 6.76822 4.49975 6.62001C4.49975 6.2741 4.62072 5.92936 4.89122 5.65455ZM8.16683 5.00001C8.16683 4.72387 8.39069 4.50001 8.66683 4.50001C9.42795 4.50001 10.1178 4.97464 10.5862 5.47942C10.8491 5.76117 11.0711 6.07683 11.2298 6.38557C11.3835 6.68439 11.5002 7.02013 11.5002 7.33334C11.5002 7.60949 11.2763 7.83334 11.0002 7.83334C10.724 7.83334 10.5002 7.60949 10.5002 7.33334C10.5002 7.24655 10.4602 7.07563 10.3405 6.84279C10.226 6.62006 10.0582 6.37927 9.85464 6.16117L9.85358 6.16003C9.46864 5.74503 9.02542 5.50001 8.66683 5.50001C8.39069 5.50001 8.16683 5.27615 8.16683 5.00001ZM8.66683 2.16668C8.39069 2.16668 8.16683 2.39053 8.16683 2.66668C8.16683 2.94282 8.39069 3.16668 8.66683 3.16668C10.9707 3.16668 12.8335 5.02949 12.8335 7.33334C12.8335 7.60949 13.0574 7.83334 13.3335 7.83334C13.6096 7.83334 13.8335 7.60949 13.8335 7.33334C13.8335 4.4772 11.523 2.16668 8.66683 2.16668Z" fill=""/>
</svg>
