<svg xmlns="http://www.w3.org/2000/svg" width="20" height="20" viewBox="0 0 20 20" fill="none">
    <path fill-rule="evenodd" clip-rule="evenodd" d="M4.64286 7.83951C4.35805 7.83951 4.09161 7.88116 3.84852 7.97045C4.4271 5.0787 6.96134 2.90124 10 2.90124C13.0387 2.90124 15.5729 5.0787 16.1515 7.97045C15.9084 7.88116 15.642 7.83951 15.3571 7.83951C14.9568 7.83951 14.5928 7.9218 14.2789 8.103C13.9626 8.28557 13.7355 8.54651 13.5775 8.8417C13.2764 9.40438 13.2143 10.1165 13.2143 10.7716V12.3148C13.2143 12.9699 13.2764 13.6821 13.5775 14.2447C13.7355 14.5399 13.9626 14.8009 14.2789 14.9834C14.5928 15.1646 14.9568 15.2469 15.3571 15.2469C15.4608 15.2469 15.562 15.2414 15.6605 15.2301C14.9893 16.2989 13.8308 17.0258 12.5 17.0936C12.5 17.0902 12.5 17.0868 12.5 17.0833C12.5 16.393 11.9404 15.8333 11.25 15.8333H10.4167C9.72631 15.8333 9.16667 16.393 9.16667 17.0833C9.16667 17.7737 9.72631 18.3333 10.4167 18.3333H10.8333H11.25H12.2959C15.1701 18.3333 17.5 15.9842 17.5 13.0864V9.2284C17.5 5.05217 14.1421 1.66667 10 1.66667C5.85786 1.66667 2.5 5.05217 2.5 9.2284V12.3148C2.5 12.9699 2.56213 13.6821 2.86322 14.2447C3.02118 14.5399 3.24827 14.8009 3.56457 14.9834C3.87849 15.1646 4.24252 15.2469 4.64286 15.2469C5.04319 15.2469 5.40722 15.1646 5.72114 14.9834C6.03744 14.8009 6.26454 14.5399 6.42249 14.2447C6.72358 13.6821 6.78572 12.9699 6.78572 12.3148V10.7716C6.78572 10.1165 6.72358 9.40438 6.42249 8.8417C6.26454 8.54651 6.03744 8.28557 5.72114 8.103C5.40722 7.9218 5.04319 7.83951 4.64286 7.83951ZM16.0591 9.42788C16.2063 9.703 16.2755 10.1482 16.2755 10.7716V12.3148C16.2755 12.9382 16.2063 13.3834 16.0591 13.6585C15.9929 13.7823 15.9166 13.8603 15.8271 13.912C15.7351 13.9651 15.5908 14.0124 15.3571 14.0124C15.1235 14.0124 14.9792 13.9651 14.8872 13.912C14.7977 13.8603 14.7214 13.7823 14.6552 13.6585C14.508 13.3834 14.4388 12.9382 14.4388 12.3148V10.7716C14.4388 10.1482 14.508 9.703 14.6552 9.42788C14.7214 9.30417 14.7977 9.22611 14.8872 9.17441C14.9792 9.12134 15.1235 9.07408 15.3571 9.07408C15.5908 9.07408 15.7351 9.12134 15.8271 9.17441C15.9166 9.22611 15.9929 9.30417 16.0591 9.42788ZM3.94088 9.42788C3.79366 9.703 3.72449 10.1482 3.72449 10.7716V12.3148C3.72449 12.9382 3.79366 13.3834 3.94088 13.6585C4.00708 13.7823 4.08338 13.8603 4.17295 13.912C4.2649 13.9651 4.40919 14.0124 4.64286 14.0124C4.87653 14.0124 5.02082 13.9651 5.11276 13.912C5.20233 13.8603 5.27864 13.7823 5.34483 13.6585C5.49205 13.3834 5.56122 12.9382 5.56122 12.3148V10.7716C5.56122 10.1482 5.49205 9.703 5.34483 9.42788C5.27864 9.30417 5.20233 9.22611 5.11276 9.17441C5.02082 9.12134 4.87653 9.07408 4.64286 9.07408C4.40919 9.07408 4.2649 9.12134 4.17295 9.17441C4.08338 9.22611 4.00708 9.30417 3.94088 9.42788Z" fill=""/>
</svg>
