<svg xmlns="http://www.w3.org/2000/svg" width="25" height="24" viewBox="0 0 25 24" fill="none">
    <path fill-rule="evenodd" clip-rule="evenodd" d="M2.50818 10.191L3.04108 17.625C3.16405 19.479 4.30158 21 7.13004 21H17.87C20.6984 21 21.8257 19.479 21.9589 17.625L22.4918 10.191C22.6353 8.247 20.8726 6.6 18.6488 6.6C18.0237 6.6 17.4498 6.285 17.1628 5.799L16.425 4.494C15.9536 3.675 14.7238 3 13.6785 3H11.3317C10.2762 3 9.04642 3.675 8.57501 4.494L7.83715 5.799C7.5502 6.285 6.97632 6.6 6.35119 6.6C4.12737 6.6 2.36471 8.247 2.50818 10.191ZM9.87681 5.23924L9.14289 6.53727L9.12882 6.56163C8.54657 7.54778 7.45486 8.1 6.35119 8.1C4.78479 8.1 3.9396 9.20645 4.00411 10.0806L4.00434 10.0837L4.53781 17.5257C4.58123 18.1804 4.79035 18.6263 5.09649 18.913C5.39879 19.1962 5.98319 19.5 7.13004 19.5H17.87C19.0163 19.5 19.5977 19.1965 19.8986 18.914C20.2046 18.6268 20.4152 18.1786 20.4628 17.5177C20.4628 17.5178 20.4628 17.5177 20.4628 17.5177L20.9959 10.0806C21.0604 9.20645 20.2152 8.1 18.6488 8.1C17.5451 8.1 16.4534 7.54778 15.8712 6.56163L15.8571 6.53727L15.1232 5.23923C15.0622 5.13554 14.8784 4.93658 14.5487 4.7567C14.2239 4.57952 13.9006 4.5 13.6785 4.5H11.3317C11.1024 4.5 10.776 4.58077 10.4512 4.75747C10.121 4.93711 9.93766 5.13583 9.87681 5.23924Z" fill=""/>
    <path fill-rule="evenodd" clip-rule="evenodd" d="M10.25 8.75C10.25 8.33579 10.5858 8 11 8H14C14.4142 8 14.75 8.33579 14.75 8.75C14.75 9.16421 14.4142 9.5 14 9.5H11C10.5858 9.5 10.25 9.16421 10.25 8.75Z" fill=""/>
    <path fill-rule="evenodd" clip-rule="evenodd" d="M12.5 16.5C13.4616 16.5 14.25 15.7116 14.25 14.75C14.25 13.7884 13.4616 13 12.5 13C11.5384 13 10.75 13.7884 10.75 14.75C10.75 15.7116 11.5384 16.5 12.5 16.5ZM15.75 14.75C15.75 16.54 14.29 18 12.5 18C10.71 18 9.25 16.54 9.25 14.75C9.25 12.96 10.71 11.5 12.5 11.5C14.29 11.5 15.75 12.96 15.75 14.75Z" fill=""/>
</svg>
