<svg xmlns="http://www.w3.org/2000/svg" width="20" height="20" viewBox="0 0 20 20" fill="none">
    <path fill-rule="evenodd" clip-rule="evenodd" d="M12.4998 17.0833H7.49984C5.53979 17.0833 4.49294 16.6837 3.90455 16.0953C3.31617 15.5069 2.9165 14.46 2.9165 12.5V7.49999C2.9165 5.53994 3.31617 4.49309 3.90455 3.90471C4.49294 3.31632 5.53979 2.91666 7.49984 2.91666H12.4998C14.4599 2.91666 15.5067 3.31632 16.0951 3.90471C16.6835 4.49309 17.0832 5.53994 17.0832 7.49999V12.5C17.0832 14.46 16.6835 15.5069 16.0951 16.0953C15.5067 16.6837 14.4599 17.0833 12.4998 17.0833ZM7.49984 18.3333H12.4998C16.6665 18.3333 18.3332 16.6667 18.3332 12.5V7.49999C18.3332 3.33332 16.6665 1.66666 12.4998 1.66666H7.49984C3.33317 1.66666 1.6665 3.33332 1.6665 7.49999V12.5C1.6665 16.6667 3.33317 18.3333 7.49984 18.3333ZM9.33579 6.04166C8.58219 6.04166 7.70817 6.54611 7.70817 7.45833V9.37499H6.58514C5.81912 9.37499 5.20817 9.99954 5.20817 10.7588V14.1667C5.20817 14.5118 5.48799 14.7917 5.83317 14.7917H8.33317H11.6665H14.1665C14.5117 14.7917 14.7915 14.5118 14.7915 14.1667V11.6685L14.7914 11.6596C14.781 10.9281 14.2327 10.2083 13.4145 10.2083H12.2915V7.45833C12.2915 6.55226 11.434 6.04166 10.6727 6.04166H9.33579ZM11.0415 10.8333V13.5417H8.95817V9.99999V7.45833C8.95817 7.45833 8.95781 7.45459 8.96293 7.44502C8.96894 7.4338 8.98348 7.41307 9.01402 7.38895C9.0769 7.3393 9.18848 7.29166 9.33579 7.29166H10.6727C10.8195 7.29166 10.9275 7.33897 10.9871 7.38665C11.0162 7.40988 11.0302 7.42999 11.0361 7.44128C11.0414 7.4513 11.0415 7.45603 11.0415 7.45833V10.8333ZM13.5415 13.5417H12.2915V11.4583H13.4145C13.4209 11.4583 13.4446 11.4602 13.4769 11.496C13.5096 11.5323 13.5396 11.5938 13.5415 11.6741V13.5417ZM7.70817 13.5417V10.625H6.58514C6.52003 10.625 6.45817 10.6793 6.45817 10.7588V13.5417H7.70817Z" fill=""/>
</svg>
