<svg width="24" height="24" viewBox="0 0 24 24" fill="none" xmlns="http://www.w3.org/2000/svg">
<path fill-rule="evenodd" clip-rule="evenodd" d="M13.6895 21.2049L18.1895 17.9945C18.8344 17.5339 19.4044 16.7199 19.7253 15.8827C19.898 15.4324 19.5306 15 19.0483 15V15C18.6879 15 18.3792 15.2484 18.2276 15.5754C18.2006 15.6335 18.1715 15.6924 18.1402 15.7519C17.89 16.2273 17.5768 16.5888 17.3177 16.7739L12.8184 19.9838L12.8143 19.9867C12.3803 20.2985 11.7277 20.5 11 20.5C10.2723 20.5 9.61969 20.2985 9.18568 19.9867L4.68229 16.7739C4.42321 16.5888 4.11 16.2273 3.85978 15.7519C3.60787 15.2733 3.5 14.8321 3.5 14.5541V7.12314C3.5 6.89803 3.6011 6.55442 3.85641 6.20253C4.10941 5.85381 4.42505 5.62067 4.69196 5.52529L9.91355 3.64523L9.91512 3.64467C10.1377 3.56556 10.5267 3.5 10.9922 3.5C11.4537 3.5 11.8518 3.5645 12.092 3.64724L17.308 5.51529C17.5747 5.61059 17.89 5.84342 18.1426 6.19246C18.184 6.24963 18.2214 6.30666 18.255 6.36308C18.455 6.6994 18.7841 7 19.1754 7V7C19.6219 7 19.9806 6.61903 19.8297 6.19878C19.4978 5.27475 18.7174 4.42601 17.8128 4.10276L12.5907 2.23253C11.7012 1.92249 10.2779 1.92249 9.4093 2.23253L4.18721 4.11276C2.98372 4.54282 2 5.90299 2 7.12314V14.5541C2 15.7342 2.81628 17.2844 3.81046 17.9945L8.31046 21.2049C9.78605 22.265 12.214 22.265 13.6895 21.2049Z" fill="#1B1D29"/>
<path fill-rule="evenodd" clip-rule="evenodd" d="M12.5 10.75V12.9376C12.5 13.1793 12.5132 13.3388 12.5284 13.4408C12.5291 13.4409 12.5298 13.441 12.5305 13.4412C12.707 13.4764 12.9885 13.501 13.4384 13.5L13.442 13.5L19.558 13.5C20.008 13.5 20.2898 13.4747 20.4665 13.439C20.4681 13.4387 20.4697 13.4384 20.4713 13.4381C20.4867 13.3361 20.5 13.1762 20.5 12.9329V10.75H12.5ZM20.5 9.25H12.5V9.06709C12.5 8.82378 12.5133 8.66386 12.5287 8.56188C12.5303 8.56156 12.5319 8.56125 12.5335 8.56093C12.7102 8.52525 12.992 8.5 13.442 8.5H19.5525C20.0041 8.5 20.2871 8.52526 20.4649 8.56106C20.4671 8.5615 20.4692 8.56193 20.4713 8.56236C20.4867 8.66421 20.5 8.82397 20.5 9.06709V9.25ZM20.5971 8.5973C20.5971 8.5973 20.5969 8.5972 20.5965 8.59698ZM13.25 12C13.25 11.5858 13.5858 11.25 14 11.25H15C15.4142 11.25 15.75 11.5858 15.75 12C15.75 12.4142 15.4142 12.75 15 12.75H14C13.5858 12.75 13.25 12.4142 13.25 12ZM13.442 15H19.558C21.5105 15 22 14.5856 22 12.9329V9.06709C22 7.41436 21.5105 7 19.5525 7H13.442C11.4895 7 11 7.41436 11 9.06709V12.9376C11 14.5903 11.4895 15.0047 13.442 15Z" fill="#1B1D29"/>
</svg>
