<svg width="20" height="20" viewBox="0 0 20 20" fill="none" xmlns="http://www.w3.org/2000/svg">
<path fill-rule="evenodd" clip-rule="evenodd" d="M9.41828 3.88306L3.88494 9.41639C2.98902 10.3123 2.91714 10.6483 2.91667 10.7478C2.91624 10.8389 2.97524 11.1512 3.79728 11.9855L11.9874 3.7954C11.1558 2.97621 10.8413 2.91731 10.7485 2.9179C10.6459 2.91854 10.3086 2.99271 9.41828 3.88306ZM7.95161 16.1403L4.68094 12.8696L12.8715 4.67905L16.1422 7.94972C17.021 8.8286 17.0829 9.15666 17.0823 9.2517C17.0817 9.35428 17.0075 9.69161 16.1172 10.582L10.5838 16.1153C9.6935 17.0056 9.35617 17.0798 9.25359 17.0804C9.15854 17.081 8.83048 17.0192 7.95161 16.1403ZM8.53439 2.99917L3.00106 8.53251C1.22606 10.3075 1.22606 11.1825 2.97606 12.9325L7.06772 17.0242C7.08768 17.0441 7.10751 17.0638 7.12724 17.0833H2.2876C1.94242 17.0833 1.6626 17.3632 1.6626 17.7083C1.6626 18.0535 1.94242 18.3333 2.2876 18.3333H17.7122C18.0574 18.3333 18.3372 18.0535 18.3372 17.7083C18.3372 17.3632 18.0574 17.0833 17.7122 17.0833H11.3829C11.4109 17.0557 11.4392 17.0277 11.4677 16.9992L17.0011 11.4658C18.7677 9.69917 18.7761 8.81584 17.0261 7.06584L12.9344 2.97417C11.1844 1.22417 10.3011 1.23251 8.53439 2.99917ZM11.5925 12.8914C11.8366 13.1354 11.8366 13.5312 11.5925 13.7753L9.92601 15.4419C9.68195 15.686 9.28622 15.686 9.04213 15.442C8.79804 15.1979 8.79802 14.8022 9.04209 14.5581L10.7086 12.8914C10.9527 12.6473 11.3484 12.6473 11.5925 12.8914ZM13.3586 12.1086C13.6027 11.8645 13.6027 11.4688 13.3586 11.2247C13.1145 10.9807 12.7188 10.9807 12.4747 11.2247L12.0581 11.6414C11.814 11.8855 11.814 12.2812 12.0581 12.5253C12.3021 12.7694 12.6979 12.7694 12.9419 12.5253L13.3586 12.1086Z" fill="#1B1D29"/>
</svg>
