<svg xmlns="http://www.w3.org/2000/svg" width="28" height="28" viewBox="0 0 28 28" fill="none">
  <path fill-rule="evenodd" clip-rule="evenodd" d="M23.4766 10.3061L17.6922 4.52291C16.5944 3.42624 15.2877 2.86857 13.8947 2.91991C12.5484 2.96774 11.2499 3.58141 10.1404 4.69091L4.68974 10.1404C2.38208 12.4493 2.31441 15.4861 4.52291 17.6934L10.3072 23.4766C11.3607 24.5313 12.6114 25.0831 13.9356 25.0831C13.9916 25.0831 14.0476 25.0819 14.1047 25.0808C15.4511 25.0329 16.7507 24.4204 17.8602 23.3109L23.3109 17.8603C25.6186 15.5514 25.6851 12.5158 23.4766 10.3061Z" fill="#3A9EFC"/>
  <path fill-rule="evenodd" clip-rule="evenodd" d="M18.8656 13.2057L16.3118 15.7479C16.1415 15.9171 15.9175 16.0022 15.6946 16.0022C15.4695 16.0022 15.2455 15.9171 15.074 15.7456C14.7333 15.4026 14.7345 14.8484 15.0763 14.5077L16.1286 13.4612H12.6473C12.113 13.4612 11.679 13.8952 11.679 14.4296V17.9529C11.679 18.4359 11.287 18.8279 10.804 18.8279C10.321 18.8279 9.92896 18.4359 9.92896 17.9529V14.4296C9.92896 12.9304 11.1481 11.7112 12.6473 11.7112H16.131L15.0763 10.6601C14.7345 10.3194 14.7333 9.76524 15.074 9.4234C15.4158 9.07924 15.97 9.08157 16.3118 9.42107L18.8656 11.9667C18.9298 12.0297 18.9718 12.1079 19.0126 12.1849C19.0243 12.2071 19.0441 12.2234 19.0535 12.2456C19.0978 12.3529 19.1235 12.4684 19.1235 12.5862C19.1235 12.7041 19.099 12.8184 19.0535 12.9257C19.0371 12.9631 19.0068 12.9911 18.987 13.0249C18.9496 13.0879 18.9181 13.1532 18.8656 13.2057Z" fill="white"/>
</svg>