<svg width="91" height="80" viewBox="0 0 108 96" fill="none" xmlns="http://www.w3.org/2000/svg">
<g filter="url(#filter0_d_1032_5887)">
<path d="M81.8967 14.3205H55.9707V4H89.9556C90.0181 4 90.0806 4 90.143 4C95.4532 4.13147 99.7638 8.73295 99.7638 14.3205H88.5188" fill="#CCD4E2"/>
<path d="M90.8949 4C88.8958 4.13147 87.0216 4.98603 85.7097 6.43221C85.5848 6.56368 85.4598 6.69515 85.3349 6.89236C84.1479 8.33854 83.2733 10.2449 83.2733 12.2827V73.6795C83.2733 79.3985 78.9002 84 73.4651 84H25.7363V11.8225C25.8613 9.71898 26.6109 7.81265 27.9229 6.43221C29.3597 4.9203 31.2964 4 33.4829 4H81.5241H90.645C90.7075 4 90.77 4 90.8949 4Z" fill="url(#paint0_linear_1032_5887)"/>
<path d="M52.4735 75.8489H65.0929C65.0929 78.0839 65.9675 80.1217 67.3419 81.5679C68.7163 83.0798 70.653 83.9343 72.777 83.9343H15.9898C13.8657 83.9343 11.9291 83.014 10.5547 81.5679C9.18028 80.1217 8.30566 78.0839 8.30566 75.8489H45.6641C45.6641 75.8489 52.5985 75.9146 52.4735 75.8489Z" fill="#CCD4E2"/>
<rect x="35.2197" y="33.8052" width="5.56815" height="2.9203" rx="1.46015" fill="#D4DBEC"/>
<rect x="41.7158" y="18.23" width="23.2006" height="2.9203" rx="1.46015" fill="#D4DBEC"/>
<rect x="35.2197" y="47.4331" width="5.56815" height="2.9203" rx="1.46015" fill="#D4DBEC"/>
<rect x="35.2197" y="40.6191" width="5.56815" height="2.9203" rx="1.46015" fill="#D4DBEC"/>
<rect x="35.2197" y="54.2473" width="5.56815" height="2.9203" rx="1.46015" fill="#D4DBEC"/>
<rect x="49.1387" y="33.8052" width="19.4885" height="2.9203" rx="1.46015" fill="#B3BFD3"/>
<rect x="49.1387" y="47.4331" width="19.4885" height="2.9203" rx="1.46015" fill="#B3BFD3"/>
<rect x="49.1387" y="40.6191" width="21.3446" height="2.9203" rx="1.46015" fill="#B3BFD3"/>
<rect x="49.1387" y="54.2473" width="23.2006" height="2.9203" rx="1.46015" fill="#B3BFD3"/>
</g>
<defs>
<filter id="filter0_d_1032_5887" x="0.305664" y="0" width="107.459" height="96" filterUnits="userSpaceOnUse" color-interpolation-filters="sRGB">
<feFlood flood-opacity="0" result="BackgroundImageFix"/>
<feColorMatrix in="SourceAlpha" type="matrix" values="0 0 0 0 0 0 0 0 0 0 0 0 0 0 0 0 0 0 127 0" result="hardAlpha"/>
<feOffset dy="4"/>
<feGaussianBlur stdDeviation="4"/>
<feComposite in2="hardAlpha" operator="out"/>
<feColorMatrix type="matrix" values="0 0 0 0 0.396078 0 0 0 0 0.478431 0 0 0 0 0.576471 0 0 0 0.1 0"/>
<feBlend mode="normal" in2="BackgroundImageFix" result="effect1_dropShadow_1032_5887"/>
<feBlend mode="normal" in="SourceGraphic" in2="effect1_dropShadow_1032_5887" result="shape"/>
</filter>
<linearGradient id="paint0_linear_1032_5887" x1="25.6563" y1="-10" x2="82.1737" y2="139.779" gradientUnits="userSpaceOnUse">
<stop stop-color="#FDFEFF"/>
<stop offset="0.9964" stop-color="#ECF0F5"/>
</linearGradient>
</defs>
</svg>
