<svg xmlns="http://www.w3.org/2000/svg" width="20" height="20" viewBox="0 0 20 20" fill="none">
  <path fill-rule="evenodd" clip-rule="evenodd" d="M1.6665 12.3259C1.6665 16.5352 3.46495 18.3337 7.67426 18.3337H12.3254C16.5347 18.3337 18.3332 16.5352 18.3332 12.3259V7.67474C18.3332 3.46544 16.5347 1.66699 12.3254 1.66699H7.67426C3.46495 1.66699 1.6665 3.46544 1.6665 7.67474V12.3259ZM9.96139 12.7158C9.97411 12.7166 9.98693 12.717 9.99984 12.717C10.027 12.717 10.0538 12.7153 10.0801 12.7119C10.1482 12.7032 10.2152 12.6834 10.2785 12.6517C10.349 12.6166 10.4121 12.5686 10.4645 12.5106L12.9415 10.0336C13.1831 9.79195 13.1831 9.39195 12.9415 9.15028C12.6998 8.90862 12.2998 8.90862 12.0581 9.15028L10.6248 10.5836V5.42533C10.6248 5.08367 10.3415 4.80033 9.99984 4.80033C9.65817 4.80033 9.37484 5.08367 9.37484 5.42533V10.5837L7.94145 9.15028C7.69979 8.90862 7.29979 8.90862 7.05812 9.15028C6.81646 9.39195 6.81646 9.79195 7.05812 10.0336L9.55812 12.5336C9.67301 12.6485 9.81606 12.7071 9.96139 12.7158ZM9.99979 15.192C8.24146 15.192 6.47479 14.9087 4.79979 14.3504C4.47479 14.242 4.29979 13.8837 4.40812 13.5587C4.51646 13.2337 4.86646 13.0504 5.19979 13.167C8.29979 14.2004 11.7081 14.2004 14.8081 13.167C15.1331 13.0587 15.4915 13.2337 15.5998 13.5587C15.7081 13.8837 15.5331 14.242 15.2081 14.3504C13.5248 14.917 11.7581 15.192 9.99979 15.192Z" fill="color"/>
</svg>