<svg width="20" height="20" viewBox="0 0 20 20" fill="none" xmlns="http://www.w3.org/2000/svg">
<path fill-rule="evenodd" clip-rule="evenodd" d="M10.625 3.125C10.625 2.77982 10.3452 2.5 9.99998 2.5C9.6548 2.5 9.37498 2.77982 9.37498 3.125V11.633L6.68541 8.94343C6.44133 8.69936 6.04561 8.69936 5.80153 8.94343C5.55745 9.18751 5.55745 9.58324 5.80153 9.82732L9.55779 13.5836C9.62609 13.6519 9.70626 13.7011 9.79166 13.7311C9.85682 13.7542 9.92694 13.7667 9.99998 13.7667C10.1785 13.7667 10.3396 13.6918 10.4535 13.5717L14.1979 9.82732C14.442 9.58324 14.442 9.18751 14.1979 8.94343C13.9539 8.69936 13.5581 8.69936 13.3141 8.94343L10.625 11.6325V3.125Z" fill="color"/>
<path fill-rule="evenodd" clip-rule="evenodd" d="M7.41982 16.25H12.5545C14.5673 16.25 15.6424 15.8503 16.2466 15.2619C16.5681 14.9489 16.8347 14.506 17.0139 13.8649C17.0987 13.5613 17.3632 13.3333 17.6784 13.3333C18.0757 13.3333 18.3836 13.6886 18.2845 14.0734C17.6623 16.489 15.887 17.5 12.5545 17.5H7.41982C4.08727 17.5 2.31202 16.489 1.68978 14.0734C1.59068 13.6886 1.89857 13.3333 2.29586 13.3333C2.61107 13.3333 2.87563 13.5613 2.96045 13.8649C3.13959 14.506 3.40621 14.9489 3.7277 15.2619C4.33193 15.8503 5.40698 16.25 7.41982 16.25Z" fill="color"/>
</svg>
