<svg xmlns="http://www.w3.org/2000/svg" width="24" height="24" viewBox="0 0 24 24" fill="none">
  <path d="M14.841 11.5246L6.75586 10.0996V20.6289C6.75586 21.1098 7.14616 21.4996 7.62762 21.4996H21.5787C22.0602 21.4996 22.4505 21.1098 22.4505 20.6289V16.7496L14.841 11.5246Z" fill="#185C37"/>
  <path d="M14.841 2.5H7.62762C7.14616 2.5 6.75586 2.88981 6.75586 3.37067V7.25L14.841 12L19.1213 13.425L22.4505 12V7.25L14.841 2.5Z" fill="#21A366"/>
  <path d="M6.75586 7.25H14.841V12H6.75586V7.25Z" fill="#107C41"/>
  <path opacity="0.1" d="M12.5424 6.2998H6.75586V18.1748H12.5424C13.0232 18.1732 13.4126 17.7843 13.4142 17.3041V7.17048C13.4126 6.69027 13.0232 6.30137 12.5424 6.2998Z" fill="black"/>
  <path opacity="0.2" d="M12.0668 6.77539H6.75586V18.6504H12.0668C12.5476 18.6488 12.937 18.2599 12.9386 17.7797V7.64606C12.937 7.16585 12.5476 6.77695 12.0668 6.77539Z" fill="black"/>
  <path opacity="0.2" d="M12.0668 6.77539H6.75586V17.7004H12.0668C12.5476 17.6988 12.937 17.3099 12.9386 16.8297V7.64606C12.937 7.16585 12.5476 6.77695 12.0668 6.77539Z" fill="black"/>
  <path opacity="0.2" d="M11.5912 6.77539H6.75586V17.7004H11.5912C12.072 17.6988 12.4614 17.3099 12.463 16.8297V7.64606C12.4614 7.16585 12.072 6.77695 11.5912 6.77539Z" fill="black"/>
  <path d="M2.87176 6.77539H11.5913C12.0728 6.77539 12.4631 7.1652 12.4631 7.64606V16.3547C12.4631 16.8356 12.0728 17.2254 11.5913 17.2254H2.87176C2.3903 17.2254 2 16.8356 2 16.3547V7.64606C2 7.1652 2.3903 6.77539 2.87176 6.77539Z" fill="url(#paint0_linear_4019_11390)"/>
  <path d="M4.69971 14.8305L6.5336 11.9924L4.85333 9.16992H6.20496L7.12191 10.9749C7.20657 11.1464 7.26459 11.2737 7.29598 11.3578H7.30787C7.36714 11.223 7.43058 11.0901 7.4981 10.9592L8.4783 9.17088H9.71913L7.99605 11.9767L9.76289 14.8305H8.44264L7.38349 12.8493C7.3336 12.765 7.29127 12.6764 7.25698 12.5847H7.24129C7.21027 12.6746 7.1691 12.7606 7.11858 12.8412L6.02805 14.8305H4.69971Z" fill="white"/>
  <path d="M21.5786 2.5H14.8408V7.25H22.4503V3.37067C22.4503 2.88981 22.06 2.5 21.5786 2.5Z" fill="#33C481"/>
  <path d="M14.8408 12H22.4503V16.75H14.8408V12Z" fill="#107C41"/>
  <defs>
    <linearGradient id="paint0_linear_4019_11390" x1="3.81765" y1="6.09507" x2="10.6326" y2="17.9131" gradientUnits="userSpaceOnUse">
      <stop stop-color="#18884F"/>
      <stop offset="0.5" stop-color="#117E43"/>
      <stop offset="1" stop-color="#0B6631"/>
    </linearGradient>
  </defs>
</svg>