<svg xmlns="http://www.w3.org/2000/svg" width="16" height="16" viewBox="0 0 16 16" fill="none">
  <path d="M4.66144 6.45659C4.49652 6.2351 4.18328 6.18924 3.96179 6.35416C3.74031 6.51908 3.69445 6.83232 3.85937 7.05381L4.56036 7.99525L3.86004 8.93579C3.69512 9.15727 3.74097 9.47052 3.96246 9.63543C4.18395 9.80035 4.49719 9.7545 4.66211 9.53301L5.18375 8.83245L5.70538 9.53301C5.8703 9.7545 6.18355 9.80035 6.40503 9.63543C6.62652 9.47052 6.67238 9.15727 6.50746 8.93579L5.80713 7.99525L6.50812 7.05381C6.67304 6.83232 6.62719 6.51908 6.4057 6.35416C6.18421 6.18924 5.87097 6.2351 5.70605 6.45659L5.18375 7.15804L4.66144 6.45659Z" fill=""/>
  <path fill-rule="evenodd" clip-rule="evenodd" d="M6.97414 1.88281C6.31771 1.88281 5.74754 2.11824 5.34381 2.55056C4.94369 2.97901 4.74349 3.56124 4.74349 4.19489V4.2526H3.72521C3.07103 4.2526 2.50204 4.48746 2.09904 4.91987C1.69968 5.34837 1.5 5.93092 1.5 6.56604V9.4328C1.5 10.0674 1.69869 10.65 2.09783 11.0787C2.50073 11.5115 3.06996 11.7462 3.72521 11.7462H4.74349V11.8029C4.74349 12.4366 4.94369 13.0188 5.34381 13.4473C5.74754 13.8796 6.31771 14.115 6.97414 14.115H12.2746C12.9312 14.115 13.5003 13.8794 13.9025 13.4462C14.3008 13.0173 14.4985 12.4352 14.4985 11.8029V10.6837C14.4992 10.6725 14.4996 10.6612 14.4996 10.6497C14.4996 10.6383 14.4992 10.627 14.4985 10.6157V5.38103C14.4991 5.37043 14.4995 5.35973 14.4995 5.34896C14.4995 5.33818 14.4991 5.32749 14.4985 5.31688V4.19489C14.4985 3.56261 14.3008 2.98052 13.9025 2.55159C13.5003 2.11843 12.9312 1.88281 12.2746 1.88281H6.97414ZM13.4985 4.19489V4.84896H11.3125V2.88281H12.2746C12.6835 2.88281 12.9764 3.02386 13.1697 3.23205C13.367 3.44448 13.4985 3.76843 13.4985 4.19489ZM13.4985 5.84896H11.3125V7.4974H13.4985V5.84896ZM10.3125 2.88281V4.84896H8.32557C7.92792 4.46163 7.38613 4.2526 6.76773 4.2526H5.74349V4.19489C5.74349 3.7698 5.87585 3.44599 6.07467 3.23309C6.26988 3.02405 6.56503 2.88281 6.97414 2.88281H10.3125ZM10.3125 5.84896H8.90099C8.96232 6.07587 8.99293 6.31695 8.99293 6.56604V7.4974H10.3125V5.84896ZM13.4985 8.4974V10.1497H11.4179C11.3595 10.1497 11.3125 10.1029 11.3125 10.0443V8.4974H13.4985ZM8.99293 8.4974V9.4328C8.99293 10.0674 8.79424 10.65 8.3951 11.0787C7.9922 11.5115 7.42297 11.7462 6.76773 11.7462H5.74349V11.8029C5.74349 12.228 5.87584 12.5518 6.07467 12.7647C6.26988 12.9738 6.56503 13.115 6.97414 13.115H12.2746C12.6835 13.115 12.9764 12.974 13.1697 12.7658C13.367 12.5533 13.4985 12.2294 13.4985 11.8029V11.1497H11.4179C10.8071 11.1497 10.3125 10.655 10.3125 10.0443V8.4974H8.99293ZM2.5 6.56604C2.5 6.13834 2.63253 5.81417 2.83059 5.60166C3.02499 5.39306 3.3186 5.2526 3.72521 5.2526H6.76773C7.17596 5.2526 7.46933 5.39324 7.66317 5.60145C7.86076 5.81371 7.99293 6.13781 7.99293 6.56604V9.4328C7.99293 9.86102 7.86076 10.1851 7.66317 10.3974C7.46934 10.6056 7.17596 10.7462 6.76773 10.7462H3.72521C3.31696 10.7462 3.02359 10.6056 2.82976 10.3974C2.63217 10.1851 2.5 9.86102 2.5 9.4328V6.56604Z" fill=""/>
</svg>