<svg width="328" height="128" viewBox="0 0 328 128" fill="none" xmlns="http://www.w3.org/2000/svg">
<g filter="url(#filter0_d_213_4452)">
<path d="M202.586 57.6597V91.3193C202.586 98.3123 197.135 104 190.344 104H133.689C126.986 104 121.535 98.4055 121.446 91.4125C121.446 91.3193 121.446 91.3193 121.446 91.2261V57.6597C121.446 57.5664 121.446 57.5664 121.446 57.4732C121.446 57.2867 121.446 57.1002 121.535 56.9137C121.625 56.634 121.714 56.4475 121.803 56.1678L136.995 25.8648C137.531 24.6527 138.693 24 139.944 24H183.999C185.25 24 186.323 24.6527 186.948 25.8648L202.14 56.1678C202.229 56.3543 202.318 56.634 202.408 56.9137C202.586 57.1002 202.586 57.3799 202.586 57.6597Z" fill="#D5DDEA"/>
<path d="M202.586 57.6595V94.769C202.586 99.8972 198.655 104 193.65 104H130.382C125.467 104 121.446 99.8972 121.446 94.769V57.473C121.446 57.2865 121.446 57.1001 121.535 56.9136H141.91C144.948 56.9136 147.45 59.4311 147.45 62.6945C147.45 64.2795 148.076 65.7714 149.059 66.797C150.131 67.9159 151.382 68.4753 152.991 68.4753H171.131C174.169 68.4753 176.672 65.9579 176.672 62.6945C176.672 61.1094 177.297 59.6175 178.28 58.5919C179.352 57.473 180.604 56.9136 182.123 56.9136H202.408C202.586 57.1001 202.586 57.3798 202.586 57.6595Z" fill="url(#paint0_linear_213_4452)"/>
<path d="M151.821 81.8643C152.953 81.8643 153.871 80.9066 153.871 79.7251C153.871 78.5437 152.953 77.5859 151.821 77.5859C150.688 77.5859 149.77 78.5437 149.77 79.7251C149.77 80.9066 150.688 81.8643 151.821 81.8643Z" fill="#989FB0"/>
<path d="M172.212 81.8643C173.344 81.8643 174.262 80.9066 174.262 79.7251C174.262 78.5437 173.344 77.5859 172.212 77.5859C171.08 77.5859 170.162 78.5437 170.162 79.7251C170.162 80.9066 171.08 81.8643 172.212 81.8643Z" fill="#989FB0"/>
<path d="M165.341 95.9135H158.913C157.916 95.9135 157.085 95.0463 157.085 94.0056C157.085 92.9649 157.916 92.0977 158.913 92.0977H165.286C166.283 92.0977 167.114 92.9649 167.114 94.0056C167.17 95.0463 166.338 95.9135 165.341 95.9135Z" fill="#989FB0"/>
<path d="M216.729 68.9849C216.199 68.4544 216.199 67.5944 216.729 67.0639C217.26 66.5334 218.12 66.5334 218.65 67.0639L231.777 80.1909C232.308 80.7213 232.308 81.5814 231.777 82.1119C231.247 82.6424 230.387 82.6424 229.856 82.1119L216.729 68.9849Z" fill="#848B9B"/>
<circle cx="204.883" cy="55.2173" r="17.3529" transform="rotate(-45 204.883 55.2173)" stroke="#A1AABB" stroke-width="2.42278"/>
</g>
<defs>
<filter id="filter0_d_213_4452" x="115.446" y="22" width="122.729" height="92" filterUnits="userSpaceOnUse" color-interpolation-filters="sRGB">
<feFlood flood-opacity="0" result="BackgroundImageFix"/>
<feColorMatrix in="SourceAlpha" type="matrix" values="0 0 0 0 0 0 0 0 0 0 0 0 0 0 0 0 0 0 127 0" result="hardAlpha"/>
<feOffset dy="4"/>
<feGaussianBlur stdDeviation="3"/>
<feComposite in2="hardAlpha" operator="out"/>
<feColorMatrix type="matrix" values="0 0 0 0 0.396078 0 0 0 0 0.478431 0 0 0 0 0.576471 0 0 0 0.1 0"/>
<feBlend mode="normal" in2="BackgroundImageFix" result="effect1_dropShadow_213_4452"/>
<feBlend mode="normal" in="SourceGraphic" in2="effect1_dropShadow_213_4452" result="shape"/>
</filter>
<linearGradient id="paint0_linear_213_4452" x1="161.99" y1="55.8244" x2="161.99" y2="104.507" gradientUnits="userSpaceOnUse">
<stop stop-color="#FDFEFF"/>
<stop offset="0.9964" stop-color="#ECF0F5"/>
</linearGradient>
</defs>
</svg>
