<svg width="108" height="96" viewBox="0 0 108 96" fill="none" xmlns="http://www.w3.org/2000/svg">
<g filter="url(#filter0_d_4438_33116)">
<path d="M81.9655 14.3205H55.9602V4H90.049C90.1117 4 90.1744 4 90.237 4C95.5634 4.13147 99.8872 8.73295 99.8872 14.3205H88.6078" fill="#CCD4E2"/>
<path d="M90.9907 4C88.9854 4.13147 87.1055 4.98603 85.7896 6.43221C85.6643 6.56368 85.5389 6.69515 85.4136 6.89236C84.223 8.33854 83.3457 10.2449 83.3457 12.2827V73.6795C83.3457 79.3985 78.9593 84 73.5076 84H25.6328V11.8225C25.7581 9.71898 26.5101 7.81265 27.826 6.43221C29.2673 4.9203 31.2098 4 33.4031 4H81.5912H90.74C90.8027 4 90.8653 4 90.9907 4Z" fill="url(#paint0_linear_4438_33116)"/>
<path d="M52.4521 75.8489H65.1101C65.1101 78.0839 65.9874 80.1217 67.366 81.5679C68.7446 83.0798 70.6871 83.9343 72.8177 83.9343H15.8568C13.7262 83.9343 11.7836 83.014 10.405 81.5679C9.02646 80.1217 8.14917 78.0839 8.14917 75.8489H45.6218C45.6218 75.8489 52.5774 75.9146 52.4521 75.8489Z" fill="#CCD4E2"/>
<rect x="35.1453" y="33.8052" width="5.58518" height="2.9203" rx="1.46015" fill="#D4DBEC"/>
<rect x="41.6611" y="18.23" width="23.2716" height="2.9203" rx="1.46015" fill="#D4DBEC"/>
<rect x="35.1453" y="47.4331" width="5.58518" height="2.9203" rx="1.46015" fill="#D4DBEC"/>
<rect x="35.1453" y="40.6191" width="5.58518" height="2.9203" rx="1.46015" fill="#D4DBEC"/>
<rect x="35.1453" y="54.2473" width="5.58518" height="2.9203" rx="1.46015" fill="#D4DBEC"/>
<rect x="49.1067" y="33.8052" width="19.5481" height="2.9203" rx="1.46015" fill="#B3BFD3"/>
<rect x="49.1067" y="47.4331" width="19.5481" height="2.9203" rx="1.46015" fill="#B3BFD3"/>
<rect x="49.1067" y="40.6191" width="21.4098" height="2.9203" rx="1.46015" fill="#B3BFD3"/>
<rect x="49.1067" y="54.2473" width="23.2716" height="2.9203" rx="1.46015" fill="#B3BFD3"/>
</g>
<defs>
<filter id="filter0_d_4438_33116" x="0.14917" y="0" width="107.738" height="96" filterUnits="userSpaceOnUse" color-interpolation-filters="sRGB">
<feFlood flood-opacity="0" result="BackgroundImageFix"/>
<feColorMatrix in="SourceAlpha" type="matrix" values="0 0 0 0 0 0 0 0 0 0 0 0 0 0 0 0 0 0 127 0" result="hardAlpha"/>
<feOffset dy="4"/>
<feGaussianBlur stdDeviation="4"/>
<feComposite in2="hardAlpha" operator="out"/>
<feColorMatrix type="matrix" values="0 0 0 0 0.396078 0 0 0 0 0.478431 0 0 0 0 0.576471 0 0 0 0.1 0"/>
<feBlend mode="normal" in2="BackgroundImageFix" result="effect1_dropShadow_4438_33116"/>
<feBlend mode="normal" in="SourceGraphic" in2="effect1_dropShadow_4438_33116" result="shape"/>
</filter>
<linearGradient id="paint0_linear_4438_33116" x1="25.5525" y1="-10" x2="81.9404" y2="139.893" gradientUnits="userSpaceOnUse">
<stop stop-color="#FDFEFF"/>
<stop offset="0.9964" stop-color="#ECF0F5"/>
</linearGradient>
</defs>
</svg>
