<svg width="109" height="79" viewBox="0 0 109 79" fill="none" xmlns="http://www.w3.org/2000/svg">
<g filter="url(#filter0_d_596_7248)">
<path d="M75.535 32.507V59.014C75.535 64.5209 71.0309 69 65.4193 69H18.6068C13.0691 69 8.56505 64.5944 8.49121 59.0874C8.49121 59.014 8.49121 59.014 8.49121 58.9405V32.507C8.49121 32.4335 8.49121 32.4335 8.49121 32.3601C8.49121 32.2133 8.49121 32.0664 8.56505 31.9196C8.63888 31.6993 8.71272 31.5524 8.78656 31.3322L21.3388 7.46853C21.7818 6.51399 22.7417 6 23.7754 6H60.1769C61.2106 6 62.0967 6.51399 62.6135 7.46853L75.1658 31.3322C75.2396 31.479 75.3134 31.6993 75.3873 31.9196C75.535 32.0664 75.535 32.2867 75.535 32.507Z" fill="#D5DDEA"/>
<path d="M77 29.6337V61.1584C77 65.5149 73.5595 69 69.1806 69H13.8194C9.51872 69 6 65.5149 6 61.1584V29.4752C6 29.3168 6 29.1584 6.07819 29H23.9064C26.565 29 28.7544 31.1386 28.7544 33.9109C28.7544 35.2574 29.3018 36.5248 30.1619 37.396C31.1002 38.3465 32.1949 38.8218 33.6024 38.8218H49.4758C52.1344 38.8218 54.3238 36.6832 54.3238 33.9109C54.3238 32.5644 54.8711 31.297 55.7313 30.4257C56.6696 29.4752 57.7643 29 59.0936 29H76.8436C77 29.1584 77 29.396 77 29.6337Z" fill="url(#paint0_linear_596_7248)"/>
<path d="M31.4882 49.9081C32.5129 49.9081 33.3436 49.0821 33.3436 48.0631C33.3436 47.0441 32.5129 46.218 31.4882 46.218C30.4635 46.218 29.6328 47.0441 29.6328 48.0631C29.6328 49.0821 30.4635 49.9081 31.4882 49.9081Z" fill="#989FB0"/>
<path d="M49.9413 49.9081C50.966 49.9081 51.7967 49.0821 51.7967 48.0631C51.7967 47.0441 50.966 46.218 49.9413 46.218C48.9166 46.218 48.0859 47.0441 48.0859 48.0631C48.0859 49.0821 48.9166 49.9081 49.9413 49.9081Z" fill="#989FB0"/>
<path d="M43.7236 62.0258H37.9067C37.0041 62.0258 36.252 61.2778 36.252 60.3802C36.252 59.4826 37.0041 58.7346 37.9067 58.7346H43.6734C44.576 58.7346 45.3282 59.4826 45.3282 60.3802C45.3784 61.2778 44.6262 62.0258 43.7236 62.0258Z" fill="#989FB0"/>
<path d="M88.1836 47.0732C87.6993 46.5888 87.6993 45.8035 88.1836 45.3192C88.668 44.8348 89.4533 44.8348 89.9376 45.3192L101.923 57.3047C102.407 57.789 102.407 58.5743 101.923 59.0586C101.439 59.543 100.653 59.543 100.169 59.0586L88.1836 47.0732Z" fill="#848B9B"/>
<circle cx="77.3675" cy="34.5028" r="15.7387" transform="rotate(-45 77.3675 34.5028)" stroke="#A1AABB" stroke-width="2.42278"/>
</g>
<defs>
<filter id="filter0_d_596_7248" x="-2" y="-2" width="110.286" height="81" filterUnits="userSpaceOnUse" color-interpolation-filters="sRGB">
<feFlood flood-opacity="0" result="BackgroundImageFix"/>
<feColorMatrix in="SourceAlpha" type="matrix" values="0 0 0 0 0 0 0 0 0 0 0 0 0 0 0 0 0 0 127 0" result="hardAlpha"/>
<feOffset dy="4"/>
<feGaussianBlur stdDeviation="3"/>
<feComposite in2="hardAlpha" operator="out"/>
<feColorMatrix type="matrix" values="0 0 0 0 0.396078 0 0 0 0 0.478431 0 0 0 0 0.576471 0 0 0 0.1 0"/>
<feBlend mode="normal" in2="BackgroundImageFix" result="effect1_dropShadow_596_7248"/>
<feBlend mode="normal" in="SourceGraphic" in2="effect1_dropShadow_596_7248" result="shape"/>
</filter>
<linearGradient id="paint0_linear_596_7248" x1="41.4769" y1="28.0748" x2="41.4769" y2="69.4312" gradientUnits="userSpaceOnUse">
<stop stop-color="#FDFEFF"/>
<stop offset="0.9964" stop-color="#ECF0F5"/>
</linearGradient>
</defs>
</svg>
