<svg width="16" height="18" viewBox="0 0 16 18" fill="none" xmlns="http://www.w3.org/2000/svg">
<path d="M7.14973 17.3333C6.7647 17.3333 6.3877 17.2394 6.03476 17.0516C5.32888 16.6682 4.90374 15.9718 4.90374 15.1893V11.0422C4.90374 10.651 4.63904 10.0641 4.39037 9.76678L1.39037 6.66819C0.885027 6.17523 0.5 5.33016 0.5 4.69636V2.89667C0.5 1.64472 1.47059 0.666626 2.70588 0.666626H13.2941C14.5134 0.666626 15.5 1.62907 15.5 2.81843V4.53987C15.5 5.36146 14.9946 6.2926 14.5214 6.75426L11.0481 9.75113C10.7112 10.025 10.4465 10.6275 10.4465 11.1126V14.4773C10.4465 15.1737 9.99732 15.9796 9.43583 16.3083L8.32888 17.0047C7.96791 17.2237 7.55882 17.3333 7.14973 17.3333ZM2.70588 1.84033C2.14438 1.84033 1.70321 2.30199 1.70321 2.89667V4.69636C1.70321 4.98588 1.94385 5.54926 2.24866 5.84659L5.30481 8.98431C5.7139 9.47727 6.11497 10.2989 6.11497 11.0344V15.1815C6.11497 15.6901 6.47593 15.9405 6.62834 16.0187C6.96524 16.1987 7.37433 16.1987 7.68716 16.0109L8.80214 15.3145C9.02674 15.1815 9.25134 14.759 9.25134 14.4773V11.1126C9.25134 10.2754 9.66845 9.35207 10.2701 8.85911L13.7032 5.89354C13.9759 5.6275 14.3048 4.9937 14.3048 4.53204V2.81843C14.3048 2.27852 13.8556 1.84033 13.3021 1.84033H2.70588Z" fill='none'/>
</svg>
