<svg width="17" height="16" viewBox="0 0 17 16" fill="none" xmlns="http://www.w3.org/2000/svg">
<path fill-rule="evenodd" clip-rule="evenodd" d="M5.16667 0.833008L8.0621 0.833008C8.90195 0.833008 9.7074 1.16664 10.3013 1.7605L14.0725 5.53174C14.6664 6.1256 15 6.93106 15 7.77091V11.9997C15 13.7486 13.5822 15.1663 11.8333 15.1663H5.16667C3.41777 15.1663 2 13.7486 2 11.9997L2 3.99967C2 2.25077 3.41777 0.833008 5.16667 0.833008ZM8.0621 1.83301L5.16667 1.83301C3.97005 1.83301 3 2.80306 3 3.99967L3 11.9997C3 13.1963 3.97005 14.1663 5.16667 14.1663H11.8333C13.03 14.1663 14 13.1963 14 11.9997V7.77091C14 7.56448 13.9705 7.36108 13.9139 7.16634L11.8333 7.16634C10.0844 7.16634 8.66667 5.74858 8.66667 3.99967V1.91906C8.47193 1.86247 8.26853 1.83301 8.0621 1.83301ZM9.66667 2.54011V3.99967C9.66667 5.19629 10.6367 6.16634 11.8333 6.16634L13.2929 6.16634L9.66667 2.54011Z" fill="#1B1D29"/>
<path d="M4.78906 12V9.13672H5.7168C6.06836 9.13672 6.29753 9.15104 6.4043 9.17969C6.56836 9.22266 6.70573 9.31641 6.81641 9.46094C6.92708 9.60417 6.98242 9.78971 6.98242 10.0176C6.98242 10.1934 6.95052 10.3411 6.88672 10.4609C6.82292 10.5807 6.74154 10.6751 6.64258 10.7441C6.54492 10.8118 6.44531 10.8568 6.34375 10.8789C6.20573 10.9062 6.00586 10.9199 5.74414 10.9199H5.36719V12H4.78906ZM5.36719 9.62109V10.4336H5.68359C5.91146 10.4336 6.0638 10.4186 6.14062 10.3887C6.21745 10.3587 6.27734 10.3118 6.32031 10.248C6.36458 10.1842 6.38672 10.11 6.38672 10.0254C6.38672 9.92122 6.35612 9.83529 6.29492 9.76758C6.23372 9.69987 6.15625 9.65755 6.0625 9.64062C5.99349 9.6276 5.85482 9.62109 5.64648 9.62109H5.36719Z" fill="#1B1D29"/>
<path d="M7.45508 9.13672H8.51172C8.75 9.13672 8.93164 9.15495 9.05664 9.19141C9.22461 9.24089 9.36849 9.32878 9.48828 9.45508C9.60807 9.58138 9.69922 9.73633 9.76172 9.91992C9.82422 10.1022 9.85547 10.3275 9.85547 10.5957C9.85547 10.8314 9.82617 11.0345 9.76758 11.2051C9.69596 11.4134 9.59375 11.582 9.46094 11.7109C9.36068 11.8086 9.22526 11.8848 9.05469 11.9395C8.92708 11.9798 8.75651 12 8.54297 12H7.45508V9.13672ZM8.0332 9.62109V11.5176H8.46484C8.6263 11.5176 8.74284 11.5085 8.81445 11.4902C8.9082 11.4668 8.98568 11.4271 9.04688 11.3711C9.10938 11.3151 9.16016 11.2233 9.19922 11.0957C9.23828 10.9668 9.25781 10.7917 9.25781 10.5703C9.25781 10.349 9.23828 10.179 9.19922 10.0605C9.16016 9.94206 9.10547 9.84961 9.03516 9.7832C8.96484 9.7168 8.87565 9.67188 8.76758 9.64844C8.68685 9.63021 8.52865 9.62109 8.29297 9.62109H8.0332Z" fill="#1B1D29"/>
<path d="M10.3516 12V9.13672H12.3145V9.62109H10.9297V10.2988H12.125V10.7832H10.9297V12H10.3516Z" fill="#1B1D29"/>
</svg>
