<svg xmlns="http://www.w3.org/2000/svg" width="24" height="26" viewBox="0 0 24 26" fill="none">
    <path d="M11.7145 12.4232L1.06799 23.7232C1.06839 23.7256 1.06919 23.7275 1.06959 23.7299C1.39609 24.9568 2.51679 25.8604 3.84689 25.8604C4.37859 25.8604 4.87779 25.7166 5.30589 25.4643L5.33989 25.4443L17.3239 18.5291L11.7145 12.4232Z" fill="#EA4335"/>
    <path d="M22.4856 10.4991L22.4754 10.4921L17.3016 7.49275L11.4727 12.6796L17.3219 18.528L22.4684 15.5585C23.3707 15.0714 23.9832 14.1202 23.9832 13.0233C23.9832 11.9343 23.3789 10.9878 22.4856 10.4991Z" fill="#FBBC04"/>
    <path d="M1.06761 2.27635C1.00361 2.51235 0.969971 2.75955 0.969971 3.01625V22.9838C0.969971 23.2401 1.00321 23.4881 1.06801 23.7233L12.0809 12.7123L1.06761 2.27635Z" fill="#4285F4"/>
    <path d="M11.793 12.9999L17.3036 7.49088L5.33323 0.550677C4.89813 0.290077 4.39033 0.139679 3.84693 0.139679C2.51683 0.139679 1.39463 1.04478 1.06803 2.27328C1.06763 2.27448 1.06763 2.27528 1.06763 2.27638L11.793 12.9999Z" fill="#34A853"/>
</svg>
