<svg xmlns="http://www.w3.org/2000/svg" width="16" height="16" viewBox="0 0 16 16" fill="none">
    <path fill-rule="evenodd" clip-rule="evenodd" d="M13.0013 8C13.0013 10.7637 10.767 13 8.01595 13C6.93804 13 6.43367 12.7267 5.26364 12.0927C5.15731 12.0351 5.04549 11.9745 4.92724 11.9108C4.89282 11.8923 4.85369 11.8823 4.8146 11.8823C4.27696 11.8823 4.0118 12.4919 4.44249 12.8138C5.43977 13.5589 6.67648 14 8.01595 14C11.3216 14 14.0013 11.3137 14.0013 8C14.0013 4.68629 11.3216 2 8.01595 2C4.71033 2 2.0306 4.68629 2.0306 8C2.0306 8.23517 2.0441 8.46718 2.07035 8.69529L1.02152 7.64646C0.82626 7.4512 0.509677 7.4512 0.314415 7.64646C0.119153 7.84172 0.119153 8.15831 0.314415 8.35357L2.20158 10.2407C2.45205 10.4912 2.86122 10.5056 3.12678 10.256C3.55069 9.85767 4.70211 8.74788 5.05495 8.31663C5.22981 8.10291 5.19831 7.7879 4.98459 7.61304C4.77087 7.43817 4.45585 7.46967 4.28099 7.6834C4.08818 7.91906 3.57194 8.43628 3.10887 8.88752C3.05744 8.59952 3.0306 8.30293 3.0306 8C3.0306 5.23627 5.26492 3 8.01595 3C10.767 3 13.0013 5.23627 13.0013 8ZM8.5013 5.33333C8.5013 5.05719 8.27744 4.83333 8.0013 4.83333C7.72516 4.83333 7.5013 5.05719 7.5013 5.33333V7.88291C7.5013 8.10549 7.60017 8.31658 7.77116 8.45907L9.68121 10.0508C9.89335 10.2276 10.2086 10.1989 10.3854 9.98676C10.5622 9.77462 10.5335 9.45934 10.3214 9.28256L8.77116 7.9907C8.60017 7.8482 8.5013 7.63712 8.5013 7.41453V5.33333Z" fill=""/>
</svg>
