<svg width="20" height="20" viewBox="0 0 20 20" fill="none" xmlns="http://www.w3.org/2000/svg">
<path fill-rule="evenodd" clip-rule="evenodd" d="M3.40588 7.89135L9.18357 3.17536C9.604 2.83176 10.3838 2.82746 10.8172 3.18247L16.5905 7.88635L16.5917 7.88737C16.6995 7.97643 16.8537 8.17987 16.9658 8.47924C17.0774 8.77742 17.0982 9.04005 17.0743 9.19179L17.0741 9.19353L15.9672 15.945L15.967 15.9466C15.8636 16.5598 15.2282 17.0834 14.6672 17.0834H5.33528C4.76459 17.0834 4.13891 16.5669 4.03564 15.9473L4.03549 15.9464L2.92772 9.18902L2.92644 9.18151C2.90141 9.03444 2.91955 8.77545 3.03043 8.47924C3.14158 8.18232 3.2964 7.98004 3.40588 7.89135ZM18.3083 9.39125C18.4416 8.55903 18.025 7.44658 17.3835 6.92007L11.6093 2.21549C10.7178 1.48517 9.27635 1.48517 8.39315 2.207L2.61902 6.92007C1.96912 7.44658 1.55252 8.55903 1.69416 9.39125L2.80233 16.1509C3.0023 17.3568 4.13546 18.3334 5.33528 18.3334H14.6672C15.8587 18.3334 17.0002 17.3483 17.2002 16.1509L18.3083 9.39125ZM10.6248 12.5C10.6248 12.1548 10.345 11.875 9.99984 11.875C9.65466 11.875 9.37484 12.1548 9.37484 12.5V15C9.37484 15.3452 9.65466 15.625 9.99984 15.625C10.345 15.625 10.6248 15.3452 10.6248 15V12.5Z" fill="#1B1D29"/>
</svg>
