<svg xmlns="http://www.w3.org/2000/svg" width="24" height="24" viewBox="0 0 24 24" fill="none">
    <path fill-rule="evenodd" clip-rule="evenodd" d="M12 14.5C15.0376 14.5 17.5 12.0376 17.5 9C17.5 5.96243 15.0376 3.5 12 3.5C8.96246 3.5 6.50003 5.96243 6.50003 9C6.50003 12.0376 8.96246 14.5 12 14.5ZM12.9261 15.9393C16.3544 15.4861 19 12.552 19 9C19 5.13401 15.866 2 12 2C8.13403 2 5.00003 5.13401 5.00003 9C5.00003 12.6268 7.75826 15.6094 11.2915 15.9646C11.2832 16.0052 11.2756 16.0458 11.2684 16.0862C11.1857 16.5538 11.1476 17.1428 11.1342 17.749C11.1231 18.2504 11.1286 18.7839 11.144 19.3029C10.2953 17.5575 9.0187 16.6681 7.68839 16.334C6.25542 15.974 4.84435 16.2774 3.96682 16.6659C3.59009 16.8327 3.41844 17.2722 3.58238 17.6502C4.53697 19.8511 5.96569 20.9261 7.43631 21.2903C8.86285 21.6435 10.2237 21.3021 11.0599 20.8747C11.1164 20.8458 11.1677 20.8107 11.2135 20.7705C11.2259 20.963 11.239 21.1438 11.2521 21.3093C11.2849 21.7222 11.6461 22.0304 12.059 21.9977C12.472 21.9649 12.7802 21.6036 12.7474 21.1907C12.7398 21.0943 12.7322 20.9926 12.7247 20.8864C13.5223 21.3113 14.3071 21.5026 15.063 21.5C15.9666 21.4968 16.7788 21.2168 17.4744 20.8068C18.8453 19.9988 19.8253 18.652 20.3207 17.6661C20.4116 17.4851 20.4255 17.2751 20.3592 17.0838C20.2929 16.8924 20.152 16.7361 19.9686 16.6502C17.8246 15.6459 15.9993 15.9138 14.6116 16.7165C13.7696 17.2034 13.1082 17.8745 12.6293 18.5345C12.6272 18.2788 12.6284 18.0259 12.6338 17.7822C12.6466 17.2013 12.6827 16.7021 12.7455 16.3476C12.7707 16.2051 12.7965 16.1082 12.8172 16.0485C12.8575 16.0157 12.894 15.979 12.9261 15.9393ZM12.75 5.5C12.75 5.08579 12.4142 4.75 12 4.75C11.5858 4.75 11.25 5.08579 11.25 5.5V5.75H11.1657C10.1537 5.75 9.25802 6.53812 9.25802 7.5913C9.25802 8.04532 9.37161 8.46169 9.66327 8.79349C9.93758 9.10554 10.2929 9.2518 10.5712 9.34028L11.25 9.55185V10.7453C10.932 10.7085 10.75 10.4641 10.75 10.2518C10.75 9.83757 10.4142 9.50178 10 9.50178C9.58581 9.50178 9.25003 9.83757 9.25003 10.2518C9.25003 11.3761 10.1845 12.207 11.25 12.2484V12.5C11.25 12.9142 11.5858 13.25 12 13.25C12.4142 13.25 12.75 12.9142 12.75 12.5V12.25H12.8343C13.843 12.25 14.742 11.4721 14.742 10.4087C14.742 9.95626 14.6275 9.54174 14.3382 9.21076C14.0653 8.89857 13.7117 8.74964 13.4289 8.65972L12.75 8.44815V7.25472C13.0681 7.29146 13.25 7.5359 13.25 7.74822C13.25 8.16243 13.5858 8.49822 14 8.49822C14.4142 8.49822 14.75 8.16243 14.75 7.74822C14.75 6.62392 13.8156 5.793 12.75 5.75162V5.5ZM11.25 7.25H11.1657C10.9002 7.25 10.758 7.44619 10.758 7.5913C10.758 7.6958 10.7709 7.75295 10.7793 7.77912C10.7834 7.7918 10.7867 7.79806 10.7878 7.80008C10.7889 7.80197 10.7894 7.8026 10.7899 7.80316C10.793 7.80672 10.8326 7.84921 11.0238 7.91019L11.25 7.98069V7.25ZM12.75 10.0193V10.75H12.8343C13.1031 10.75 13.242 10.5578 13.242 10.4087C13.242 10.3068 13.2294 10.2506 13.221 10.2245C13.2169 10.2118 13.2135 10.2052 13.212 10.2027C13.2107 10.2002 13.2098 10.199 13.2088 10.1979C13.2043 10.1927 13.1629 10.1494 12.9763 10.0898L12.75 10.0193ZM15.0578 20C14.6363 20.0015 14.1711 19.9113 13.6637 19.6785C14.0421 19.0877 14.6169 18.4462 15.3626 18.0149C16.1788 17.5428 17.2346 17.299 18.5584 17.7071C18.1099 18.3691 17.4743 19.0657 16.7127 19.5146C16.1996 19.817 15.6457 19.9979 15.0578 20ZM7.79687 19.8342C6.97742 19.6313 6.0684 19.0812 5.32712 17.7916C5.91495 17.657 6.6256 17.6136 7.32295 17.7888C8.1677 18.001 9.05601 18.5477 9.7114 19.7931C9.16318 19.9439 8.48368 20.0043 7.79687 19.8342ZM12.845 15.9839C12.8451 15.9844 12.8426 15.9897 12.8371 15.9984C12.842 15.9878 12.8448 15.9834 12.845 15.9839Z" fill="#1B1D29"/>
</svg>
