<svg xmlns="http://www.w3.org/2000/svg" width="12" height="12" viewBox="0 0 12 12" fill="none">
  <path fill-rule="evenodd" clip-rule="evenodd" d="M11 6C11 8.75 8.75 11 6 11C3.25 11 1 8.75 1 6C1 3.25 3.25 1 6 1C8.75 1 11 3.25 11 6ZM6.50181 4C6.50181 4.27614 6.27795 4.5 6.00181 4.5H5.99731C5.72117 4.5 5.49731 4.27614 5.49731 4C5.49731 3.72386 5.72117 3.5 5.99731 3.5H6.00181C6.27795 3.5 6.50181 3.72386 6.50181 4ZM5.99912 8.375C5.79201 8.375 5.62412 8.20711 5.62412 8L5.62412 5.5C5.62412 5.29289 5.79201 5.125 5.99912 5.125C6.20623 5.125 6.37412 5.29289 6.37412 5.5V8C6.37412 8.20711 6.20623 8.375 5.99912 8.375Z" fill="color"/>
</svg>