<svg width="24" height="24" viewBox="0 0 24 24" fill="none" xmlns="http://www.w3.org/2000/svg">
<path fill-rule="evenodd" clip-rule="evenodd" d="M14.4918 20.1289C13.7038 20.3702 12.867 20.5 12 20.5C7.30558 20.5 3.5 16.6944 3.5 12C3.5 7.30558 7.30558 3.5 12 3.5C12.867 3.5 13.7038 3.62982 14.4918 3.87108C14.8055 4.8918 15.0588 5.92632 15.2516 6.96931C13.0907 6.72703 10.909 6.72704 8.74815 6.96935C8.94094 5.92639 9.1942 4.8919 9.50793 3.8712C8.88074 4.06325 8.28439 4.3259 7.72816 4.64987C7.50964 5.48913 7.32918 6.3358 7.18678 7.1873C6.33536 7.32971 5.48878 7.51016 4.6496 7.72867C4.32569 8.2849 4.06309 8.88123 3.87109 9.50841C4.89167 9.19471 5.92603 8.94147 6.96886 8.74868C6.72662 10.9094 6.72662 13.0908 6.96887 15.2514C5.92605 15.0587 4.8917 14.8054 3.87113 14.4917C4.06314 15.1189 4.32574 15.7152 4.64967 16.2715C5.48882 16.49 6.3354 16.6704 7.1868 16.8128C7.3292 17.6643 7.50965 18.5109 7.72816 19.3501C8.28439 19.6741 8.88074 19.9368 9.50793 20.1288C9.19421 19.1082 8.94096 18.0737 8.74817 17.0308C10.9091 17.2731 13.0907 17.2731 15.2516 17.0308C15.0588 18.0738 14.8055 19.1082 14.4918 20.1289ZM16.2715 19.3504C17.5452 18.6086 18.6086 17.5452 19.3504 16.2715C18.5111 16.49 17.6644 16.6705 16.8129 16.8129C16.6705 17.6644 16.4901 18.5111 16.2715 19.3504ZM20.1289 14.4917C20.3702 13.7037 20.5 12.867 20.5 12C20.5 11.133 20.3702 10.2964 20.129 9.50839C19.1083 9.19466 18.0738 8.9414 17.0309 8.74861C17.2731 10.9093 17.2731 13.0908 17.0309 15.2515C18.0738 15.0587 19.1083 14.8055 20.1289 14.4917ZM19.3505 7.72866C18.6087 6.45489 17.5453 5.39146 16.2715 4.64964C16.4901 5.48895 16.6705 6.33568 16.813 7.18724C17.6645 7.32965 18.5112 7.51012 19.3505 7.72866ZM12 22C17.5228 22 22 17.5228 22 12C22 6.47715 17.5228 2 12 2C6.47715 2 2 6.47715 2 12C2 17.5228 6.47715 22 12 22ZM8.50823 15.4914C10.8265 15.7862 13.1733 15.7862 15.4915 15.4915C15.7863 13.1734 15.7863 10.8267 15.4915 8.50867C13.1733 8.2139 10.8265 8.21392 8.50822 8.50872C8.2135 10.8267 8.2135 13.1734 8.50823 15.4914Z" fill="color"/>
</svg>
