<svg xmlns="http://www.w3.org/2000/svg" width="40" height="46" viewBox="0 0 40 46" fill="none">
    <path d="M39.6911 25.0553C40.9655 23.5956 38.0043 21.9054 36.0926 21.2139C32.9065 20.0231 29.7203 19.4469 26.3843 19.1012V29.3192C32.6816 28.6278 37.6295 27.0528 39.6911 25.0553Z" fill="url(#paint0_linear_1220_2161)"/>
    <path d="M0.370605 25.1316L19.9747 45.2219L39.7286 24.9779C37.0673 27.6284 29.2332 29.5491 19.9747 29.5491C10.8661 29.5875 3.14441 27.7437 0.370605 25.1316Z" fill="url(#paint1_linear_1220_2161)"/>
    <path d="M0.295715 20.9837C-0.941252 22.4434 1.98249 24.1336 3.89416 24.825C7.08029 26.0158 10.2664 26.5921 13.6025 26.9378V16.7582C7.3052 17.4112 2.31984 18.9862 0.295715 20.9837Z" fill="url(#paint2_linear_1220_2161)"/>
    <path d="M39.5787 20.8681L19.9747 0.777832L0.220703 21.0218C2.88205 18.3712 10.7162 16.4506 19.9747 16.4506C29.0832 16.4121 36.8049 18.2944 39.5787 20.8681Z" fill="url(#paint3_linear_1220_2161)"/>
    <defs>
        <linearGradient id="paint0_linear_1220_2161" x1="34.1623" y1="28.3838" x2="28.0731" y2="18.0922" gradientUnits="userSpaceOnUse">
            <stop stop-color="#FFDD00"/>
            <stop offset="0.3373" stop-color="#FDB614"/>
            <stop offset="0.6282" stop-color="#F8991D"/>
            <stop offset="0.8587" stop-color="#F6881F"/>
            <stop offset="1" stop-color="#F58220"/>
        </linearGradient>
        <linearGradient id="paint1_linear_1220_2161" x1="39.6147" y1="35.1189" x2="0.438337" y2="35.1189" gradientUnits="userSpaceOnUse">
            <stop stop-color="#F58220"/>
            <stop offset="0.3373" stop-color="#FBA819"/>
            <stop offset="0.6282" stop-color="#FFC50B"/>
            <stop offset="0.8587" stop-color="#FFD700"/>
            <stop offset="1" stop-color="#FFDD00"/>
        </linearGradient>
        <linearGradient id="paint2_linear_1220_2161" x1="11.618" y1="27.9659" x2="5.52868" y2="17.6742" gradientUnits="userSpaceOnUse">
            <stop stop-color="#0072BC"/>
            <stop offset="0.1413" stop-color="#0076BF"/>
            <stop offset="0.3718" stop-color="#0084C9"/>
            <stop offset="0.6627" stop-color="#009EDA"/>
            <stop offset="1" stop-color="#44C8F5"/>
        </linearGradient>
        <linearGradient id="paint3_linear_1220_2161" x1="39.4945" y1="10.8963" x2="0.318724" y2="10.8963" gradientUnits="userSpaceOnUse">
            <stop stop-color="#44C8F5"/>
            <stop offset="0.1413" stop-color="#3DBFEF"/>
            <stop offset="0.3718" stop-color="#1DACE3"/>
            <stop offset="0.6627" stop-color="#0091D2"/>
            <stop offset="1" stop-color="#0072BC"/>
        </linearGradient>
    </defs>
</svg>
