<svg width="20" height="20" viewBox="0 0 20 20" fill="none" xmlns="http://www.w3.org/2000/svg">
<path fill-rule="evenodd" clip-rule="evenodd" d="M16.25 14.1667V5.83335C16.25 4.77497 15.9852 4.08394 15.5944 3.66308C15.2192 3.25899 14.5534 2.91669 13.3333 2.91669H6.66667C5.44658 2.91669 4.7808 3.25899 4.40558 3.66308C4.01478 4.08394 3.75 4.77497 3.75 5.83335V14.1667C3.75 15.2251 4.01478 15.9161 4.40558 16.337C4.7808 16.741 5.44658 17.0834 6.66667 17.0834H13.3333C14.5534 17.0834 15.2192 16.741 15.5944 16.337C15.9852 15.9161 16.25 15.2251 16.25 14.1667ZM17.5 14.1667V5.83335C17.5 3.33335 16.25 1.66669 13.3333 1.66669H6.66667C3.75 1.66669 2.5 3.33335 2.5 5.83335V14.1667C2.5 16.6667 3.75 18.3334 6.66667 18.3334H13.3333C16.25 18.3334 17.5 16.6667 17.5 14.1667Z" fill="#1B1D29"/>
<path fill-rule="evenodd" clip-rule="evenodd" d="M2.5 5.20831C2.84518 5.20831 3.125 5.48813 3.125 5.83331V6.66665C3.125 7.01182 2.84518 7.29165 2.5 7.29165C2.15482 7.29165 1.875 7.01182 1.875 6.66665V5.83331C1.875 5.48813 2.15482 5.20831 2.5 5.20831Z" fill="#1B1D29"/>
<path fill-rule="evenodd" clip-rule="evenodd" d="M2.5 14.7917C2.15482 14.7917 1.875 14.5119 1.875 14.1667V13.3334C1.875 12.9882 2.15482 12.7084 2.5 12.7084C2.84518 12.7084 3.125 12.9882 3.125 13.3334V14.1667C3.125 14.5119 2.84518 14.7917 2.5 14.7917Z" fill="#1B1D29"/>
<path d="M6.875 15.625C6.875 15.2798 7.15482 15 7.5 15H10C10.3452 15 10.625 15.2798 10.625 15.625C10.625 15.9702 10.3452 16.25 10 16.25H7.5C7.15482 16.25 6.875 15.9702 6.875 15.625Z" fill="#A7ABC3"/>
<path d="M11.667 15C11.3218 15 11.042 15.2798 11.042 15.625C11.042 15.9702 11.3218 16.25 11.667 16.25H12.5003C12.8455 16.25 13.1253 15.9702 13.1253 15.625C13.1253 15.2798 12.8455 15 12.5003 15H11.667Z" fill="#1B1D29"/>
<path d="M10.0003 9.16667C11.1509 9.16667 12.0837 8.23393 12.0837 7.08333C12.0837 5.93274 11.1509 5 10.0003 5C8.84973 5 7.91699 5.93274 7.91699 7.08333C7.91699 8.23393 8.84973 9.16667 10.0003 9.16667Z" fill="#1B1D29"/>
<path d="M9.99967 10C7.70319 10 5.83301 11.4 5.83301 13.125C5.83301 13.2417 5.93385 13.3333 6.0622 13.3333H13.9372C14.0655 13.3333 14.1663 13.2417 14.1663 13.125C14.1663 11.4 12.2962 10 9.99967 10Z" fill="#1B1D29"/>
</svg>
