<svg width="20" height="20" viewBox="0 0 20 20" fill="none" xmlns="http://www.w3.org/2000/svg">
<path fill-rule="evenodd" clip-rule="evenodd" d="M11.8953 2.5C12.2412 2.5 12.5216 2.77982 12.5216 3.125V3.26202H12.5344C13.6097 3.26202 14.426 4.16236 14.426 5.21225C14.426 5.55742 14.1456 5.83725 13.7997 5.83725C13.4538 5.83725 13.1734 5.55742 13.1734 5.21225C13.1734 4.79472 12.8612 4.51202 12.5344 4.51202H12.5216V6.09169L13.2566 6.3465C13.5269 6.44212 13.8462 6.594 14.0853 6.89839C14.3302 7.21017 14.426 7.59694 14.426 8.03332C14.426 8.98858 13.6761 9.81291 12.694 9.81291H12.5216V9.95018C12.5216 10.2954 12.2412 10.5752 11.8953 10.5752C11.5494 10.5752 11.269 10.2954 11.269 9.95018V9.81291H11.2634C10.1881 9.81291 9.37184 8.91258 9.37184 7.86269C9.37184 7.51751 9.65224 7.23769 9.99813 7.23769C10.344 7.23769 10.6244 7.51751 10.6244 7.86269C10.6244 8.28022 10.9366 8.56291 11.2634 8.56291H11.269V6.98073L10.5412 6.72844C10.2709 6.63282 9.95166 6.48094 9.71255 6.17655C9.46763 5.86476 9.37184 5.478 9.37184 5.04162C9.37184 4.08636 10.1217 3.26202 11.1038 3.26202H11.269V3.125C11.269 2.77982 11.5494 2.5 11.8953 2.5ZM11.1038 4.51202H11.269V5.65745L10.958 5.54963C10.7794 5.48628 10.7228 5.43646 10.6984 5.40538C10.6797 5.38159 10.6244 5.29913 10.6244 5.04162C10.6244 4.72284 10.8663 4.51202 11.1038 4.51202ZM12.5216 8.56291V7.41497L12.8398 7.5253C13.0184 7.58865 13.075 7.63848 13.0995 7.66956C13.1181 7.69334 13.1734 7.77581 13.1734 8.03332C13.1734 8.3521 12.9315 8.56291 12.694 8.56291H12.5216ZM7.81182 10.9047C7.06133 10.8042 6.30161 10.9243 5.61922 11.2438L3.15985 12.3954C3.14218 12.4037 3.12491 12.4128 3.10809 12.4226L2.87562 12.5592C1.75338 13.2187 1.34287 14.6382 1.94045 15.793C2.5734 17.0161 4.09197 17.4784 5.30131 16.8162L5.58647 16.66C6.03352 16.4152 6.56668 16.3821 7.0407 16.5697L8.75952 17.2499C9.88175 17.6941 11.1456 17.604 12.1932 17.0053L17.4346 14.0095C17.9712 13.7028 18.3108 13.1408 18.3321 12.524C18.3539 11.8944 18.0363 11.3013 17.5128 10.9628C16.9819 10.6195 16.2998 10.5723 15.7252 10.8543L14.3154 11.546C14.005 11.6983 13.8771 12.0729 14.0297 12.3827C14.1823 12.6924 14.5577 12.8201 14.8681 12.6678L16.2779 11.976C16.4503 11.8914 16.6641 11.9035 16.8317 12.0118C16.9923 12.1157 17.0866 12.2976 17.0803 12.4809C17.0739 12.6652 16.9724 12.8331 16.812 12.9248L11.5707 15.9206C10.8539 16.3303 9.98915 16.3919 9.2213 16.088L7.50248 15.4077C6.87363 15.1588 6.18467 15.1343 5.54868 15.3269L4.31455 13.2355L6.15129 12.3754C6.61906 12.1564 7.13648 12.0754 7.64517 12.1436C8.41416 12.2466 9.51904 12.3984 10.4922 12.5465C10.9792 12.6206 11.4294 12.6932 11.7864 12.7579C12.1658 12.8265 12.3842 12.8769 12.4493 12.9004C12.4893 12.9147 12.5195 12.9277 12.5418 12.9385L12.5416 12.9417V12.9418C12.54 12.9705 12.5376 13.0152 12.5369 13.0563C12.536 13.1107 12.5372 13.1842 12.5498 13.2662C12.5632 13.3538 12.5566 13.385 12.5552 13.3905C12.5546 13.3931 12.5537 13.3961 12.5506 13.4018C12.5496 13.4038 12.548 13.4065 12.5458 13.4099C12.5332 13.4137 12.5157 13.418 12.4927 13.4222C12.4047 13.438 12.3002 13.44 12.2172 13.4366C12.1806 13.4351 12.134 13.4287 12.0604 13.4142L9.82442 12.9748C9.48504 12.9081 9.15574 13.1285 9.08891 13.4672C9.02207 13.8059 9.243 14.1345 9.58238 14.2012L11.8184 14.6407C11.9118 14.659 12.033 14.6802 12.1665 14.6856C12.2932 14.6907 12.4998 14.691 12.7151 14.6523C12.9079 14.6176 13.2321 14.5307 13.464 14.2651C13.6105 14.0974 13.7189 13.9066 13.7728 13.6841C13.8245 13.4705 13.8164 13.2663 13.7889 13.0832C13.7891 13.0828 13.7893 13.0787 13.7897 13.0676C13.7903 13.054 13.7914 13.0299 13.7935 12.9891L13.7935 12.9874V12.9874C13.7975 12.9108 13.8054 12.7555 13.7643 12.5855C13.6602 12.1548 13.3258 11.887 12.8743 11.7245C12.6912 11.6586 12.3614 11.5916 12.01 11.5279C11.6361 11.4603 11.1728 11.3856 10.6811 11.3108C9.69678 11.161 8.58321 11.008 7.81182 10.9047ZM3.23132 13.8632L4.39583 15.8367C3.87309 15.9597 3.31212 15.7194 3.0534 15.2194C2.81774 14.764 2.90233 14.2246 3.23132 13.8632Z" fill="#1B1D29"/>
</svg>
