<svg xmlns="http://www.w3.org/2000/svg" width="20" height="20" viewBox="0 0 20 20" fill="none">
    <path fill-rule="evenodd" clip-rule="evenodd" d="M9.01424 3.76695C8.35839 4.28403 7.95156 5.11774 7.83109 6.477C7.80062 6.82083 7.49719 7.07485 7.15336 7.04438C6.80953 7.01391 6.5555 6.71048 6.58597 6.36665C6.72384 4.81099 7.21702 3.59212 8.24033 2.78534C9.2427 1.99507 10.6417 1.69165 12.3835 1.69165H12.4919C14.4125 1.69165 15.9194 2.061 16.9326 3.0455C17.9503 4.03434 18.3335 5.50996 18.3335 7.38537V12.6646C18.3335 14.54 17.9503 16.0156 16.9326 17.0045C15.9194 17.989 14.4125 18.3583 12.4919 18.3583H12.3835C10.6543 18.3583 9.26377 18.059 8.26351 17.2815C7.24158 16.4871 6.74185 15.2861 6.59472 13.7526C6.56176 13.409 6.81358 13.1037 7.15718 13.0708C7.50078 13.0378 7.80605 13.2896 7.83901 13.6332C7.96689 14.9661 8.37549 15.7853 9.03065 16.2945C9.70747 16.8206 10.7627 17.1083 12.3835 17.1083H12.4919C14.2963 17.1083 15.3977 16.753 16.0615 16.108C16.7209 15.4673 17.0835 14.4086 17.0835 12.6646V7.38537C17.0835 5.64142 16.7209 4.58268 16.0615 3.942C15.3977 3.29698 14.2963 2.94165 12.4919 2.94165H12.3835C10.7504 2.94165 9.69104 3.23336 9.01424 3.76695ZM1.6665 9.99998C1.6665 9.65481 1.94633 9.37498 2.2915 9.37498H11.8243L10.0999 7.65059C9.85581 7.40651 9.85581 7.01078 10.0999 6.7667C10.344 6.52262 10.7397 6.52262 10.9838 6.7667L13.7754 9.55837C14.0195 9.80245 14.0195 10.1982 13.7754 10.4423L10.9838 13.2339C10.7397 13.478 10.344 13.478 10.0999 13.2339C9.85581 12.9898 9.85581 12.5941 10.0999 12.35L11.8249 10.625H2.2915C1.94633 10.625 1.6665 10.3452 1.6665 9.99998Z" fill=""/>
</svg>
