<svg xmlns="http://www.w3.org/2000/svg" width="24" height="24" viewBox="0 0 24 24" fill="none">
    <path fill-rule="evenodd" clip-rule="evenodd" d="M2 4.75C2 3.23122 3.23122 2 4.75 2H11.0758C12.5946 2 13.8258 3.23122 13.8258 4.75V9.09874H19.2527C20.7715 9.09874 22.0027 10.33 22.0027 11.8487V18.2384C22.0027 19.3304 21.1451 20.2221 20.0666 20.2765V21.2503C20.0666 21.5269 19.9144 21.7811 19.6705 21.9116C19.4266 22.0421 19.1307 22.0278 18.9006 21.8744L16.5081 20.2792H12.9269C11.4081 20.2792 10.1769 19.0479 10.1769 17.5292V13.1804H7.49464L5.10215 14.7756C4.87201 14.9291 4.57609 14.9434 4.33221 14.8129C4.08833 14.6824 3.93608 14.4282 3.93608 14.1516V13.1778C2.85765 13.1233 2 12.2317 2 11.1397V4.75ZM11.6769 13.1804V17.5292C11.6769 18.2195 12.2366 18.7792 12.9269 18.7792H16.7352C16.8833 18.7792 17.028 18.823 17.1512 18.9051L18.5998 19.8709C18.7383 19.2463 19.2956 18.7792 19.962 18.7792C20.2606 18.7792 20.5027 18.5371 20.5027 18.2384V11.8487C20.5027 11.1584 19.9431 10.5987 19.2527 10.5987H13.8258H12.9269C12.709 10.5987 12.5042 10.6545 12.3258 10.7525C11.9858 10.9394 11.7421 11.2798 11.6882 11.6804C11.6808 11.7355 11.6769 11.7917 11.6769 11.8487V13.1804ZM10.182 11.6804C10.2567 10.4434 11.1491 9.42703 12.3258 9.16464V4.75C12.3258 4.05964 11.7661 3.5 11.0758 3.5H4.75C4.05965 3.5 3.5 4.05965 3.5 4.75V11.1397C3.5 11.4383 3.74209 11.6804 4.04072 11.6804C4.7071 11.6804 5.26437 12.1475 5.40297 12.7722L6.85147 11.8064C6.97468 11.7243 7.11945 11.6804 7.26753 11.6804H10.182ZM6.69656 5.41782C6.54272 5.03324 6.10624 4.84617 5.72166 5.00001C5.33707 5.15384 5.15001 5.59032 5.30384 5.97491L7.3038 10.2785C7.37737 10.4624 7.52322 10.617 7.72166 10.6964C7.81909 10.7354 7.91984 10.7524 8.01849 10.75C8.08883 10.7483 8.15989 10.7366 8.22972 10.7141C8.25539 10.7058 8.2806 10.6962 8.30522 10.6852C8.4774 10.6086 8.62104 10.4674 8.69656 10.2786L10.5 6.00001C10.6538 5.61542 10.4668 5.17894 10.0822 5.02511C9.6976 4.87127 9.26112 5.05834 9.10729 5.44292L7.96625 8.14997L6.69656 5.41782ZM13.8701 12.75C13.8701 12.3358 14.2059 12 14.6201 12H17.6201C18.0343 12 18.3701 12.3358 18.3701 12.75C18.3701 13.1642 18.0343 13.5 17.6201 13.5H15.3701V14H17.6201C18.0343 14 18.3701 14.3358 18.3701 14.75C18.3701 15.1642 18.0343 15.5 17.6201 15.5H15.3701V16H17.6201C18.0343 16 18.3701 16.3358 18.3701 16.75C18.3701 17.1642 18.0343 17.5 17.6201 17.5H14.6201C14.2059 17.5 13.8701 17.1642 13.8701 16.75V14.75V12.75Z" fill="color"/>
</svg>
