<svg xmlns="http://www.w3.org/2000/svg" width="10" height="10" viewBox="0 0 10 10" fill="none">
  <g clip-path="url(#clip0_4019_11409)">
    <path d="M4.79169 3.00321C4.57207 3.00321 4.39239 2.82352 4.39239 2.60391V1.00672C4.39239 0.787106 4.57207 0.607422 4.79169 0.607422C5.0113 0.607422 5.19098 0.787106 5.19098 1.00672V2.60391C5.19098 2.82352 5.0113 3.00321 4.79169 3.00321ZM4.79169 9.39196C4.57207 9.39196 4.39239 9.21228 4.39239 8.99267V7.39548C4.39239 7.17586 4.57207 6.99618 4.79169 6.99618C5.0113 6.99618 5.19098 7.17586 5.19098 7.39548V8.99267C5.19098 9.21228 5.0113 9.39196 4.79169 9.39196ZM8.78466 5.39899H7.18747C6.96786 5.39899 6.78817 5.21931 6.78817 4.99969C6.78817 4.78008 6.96786 4.6004 7.18747 4.6004H8.78466C9.00427 4.6004 9.18396 4.78008 9.18396 4.99969C9.18396 5.21931 9.00427 5.39899 8.78466 5.39899ZM2.3959 5.39899H0.798711C0.579098 5.39899 0.399414 5.21931 0.399414 4.99969C0.399414 4.78008 0.579098 4.6004 0.798711 4.6004H2.3959C2.61551 4.6004 2.7952 4.78008 2.7952 4.99969C2.7952 5.21931 2.61551 5.39899 2.3959 5.39899ZM7.61472 8.22202C7.5109 8.22202 7.41108 8.18209 7.33122 8.10623L6.20121 6.97622C6.16424 6.93925 6.13491 6.89536 6.11491 6.84706C6.0949 6.79876 6.0846 6.74699 6.0846 6.69471C6.0846 6.64243 6.0949 6.59066 6.11491 6.54236C6.13491 6.49406 6.16424 6.45017 6.20121 6.41321C6.23817 6.37624 6.28206 6.34691 6.33036 6.32691C6.37866 6.3069 6.43043 6.2966 6.48271 6.2966C6.53499 6.2966 6.58676 6.3069 6.63506 6.32691C6.68336 6.34691 6.72725 6.37624 6.76421 6.41321L7.89423 7.54322C7.94995 7.59898 7.98784 7.67004 8.00309 7.74739C8.01834 7.82473 8.01026 7.90486 7.97988 7.9776C7.9495 8.05034 7.89819 8.11241 7.83246 8.15593C7.76673 8.19945 7.68955 8.22246 7.61073 8.22202H7.61472ZM3.09866 3.70597C2.99485 3.70597 2.89502 3.66604 2.81516 3.59017L1.68515 2.46016C1.64818 2.42319 1.61886 2.37931 1.59885 2.33101C1.57885 2.28271 1.56855 2.23094 1.56855 2.17866C1.56855 2.12638 1.57885 2.07461 1.59885 2.02631C1.61886 1.97801 1.64818 1.93412 1.68515 1.89715C1.72212 1.86018 1.76601 1.83086 1.81431 1.81085C1.86261 1.79085 1.91438 1.78055 1.96666 1.78055C2.01894 1.78055 2.07071 1.79085 2.11901 1.81085C2.16731 1.83086 2.21119 1.86018 2.24816 1.89715L3.37817 3.02716C3.43389 3.08293 3.47179 3.15399 3.48704 3.23133C3.50229 3.30867 3.49421 3.3888 3.46383 3.46154C3.43345 3.53429 3.38214 3.59636 3.31641 3.63988C3.25068 3.6834 3.1735 3.7064 3.09467 3.70597H3.09866ZM1.96865 8.22202C1.86484 8.22202 1.76501 8.18209 1.68515 8.10623C1.64814 8.06929 1.61877 8.02541 1.59873 7.9771C1.57869 7.9288 1.56838 7.87702 1.56838 7.82472C1.56838 7.77243 1.57869 7.72065 1.59873 7.67234C1.61877 7.62404 1.64814 7.58016 1.68515 7.54322L2.81516 6.41321C2.85213 6.37624 2.89602 6.34691 2.94432 6.32691C2.99262 6.3069 3.04439 6.2966 3.09667 6.2966C3.14895 6.2966 3.20072 6.3069 3.24902 6.32691C3.29732 6.34691 3.34121 6.37624 3.37817 6.41321C3.41514 6.45017 3.44446 6.49406 3.46447 6.54236C3.48448 6.59066 3.49478 6.64243 3.49478 6.69471C3.49478 6.74699 3.48448 6.79876 3.46447 6.84706C3.44446 6.89536 3.41514 6.93925 3.37817 6.97622L2.24816 8.10623C2.1683 8.18609 2.06848 8.22202 1.96466 8.22202H1.96865ZM6.48471 3.70597C6.38089 3.70597 6.28106 3.66604 6.20121 3.59017C6.16419 3.55323 6.13482 3.50935 6.11478 3.46105C6.09475 3.41275 6.08443 3.36096 6.08443 3.30867C6.08443 3.25637 6.09475 3.20459 6.11478 3.15629C6.13482 3.10798 6.16419 3.0641 6.20121 3.02716L7.33122 1.89715C7.36819 1.86018 7.41207 1.83086 7.46037 1.81085C7.50867 1.79085 7.56044 1.78055 7.61272 1.78055C7.665 1.78055 7.71677 1.79085 7.76507 1.81085C7.81337 1.83086 7.85726 1.86018 7.89423 1.89715C7.93119 1.93412 7.96052 1.97801 7.98053 2.02631C8.00053 2.07461 8.01083 2.12638 8.01083 2.17866C8.01083 2.23094 8.00053 2.28271 7.98053 2.33101C7.96052 2.37931 7.93119 2.42319 7.89423 2.46016L6.76421 3.59017C6.68436 3.67003 6.58453 3.70597 6.48071 3.70597H6.48471Z" fill="#0072BC"/>
  </g>
  <defs>
    <clipPath id="clip0_4019_11409">
      <rect width="9.58314" height="9.58314" fill="white" transform="translate(0 0.208008)"/>
    </clipPath>
  </defs>
</svg>