<svg xmlns="http://www.w3.org/2000/svg" width="20" height="20" viewBox="0 0 20 20" fill="none">
    <path fill-rule="evenodd" clip-rule="evenodd" d="M6.24994 7.29163V8.33329H13.7499V7.29163C13.7499 5.79693 13.5368 4.72844 13.0461 4.04317C12.6222 3.45115 11.8188 2.91663 9.99994 2.91663C8.18105 2.91663 7.37767 3.45115 6.95377 4.04317C6.46311 4.72844 6.24994 5.79693 6.24994 7.29163ZM4.99994 7.29163V8.35436C2.35794 8.50181 2.5 9.46389 2.5 12.5V14.1666C2.5 17.5 2.49994 18.3333 5.83328 18.3333H14.1666C17.4999 18.3333 17.5003 17.5 17.5003 14.1666V12.5C17.5003 9.46389 17.6419 8.50181 14.9999 8.35436V7.29163C14.9999 4.1885 14.1666 1.66663 9.99994 1.66663C5.83327 1.66663 4.99994 4.1885 4.99994 7.29163ZM14.1666 17.0833C15.8422 17.0833 15.5556 16.8436 15.7831 16.6161C16.0106 16.3886 16.2503 15.8422 16.2503 14.1666V12.5C16.2503 10.8244 16.0611 10.2275 15.8336 9.99996C15.6061 9.77247 15.8422 9.58329 14.1666 9.58329H5.83328C4.15768 9.58329 4.39444 9.77247 4.16695 9.99996C3.93946 10.2275 3.75 10.8244 3.75 12.5V14.1666C3.75 15.8422 3.98972 16.3886 4.21721 16.6161C4.4447 16.8436 4.15768 17.0833 5.83328 17.0833H14.1666ZM9.16295 13.3333C9.16295 12.8731 9.53604 12.5 9.99628 12.5H10.0038C10.464 12.5 10.8371 12.8731 10.8371 13.3333C10.8371 13.7935 10.464 14.1666 10.0038 14.1666H9.99628C9.53604 14.1666 9.16295 13.7935 9.16295 13.3333Z" fill=""/>
</svg>
