<svg width="20" height="20" viewBox="0 0 20 20" fill="none" xmlns="http://www.w3.org/2000/svg">
<path fill-rule="evenodd" clip-rule="evenodd" d="M15.0503 1.84971C14.8063 1.60564 14.4105 1.60564 14.1665 1.84971C13.9224 2.09379 13.9224 2.48952 14.1665 2.7336L16.1995 4.76663H2.2915C1.94633 4.76663 1.6665 5.04645 1.6665 5.39163C1.6665 5.73681 1.94633 6.01663 2.2915 6.01663H16.1995L14.1665 8.04972C13.9224 8.2938 13.9224 8.68953 14.1665 8.9336C14.4105 9.17768 14.8063 9.17768 15.0503 8.9336L18.1503 5.83357C18.3944 5.58949 18.3944 5.19377 18.1503 4.94969L15.0503 1.84971ZM5.83342 11.0664C6.0775 11.3105 6.0775 11.7062 5.83342 11.9503L3.80042 13.9833H17.7082C18.0534 13.9833 18.3332 14.2632 18.3332 14.6083C18.3332 14.9535 18.0534 15.2333 17.7082 15.2333H3.80033L5.83342 17.2664C6.0775 17.5105 6.0775 17.9062 5.83342 18.1503C5.58934 18.3944 5.19362 18.3944 4.94954 18.1503L1.84956 15.0503C1.78355 14.9843 1.7354 14.9072 1.70509 14.825C1.68004 14.7571 1.66718 14.6857 1.66653 14.6141C1.66651 14.6122 1.6665 14.6103 1.6665 14.6083C1.6665 14.5135 1.68764 14.4235 1.72546 14.343C1.74595 14.2993 1.77177 14.2575 1.80293 14.2185C1.81891 14.1985 1.83611 14.1795 1.85439 14.1616L4.94953 11.0664C5.19361 10.8224 5.58934 10.8224 5.83342 11.0664Z" fill="color"/>
</svg>
