<svg xmlns="http://www.w3.org/2000/svg" width="22" height="4" viewBox="0 0 22 4" fill="none">
    <g clip-path="url(#clip0_1357_21562)">
        <path d="M8.31111 0.157041C8.44679 0.157226 8.58264 0.156671 8.71831 0.157411C8.71782 0.577226 8.71848 0.997226 8.71799 1.41704C8.95161 1.31241 9.20492 1.28056 9.45446 1.27463C9.74896 1.26889 10.0502 1.28871 10.3296 1.40223C10.5076 1.47519 10.6802 1.60241 10.7661 1.79908C10.8278 1.94667 10.8513 2.11037 10.8665 2.2713C10.8848 2.50945 10.8826 2.75074 10.8503 2.98723C10.8262 3.14778 10.7917 3.31537 10.6953 3.44186C10.553 3.63334 10.3365 3.72723 10.126 3.78019C9.83476 3.84963 9.53403 3.85426 9.23823 3.82852C9.06055 3.81111 8.88353 3.77278 8.71733 3.69889C8.71799 3.73667 8.71831 3.77463 8.71881 3.8126C8.58296 3.81519 8.44696 3.81334 8.31111 3.81389C8.31128 2.595 8.31128 1.37593 8.31111 0.157041ZM9.15013 1.75945C9.06449 1.77315 8.97606 1.7913 8.90108 1.84315C8.83135 1.89037 8.78427 1.97149 8.76179 2.05834C8.70749 2.26908 8.71848 2.49074 8.71848 2.7076C8.7216 2.82 8.73242 2.93278 8.75769 3.04186C8.77918 3.13482 8.82709 3.22389 8.9019 3.27334C8.98836 3.33093 9.08992 3.34945 9.18803 3.36371C9.42313 3.39074 9.6602 3.38741 9.89546 3.36649C9.99653 3.355 10.0997 3.34408 10.1945 3.30037C10.271 3.26482 10.3335 3.19408 10.364 3.10704C10.398 3.00945 10.409 2.90408 10.4185 2.80056C10.4338 2.60186 10.4318 2.40074 10.4062 2.20315C10.3911 2.09926 10.3729 1.98815 10.3084 1.90723C10.2426 1.8213 10.1414 1.78667 10.0451 1.77112C9.74863 1.72741 9.44724 1.72056 9.15013 1.75945Z" fill="#005DB2"/>
        <path d="M6.31217 1.29511C6.61519 1.26048 6.92379 1.26307 7.22387 1.32659C7.42812 1.37326 7.63648 1.45511 7.78742 1.62381C7.87569 1.72085 7.92835 1.85103 7.9587 1.98418C8.00956 2.20122 8.01793 2.4277 8.01383 2.65103C8.00743 2.86492 7.98708 3.0827 7.91473 3.28233C7.8432 3.47622 7.68636 3.61159 7.51852 3.69029C7.25947 3.81177 6.97498 3.83918 6.69739 3.8427C6.41176 3.84233 6.11956 3.8177 5.85148 3.69826C5.67594 3.61974 5.50908 3.48196 5.43591 3.279C5.35306 3.04474 5.3419 2.78807 5.34125 2.53863C5.34387 2.29752 5.35716 2.04918 5.44215 1.82474C5.50351 1.66437 5.6254 1.54307 5.76141 1.46492C5.9322 1.36603 6.12284 1.32029 6.31217 1.29511ZM6.2641 1.75789C6.14532 1.77344 6.01407 1.79085 5.92482 1.89048C5.84492 1.97733 5.82589 2.10678 5.8103 2.22511C5.78504 2.44252 5.78504 2.66381 5.80883 2.88122C5.82408 2.99455 5.83951 3.11696 5.90874 3.2064C5.96944 3.28752 6.06279 3.32326 6.1527 3.34159C6.31053 3.37326 6.47164 3.37844 6.63176 3.38289C6.8393 3.38122 7.04979 3.37992 7.2534 3.32844C7.36726 3.30103 7.47094 3.21085 7.50523 3.08233C7.55822 2.88289 7.56282 2.67159 7.55937 2.46492C7.55199 2.30678 7.54412 2.14381 7.49162 1.99529C7.44223 1.86289 7.31787 1.7927 7.19745 1.77455C6.88869 1.724 6.57434 1.724 6.2641 1.75789Z" fill="#005DB2"/>
        <path d="M1.28235 1.33678C1.44411 1.30011 1.61031 1.29844 1.7747 1.29733C2.00504 1.29937 2.23703 1.30604 2.46392 1.35493C2.62864 1.38807 2.77597 1.499 2.87671 1.64807C2.93905 1.54715 3.02124 1.45993 3.12198 1.41067C3.30278 1.32493 3.50146 1.30826 3.69538 1.30011C3.89668 1.29456 4.09864 1.29585 4.29913 1.32048C4.4773 1.34493 4.66253 1.39567 4.80264 1.52974C4.9247 1.64141 4.99787 1.80974 5.02248 1.98289C5.04578 2.14844 5.04315 2.31678 5.04512 2.484C5.04578 2.92567 5.04512 3.36733 5.04545 3.809C4.9096 3.80918 4.77376 3.809 4.63792 3.80918C4.63792 3.29974 4.63841 2.7903 4.63775 2.28085C4.64021 2.12437 4.56442 1.97474 4.44859 1.89067C4.26172 1.75085 4.02859 1.73233 3.81055 1.73659C3.60088 1.7327 3.37759 1.75326 3.19745 1.88604C3.07965 1.97011 3.00287 2.12233 3.00566 2.28067C3.00484 2.79011 3.00599 3.29974 3.00517 3.80918C2.86949 3.80881 2.73381 3.80918 2.59813 3.80918C2.59796 3.30604 2.59796 2.80289 2.59813 2.29974C2.60928 2.09344 2.48197 1.909 2.31758 1.83326C2.14794 1.74622 1.95812 1.73307 1.77437 1.73659C1.59571 1.73307 1.41146 1.74789 1.24642 1.83159C1.13928 1.88567 1.04117 1.97641 0.996385 2.10178C0.968167 2.17567 0.964065 2.25733 0.96505 2.33696C0.965706 2.8277 0.96505 3.31844 0.965214 3.80918C0.83019 3.80696 0.694839 3.81326 0.559815 3.80622C0.556042 3.01048 0.559487 2.21456 0.558175 1.41863C0.693854 1.41789 0.829534 1.41863 0.965378 1.41826C0.965214 1.4577 0.965214 1.49733 0.96505 1.53678C1.05692 1.44715 1.16045 1.3627 1.28235 1.33678Z" fill="#005DB2"/>
        <path d="M11.1651 3.80918C11.1651 2.97011 11.1651 2.13122 11.1651 1.29233C11.3025 1.29251 11.4398 1.29214 11.5773 1.29251C11.5771 1.43899 11.5776 1.58548 11.5769 1.73214C11.5763 2.42436 11.5766 3.11659 11.5768 3.80881C11.4395 3.80936 11.3023 3.80881 11.1651 3.80918Z" fill="#005DB2"/>
        <path d="M12.4714 0.226596C12.7859 0.142707 13.1114 0.158447 13.4322 0.157336C13.3096 0.291225 13.1866 0.424559 13.064 0.558262C12.8784 0.567707 12.6606 0.539559 12.5146 0.697336C12.3815 0.855484 12.4066 1.09178 12.4038 1.29215C12.7209 1.29271 13.0379 1.29215 13.355 1.29252C13.2267 1.43956 13.098 1.58623 12.969 1.73271C12.7764 1.73234 12.5836 1.73271 12.391 1.73234C12.3923 2.42456 12.394 3.11678 12.3954 3.809C12.2583 3.80919 12.1211 3.809 11.984 3.80919C11.984 3.11697 11.984 2.42474 11.984 1.73252C11.8483 1.73215 11.7126 1.73308 11.5769 1.73215C11.5776 1.58548 11.5771 1.439 11.5773 1.29252C11.7128 1.29215 11.8483 1.29252 11.984 1.29215C11.9874 1.13326 11.9902 0.973818 12.0038 0.815485C12.012 0.719559 12.0317 0.622707 12.0758 0.539373C12.163 0.379559 12.3108 0.269559 12.4714 0.226596Z" fill="#FF2E17"/>
        <path d="M11.1651 0.5103C11.3023 0.5103 11.4395 0.510115 11.5766 0.510485C11.5766 0.666226 11.5766 0.822152 11.5766 0.978078C11.4395 0.978263 11.3023 0.978078 11.1651 0.978263C11.1651 0.822152 11.1651 0.666226 11.1651 0.5103Z" fill="#FF2E17"/>
        <path d="M14.0558 1.29586C14.3804 1.25882 14.7125 1.2616 15.0323 1.34123C15.236 1.3953 15.4444 1.49104 15.5797 1.67919C15.678 1.81697 15.7157 1.99475 15.7404 2.16586C15.7719 2.42364 15.7717 2.6866 15.7412 2.94456C15.7141 3.14715 15.6647 3.36234 15.5254 3.5053C15.3253 3.71493 15.0462 3.78697 14.7826 3.82215C14.4528 3.85753 14.1153 3.85401 13.7916 3.76697C13.5934 3.71049 13.392 3.61271 13.2622 3.42753C13.169 3.29697 13.138 3.1279 13.1145 2.96641C13.0819 2.70808 13.0814 2.44438 13.1099 2.18549C13.1349 1.98327 13.1795 1.76734 13.3163 1.62178C13.5135 1.40827 13.7924 1.33308 14.0558 1.29586ZM14.0075 1.75864C13.8927 1.77364 13.767 1.79123 13.6789 1.88456C13.5952 1.97104 13.5746 2.10345 13.5588 2.22419C13.5331 2.44586 13.5331 2.6716 13.5588 2.89327C13.5742 3.00975 13.5938 3.13641 13.6709 3.22308C13.757 3.32104 13.8845 3.34141 14.0001 3.35827C14.2669 3.38993 14.5365 3.39049 14.8036 3.36419C14.9199 3.34956 15.0436 3.33604 15.1425 3.25882C15.2231 3.19734 15.2597 3.08827 15.2782 2.98475C15.3113 2.78956 15.3135 2.58938 15.3054 2.39141C15.2964 2.25327 15.288 2.11012 15.2355 1.98271C15.1932 1.87641 15.0972 1.81197 14.9996 1.78697C14.87 1.75345 14.7363 1.74753 14.6041 1.73938C14.4052 1.72604 14.2057 1.73808 14.0075 1.75864Z" fill="#FF2E17"/>
        <path d="M19.2518 1.43272C19.5085 1.30791 19.7924 1.27828 20.0691 1.27365C20.3641 1.27272 20.6672 1.29679 20.9429 1.4242C21.1218 1.50642 21.289 1.65402 21.3557 1.86494C21.441 2.14235 21.4484 2.44124 21.4387 2.73198C20.7013 2.74179 19.9637 2.73457 19.2262 2.73679C19.2396 2.8992 19.2456 3.08031 19.3422 3.21161C19.4475 3.33772 19.6116 3.34957 19.755 3.36698C20.0068 3.38976 20.2606 3.38883 20.5121 3.36087C20.5991 3.34883 20.6883 3.33679 20.769 3.29513C20.8125 3.27309 20.8448 3.23235 20.8842 3.20291C21.0465 3.19828 21.2091 3.20216 21.3715 3.20142C21.3236 3.40291 21.1831 3.56031 21.0209 3.65142C20.7725 3.79253 20.4901 3.82976 20.2157 3.84087C19.945 3.84809 19.67 3.83291 19.4085 3.74772C19.2063 3.68124 19.0013 3.55939 18.8956 3.34457C18.8032 3.14291 18.7804 2.91105 18.7704 2.68735C18.7634 2.40679 18.7726 2.11735 18.8631 1.85253C18.9292 1.65513 19.084 1.5142 19.2518 1.43272ZM19.3761 1.86883C19.262 1.97235 19.2497 2.15031 19.231 2.30216C19.8139 2.30216 20.3969 2.30216 20.98 2.30216C20.9618 2.17531 20.9577 2.03568 20.8878 1.92828C20.8204 1.82365 20.7041 1.78457 20.5955 1.76883C20.3389 1.73198 20.0788 1.72476 19.8209 1.74605C19.6698 1.76216 19.5026 1.76087 19.3761 1.86883Z" fill="#FF2E17"/>
        <path d="M16.4711 1.53697C16.626 1.36974 16.8484 1.33548 17.0525 1.31345C17.3137 1.29493 17.5774 1.29641 17.8371 1.33585C18.0517 1.369 18.273 1.47678 18.3909 1.6916C18.5045 1.88715 18.5025 2.12993 18.5096 2.35474C18.5128 2.84123 18.5102 3.32771 18.511 3.814C18.3752 3.814 18.2395 3.814 18.1037 3.814C18.1038 3.3216 18.1033 2.82919 18.104 2.33678C18.1102 2.20548 18.0779 2.06808 17.9947 1.97252C17.8522 1.80715 17.6389 1.75567 17.442 1.744C17.1925 1.73845 16.9252 1.72493 16.7004 1.86863C16.5684 1.94882 16.4735 2.10771 16.4755 2.27993C16.4745 2.79123 16.4755 3.30271 16.4752 3.814C16.3379 3.814 16.2009 3.814 16.0637 3.814C16.0637 3.01715 16.0637 2.22011 16.0637 1.42326C16.1994 1.42308 16.3351 1.42345 16.4708 1.42308C16.4708 1.46104 16.4708 1.499 16.4711 1.53697Z" fill="#FF2E17"/>
    </g>
    <defs>
        <clipPath id="clip0_1357_21562">
            <rect width="21" height="4" fill="white" transform="translate(0.5)"/>
        </clipPath>
    </defs>
</svg>
