<svg width="24" height="24" viewBox="0 0 24 24" fill="none" xmlns="http://www.w3.org/2000/svg">
<path fill-rule="evenodd" clip-rule="evenodd" d="M18.6426 4.08569H5.35688L5.19373 4.08997L5.18784 4.0903C4.42644 4.13348 3.71041 4.46638 3.18665 5.02071C2.6629 5.57504 2.37112 6.30879 2.37117 7.07142L2.37109 16.9286L2.37544 17.0917L2.37577 17.0976C2.41895 17.859 2.75185 18.575 3.30619 19.0988C3.86052 19.6225 4.59426 19.9143 5.35688 19.9143L18.6426 19.9143L18.8057 19.91L18.8116 19.9097C19.573 19.8665 20.2891 19.5336 20.8128 18.9792C21.3366 18.4249 21.6284 17.6912 21.6283 16.9286L21.6284 7.07141L21.624 6.90826L21.6237 6.90237C21.5805 6.14096 21.2476 5.42494 20.6933 4.90118C20.139 4.37742 19.4052 4.08564 18.6426 4.08569ZM12.3886 13.6046L19.9426 9.67654V16.9244L19.9378 17.0386C19.9103 17.3624 19.7625 17.6643 19.5234 17.8846C19.2834 18.1057 18.969 18.2285 18.6426 18.2286H5.36104L5.246 18.2238C4.92233 18.1961 4.62071 18.0482 4.40059 17.8091C4.17958 17.5691 4.05689 17.2548 4.05688 16.9286V9.67654L11.6182 13.6084L11.7291 13.6549L11.7367 13.6574C11.8434 13.6925 11.956 13.7059 12.068 13.6968C12.1799 13.6877 12.2889 13.6563 12.3886 13.6046ZM4.47631 6.11511C4.71631 5.89411 5.03063 5.77142 5.35688 5.77141H18.6384L18.7527 5.7762C19.0765 5.80372 19.3783 5.95154 19.5986 6.19061C19.8198 6.43063 19.9426 6.74505 19.9426 7.07141V7.77627L11.9997 11.9066L4.05688 7.77627V7.07557L4.06168 6.96052C4.08938 6.63685 4.23728 6.33523 4.47631 6.11511Z" fill="color"/>
</svg>
