<svg xmlns="http://www.w3.org/2000/svg" width="16" height="16" viewBox="0 0 16 16" fill="none">
    <path fill-rule="evenodd" clip-rule="evenodd" d="M13.6667 7.26665V2.73331C13.6667 2.53269 13.6419 2.43889 13.6276 2.40274C13.5879 2.38432 13.4477 2.33331 13.0926 2.33331H10.2409C9.88583 2.33331 9.7456 2.38432 9.70594 2.40274C9.69163 2.43889 9.66675 2.53269 9.66675 2.73331V7.26665C9.66675 7.46727 9.69163 7.56107 9.70594 7.59722C9.7456 7.61564 9.88583 7.66665 10.2409 7.66665H13.0926C13.4477 7.66665 13.5879 7.61564 13.6276 7.59722C13.6419 7.56107 13.6667 7.46727 13.6667 7.26665ZM13.6177 7.61614C13.6175 7.61585 13.619 7.61291 13.6227 7.6082C13.6198 7.61408 13.6179 7.61643 13.6177 7.61614ZM9.71576 7.61614C9.71555 7.61643 9.71367 7.61408 9.71077 7.6082C9.71452 7.6129 9.71597 7.61584 9.71576 7.61614ZM9.71576 2.38382C9.71597 2.38412 9.71452 2.38706 9.71077 2.39176C9.71367 2.38588 9.71555 2.38353 9.71576 2.38382ZM13.6177 2.38382C13.6179 2.38353 13.6198 2.38588 13.6227 2.39176C13.619 2.38706 13.6175 2.38412 13.6177 2.38382ZM14.6667 2.73331V7.26665C14.6667 8.26665 14.215 8.66665 13.0926 8.66665H10.2409C9.11851 8.66665 8.66675 8.26665 8.66675 7.26665V2.73331C8.66675 1.73331 9.11851 1.33331 10.2409 1.33331H13.0926C14.215 1.33331 14.6667 1.73331 14.6667 2.73331Z" fill=""/>
    <path fill-rule="evenodd" clip-rule="evenodd" d="M6.33325 13.2666V8.73331C6.33325 8.53269 6.30837 8.43889 6.29406 8.40274C6.2544 8.38432 6.11417 8.33331 5.75914 8.33331H2.90737C2.55233 8.33331 2.4121 8.38432 2.37245 8.40274C2.35813 8.43889 2.33325 8.53269 2.33325 8.73331V13.2666C2.33325 13.4673 2.35813 13.5611 2.37245 13.5972C2.4121 13.6156 2.55233 13.6666 2.90737 13.6666H5.75914C6.11417 13.6666 6.2544 13.6156 6.29406 13.5972C6.30837 13.5611 6.33325 13.4673 6.33325 13.2666ZM6.28424 13.6161C6.28403 13.6158 6.28548 13.6129 6.28924 13.6082C6.28633 13.6141 6.28445 13.6164 6.28424 13.6161ZM2.38227 13.6161C2.38205 13.6164 2.38018 13.6141 2.37727 13.6082C2.38102 13.6129 2.38248 13.6158 2.38227 13.6161ZM2.38227 8.38382C2.38248 8.38412 2.38102 8.38706 2.37727 8.39176C2.38018 8.38588 2.38205 8.38353 2.38227 8.38382ZM6.28424 8.38382C6.28445 8.38353 6.28633 8.38588 6.28923 8.39176C6.28548 8.38705 6.28403 8.38412 6.28424 8.38382ZM7.33325 13.2666V8.73331C7.33325 7.73331 6.88149 7.33331 5.75914 7.33331H2.90737C1.78502 7.33331 1.33325 7.73331 1.33325 8.73331V13.2666C1.33325 14.2666 1.78502 14.6666 2.90737 14.6666H5.75914C6.88149 14.6666 7.33325 14.2666 7.33325 13.2666Z" fill=""/>
    <path fill-rule="evenodd" clip-rule="evenodd" d="M13.6667 13.2667V11.4C13.6667 11.1994 13.6419 11.1056 13.6276 11.0694C13.5879 11.051 13.4477 11 13.0926 11H10.2409C9.88583 11 9.7456 11.051 9.70594 11.0694C9.69163 11.1056 9.66675 11.1994 9.66675 11.4V13.2667C9.66675 13.4673 9.69163 13.5611 9.70594 13.5972C9.7456 13.6157 9.88583 13.6667 10.2409 13.6667H13.0926C13.4477 13.6667 13.5879 13.6157 13.6276 13.5972C13.6419 13.5611 13.6667 13.4673 13.6667 13.2667ZM13.6177 13.6162C13.6175 13.6159 13.619 13.6129 13.6227 13.6082C13.6198 13.6141 13.6179 13.6165 13.6177 13.6162ZM9.71576 13.6162C9.71555 13.6165 9.71367 13.6141 9.71077 13.6082C9.71452 13.6129 9.71597 13.6159 9.71576 13.6162ZM9.71576 11.0505C9.71597 11.0508 9.71452 11.0537 9.71077 11.0584C9.71367 11.0526 9.71555 11.0502 9.71576 11.0505ZM13.6177 11.0505C13.6179 11.0502 13.6198 11.0526 13.6227 11.0584C13.619 11.0537 13.6175 11.0508 13.6177 11.0505ZM14.6667 11.4V13.2667C14.6667 14.2667 14.215 14.6667 13.0926 14.6667H10.2409C9.11851 14.6667 8.66675 14.2667 8.66675 13.2667V11.4C8.66675 10.4 9.11851 10 10.2409 10H13.0926C14.215 10 14.6667 10.4 14.6667 11.4Z" fill=""/>
    <path fill-rule="evenodd" clip-rule="evenodd" d="M6.33325 4.59998V2.73331C6.33325 2.53269 6.30837 2.43889 6.29406 2.40274C6.2544 2.38432 6.11417 2.33331 5.75914 2.33331H2.90737C2.55233 2.33331 2.4121 2.38432 2.37245 2.40274C2.35813 2.43889 2.33325 2.53269 2.33325 2.73331V4.59998C2.33325 4.80061 2.35813 4.8944 2.37245 4.93055C2.4121 4.94897 2.55233 4.99998 2.90737 4.99998H5.75914C6.11417 4.99998 6.2544 4.94897 6.29406 4.93055C6.30837 4.8944 6.33325 4.80061 6.33325 4.59998ZM6.28424 4.94947C6.28403 4.94918 6.28548 4.94624 6.28924 4.94154C6.28633 4.94741 6.28445 4.94976 6.28424 4.94947ZM2.38227 4.94947C2.38205 4.94977 2.38018 4.94741 2.37727 4.94154C2.38102 4.94624 2.38248 4.94918 2.38227 4.94947ZM2.38227 2.38382C2.38248 2.38412 2.38102 2.38706 2.37727 2.39176C2.38018 2.38588 2.38205 2.38353 2.38227 2.38382ZM6.28424 2.38382C6.28445 2.38353 6.28633 2.38588 6.28924 2.39176C6.28548 2.38705 6.28403 2.38412 6.28424 2.38382ZM7.33325 2.73331V4.59998C7.33325 5.59998 6.88149 5.99998 5.75914 5.99998H2.90737C1.78502 5.99998 1.33325 5.59998 1.33325 4.59998V2.73331C1.33325 1.73331 1.78502 1.33331 2.90737 1.33331H5.75914C6.88149 1.33331 7.33325 1.73331 7.33325 2.73331Z" fill=""/>
</svg>
