<svg xmlns="http://www.w3.org/2000/svg" width="24" height="24" viewBox="0 0 24 24" fill="none">
    <path d="M19.4 7.75H4.6C4.272 7.75 4 7.41 4 7C4 6.59 4.272 6.25 4.6 6.25H19.4C19.728 6.25 20 6.59 20 7C20 7.41 19.728 7.75 19.4 7.75Z" fill=""/>
    <path d="M17.475 12.75H4.525C4.238 12.75 4 12.41 4 12C4 11.59 4.238 11.25 4.525 11.25H17.475C17.762 11.25 18 11.59 18 12C18 12.41 17.762 12.75 17.475 12.75Z" fill=""/>
    <path d="M15.55 17.75H4.45C4.204 17.75 4 17.41 4 17C4 16.59 4.204 16.25 4.45 16.25H15.55C15.796 16.25 16 16.59 16 17C16 17.41 15.796 17.75 15.55 17.75Z" fill=""/>
</svg>
