<svg xmlns="http://www.w3.org/2000/svg" width="158" height="160" viewBox="0 0 158 160" fill="none">
    <ellipse cx="77.4033" cy="64.8151" rx="61.2271" ry="61.1848" fill="#EAEEF9"/>
    <path d="M146.242 39.5665C149.139 39.5665 151.487 37.2198 151.487 34.325C151.487 31.4302 149.139 29.0836 146.242 29.0836C143.345 29.0836 140.997 31.4302 140.997 34.325C140.997 37.2198 143.345 39.5665 146.242 39.5665Z" fill="#EAEEF9"/>
    <path d="M153.918 19.1126C155.896 19.1126 157.5 17.5099 157.5 15.5328C157.5 13.5557 155.896 11.953 153.918 11.953C151.94 11.953 150.336 13.5557 150.336 15.5328C150.336 17.5099 151.94 19.1126 153.918 19.1126Z" fill="#EAEEF9"/>
    <path d="M23.4941 13.2955C27.168 13.2955 30.1464 10.3192 30.1464 6.64773C30.1464 2.97629 27.168 0 23.4941 0C19.8201 0 16.8417 2.97629 16.8417 6.64773C16.8417 10.3192 19.8201 13.2955 23.4941 13.2955Z" fill="#EAEEF9"/>
    <path d="M101.081 31.4811H68.4652V19.1119H111.219C111.297 19.1119 111.376 19.1119 111.455 19.1119C118.135 19.2695 123.558 24.7844 123.558 31.4811H109.411" fill="#CCD4E2"/>
    <g filter="url(#filter0_d_823_1673)">
        <path d="M112.398 19.1119C109.883 19.2695 107.525 20.2937 105.875 22.027C105.717 22.1845 105.56 22.3421 105.403 22.5785C103.91 24.3117 102.81 26.5965 102.81 29.0388V102.623C102.81 109.478 97.3082 114.993 90.4708 114.993H30.427V28.4873C30.5842 25.9662 31.5273 23.6814 33.1777 22.027C34.9853 20.2149 37.4216 19.1119 40.1723 19.1119H100.609H112.083C112.162 19.1119 112.241 19.1119 112.398 19.1119Z" fill="url(#paint0_linear_823_1673)"/>
    </g>
    <path d="M90.8638 35.9719H73.0236C72.3949 35.9719 71.8447 35.4204 71.8447 34.7901C71.8447 34.1598 72.3949 33.6082 73.0236 33.6082H90.8638C91.4926 33.6082 92.0427 34.1598 92.0427 34.7901C92.0427 35.4204 91.5712 35.9719 90.8638 35.9719Z" fill="#B3BFD3"/>
    <path d="M64.6143 35.9719H41.3512C40.7225 35.9719 40.1724 35.4204 40.1724 34.7901C40.1724 34.1598 40.7225 33.6082 41.3512 33.6082H64.6929C65.3216 33.6082 65.8717 34.1598 65.8717 34.7901C65.8717 35.4204 65.3216 35.9719 64.6143 35.9719Z" fill="#B3BFD3"/>
    <path d="M79.5465 47.6321H56.3621C55.7334 47.6321 55.1832 47.0806 55.1832 46.4502C55.1832 45.8199 55.7334 45.2684 56.3621 45.2684H79.5465C80.1753 45.2684 80.7254 45.8199 80.7254 46.4502C80.804 47.0806 80.2539 47.6321 79.5465 47.6321Z" fill="#B3BFD3"/>
    <path d="M48.896 47.6321H41.3512C40.7225 47.6321 40.1724 47.0806 40.1724 46.4502C40.1724 45.8199 40.7225 45.2684 41.3512 45.2684H48.896C49.5247 45.2684 50.0749 45.8199 50.0749 46.4502C50.0749 47.0806 49.5247 47.6321 48.896 47.6321Z" fill="#D4DBEC"/>
    <path d="M90.8637 59.2923H76.6387C76.01 59.2923 75.4598 58.7407 75.4598 58.1104C75.4598 57.4801 76.01 56.9286 76.6387 56.9286H90.8637C91.4925 56.9286 92.0426 57.4801 92.0426 58.1104C92.0426 58.7407 91.5711 59.2923 90.8637 59.2923Z" fill="#D4DBEC"/>
    <path d="M69.8013 59.2923H41.3512C40.7225 59.2923 40.1724 58.7407 40.1724 58.1104C40.1724 57.4801 40.7225 56.9286 41.3512 56.9286H69.8013C70.43 56.9286 70.9802 57.4801 70.9802 58.1104C70.9802 58.7407 70.5086 59.2923 69.8013 59.2923Z" fill="#B3BFD3"/>
    <path d="M79.5464 70.9522H63.9068C63.278 70.9522 62.7279 70.4007 62.7279 69.7704C62.7279 69.14 63.278 68.5885 63.9068 68.5885H79.5464C80.1752 68.5885 80.7253 69.14 80.7253 69.7704C80.8039 70.4007 80.2538 70.9522 79.5464 70.9522Z" fill="#B3BFD3"/>
    <path d="M57.0695 70.9522H41.3512C40.7225 70.9522 40.1724 70.4007 40.1724 69.7704C40.1724 69.14 40.7225 68.5885 41.3512 68.5885H57.1481C57.7768 68.5885 58.327 69.14 58.327 69.7704C58.327 70.4007 57.7768 70.9522 57.0695 70.9522Z" fill="#D4DBEC"/>
    <path d="M90.8638 82.6124H79.9396C79.3109 82.6124 78.7607 82.0608 78.7607 81.4305C78.7607 80.8002 79.3109 80.2486 79.9396 80.2486H90.8638C91.4925 80.2486 92.0427 80.8002 92.0427 81.4305C92.0427 82.0608 91.5711 82.6124 90.8638 82.6124Z" fill="#B3BFD3"/>
    <path d="M72.8663 82.6124H54.5545C53.9257 82.6124 53.3756 82.0608 53.3756 81.4305C53.3756 80.8002 53.9257 80.2486 54.5545 80.2486H72.8663C73.495 80.2486 74.0451 80.8002 74.0451 81.4305C74.0451 82.0608 73.495 82.6124 72.8663 82.6124Z" fill="#D4DBEC"/>
    <path d="M47.7171 82.6124H41.3512C40.7225 82.6124 40.1724 82.0608 40.1724 81.4305C40.1724 80.8002 40.7225 80.2486 41.3512 80.2486H47.7171C48.3459 80.2486 48.896 80.8002 48.896 81.4305C48.896 82.0608 48.3459 82.6124 47.7171 82.6124Z" fill="#B3BFD3"/>
    <path d="M79.5464 94.2724H68.7008C68.0721 94.2724 67.522 93.7208 67.522 93.0905C67.522 92.4602 68.0721 91.9086 68.7008 91.9086H79.5464C80.1752 91.9086 80.7253 92.4602 80.7253 93.0905C80.8039 93.7208 80.2538 94.2724 79.5464 94.2724Z" fill="#B3BFD3"/>
    <path d="M61.5492 94.2724H41.3512C40.7225 94.2724 40.1724 93.7208 40.1724 93.0905C40.1724 92.4602 40.7225 91.9086 41.3512 91.9086H61.5492C62.1779 91.9086 62.7281 92.4602 62.7281 93.0905C62.7281 93.7208 62.1779 94.2724 61.5492 94.2724Z" fill="#D4DBEC"/>
    <path d="M64.0641 105.223H79.9395C79.9395 107.902 81.0398 110.345 82.7688 112.078C84.4978 113.89 86.9341 114.915 89.6062 114.915H18.1667C15.4946 114.915 13.0583 113.812 11.3293 112.078C9.60028 110.345 8.5 107.902 8.5 105.223H55.4976C55.4976 105.223 64.2212 105.302 64.0641 105.223Z" fill="#CCD4E2"/>
    <path d="M132.218 97.6784L122.295 87.7701L124.57 85.4968L134.485 95.413L132.218 97.6784Z" fill="#858B9B"/>
    <path d="M135.667 101.165L128.058 93.5609C127.423 92.926 127.423 91.8912 128.058 91.2563C128.693 90.6213 129.729 90.6213 130.364 91.2563L137.973 98.86C138.609 99.4949 138.609 100.53 137.973 101.165C137.338 101.8 136.302 101.8 135.667 101.165Z" fill="#858B9B"/>
    <path d="M135.126 101.651L125.336 91.8676C125.109 91.6403 125.109 91.2719 125.336 91.0367L127.838 88.5361C128.066 88.3088 128.435 88.3088 128.67 88.5361L138.46 98.319C138.687 98.5464 138.687 98.9148 138.46 99.15L135.957 101.651C135.722 101.878 135.353 101.878 135.126 101.651Z" fill="url(#paint1_linear_823_1673)"/>
    <path d="M111.062 55.8422C100.676 55.8422 92.2589 64.2533 92.2589 74.632C92.2589 85.0028 100.676 93.4217 111.054 93.4217C121.44 93.4217 129.857 85.0106 129.857 74.632C129.857 64.2533 121.44 55.8422 111.062 55.8422ZM111.062 89.9413C102.723 89.9413 95.9693 83.0822 95.9693 74.6241C95.9693 66.166 102.723 59.3148 111.062 59.3148C119.4 59.3148 126.154 66.1738 126.154 74.632C126.154 83.0901 119.392 89.9413 111.062 89.9413Z" fill="url(#paint2_linear_823_1673)"/>
    <defs>
        <filter id="filter0_d_823_1673" x="0.925259" y="4.36107" width="140.974" height="154.884" filterUnits="userSpaceOnUse" color-interpolation-filters="sRGB">
            <feFlood flood-opacity="0" result="BackgroundImageFix"/>
            <feColorMatrix in="SourceAlpha" type="matrix" values="0 0 0 0 0 0 0 0 0 0 0 0 0 0 0 0 0 0 127 0" result="hardAlpha"/>
            <feOffset dy="14.7509"/>
            <feGaussianBlur stdDeviation="14.7509"/>
            <feColorMatrix type="matrix" values="0 0 0 0 0.397708 0 0 0 0 0.47749 0 0 0 0 0.575 0 0 0 0.27 0"/>
            <feBlend mode="normal" in2="BackgroundImageFix" result="effect1_dropShadow_823_1673"/>
            <feBlend mode="normal" in="SourceGraphic" in2="effect1_dropShadow_823_1673" result="shape"/>
        </filter>
        <linearGradient id="paint0_linear_823_1673" x1="71.3857" y1="16.8941" x2="71.3857" y2="116.026" gradientUnits="userSpaceOnUse">
            <stop stop-color="#FDFEFF"/>
            <stop offset="0.9964" stop-color="#ECF0F5"/>
        </linearGradient>
        <linearGradient id="paint1_linear_823_1673" x1="125.159" y1="95.0948" x2="138.633" y2="95.0948" gradientUnits="userSpaceOnUse">
            <stop stop-color="#B0BACC"/>
            <stop offset="1" stop-color="#969EAE"/>
        </linearGradient>
        <linearGradient id="paint2_linear_823_1673" x1="92.2417" y1="74.636" x2="129.863" y2="74.636" gradientUnits="userSpaceOnUse">
            <stop stop-color="#B0BACC"/>
            <stop offset="1" stop-color="#969EAE"/>
        </linearGradient>
    </defs>
</svg>
