<svg width="139" height="98" viewBox="0 0 139 98" fill="none" xmlns="http://www.w3.org/2000/svg">
<g filter="url(#filter0_d_1078_9078)">
<path d="M93.1529 86H14.7494C11.1447 86 8.21582 82.9278 8.21582 79.1466V26.4471C8.21582 22.6659 11.1447 19.5938 14.7494 19.5938H93.1529C96.7577 19.5938 99.6865 22.6659 99.6865 26.4471V79.383C99.4612 82.9278 96.5324 86 93.1529 86Z" fill="url(#paint0_linear_1078_9078)"/>
<path d="M55.8301 44.5374H70.8664" stroke="#E3E7EF" stroke-width="4.06497" stroke-miterlimit="10" stroke-linecap="round" stroke-linejoin="round"/>
<path d="M55.8301 52.4236H84.6496" stroke="#E3E7EF" stroke-width="4.06497" stroke-miterlimit="10" stroke-linecap="round" stroke-linejoin="round"/>
<path d="M55.8301 60.9666H73.9989" stroke="#E3E7EF" stroke-width="4.06497" stroke-miterlimit="10" stroke-linecap="round" stroke-linejoin="round"/>
<path d="M115.1 40.0213C114.57 39.4908 114.57 38.6308 115.1 38.1003C115.631 37.5698 116.491 37.5698 117.021 38.1003L130.148 51.2273C130.679 51.7577 130.679 52.6178 130.148 53.1483C129.618 53.6787 128.758 53.6787 128.227 53.1483L115.1 40.0213Z" fill="#848B9B"/>
<circle cx="103.254" cy="26.2539" r="17.3529" transform="rotate(-45 103.254 26.2539)" stroke="#A1AABB" stroke-width="2.42278"/>
<path d="M33.9567 54C37.6423 54 40.6301 50.866 40.6301 47C40.6301 43.134 37.6423 40 33.9567 40C30.271 40 27.2832 43.134 27.2832 47C27.2832 50.866 30.271 54 33.9567 54Z" fill="#CBD4E0"/>
<path d="M23.4697 65C23.4697 58.9811 28.2185 54 33.9566 54C39.6947 54 44.4435 58.9811 44.4435 65" fill="#CBD4E0"/>
</g>
<defs>
<filter id="filter0_d_1078_9078" x="0.21582" y="3.68945" width="138.33" height="94.3105" filterUnits="userSpaceOnUse" color-interpolation-filters="sRGB">
<feFlood flood-opacity="0" result="BackgroundImageFix"/>
<feColorMatrix in="SourceAlpha" type="matrix" values="0 0 0 0 0 0 0 0 0 0 0 0 0 0 0 0 0 0 127 0" result="hardAlpha"/>
<feOffset dy="4"/>
<feGaussianBlur stdDeviation="4"/>
<feComposite in2="hardAlpha" operator="out"/>
<feColorMatrix type="matrix" values="0 0 0 0 0.396078 0 0 0 0 0.478431 0 0 0 0 0.576471 0 0 0 0.1 0"/>
<feBlend mode="normal" in2="BackgroundImageFix" result="effect1_dropShadow_1078_9078"/>
<feBlend mode="normal" in="SourceGraphic" in2="effect1_dropShadow_1078_9078" result="shape"/>
</filter>
<linearGradient id="paint0_linear_1078_9078" x1="53.9214" y1="18.0577" x2="53.9214" y2="86.7159" gradientUnits="userSpaceOnUse">
<stop stop-color="#FDFEFF"/>
<stop offset="0.9964" stop-color="#ECF0F5"/>
</linearGradient>
</defs>
</svg>
