<svg width="25" height="25" viewBox="0 0 25 25" fill="none" xmlns="http://www.w3.org/2000/svg">
<path fill-rule="evenodd" clip-rule="evenodd" d="M4.97171 12.7847C4.97171 10.8355 6.34601 9.17075 8.27061 8.53058C8.54014 8.24956 8.9027 7.93955 9.26897 7.73368C9.52055 7.59228 9.77388 7.5 10 7.5C10.2338 7.5 10.4966 7.59864 10.7566 7.74823C10.8098 7.77882 10.8628 7.81154 10.9154 7.84598L10.9185 7.84797C11.2115 8.0401 11.492 8.2854 11.7129 8.51351C13.6643 9.14184 15.0699 10.823 15.0699 12.7847V14.9689C15.0699 15.4299 15.2887 16.1328 15.5411 16.5258L16.5089 17.9693C17.0643 18.8007 16.6183 19.8814 15.6001 20.1838C14.5654 20.4942 13.5074 20.7161 12.4395 20.8495C12.1424 21.7984 11.1589 22.5 10 22.5C9.30813 22.5 8.66687 22.245 8.21125 21.84C7.90741 21.5699 7.67861 21.2265 7.55989 20.8452C6.50343 20.7114 5.45689 20.491 4.43314 20.1838C3.33917 19.8512 2.92683 18.8611 3.52431 17.9693L4.49205 16.5258C4.75292 16.1328 4.97171 15.4299 4.97171 14.9689V12.7847ZM4.61172 18.5449L5.57927 17.1017L5.58208 17.0975C5.78791 16.7874 5.94467 16.412 6.05011 16.0709C6.15549 15.7299 6.23734 15.3335 6.23734 14.9689V12.7847C6.23734 10.8934 7.94667 9.375 10.0208 9.375C12.0865 9.375 13.8043 10.9009 13.8043 12.7847V14.9689C13.8043 15.3332 13.886 15.7289 13.9894 16.0675C14.0932 16.4072 14.2458 16.7781 14.4421 17.0836L14.4479 17.0927L15.4211 18.5444C15.5719 18.771 15.4367 19.0462 15.1991 19.1167L15.1953 19.1179C11.8318 20.1271 8.20431 20.1274 4.84076 19.1187C4.62321 19.0521 4.55482 18.9526 4.53277 18.8992C4.51079 18.8458 4.48956 18.7274 4.61172 18.5449ZM10.9618 20.9772C10.3199 21.0082 9.67661 21.0076 9.03477 20.9754C9.05752 20.9994 9.08134 21.0224 9.10618 21.0445C9.33488 21.2478 9.65825 21.375 10 21.375C10.3828 21.375 10.7287 21.2199 10.9618 20.9772ZM10.6328 11.0625C10.6328 10.7518 10.3495 10.5 10 10.5C9.65051 10.5 9.36719 10.7518 9.36719 11.0625L9.36719 13.6875C9.36719 13.9982 9.65051 14.25 10 14.25C10.3495 14.25 10.6328 13.9982 10.6328 13.6875V11.0625Z" fill="#1B1D29"/>
<rect x="9" width="16" height="16" rx="8" fill="#E43434"/>
<path d="M17.833 3.87109V11H16.5391V5.37988L14.8252 5.94629V4.90137L17.6865 3.87109H17.833Z" fill="white"/>
</svg>
