<svg width="24" height="24" viewBox="0 0 24 24" fill="none" xmlns="http://www.w3.org/2000/svg">
<path fill-rule="evenodd" clip-rule="evenodd" d="M10.5 2.25C10.2239 2.25 10 2.47386 10 2.75C10 3.02614 10.2239 3.25 10.5 3.25H9.6C7.51323 3.25 5.85784 3.69727 4.75012 4.89153C3.65569 6.07146 3.25 7.81843 3.25 10.0375V15.2125C3.25 17.4316 3.65569 19.1785 4.75012 20.3585C5.85784 21.5527 7.51323 22 9.6 22H14.4C16.4868 22 18.1422 21.5527 19.2499 20.3585C20.3443 19.1785 20.75 17.4316 20.75 15.2125V10.0375C20.75 7.81843 20.3443 6.07146 19.2499 4.89153C18.1422 3.69727 16.4868 3.25 14.4 3.25H13.5C13.7761 3.25 14 3.02614 14 2.75C14 2.47386 13.7761 2.25 13.5 2.25H10.5ZM4.75 10.0375C4.75 7.94407 5.14431 6.67229 5.84988 5.91159C6.15139 5.58653 6.5387 5.32428 7.03794 5.13178C7.01316 5.2496 7 5.37295 7 5.5C7 6.32843 7.55964 7 8.25 7H15.75C16.4404 7 17 6.32843 17 5.5C17 5.37295 16.9868 5.24959 16.9621 5.13178C17.4613 5.32428 17.8486 5.58653 18.1501 5.91159C18.8557 6.67229 19.25 7.94407 19.25 10.0375V15.2125C19.25 17.3059 18.8557 18.5777 18.1501 19.3384C17.4578 20.0848 16.3132 20.5 14.4 20.5H9.6C7.68677 20.5 6.54216 20.0848 5.84988 19.3384C5.14431 18.5777 4.75 17.3059 4.75 15.2125V10.0375ZM7.25 13C7.25 12.5858 7.58579 12.25 8 12.25H12C12.4142 12.25 12.75 12.5858 12.75 13C12.75 13.4142 12.4142 13.75 12 13.75H8C7.58579 13.75 7.25 13.4142 7.25 13ZM7.25 17C7.25 16.5858 7.58579 16.25 8 16.25H16C16.4142 16.25 16.75 16.5858 16.75 17C16.75 17.4142 16.4142 17.75 16 17.75H8C7.58579 17.75 7.25 17.4142 7.25 17Z" fill=""/>
</svg>
