<svg xmlns="http://www.w3.org/2000/svg" width="117" height="107" viewBox="0 0 117 107" fill="none">
  <g filter="url(#filter0_d_987_7771)">
    <path d="M30.4064 56.8661L17.9493 17.629C17.1914 15.2417 18.4035 12.7142 20.6864 11.9216L42.286 4.42258C44.5689 3.63 46.9859 4.89758 47.7438 7.28486L60.2009 46.522C60.9588 48.9093 59.7467 51.4368 57.4638 52.2294L35.8642 59.7284C33.5813 60.521 31.1643 59.2534 30.4064 56.8661Z" fill="url(#paint0_linear_987_7771)"/>
    <path d="M27.169 23.1275L25.1867 16.8839C25.0118 16.333 25.2855 15.7622 25.8124 15.5793C26.3392 15.3964 26.885 15.6826 27.0599 16.2335L29.0421 22.4772C29.217 23.0281 28.9433 23.5989 28.4165 23.7818C27.8897 23.9647 27.3439 23.6784 27.169 23.1275Z" fill="#D5DDEA"/>
    <path d="M33.8293 31.9969L28.6494 15.6814C28.4745 15.1304 28.7482 14.5597 29.275 14.3768C29.8018 14.1939 30.3476 14.4801 30.5225 15.031L35.7024 31.3466C35.8773 31.8975 35.6036 32.4683 35.0768 32.6512C34.5499 32.8341 34.0042 32.5479 33.8293 31.9969Z" fill="#D5DDEA"/>
    <path d="M30.3765 33.2271L28.3942 26.9835C28.2193 26.4326 28.493 25.8618 29.0198 25.6789C29.5467 25.496 30.0924 25.7822 30.2673 26.3332L32.2496 32.5768C32.4245 33.1277 32.1508 33.6985 31.624 33.8814C31.0971 34.0643 30.5514 33.7781 30.3765 33.2271Z" fill="#D5DDEA"/>
    <path d="M33.5823 43.3271L31.6001 37.0834C31.4252 36.5325 31.6989 35.9617 32.2257 35.7788C32.7525 35.5959 33.2983 35.8822 33.4732 36.4331L35.4554 42.6767C35.6304 43.2276 35.3566 43.7984 34.8298 43.9813C34.303 44.1642 33.7572 43.878 33.5823 43.3271Z" fill="#D5DDEA"/>
    <path d="M36.7891 53.4272L34.8069 47.1835C34.632 46.6326 34.9057 46.0618 35.4325 45.8789C35.9593 45.696 36.5051 45.9823 36.68 46.5332L38.6623 52.7768C38.8372 53.3277 38.5635 53.8985 38.0367 54.0814C37.5098 54.2643 36.9641 53.9781 36.7891 53.4272Z" fill="#D5DDEA"/>
    <path d="M37.4698 20.162L35.2933 13.3062C35.1378 12.8165 35.4115 12.2458 35.8798 12.0832L40.0943 10.62C40.5626 10.4574 41.1084 10.7436 41.2639 11.2333L43.421 18.0279C43.5765 18.5176 43.3028 19.0883 42.8345 19.2509L38.62 20.7141C38.1711 20.9379 37.6253 20.6517 37.4698 20.162Z" fill="#D5DDEA"/>
    <circle cx="65.3093" cy="23.119" r="12.1045" transform="rotate(14.0283 65.3093 23.119)" fill="url(#paint1_linear_987_7771)"/>
    <path d="M65.121 27.6077C64.4318 27.9985 63.6461 28.1355 62.8854 27.9976L62.551 29.3973L61.3876 29.0934L61.7154 27.7216C61.1635 27.5445 60.6369 27.2894 60.1491 26.9629C59.7322 26.6972 59.3621 26.3553 59.055 25.9521L60.0692 24.5813C60.3279 24.9144 60.6292 25.2058 60.9644 25.4472C61.3204 25.7093 61.7082 25.9181 62.1173 26.0682L62.6189 23.9686C62.1679 23.7285 61.738 23.4457 61.3342 23.1236C60.997 22.8578 60.7274 22.5051 60.5495 22.0969C60.3728 21.6359 60.3515 21.1203 60.4893 20.6387C60.5673 20.3017 60.7085 19.9845 60.9042 19.7069C61.0999 19.4293 61.3459 19.1971 61.6268 19.025C62.3201 18.6292 63.113 18.4945 63.8777 18.6428L64.2121 17.2431L65.3755 17.547L65.0469 18.9222C65.8714 19.1836 66.6205 19.6602 67.2285 20.3102L66.2765 21.7084C65.8151 21.2174 65.2636 20.8354 64.6562 20.5861L64.1437 22.7312C64.5944 22.9663 65.0244 23.2441 65.4286 23.5613C65.7597 23.8252 66.0231 24.1751 66.1948 24.5794C66.3725 25.0351 66.395 25.5463 66.2583 26.0236C66.1805 26.3569 66.0391 26.67 65.8432 26.9428C65.6474 27.2156 65.4014 27.4421 65.121 27.6077ZM62.4928 21.6083C62.6448 21.8215 62.8364 21.9981 63.0555 22.1271L63.4852 20.3285C63.2318 20.309 62.9775 20.3721 62.7553 20.5095C62.5815 20.6276 62.4567 20.8141 62.4081 21.0285C62.3802 21.1265 62.3734 21.2296 62.388 21.3301C62.4027 21.4306 62.4385 21.5257 62.4928 21.6083ZM63.9922 26.1677C64.0762 26.1151 64.1497 26.0448 64.2081 25.9609C64.2666 25.8771 64.3086 25.7816 64.3318 25.6802C64.3568 25.5823 64.3615 25.48 64.3454 25.3806C64.3294 25.2813 64.293 25.1874 64.239 25.1057C64.0897 24.9005 63.9068 24.7267 63.6989 24.5928L63.2809 26.3424C63.5274 26.3575 63.7741 26.297 63.9922 26.1677Z" fill="#E1E5EF"/>
    <circle cx="80.4962" cy="26.9303" r="8.513" transform="rotate(-25.7203 80.4962 26.9303)" fill="url(#paint2_linear_987_7771)"/>
    <path d="M80.7904 28.618C80.5857 29.1534 80.2198 29.597 79.7492 29.8802L80.1703 30.7943L79.4105 31.1771L78.9978 30.2812C78.6232 30.4449 78.2288 30.5546 77.8246 30.6075C77.4849 30.6599 77.1378 30.649 76.7983 30.5754L76.7572 29.3573C77.0403 29.4157 77.3286 29.4316 77.6137 29.4045C77.9189 29.3788 78.2183 29.3094 78.5041 29.1981L77.8725 27.8269C77.5254 27.9092 77.1713 27.9584 76.8144 27.9741C76.5178 27.989 76.2203 27.9251 75.9486 27.788C75.6548 27.6218 75.4216 27.353 75.289 27.0278C75.1862 26.8089 75.1262 26.571 75.1126 26.3289C75.099 26.0867 75.1322 25.8455 75.2101 25.6203C75.4148 25.0802 75.7856 24.6346 76.2629 24.3551L75.8418 23.441L76.6016 23.0582L77.0153 23.9564C77.5735 23.71 78.1835 23.6154 78.7918 23.6809L78.8782 24.8847C78.4176 24.8362 77.9552 24.889 77.5195 25.0398L78.1649 26.4407C78.5097 26.3559 78.8616 26.3039 79.2166 26.2854C79.5091 26.2723 79.802 26.3377 80.0687 26.4756C80.3608 26.6384 80.5928 26.9043 80.7241 27.2267C80.8254 27.4434 80.8836 27.6792 80.895 27.9189C80.9064 28.1585 80.8708 28.3967 80.7904 28.618ZM76.7893 26.61C76.9632 26.6537 77.1427 26.6591 77.3166 26.6259L76.7755 25.4512C76.6301 25.5598 76.5198 25.7135 76.4587 25.8923C76.4155 26.0379 76.4282 26.1975 76.4942 26.3363C76.5212 26.4023 76.5618 26.4613 76.613 26.5088C76.6641 26.5562 76.7244 26.5908 76.7893 26.61ZM79.5607 28.3702C79.5836 28.3023 79.5931 28.2297 79.5886 28.1569C79.5841 28.0841 79.5658 28.0126 79.5347 27.9469C79.5061 27.8822 79.4647 27.8247 79.4133 27.7785C79.3619 27.7324 79.3018 27.6987 79.2375 27.6799C79.0685 27.6391 78.8948 27.6312 78.7249 27.6565L79.2513 28.7992C79.3911 28.6914 79.4984 28.5427 79.5607 28.3702Z" fill="#E1E5EF"/>
    <path d="M99.4485 94.9999H31.3781C26.6485 94.9999 22.8891 91.0686 22.8891 86.1227V39.3271C22.8891 34.3812 26.6485 30.4498 31.3781 30.4498H99.4485C104.178 30.4498 107.937 34.3812 107.937 39.3271V86.1227C107.937 91.0686 104.178 94.9999 99.4485 94.9999Z" fill="url(#paint3_linear_987_7771)"/>
    <path d="M90.7823 52.2854H107.083C107.328 52.2854 107.571 52.3358 107.797 52.4336C108.024 52.5314 108.23 52.6748 108.403 52.8556C108.577 53.0364 108.714 53.251 108.808 53.4872C108.902 53.7234 108.95 53.9765 108.95 54.2322V68.0373C108.95 68.293 108.902 68.5461 108.808 68.7823C108.714 69.0185 108.577 69.2331 108.403 69.4139C108.23 69.5947 108.024 69.7381 107.797 69.8359C107.571 69.9338 107.328 69.9841 107.083 69.9841H90.7823C88.5307 69.9841 86.3713 69.0518 84.7792 67.3922C83.187 65.7326 82.2926 63.4818 82.2926 61.1348C82.2926 58.7878 83.187 56.5369 84.7792 54.8773C86.3713 53.2177 88.5307 52.2854 90.7823 52.2854Z" fill="#22315B"/>
    <path d="M104.111 56.8364V53.7568C104.111 53.507 103.917 53.3045 103.677 53.3045H103.526C103.287 53.3045 103.092 53.507 103.092 53.7568V56.8364C103.092 57.0862 103.287 57.2887 103.526 57.2887H103.677C103.917 57.2887 104.111 57.0862 104.111 56.8364Z" fill="#2970D6"/>
    <path d="M104.111 63.0311V59.9516C104.111 59.7018 103.917 59.4993 103.677 59.4993H103.526C103.287 59.4993 103.092 59.7018 103.092 59.9516V63.0311C103.092 63.281 103.287 63.4835 103.526 63.4835H103.677C103.917 63.4835 104.111 63.281 104.111 63.0311Z" fill="#2970D6"/>
    <path d="M104.111 69.226V66.1464C104.111 65.8966 103.917 65.6941 103.677 65.6941H103.526C103.287 65.6941 103.092 65.8966 103.092 66.1464V69.226C103.092 69.4758 103.287 69.6783 103.526 69.6783H103.677C103.917 69.6783 104.111 69.4758 104.111 69.226Z" fill="#2970D6"/>
    <path d="M92.4808 65.2059C94.6378 65.2059 96.3865 63.3832 96.3865 61.1348C96.3865 58.8864 94.6378 57.0637 92.4808 57.0637C90.3237 57.0637 88.5751 58.8864 88.5751 61.1348C88.5751 63.3832 90.3237 65.2059 92.4808 65.2059Z" fill="#FFDA3E"/>
    <path d="M14.7268 17.6742C14.7299 18.0112 14.5498 18.2827 14.3216 18.285L9.73413 18.3315C9.5059 18.3338 9.32082 18.0661 9.31769 17.7291C9.31457 17.3921 9.49465 17.1207 9.72288 17.1184L14.3103 17.0718C14.5385 17.0695 14.7236 17.3372 14.7268 17.6742Z" fill="#989FB0"/>
    <path d="M17.9902 9.66388C17.6975 9.80504 17.3843 9.73867 17.2855 9.51454L15.2983 5.00956C15.1995 4.78543 15.3545 4.4932 15.6471 4.35205C15.9398 4.21089 16.253 4.27726 16.3518 4.50139L18.339 9.00637C18.4378 9.2305 18.2828 9.52273 17.9902 9.66388Z" fill="#989FB0"/>
    <path d="M15.6115 13.3572C15.5011 13.6702 15.1499 13.8396 14.8506 13.7242L8.76485 11.3525C8.46552 11.2371 8.30354 10.8699 8.41389 10.5568C8.52425 10.2438 8.87542 10.0744 9.17476 10.1898L15.247 12.5309C15.5599 12.6769 15.7218 13.0441 15.6115 13.3572Z" fill="#989FB0"/>
    <path d="M90.7823 52.2854H107.083C107.328 52.2854 107.571 52.3358 107.797 52.4336C108.024 52.5314 108.23 52.6748 108.403 52.8556C108.577 53.0364 108.714 53.251 108.808 53.4872C108.902 53.7234 108.95 53.9765 108.95 54.2322V68.0373C108.95 68.293 108.902 68.5461 108.808 68.7823C108.714 69.0185 108.577 69.2331 108.403 69.4139C108.23 69.5947 108.024 69.7381 107.797 69.8359C107.571 69.9338 107.328 69.9841 107.083 69.9841H90.7823C88.5307 69.9841 86.3713 69.0518 84.7792 67.3922C83.187 65.7326 82.2926 63.4818 82.2926 61.1348C82.2926 58.7878 83.187 56.5369 84.7792 54.8773C86.3713 53.2177 88.5307 52.2854 90.7823 52.2854Z" fill="#CBD4E0"/>
    <circle cx="94.1618" cy="60.6775" r="4.35303" fill="white"/>
  </g>
  <defs>
    <filter id="filter0_d_987_7771" x="0.189507" y="-1" width="116.761" height="108" filterUnits="userSpaceOnUse" color-interpolation-filters="sRGB">
      <feFlood flood-opacity="0" result="BackgroundImageFix"/>
      <feColorMatrix in="SourceAlpha" type="matrix" values="0 0 0 0 0 0 0 0 0 0 0 0 0 0 0 0 0 0 127 0" result="hardAlpha"/>
      <feOffset dy="4"/>
      <feGaussianBlur stdDeviation="4"/>
      <feComposite in2="hardAlpha" operator="out"/>
      <feColorMatrix type="matrix" values="0 0 0 0 0.396078 0 0 0 0 0.478431 0 0 0 0 0.576471 0 0 0 0.1 0"/>
      <feBlend mode="normal" in2="BackgroundImageFix" result="effect1_dropShadow_987_7771"/>
      <feBlend mode="normal" in="SourceGraphic" in2="effect1_dropShadow_987_7771" result="shape"/>
    </filter>
    <linearGradient id="paint0_linear_987_7771" x1="54.6566" y1="26.6486" x2="23.5878" y2="36.5123" gradientUnits="userSpaceOnUse">
      <stop stop-color="#FDFEFF"/>
      <stop offset="0.9964" stop-color="#ECF0F5"/>
    </linearGradient>
    <linearGradient id="paint1_linear_987_7771" x1="53.2285" y1="14.2919" x2="78.1028" y2="32.3736" gradientUnits="userSpaceOnUse">
      <stop stop-color="white"/>
      <stop offset="1" stop-color="#F1F1F1"/>
    </linearGradient>
    <linearGradient id="paint2_linear_987_7771" x1="71.9998" y1="20.7223" x2="89.4937" y2="33.439" gradientUnits="userSpaceOnUse">
      <stop stop-color="white"/>
      <stop offset="1" stop-color="#F1F1F1"/>
    </linearGradient>
    <linearGradient id="paint3_linear_987_7771" x1="70.2147" y1="28.9567" x2="70.2147" y2="95.6958" gradientUnits="userSpaceOnUse">
      <stop stop-color="#FDFEFF"/>
      <stop offset="0.9964" stop-color="#ECF0F5"/>
    </linearGradient>
  </defs>
</svg>