<svg width="14" height="14" viewBox="0 0 14 14" fill="none" xmlns="http://www.w3.org/2000/svg">
<path fill-rule="evenodd" clip-rule="evenodd" d="M7.00065 12.6663C10.115 12.6663 12.6673 10.1141 12.6673 6.99967C12.6673 3.88529 10.115 1.33301 7.00065 1.33301C3.88627 1.33301 1.33398 3.88529 1.33398 6.99967C1.33398 10.1141 3.88627 12.6663 7.00065 12.6663ZM13.6673 6.99967C13.6673 10.6663 10.6673 13.6663 7.00065 13.6663C3.33398 13.6663 0.333984 10.6663 0.333984 6.99967C0.333984 3.33301 3.33398 0.333008 7.00065 0.333008C10.6673 0.333008 13.6673 3.33301 13.6673 6.99967ZM6.99935 10.1663C6.72321 10.1663 6.49935 9.94248 6.49935 9.66634L6.49935 6.33301C6.49935 6.05687 6.72321 5.83301 6.99935 5.83301C7.27549 5.83301 7.49935 6.05687 7.49935 6.33301L7.49935 9.66634C7.49935 9.94248 7.27549 10.1663 6.99935 10.1663ZM7.00293 4.99967C7.37112 4.99967 7.6696 4.7012 7.6696 4.33301C7.6696 3.96482 7.37112 3.66634 7.00293 3.66634H6.99694C6.62875 3.66634 6.33028 3.96482 6.33028 4.33301C6.33028 4.7012 6.62875 4.99967 6.99694 4.99967H7.00293Z" fill="#A7ABC3"/>
</svg>
