<svg width="20" height="20" viewBox="0 0 20 20" fill="none" xmlns="http://www.w3.org/2000/svg">
<path fill-rule="evenodd" clip-rule="evenodd" d="M9.99984 1.04167C5.05466 1.04167 1.0415 5.05483 1.0415 10C1.0415 14.9452 5.05466 18.9583 9.99984 18.9583C10.345 18.9583 10.6248 18.6785 10.6248 18.3333C10.6248 17.9882 10.345 17.7083 9.99984 17.7083C9.35297 17.7083 8.72463 17.6285 8.12413 17.4782C8.12207 17.419 8.11157 17.3596 8.09234 17.3021C7.75112 16.2801 7.48349 15.2401 7.28945 14.1898C8.18996 14.2909 9.09486 14.3417 9.99984 14.3417C10.345 14.3417 10.6248 14.0619 10.6248 13.7167C10.6248 13.3715 10.345 13.0917 9.99984 13.0917C9.02788 13.0917 8.05583 13.0299 7.08964 12.9069C6.84436 10.9761 6.84447 9.02145 7.08996 7.09062C9.02102 6.84504 10.9759 6.84491 12.907 7.09023C13.03 8.05626 13.0917 9.02816 13.0917 9.99997C13.0917 10.3451 13.3715 10.625 13.7167 10.625C14.0619 10.625 14.3417 10.3451 14.3417 9.99997C14.3417 9.09515 14.2909 8.19039 14.1898 7.29004C15.2401 7.48407 16.2802 7.7517 17.3021 8.09291C17.3604 8.1124 17.4196 8.1228 17.4782 8.12487C17.6284 8.7252 17.7082 9.35335 17.7082 10C17.7082 10.3452 17.988 10.625 18.3332 10.625C18.6784 10.625 18.9582 10.3452 18.9582 10C18.9582 5.05483 14.945 1.04167 9.99984 1.04167ZM12.707 5.80746C10.907 5.60585 9.08983 5.60596 7.2899 5.80781C7.4839 4.7583 7.75138 3.71908 8.09234 2.69795C8.11156 2.64037 8.12207 2.58106 8.12414 2.52182C8.72464 2.37149 9.35298 2.29167 9.99984 2.29167C10.6466 2.29167 11.2748 2.37147 11.8752 2.52174C11.8773 2.57998 11.8876 2.6389 11.9069 2.697C12.2462 3.71843 12.5131 4.75785 12.707 5.80746ZM16.9538 6.67201C15.9837 6.38236 14.9998 6.15466 14.0081 5.98891C13.8423 4.9979 13.6151 4.01482 13.3268 3.04555C14.91 3.80488 16.1943 5.08899 16.9538 6.67201ZM3.0458 6.67212C4.01502 6.38273 4.99796 6.15517 5.98876 5.98945C6.14999 5.02531 6.36978 4.06861 6.64812 3.12475C6.61049 3.12368 6.57368 3.11929 6.538 3.11185C5.01676 3.87845 3.78366 5.13424 3.0458 6.67212ZM2.69795 8.09291C2.63947 8.11244 2.58014 8.12284 2.52151 8.12488C2.37127 8.7252 2.2915 9.35335 2.2915 10C2.2915 10.6468 2.3713 11.275 2.52157 11.8754C2.58052 11.8774 2.63955 11.8878 2.69687 11.9069C3.71815 12.2461 4.75742 12.513 5.80688 12.7069C5.6053 10.9072 5.60539 9.09028 5.80716 7.2906C4.75787 7.48459 3.71887 7.75202 2.69795 8.09291ZM3.11163 13.4618C3.85585 14.9386 5.06114 16.1439 6.538 16.8882C6.57369 16.8807 6.61049 16.8763 6.64812 16.8753C6.36953 15.9306 6.1496 14.973 5.98833 14.008C5.02444 13.8468 4.06808 13.6274 3.12461 13.3503C3.1236 13.3884 3.11917 13.4256 3.11163 13.4618ZM12.9165 16.6147V14.7917H18.7498V16.6107C18.7498 16.8174 18.7396 16.9572 18.7267 17.0499C18.6088 17.069 18.4271 17.0833 18.1498 17.0833L13.5165 17.0833L13.5132 17.0833C13.238 17.084 13.0571 17.0704 12.9393 17.0518C12.9266 16.9592 12.9165 16.8199 12.9165 16.6147ZM12.9165 13.5417H18.7498V13.3892C18.7498 13.1827 18.7396 13.043 18.7267 12.9504C18.6081 12.9311 18.4251 12.9167 18.1457 12.9167H13.5165C13.2393 12.9167 13.0576 12.931 12.9396 12.9501C12.9268 13.0427 12.9165 13.1826 12.9165 13.3892V13.5417ZM13.9392 15.2083C13.5941 15.2083 13.3142 15.4882 13.3142 15.8333C13.3142 16.1785 13.5941 16.4583 13.9392 16.4583H14.6968C15.042 16.4583 15.3218 16.1785 15.3218 15.8333C15.3218 15.4882 15.042 15.2083 14.6968 15.2083H13.9392ZM13.5165 11.6667H18.1457C19.629 11.6667 19.9998 12.012 19.9998 13.3892V16.6107C19.9998 17.988 19.629 18.3333 18.1498 18.3333H13.5165C12.0373 18.3372 11.6665 17.9919 11.6665 16.6147V13.3892C11.6665 12.012 12.0373 11.6667 13.5165 11.6667Z" fill="#1B1D29"/>
</svg>
