<svg width="38" height="44" viewBox="0 0 38 44" fill="none" xmlns="http://www.w3.org/2000/svg">
<path d="M0.534197 14.2816C-1.99644 25.4604 4.9573 34.9447 11.0308 40.7982C15.4759 45.0673 22.4737 45.0673 26.8968 40.7982C32.9923 34.9447 39.946 25.4824 37.4154 14.3036C33.1023 -4.75318 4.86928 -4.77519 0.534197 14.2816Z" fill="#FFC709"/>
<path fill-rule="evenodd" clip-rule="evenodd" d="M27 18.5H20.938C20.3639 18.1814 19.7031 18 19 18C18.2969 18 17.6361 18.1814 17.062 18.5H11C10.7239 18.5 10.5 18.7239 10.5 19V25C10.5 25.2761 10.7239 25.5 11 25.5H17.062C17.6361 25.8186 18.2969 26 19 26C19.7031 26 20.3639 25.8186 20.938 25.5H27C27.2761 25.5 27.5 25.2761 27.5 25V19C27.5 18.7239 27.2761 18.5 27 18.5ZM11 17C9.89543 17 9 17.8954 9 19V25C9 26.1046 9.89543 27 11 27H27C28.1046 27 29 26.1046 29 25V19C29 17.8954 28.1046 17 27 17H11ZM18 20.6799C18 20.4968 18.1352 20.4103 18.2194 20.4103H19.4665C19.6547 20.4149 19.8429 20.5796 19.8429 20.8303C19.8429 21.2445 20.1787 21.5803 20.5929 21.5803C21.0071 21.5803 21.3429 21.2445 21.3429 20.8303C21.3429 19.8317 20.5863 18.9855 19.592 18.9149C19.469 18.6689 19.2147 18.5 18.9209 18.5C18.629 18.5 18.376 18.6668 18.2521 18.9103H18.2194C17.234 18.9103 16.5 19.7431 16.5 20.6799C16.5 21.0937 16.5919 21.4836 16.845 21.8045C17.0904 22.1157 17.414 22.2662 17.6682 22.3563L19.6725 23.0578C19.7634 23.0909 19.7992 23.1143 19.8101 23.1226C19.8178 23.1409 19.8345 23.1967 19.8345 23.3207C19.8345 23.5038 19.6993 23.5903 19.6151 23.5903H18.3615C18.2009 23.5903 18 23.4357 18 23.1703C18 22.7561 17.6642 22.4203 17.25 22.4203C16.8358 22.4203 16.5 22.7561 16.5 23.1703C16.5 24.1543 17.2441 25.0241 18.2458 25.0867C18.3674 25.337 18.624 25.5095 18.9209 25.5095C19.2164 25.5095 19.472 25.3386 19.5942 25.0903H19.6151C20.6006 25.0903 21.3345 24.2575 21.3345 23.3207C21.3345 22.9066 21.2426 22.5184 20.9926 22.1986C20.7498 21.888 20.4299 21.7366 20.1794 21.646L18.1678 20.9419C18.073 20.9083 18.0354 20.8842 18.0237 20.8755C18.016 20.8567 18 20.8013 18 20.6799ZM26 22C26 22.5523 25.5523 23 25 23C24.4477 23 24 22.5523 24 22C24 21.4477 24.4477 21 25 21C25.5523 21 26 21.4477 26 22ZM13 23C13.5523 23 14 22.5523 14 22C14 21.4477 13.5523 21 13 21C12.4477 21 12 21.4477 12 22C12 22.5523 12.4477 23 13 23Z" fill="white"/>
</svg>
