<svg xmlns="http://www.w3.org/2000/svg" width="38" height="44" viewBox="0 0 38 44" fill="none">
  <mask id="path-1-inside-1_319_29545" fill="color">
    <path d="M0.534197 14.2816C-1.99644 25.4604 4.9573 34.9447 11.0308 40.7982C15.4759 45.0673 22.4737 45.0673 26.8968 40.7982C32.9923 34.9447 39.946 25.4824 37.4154 14.3036C33.1023 -4.75318 4.86928 -4.77519 0.534197 14.2816Z"/>
  </mask>
  <path d="M0.534197 14.2816C-1.99644 25.4604 4.9573 34.9447 11.0308 40.7982C15.4759 45.0673 22.4737 45.0673 26.8968 40.7982C32.9923 34.9447 39.946 25.4824 37.4154 14.3036C33.1023 -4.75318 4.86928 -4.77519 0.534197 14.2816Z" fill="#FFC709"/>
  <path d="M11.0308 40.7982L10.6838 41.1582L10.6845 41.1588L11.0308 40.7982ZM0.534197 14.2816L0.046652 14.1707L0.046536 14.1712L0.534197 14.2816ZM37.4154 14.3036L36.9277 14.414L36.9278 14.414L37.4154 14.3036ZM26.8968 40.7982L26.5505 40.4376L26.5496 40.4384L26.8968 40.7982ZM11.3778 40.4382C5.32944 34.609 -1.44697 25.2978 1.02186 14.392L0.046536 14.1712C-2.5459 25.623 4.58516 35.2805 10.6838 41.1582L11.3778 40.4382ZM1.02174 14.3925C3.128 5.1335 11.0314 0.49463 18.9827 0.500005C26.9341 0.505379 34.8322 5.155 36.9277 14.414L37.9031 14.1932C35.6856 4.3954 27.3105 -0.494366 18.9834 -0.499995C10.6562 -0.505624 2.27548 4.37288 0.0466522 14.1707L1.02174 14.3925ZM36.9278 14.414C39.3965 25.3193 32.6206 34.6085 26.5505 40.4376L27.2431 41.1588C33.364 35.281 40.4956 25.6454 37.9031 14.1932L36.9278 14.414ZM26.5496 40.4384C22.3207 44.5201 15.6293 44.5213 11.3772 40.4376L10.6845 41.1588C15.3226 45.6133 22.6267 45.6145 27.244 41.158L26.5496 40.4384Z" fill="" mask="url(#path-1-inside-1_319_29545)"/>
  <mask id="path-3-inside-2_319_29545" fill="color">
    <path d="M8.19679 19.3087C7.47364 20.0618 9.17946 20.9375 10.2824 21.3082C12.1132 21.9358 13.9662 22.2131 15.8793 22.3956V17.096C12.2398 17.4346 9.37885 18.2636 8.20154 19.3014"/>
    <path d="M23.2708 23.6056C26.9103 23.264 29.7744 22.438 30.9501 21.3973C31.6733 20.6456 29.9691 19.7714 28.8614 19.3992C27.0226 18.7745 25.1791 18.4885 23.266 18.3046L23.2708 23.6056Z"/>
    <path d="M19.5742 23.7748C14.5834 23.7748 10.3061 22.8991 8.51169 21.6643C8.51027 21.6622 8.50829 21.6605 8.50594 21.6593C8.50358 21.6581 8.50093 21.6574 8.49824 21.6574C8.49555 21.6574 8.4929 21.6581 8.49054 21.6593C8.48819 21.6605 8.48621 21.6622 8.48479 21.6643L8.49428 21.6833L19.5869 31.9L30.9707 21.3783C29.431 22.7634 24.9212 23.7719 19.5774 23.7748"/>
    <path d="M19.5742 23.7748C14.5834 23.7748 10.3061 22.8991 8.51169 21.6643C8.51027 21.6622 8.50829 21.6605 8.50594 21.6593C8.50358 21.6581 8.50093 21.6574 8.49824 21.6574C8.49555 21.6574 8.4929 21.6581 8.49054 21.6593C8.48819 21.6605 8.48621 21.6622 8.48479 21.6643V21.6819H8.50694C10.3061 23.0364 14.5834 23.9792 19.5742 23.9792C24.9212 23.9792 29.431 22.8787 30.9675 21.3813C29.4278 22.7664 24.918 23.7749 19.5742 23.7778V23.7748ZM8.48479 21.6907C8.48597 21.6977 8.48926 21.7043 8.49428 21.7097V21.6863"/>
    <path d="M23.266 18.4884C25.1649 18.6607 27.0116 18.9263 28.8392 19.5101C29.7744 19.802 31.1242 20.4252 31.1195 21.0383C31.1622 20.3815 29.795 19.7072 28.8614 19.3934C27.0226 18.7687 25.1791 18.4826 23.266 18.2987V18.4884Z"/>
    <path d="M8.17627 19.3218C9.70803 17.9397 14.2274 16.9297 19.5695 16.9253C24.562 16.9253 28.8392 17.801 30.6337 19.0358C30.6366 19.038 30.6402 19.0393 30.644 19.0393C30.6477 19.0393 30.6514 19.038 30.6543 19.0358C30.6572 19.0277 30.6572 19.019 30.6543 19.011L19.5585 8.80005L8.17627 19.3218Z"/>
    <path d="M19.5695 16.7224C14.2274 16.7312 9.70803 17.8229 8.17627 19.3218C9.70803 17.9397 14.2274 16.9297 19.5695 16.9253C24.562 16.9253 28.8392 17.801 30.6337 19.0358C30.6366 19.038 30.6402 19.0393 30.644 19.0393C30.6477 19.0393 30.6514 19.038 30.6543 19.0358V19.0168H30.6274C28.8361 17.6726 24.5763 16.7283 19.5964 16.7254H19.5727L19.5695 16.7224Z"/>
    <path d="M19.5869 31.7614L8.51169 21.6643C8.51027 21.6622 8.50829 21.6605 8.50594 21.6593C8.50358 21.6581 8.50093 21.6574 8.49824 21.6574C8.49555 21.6574 8.4929 21.6581 8.49054 21.6593C8.48819 21.6605 8.48621 21.6622 8.48479 21.6643L8.49428 21.6833L19.5869 31.9L30.9707 21.3783L19.5869 31.7614Z"/>
    <path d="M10.2824 21.3009C12.1133 21.9358 13.9662 22.2131 15.8793 22.3956L15.8794 22.2146C13.971 22.0409 12.137 21.7768 10.3062 21.1929C9.37413 20.901 8.02434 20.2749 8.02434 19.6619C7.9832 20.3187 9.35036 20.993 10.2824 21.3082"/>
  </mask>
  <path d="M8.19679 19.3087C7.47364 20.0618 9.17946 20.9375 10.2824 21.3082C12.1132 21.9358 13.9662 22.2131 15.8793 22.3956V17.096C12.2398 17.4346 9.37885 18.2636 8.20154 19.3014" fill="white"/>
  <path d="M23.2708 23.6056C26.9103 23.264 29.7744 22.438 30.9501 21.3973C31.6733 20.6456 29.9691 19.7714 28.8614 19.3992C27.0226 18.7745 25.1791 18.4885 23.266 18.3046L23.2708 23.6056Z" fill="white"/>
  <path d="M19.5742 23.7748C14.5834 23.7748 10.3061 22.8991 8.51169 21.6643C8.51027 21.6622 8.50829 21.6605 8.50594 21.6593C8.50358 21.6581 8.50093 21.6574 8.49824 21.6574C8.49555 21.6574 8.4929 21.6581 8.49054 21.6593C8.48819 21.6605 8.48621 21.6622 8.48479 21.6643L8.49428 21.6833L19.5869 31.9L30.9707 21.3783C29.431 22.7634 24.9212 23.7719 19.5774 23.7748" fill="white"/>
  <path d="M19.5742 23.7748C14.5834 23.7748 10.3061 22.8991 8.51169 21.6643C8.51027 21.6622 8.50829 21.6605 8.50594 21.6593C8.50358 21.6581 8.50093 21.6574 8.49824 21.6574C8.49555 21.6574 8.4929 21.6581 8.49054 21.6593C8.48819 21.6605 8.48621 21.6622 8.48479 21.6643V21.6819H8.50694C10.3061 23.0364 14.5834 23.9792 19.5742 23.9792C24.9212 23.9792 29.431 22.8787 30.9675 21.3813C29.4278 22.7664 24.918 23.7749 19.5742 23.7778V23.7748ZM8.48479 21.6907C8.48597 21.6977 8.48926 21.7043 8.49428 21.7097V21.6863" fill="white"/>
  <path d="M23.266 18.4884C25.1649 18.6607 27.0116 18.9263 28.8392 19.5101C29.7744 19.802 31.1242 20.4252 31.1195 21.0383C31.1622 20.3815 29.795 19.7072 28.8614 19.3934C27.0226 18.7687 25.1791 18.4826 23.266 18.2987V18.4884Z" fill="white"/>
  <path d="M8.17627 19.3218C9.70803 17.9397 14.2274 16.9297 19.5695 16.9253C24.562 16.9253 28.8392 17.801 30.6337 19.0358C30.6366 19.038 30.6402 19.0393 30.644 19.0393C30.6477 19.0393 30.6514 19.038 30.6543 19.0358C30.6572 19.0277 30.6572 19.019 30.6543 19.011L19.5585 8.80005L8.17627 19.3218Z" fill="white"/>
  <path d="M19.5695 16.7224C14.2274 16.7312 9.70803 17.8229 8.17627 19.3218C9.70803 17.9397 14.2274 16.9297 19.5695 16.9253C24.562 16.9253 28.8392 17.801 30.6337 19.0358C30.6366 19.038 30.6402 19.0393 30.644 19.0393C30.6477 19.0393 30.6514 19.038 30.6543 19.0358V19.0168H30.6274C28.8361 17.6726 24.5763 16.7283 19.5964 16.7254H19.5727L19.5695 16.7224Z" fill="white"/>
  <path d="M19.5869 31.7614L8.51169 21.6643C8.51027 21.6622 8.50829 21.6605 8.50594 21.6593C8.50358 21.6581 8.50093 21.6574 8.49824 21.6574C8.49555 21.6574 8.4929 21.6581 8.49054 21.6593C8.48819 21.6605 8.48621 21.6622 8.48479 21.6643L8.49428 21.6833L19.5869 31.9L30.9707 21.3783L19.5869 31.7614Z" fill="white"/>
  <path d="M10.2824 21.3009C12.1133 21.9358 13.9662 22.2131 15.8793 22.3956L15.8794 22.2146C13.971 22.0409 12.137 21.7768 10.3062 21.1929C9.37413 20.901 8.02434 20.2749 8.02434 19.6619C7.9832 20.3187 9.35036 20.993 10.2824 21.3082" fill="white"/>
  <path d="M8.51169 21.6643L8.30418 21.8038L8.33074 21.8433L8.36997 21.8703L8.51169 21.6643ZM8.49824 21.6574V21.9074V21.6574ZM8.48479 21.6643L8.27728 21.5249L8.196 21.6459L8.26122 21.7762L8.48479 21.6643ZM8.49428 21.6833L8.27071 21.7952L8.29122 21.8362L8.32492 21.8672L8.49428 21.6833ZM19.5869 31.9L19.4175 32.0839L19.5872 32.2402L19.7566 32.0836L19.5869 31.9ZM19.5695 16.9253V16.6753H19.5693L19.5695 16.9253ZM30.6337 19.0358L30.7885 18.8395L30.7821 18.8344L30.7754 18.8298L30.6337 19.0358ZM30.644 19.0393V19.2893V19.0393ZM19.5742 23.5248C17.0925 23.5248 14.7917 23.307 12.8921 22.9372C10.9849 22.566 9.50774 22.0463 8.65341 21.4584L8.36997 21.8703C9.31008 22.5172 10.8688 23.0527 12.7965 23.428C14.7319 23.8048 17.0651 24.0248 19.5742 24.0248V23.5248ZM8.7192 21.5249C8.69326 21.4863 8.6586 21.4566 8.62014 21.4369L8.39174 21.8817C8.35798 21.8643 8.32728 21.8381 8.30418 21.8038L8.7192 21.5249ZM8.62014 21.4369C8.58179 21.4172 8.5399 21.4074 8.49824 21.4074V21.9074C8.46196 21.9074 8.42538 21.8989 8.39174 21.8817L8.62014 21.4369ZM8.49824 21.4074C8.45657 21.4074 8.41469 21.4172 8.37634 21.4369L8.60474 21.8817C8.5711 21.8989 8.53452 21.9074 8.49824 21.9074V21.4074ZM8.37634 21.4369C8.33788 21.4566 8.30322 21.4863 8.27728 21.5249L8.6923 21.8038C8.6692 21.8381 8.6385 21.8643 8.60474 21.8817L8.37634 21.4369ZM8.26122 21.7762L8.27071 21.7952L8.71786 21.5714L8.70836 21.5525L8.26122 21.7762ZM8.32492 21.8672L19.4175 32.0839L19.7563 31.7162L8.66365 21.4994L8.32492 21.8672ZM19.7566 32.0836L31.1404 21.5619L30.801 21.1947L19.4172 31.7165L19.7566 32.0836ZM8.34375 19.5074C9.05761 18.8633 10.5139 18.2757 12.4963 17.8513C14.4656 17.4298 16.9132 17.1775 19.5698 17.1753L19.5693 16.6753C16.8837 16.6775 14.4006 16.9323 12.3917 17.3624C10.396 17.7896 8.82669 18.3982 8.00879 19.1362L8.34375 19.5074ZM19.5695 17.1753C22.0521 17.1753 24.3533 17.3931 26.2531 17.7629C28.1605 18.1341 29.6376 18.6538 30.492 19.2417L30.7754 18.8298C29.8353 18.1829 28.2766 17.6474 26.3486 17.2721C24.4131 16.8953 22.0795 16.6753 19.5695 16.6753V17.1753ZM30.4788 19.232C30.5274 19.2703 30.586 19.2893 30.644 19.2893V18.7893C30.6944 18.7893 30.7458 18.8057 30.7885 18.8395L30.4788 19.232ZM30.644 19.2893C30.7019 19.2893 30.7606 19.2703 30.8091 19.232L30.4994 18.8395C30.5422 18.8057 30.5935 18.7893 30.644 18.7893V19.2893ZM30.8995 19.0168V18.9964H30.3995V19.0168H30.8995ZM10.2824 21.3082L10.4445 20.8352L10.4426 20.8346L10.2824 21.3082ZM15.8793 22.3956L15.8319 22.8933L16.3792 22.9455L16.3793 22.3957L15.8793 22.3956ZM15.8793 17.096H16.3793V16.5473L15.833 16.5982L15.8793 17.096ZM23.2708 23.6056L22.7708 23.606L22.7712 24.1547L23.3175 24.1034L23.2708 23.6056ZM30.9501 21.3973L31.2815 21.7717L31.2966 21.7584L31.3105 21.744L30.9501 21.3973ZM28.8614 19.3992L28.7005 19.8726L28.7021 19.8732L28.8614 19.3992ZM23.266 18.3046L23.3139 17.8068L22.7655 17.7541L22.766 18.305L23.266 18.3046ZM30.9707 21.3783L31.3076 21.7477L30.6363 21.0065L30.9707 21.3783ZM8.48479 21.6819H7.98479V22.1819H8.48479V21.6819ZM8.50694 21.6819L8.80766 21.2825L8.67411 21.1819H8.50694V21.6819ZM30.9675 21.3813L31.3165 21.7393L30.6331 21.0095L30.9675 21.3813ZM19.5742 23.7778H19.0742V24.2781L19.5745 24.2778L19.5742 23.7778ZM8.49428 21.7097L8.12896 22.051L8.99428 22.9771V21.7097H8.49428ZM23.266 18.4884H22.766V18.9452L23.2208 18.9864L23.266 18.4884ZM28.8392 19.5101L28.6871 19.9864L28.6902 19.9874L28.8392 19.5101ZM31.1195 21.0383L30.6195 21.0344L31.6184 21.0707L31.1195 21.0383ZM28.8614 19.3934L28.7005 19.8668L28.7021 19.8673L28.8614 19.3934ZM23.266 18.2987L23.3139 17.801L22.766 17.7483V18.2987H23.266ZM8.17627 19.3218L7.82656 18.9645L8.51567 19.689L8.17627 19.3218ZM30.6543 19.0358H30.1543L31.1248 19.205L30.6543 19.0358ZM30.6543 19.011L31.1248 18.8418L31.0832 18.7262L30.9928 18.643L30.6543 19.011ZM19.5585 8.80005L19.897 8.43213L19.5577 8.11985L19.2191 8.43289L19.5585 8.80005ZM19.5695 16.7224L19.9084 16.3548L19.7645 16.2221L19.5687 16.2224L19.5695 16.7224ZM30.6543 19.0168H31.1543V18.5168H30.6543V19.0168ZM30.6274 19.0168L30.3272 19.4167L30.4606 19.5168H30.6274V19.0168ZM19.5964 16.7254L19.5967 16.2254H19.5964V16.7254ZM19.5727 16.7254L19.2338 17.093L19.3774 17.2254H19.5727V16.7254ZM19.5869 31.7614L19.2501 32.1309L19.587 32.4381L19.9239 32.1308L19.5869 31.7614ZM15.8794 22.2146L16.3794 22.2147L16.3795 21.7581L15.9247 21.7167L15.8794 22.2146ZM10.3062 21.1929L10.4581 20.7166L10.4556 20.7158L10.3062 21.1929ZM8.02434 19.6619H8.52434L7.52532 19.6306L8.02434 19.6619ZM7.83614 18.9624C7.69426 19.1101 7.58762 19.2871 7.54432 19.4924C7.50075 19.6989 7.5294 19.8956 7.59656 20.0681C7.72271 20.3921 7.99223 20.6527 8.25268 20.8502C8.78807 21.2563 9.54775 21.5888 10.1231 21.7822L10.4417 20.8343C9.91411 20.657 9.26941 20.3663 8.85694 20.0535C8.64346 19.8916 8.55319 19.7689 8.52841 19.7053C8.52011 19.684 8.52552 19.6858 8.52278 19.6988C8.52029 19.7106 8.51854 19.6955 8.55745 19.655L7.83614 18.9624ZM10.1203 21.7812C12.0055 22.4275 13.9035 22.7094 15.8319 22.8933L15.9268 21.8978C14.0289 21.7169 12.2209 21.4442 10.4445 20.8353L10.1203 21.7812ZM16.3793 22.3956V17.096H15.3793V22.3956H16.3793ZM15.833 16.5982C13.9899 16.7696 12.3329 17.0662 10.9788 17.456C9.63899 17.8418 8.54349 18.3335 7.87092 18.9263L8.53216 19.6765C9.03689 19.2316 9.96054 18.7898 11.2555 18.417C12.536 18.0483 14.1292 17.761 15.9257 17.5939L15.833 16.5982ZM23.3175 24.1034C25.1603 23.9305 26.818 23.634 28.1727 23.2441C29.5128 22.8584 30.6093 22.3667 31.2815 21.7717L30.6187 21.0229C30.1152 21.4686 29.1918 21.9102 27.8961 22.2831C26.6149 22.6518 25.0208 22.9392 23.224 23.1078L23.3175 24.1034ZM31.3105 21.744C31.4524 21.5965 31.5592 21.4197 31.6026 21.2145C31.6463 21.008 31.6177 20.8113 31.5505 20.6388C31.4243 20.315 31.1547 20.0546 30.8942 19.8573C30.3586 19.4517 29.5981 19.1193 29.0206 18.9252L28.7021 19.8732C29.2323 20.0513 29.8778 20.3421 30.2905 20.6546C30.5041 20.8163 30.5941 20.9387 30.6187 21.0019C30.6269 21.0229 30.6215 21.0207 30.6243 21.0073C30.6268 20.9953 30.6287 21.0102 30.5898 21.0506L31.3105 21.744ZM29.0222 18.9258C27.1311 18.2833 25.2444 17.9924 23.3139 17.8068L23.2182 18.8023C25.1139 18.9845 26.9141 19.2657 28.7005 19.8726L29.0222 18.9258ZM22.766 18.305L22.7708 23.606L23.7708 23.6051L23.766 18.3041L22.766 18.305ZM30.6363 21.0065C29.9701 21.6058 28.57 22.1833 26.5959 22.6059C24.6478 23.0231 22.22 23.2734 19.5771 23.2748L19.5777 24.2748C22.2786 24.2733 24.7776 24.0179 26.8053 23.5838C28.8069 23.1552 30.4316 22.5358 31.3051 21.75L30.6363 21.0065ZM7.98479 21.6643V21.6819H8.98479V21.6643H7.98479ZM8.48479 22.1819H8.50694V21.1819H8.48479V22.1819ZM8.20622 22.0814C9.19363 22.8247 10.7985 23.4177 12.7404 23.8277C14.6972 24.2409 17.0493 24.4792 19.5742 24.4792V23.4792C17.1083 23.4792 14.8264 23.2461 12.947 22.8493C11.0527 22.4493 9.61944 21.8936 8.80766 21.2825L8.20622 22.0814ZM19.5742 24.4792C22.2795 24.4792 24.7823 24.2011 26.813 23.7288C28.8187 23.2624 30.4453 22.5884 31.3165 21.7393L30.6185 21.0232C29.9532 21.6716 28.5566 22.2966 26.5865 22.7548C24.6415 23.2071 22.2159 23.4792 19.5742 23.4792V24.4792ZM30.6331 21.0095C29.9669 21.6088 28.5669 22.1862 26.5927 22.6089C24.6447 23.0261 22.2169 23.2764 19.574 23.2778L19.5745 24.2778C22.2754 24.2763 24.7744 24.0209 26.8021 23.5868C28.8038 23.1582 30.4284 22.5388 31.3019 21.753L30.6331 21.0095ZM20.0742 23.7778V23.7748H19.0742V23.7778H20.0742ZM7.99168 21.7734C8.00969 21.8808 8.0593 21.9765 8.12896 22.051L8.85961 21.3683C8.91922 21.4321 8.96225 21.5146 8.9779 21.608L7.99168 21.7734ZM8.99428 21.7097V21.6863H7.99428V21.7097H8.99428ZM23.2208 18.9864C25.1045 19.1572 26.9098 19.4187 28.6871 19.9864L28.9914 19.0338C27.1133 18.4339 25.2253 18.1641 23.3112 17.9905L23.2208 18.9864ZM28.6902 19.9874C29.1339 20.1259 29.6665 20.3407 30.0769 20.5839C30.2834 20.7063 30.437 20.8231 30.5327 20.9247C30.6349 21.0333 30.6192 21.0679 30.6195 21.0344L31.6194 21.0421C31.6221 20.7021 31.4394 20.4289 31.2607 20.2391C31.0754 20.0423 30.834 19.8702 30.5867 19.7236C30.0896 19.429 29.4798 19.1863 28.9882 19.0328L28.6902 19.9874ZM31.6184 21.0707C31.6411 20.7224 31.474 20.4323 31.2965 20.224C31.1151 20.0111 30.8738 19.8245 30.626 19.666C30.1279 19.3474 29.5123 19.0847 29.0207 18.9194L28.7021 19.8673C29.144 20.0159 29.6788 20.2472 30.0871 20.5084C30.2925 20.6398 30.4433 20.7645 30.5354 20.8726C30.6313 20.9852 30.6192 21.0258 30.6205 21.0058L31.6184 21.0707ZM29.0222 18.9199C27.1311 18.2775 25.2444 17.9866 23.3139 17.801L23.2182 18.7964C25.1139 18.9786 26.9141 19.2599 28.7005 19.8668L29.0222 18.9199ZM22.766 18.2987V18.4884H23.766V18.2987H22.766ZM31.1248 19.205C31.167 19.0875 31.167 18.9592 31.1248 18.8418L30.1838 19.1801C30.1473 19.0788 30.1473 18.9679 30.1838 18.8666L31.1248 19.205ZM30.9928 18.643L19.897 8.43213L19.2199 9.16797L30.3157 19.3789L30.9928 18.643ZM19.2191 8.43289L7.83687 18.9547L8.51567 19.689L19.8979 9.16721L19.2191 8.43289ZM19.5687 16.2224C16.8663 16.2269 14.3627 16.505 12.331 16.9762C10.3249 17.4416 8.69602 18.1136 7.82656 18.9645L8.52597 19.6792C9.18828 19.0311 10.5849 18.4078 12.557 17.9504C14.5035 17.4989 16.9306 17.2268 19.5704 17.2224L19.5687 16.2224ZM31.1543 19.0358V19.0168H30.1543V19.0358H31.1543ZM30.6543 18.5168H30.6274V19.5168H30.6543V18.5168ZM30.9275 18.6169C29.9444 17.8792 28.3462 17.2884 26.4111 16.8789C24.4612 16.4663 22.1162 16.2268 19.5967 16.2254L19.5962 17.2254C22.0565 17.2268 24.3313 17.461 26.2041 17.8573C28.0917 18.2567 29.5191 18.8103 30.3272 19.4167L30.9275 18.6169ZM19.5964 16.2254H19.5727V17.2254H19.5964V16.2254ZM19.9116 16.3577L19.9084 16.3548L19.2307 17.0901L19.2338 17.093L19.9116 16.3577ZM19.9238 31.3919L8.84855 21.2948L8.17483 22.0338L19.2501 32.1309L19.9238 31.3919ZM30.6337 21.0089L19.25 31.392L19.9239 32.1308L31.3076 21.7477L30.6337 21.0089ZM10.1186 21.7733C12.0048 22.4275 13.9036 22.7094 15.8319 22.8933L15.9268 21.8978C14.0288 21.7168 12.2217 21.4442 10.4462 20.8285L10.1186 21.7733ZM16.3793 22.3957L16.3794 22.2147L15.3794 22.2145L15.3793 22.3955L16.3793 22.3957ZM15.9247 21.7167C14.0316 21.5444 12.2387 21.2844 10.4581 20.7166L10.1543 21.6693C12.0353 22.2691 13.9104 22.5375 15.8341 22.7126L15.9247 21.7167ZM10.4556 20.7158C10.0139 20.5775 9.48191 20.362 9.07109 20.1179C8.8644 19.9952 8.71002 19.8778 8.61339 19.7754C8.50997 19.6659 8.52434 19.6297 8.52434 19.6619H7.52434C7.52434 20.0005 7.70744 20.2725 7.88624 20.4619C8.07181 20.6585 8.31313 20.8308 8.56039 20.9777C9.05747 21.273 9.6664 21.5165 10.1567 21.6701L10.4556 20.7158ZM7.52532 19.6306C7.50352 19.9787 7.67081 20.2683 7.84838 20.4764C8.02991 20.6892 8.27115 20.8757 8.51886 21.0342C9.01673 21.353 9.63171 21.616 10.1222 21.7819L10.4426 20.8346C10.001 20.6852 9.46643 20.4535 9.058 20.192C8.85255 20.0605 8.70147 19.9356 8.6091 19.8273C8.51278 19.7145 8.5246 19.6735 8.52337 19.6932L7.52532 19.6306Z" fill="" mask="url(#path-3-inside-2_319_29545)"/>
</svg>