<svg width="16" height="16" viewBox="0 0 16 16" fill="none" xmlns="http://www.w3.org/2000/svg">
<path fill-rule="evenodd" clip-rule="evenodd" d="M1.69845 3.24168C2.27212 2.62618 3.08742 2.28394 4.04413 2.28394H11.9555C12.9147 2.28394 13.7304 2.62592 14.3039 3.24189C14.8736 3.85382 15.1668 4.6955 15.1668 5.63367V10.3688C15.1668 11.3067 14.8735 12.1482 14.3037 12.76C13.7302 13.3759 12.9142 13.7178 11.9548 13.7178H4.04413C3.08523 13.7178 2.26968 13.3758 1.69636 12.7599C1.1268 12.1481 0.833496 11.3067 0.833496 10.3688V5.63367C0.833496 4.69487 1.12841 3.85329 1.69845 3.24168ZM2.42998 3.92349C2.0611 4.31927 1.8335 4.90256 1.8335 5.63367V10.3688C1.8335 11.1001 2.06019 11.6831 2.42829 12.0785C2.79263 12.4699 3.3324 12.7178 4.04413 12.7178H11.9548C12.6674 12.7178 13.2074 12.4698 13.5719 12.0785C13.9402 11.6831 14.1668 11.1001 14.1668 10.3688V5.63367C14.1668 4.90192 13.9401 4.31874 13.572 3.92328C13.2076 3.53186 12.6676 3.28394 11.9555 3.28394H4.04413C3.33525 3.28394 2.79523 3.53161 2.42998 3.92349Z" fill="color"/>
<path fill-rule="evenodd" clip-rule="evenodd" d="M2.81396 6.37248C2.81396 6.09634 3.03782 5.87248 3.31396 5.87248H4.29919C5.17786 5.87248 5.89037 6.58498 5.89037 7.46368C5.89037 8.34182 5.17765 9.05408 4.29919 9.05408H3.81396V9.62795C3.81396 9.90415 3.59011 10.128 3.31396 10.128C3.03782 10.128 2.81396 9.90415 2.81396 9.62795V6.37248ZM3.81396 8.05408H4.29919C4.62579 8.05408 4.89037 7.78908 4.89037 7.46368C4.89037 7.13728 4.62557 6.87248 4.29919 6.87248H3.81396V8.05408Z" fill="color"/>
<path fill-rule="evenodd" clip-rule="evenodd" d="M6.45329 6.36987C6.45329 6.09373 6.67716 5.86987 6.95329 5.86987H7.76916C8.33369 5.86987 8.87616 6.09372 9.27583 6.49415C9.67636 6.89395 9.90016 7.43648 9.90016 8.00161C9.90016 8.56615 9.67629 9.10855 9.27583 9.50828C8.87616 9.90875 8.33369 10.1325 7.76916 10.1325H6.95329C6.67716 10.1325 6.45329 9.90875 6.45329 9.63255V6.36987ZM7.45329 6.86988V9.13255H7.76916C8.06929 9.13255 8.35689 9.01355 8.56829 8.80161L8.56916 8.80075C8.78109 8.58935 8.90016 8.30175 8.90016 8.00161C8.90016 7.70061 8.78096 7.41301 8.56916 7.20168L8.56829 7.20081C8.35689 6.98895 8.06929 6.86988 7.76916 6.86988H7.45329Z" fill="color"/>
<path fill-rule="evenodd" clip-rule="evenodd" d="M10.4194 6.36987C10.4194 6.09373 10.6433 5.86987 10.9194 5.86987H12.6866C12.9628 5.86987 13.1866 6.09373 13.1866 6.36987C13.1866 6.64601 12.9628 6.86988 12.6866 6.86988H11.4194V7.77301H12.415C12.6911 7.77301 12.915 7.99688 12.915 8.27301C12.915 8.54915 12.6911 8.77301 12.415 8.77301H11.4194V9.63255C11.4194 9.90875 11.1956 10.1325 10.9194 10.1325C10.6433 10.1325 10.4194 9.90875 10.4194 9.63255V6.36987Z" fill="color"/>
</svg>
