<svg xmlns="http://www.w3.org/2000/svg" width="24" height="24" viewBox="0 0 24 24" fill="none">
    <path fill-rule="evenodd" clip-rule="evenodd" d="M8.59342 6.26129C8.43781 6.32846 8.36367 6.4302 8.3446 6.55479C8.19071 7.56001 7.51431 8.46649 6.89668 9.12476C6.25812 9.80534 5.57198 10.3349 5.23073 10.5834C5.03162 10.7284 4.82216 10.8354 4.61531 10.9169L4.34044 10.219L4.61531 10.9169L4.52202 10.9536C3.20491 11.4724 3.14383 13.3137 4.42367 13.9187L4.10316 14.5968L4.42367 13.9187C4.83735 14.1142 5.2029 14.3985 5.49434 14.7512L8.6231 18.5382C8.94441 18.9271 9.53039 18.9559 9.88834 18.6004C10.33 18.1618 10.9271 17.9157 11.5495 17.9157H12.0694C12.652 17.9157 13.2249 18.0641 13.7342 18.347L14.8745 18.9804C15.2208 19.1728 15.6575 19.0354 15.8312 18.6795C15.998 18.3379 16.2508 18.0455 16.5647 17.8312L18.2678 16.6684C18.5485 16.4767 18.8096 16.2576 19.0471 16.0144L19.5837 16.5384L19.0471 16.0144C19.9846 15.0542 20.5094 13.7662 20.5094 12.4244V11.7261C20.5094 11.3119 20.8452 10.9761 21.2594 10.9761C21.6736 10.9761 22.0094 11.3119 22.0094 11.7261V12.4244C22.0094 14.1581 21.3313 15.8221 20.1203 17.0623C19.8135 17.3765 19.4763 17.6595 19.1136 17.9072L17.4105 19.07C17.3115 19.1376 17.2318 19.2298 17.1792 19.3375C16.6283 20.4659 15.2438 20.9014 14.1462 20.2917L13.0058 19.6583C12.7194 19.4992 12.3971 19.4157 12.0694 19.4157H11.5495C11.3232 19.4157 11.106 19.5052 10.9453 19.6647C9.96121 20.6421 8.35013 20.5628 7.46672 19.4936L4.33796 15.7066L4.89422 15.247L4.33795 15.7066C4.1868 15.5237 3.99721 15.3762 3.78265 15.2748C1.31505 14.1084 1.43281 10.5583 3.97228 9.55797L4.06556 9.52122C4.17739 9.47717 4.27 9.42745 4.34776 9.37082L4.78925 9.97712L4.34777 9.37082C4.65208 9.14923 5.25481 8.68245 5.80279 8.0984C6.37171 7.49204 6.77953 6.86564 6.86187 6.32779C6.9707 5.61691 7.44353 5.12388 7.99891 4.88413C8.54147 4.64991 9.18698 4.64053 9.76144 4.872L11.0043 5.37282C11.2639 5.47739 11.5411 5.53114 11.8209 5.53114H14.6398C15.054 5.53114 15.3898 5.86693 15.3898 6.28114C15.3898 6.69536 15.054 7.03114 14.6398 7.03114H11.8209C11.349 7.03114 10.8814 6.94049 10.4437 6.76411L9.20082 6.2633C8.99131 6.17888 8.76184 6.18858 8.59342 6.26129Z" fill="#1B1D29"/>
    <path fill-rule="evenodd" clip-rule="evenodd" d="M19.2718 1.25C19.686 1.25 20.0218 1.58579 20.0218 2V2.16406H20.0376C21.3252 2.16406 22.3027 3.24446 22.3027 4.50433C22.3027 4.91854 21.967 5.25433 21.5527 5.25433C21.1385 5.25433 20.8027 4.91854 20.8027 4.50433C20.8027 4.0033 20.4289 3.66406 20.0376 3.66406H20.0218V5.55954L20.9024 5.86543C21.2261 5.98018 21.6084 6.16243 21.8947 6.5277C22.188 6.90184 22.3027 7.36596 22.3027 7.88962C22.3027 9.03593 21.4048 10.0251 20.2287 10.0251H20.0218V10.1902C20.0218 10.6044 19.686 10.9402 19.2718 10.9402C18.8576 10.9402 18.5218 10.6044 18.5218 10.1902V10.0251H18.5155C17.2279 10.0251 16.2503 8.94473 16.2503 7.68486C16.2503 7.27065 16.5861 6.93486 17.0003 6.93486C17.4146 6.93486 17.7503 7.27065 17.7503 7.68486C17.7503 8.18589 18.1242 8.52513 18.5155 8.52513H18.5218V6.62638L17.6507 6.32376C17.327 6.20902 16.9447 6.02677 16.6584 5.6615C16.3651 5.28735 16.2503 4.82323 16.2503 4.29957C16.2503 3.15327 17.1483 2.16406 18.3244 2.16406H18.5218V2C18.5218 1.58579 18.8576 1.25 19.2718 1.25ZM18.5218 3.66406H18.3244C18.04 3.66406 17.7503 3.91704 17.7503 4.29957C17.7503 4.60859 17.8165 4.70755 17.8389 4.73609C17.8681 4.77339 17.9359 4.83318 18.1498 4.9092C18.1505 4.90944 18.1511 4.90968 18.1518 4.90992L18.5218 5.03845V3.66406ZM20.0218 7.14747V8.52513H20.2287C20.5131 8.52513 20.8027 8.27215 20.8027 7.88962C20.8027 7.58061 20.7366 7.48165 20.7142 7.4531C20.685 7.41581 20.6172 7.35602 20.4033 7.28001L20.0218 7.14747ZM8.68115 10.6657C8.68149 10.6653 8.68182 10.665 8.68215 10.6646C8.72089 10.622 8.7443 10.5679 8.74909 10.5109C8.74939 10.5073 8.74962 10.5036 8.74977 10.5C8.74962 10.4963 8.74939 10.4927 8.74909 10.4891C8.7443 10.4321 8.72089 10.378 8.68215 10.3354C8.68182 10.335 8.68149 10.3347 8.68115 10.3343C8.63671 10.286 8.57586 10.2564 8.51092 10.2509C8.50729 10.2506 8.50365 10.2504 8.5 10.2502C8.49635 10.2504 8.49271 10.2506 8.48908 10.2509C8.42414 10.2564 8.36329 10.286 8.31885 10.3343C8.31851 10.3347 8.31818 10.335 8.31785 10.3354C8.27911 10.378 8.2557 10.4321 8.25091 10.4891C8.25061 10.4927 8.25038 10.4964 8.25023 10.5C8.25038 10.5036 8.25061 10.5073 8.25091 10.5109C8.2557 10.5679 8.27911 10.622 8.31785 10.6646C8.31818 10.665 8.31851 10.6653 8.31885 10.6657C8.36329 10.714 8.42414 10.7436 8.48908 10.7491C8.49271 10.7494 8.49635 10.7496 8.5 10.7498C8.50365 10.7496 8.50729 10.7494 8.51092 10.7491C8.57586 10.7436 8.63671 10.714 8.68115 10.6657ZM7.57224 9.65559C7.80707 9.39727 8.13998 9.25 8.48908 9.25H8.51092C8.86002 9.25 9.19293 9.39727 9.42776 9.65559C9.63511 9.88367 9.75 10.1808 9.75 10.4891V10.5109C9.75 10.8192 9.63511 11.1163 9.42776 11.3444C9.19293 11.6027 8.86002 11.75 8.51092 11.75H8.48908C8.13998 11.75 7.80707 11.6027 7.57224 11.3444C7.36489 11.1163 7.25 10.8192 7.25 10.5109V10.4891C7.25 10.1808 7.36489 9.88367 7.57224 9.65559ZM10.25 16C10.25 15.5858 10.5858 15.25 11 15.25H14C14.4142 15.25 14.75 15.5858 14.75 16C14.75 16.4142 14.4142 16.75 14 16.75H11C10.5858 16.75 10.25 16.4142 10.25 16Z" fill="#FFC709"/>
</svg>
