<svg width="24" height="24" viewBox="0 0 24 24" fill="none" xmlns="http://www.w3.org/2000/svg">
<path fill-rule="evenodd" clip-rule="evenodd" d="M11.9998 9.75C10.7572 9.75 9.74982 10.7574 9.74982 12C9.74982 13.2426 10.7572 14.25 11.9998 14.25C13.2425 14.25 14.2498 13.2426 14.2498 12C14.2498 10.7574 13.2425 9.75 11.9998 9.75ZM8.24982 12C8.24982 9.92893 9.92875 8.25 11.9998 8.25C14.0709 8.25 15.7498 9.92893 15.7498 12C15.7498 14.0711 14.0709 15.75 11.9998 15.75C9.92875 15.75 8.24982 14.0711 8.24982 12Z" fill="#1B1D29"/>
<path fill-rule="evenodd" clip-rule="evenodd" d="M8.75052 3.51896L7.11254 4.4731C6.9008 4.67008 6.81496 5.05775 6.9387 5.31816C7.22677 5.83649 7.43969 6.42933 7.50247 7.01996C7.56429 7.60147 7.4848 8.24165 7.11147 8.78239C6.43071 9.96322 5.22923 10.4394 3.93729 10.4417C3.93198 10.4431 3.91826 10.4474 3.89636 10.4589C3.85454 10.4809 3.8005 10.5205 3.74669 10.58C3.63508 10.7036 3.57265 10.857 3.57265 10.9946V12.9048C3.57265 13.1489 3.6479 13.2895 3.71027 13.359C3.77086 13.4265 3.84396 13.4578 3.92798 13.4578C5.23632 13.4578 6.45302 13.9429 7.13165 15.1526C7.82212 16.3833 7.49314 17.684 6.94404 18.7715C6.92992 18.7994 6.91406 18.8265 6.89654 18.8525C6.83709 18.9408 6.81693 19.0582 6.85663 19.1986C6.89934 19.3497 6.99239 19.4553 7.05907 19.4957L7.06084 19.4968L8.75052 20.481C8.7857 20.4951 8.81121 20.4929 8.82734 20.4882C8.83994 20.4845 8.88882 20.4676 8.94793 20.3783L9.03374 20.2083C9.03868 20.1985 9.04382 20.1889 9.04918 20.1793C9.62479 19.1533 10.6442 18.1829 12.0498 18.1829C13.4254 18.1829 14.465 19.0182 15.0659 20.2083L15.1517 20.3783C15.2108 20.4676 15.2597 20.4845 15.2723 20.4882C15.2884 20.4929 15.3139 20.4951 15.3491 20.481L17.0388 19.4968L17.0402 19.4959C17.0791 19.472 17.1576 19.3914 17.1977 19.226C17.2359 19.0687 17.2197 18.9061 17.1609 18.7823C16.6084 17.7878 16.2701 16.3762 16.9773 15.2366C17.6561 14.0419 18.8635 13.5606 20.1623 13.5583C20.1676 13.5569 20.1814 13.5526 20.2033 13.5411C20.2451 13.5191 20.2991 13.4795 20.3529 13.42C20.4645 13.2964 20.527 13.143 20.527 13.0054V11.0952C20.527 10.851 20.4517 10.7105 20.3893 10.641C20.3287 10.5735 20.2557 10.5422 20.1716 10.5422C18.8633 10.5422 17.6466 10.0571 16.968 8.84744C16.2775 7.61667 16.6065 6.31603 17.1556 5.22852C17.1697 5.20055 17.1856 5.17349 17.2031 5.14747C17.2625 5.05916 17.2827 4.94179 17.243 4.80138C17.2003 4.65037 17.1073 4.54478 17.0406 4.50427L15.3491 3.51896C15.3139 3.50493 15.2884 3.50711 15.2723 3.51181C15.2597 3.51548 15.2108 3.53236 15.1517 3.62172L15.0659 3.79169C15.0609 3.80145 15.0558 3.81112 15.0504 3.82066C14.4748 4.84668 13.4554 5.81706 12.0498 5.81706C10.6742 5.81706 9.63466 4.98183 9.03374 3.79169L8.94793 3.62172C8.88882 3.53236 8.83994 3.51548 8.82734 3.51181C8.81121 3.50711 8.7857 3.50493 8.75052 3.51896ZM8.05446 2.17685C8.81974 1.79794 9.75881 2.0281 10.2662 2.86547C10.2762 2.88202 10.2856 2.89894 10.2943 2.9162L10.3958 3.11727C10.8101 3.93784 11.3949 4.30903 12.0498 4.30903C12.671 4.30903 13.2725 3.877 13.7115 3.10197L13.8053 2.9162C13.814 2.89894 13.8234 2.88202 13.8334 2.86547C14.3408 2.0281 15.2799 1.79794 16.0451 2.17685C16.0606 2.18451 16.0758 2.19268 16.0907 2.20135L17.8223 3.21003C18.2631 3.47195 18.5748 3.9188 18.7094 4.39477C18.8433 4.8684 18.8184 5.43481 18.4998 5.93856C18.0496 6.84443 17.9786 7.54367 18.2992 8.11507C18.6358 8.71506 19.2465 9.0342 20.1716 9.0342C21.2831 9.0342 22.0498 9.96041 22.0498 11.0952V13.0054C22.0498 13.5715 21.8077 14.0715 21.4878 14.4255C21.1815 14.7645 20.7115 15.0663 20.1716 15.0663C19.2465 15.0663 18.6358 15.3855 18.2992 15.9855C18.2928 15.9968 18.2862 16.0079 18.2792 16.0189C17.9895 16.4779 18.0482 17.2588 18.5022 18.0681C18.5076 18.0776 18.5127 18.0873 18.5176 18.0971C18.7591 18.5753 18.7916 19.1115 18.6785 19.5779C18.5668 20.0387 18.2915 20.5111 17.8223 20.7899L17.8166 20.7933L16.0907 21.7986C16.0758 21.8073 16.0606 21.8155 16.0451 21.8231C15.2799 22.2021 14.3408 21.9719 13.8334 21.1345C13.8234 21.118 13.814 21.1011 13.8053 21.0838L13.7038 20.8827C13.2895 20.0622 12.7047 19.691 12.0498 19.691C11.4286 19.691 10.8271 20.123 10.3881 20.898L10.2943 21.0838C10.2856 21.1011 10.2762 21.118 10.2662 21.1345C9.75881 21.9719 8.81974 22.2021 8.05446 21.8231C8.03901 21.8155 8.02382 21.8073 8.00893 21.7986L6.27733 20.79C5.83651 20.528 5.52477 20.0812 5.39019 19.6052C5.25627 19.1316 5.28118 18.5652 5.59981 18.0614C6.05002 17.1556 6.12101 16.4563 5.80045 15.8849C5.46385 15.2849 4.85313 14.9658 3.92798 14.9658C2.81649 14.9658 2.0498 14.0396 2.0498 12.9048V10.9946C2.0498 10.4285 2.29194 9.9285 2.6118 9.57448C2.91812 9.23546 3.38812 8.93367 3.92798 8.93367C4.85313 8.93367 5.46385 8.61452 5.80045 8.01454C5.8144 7.98967 5.82976 7.96561 5.84645 7.94246C5.95858 7.78701 6.02631 7.53823 5.988 7.17783C5.94999 6.82025 5.81183 6.41466 5.5974 6.03244C5.59204 6.0229 5.5869 6.01324 5.58197 6.00347C5.11069 5.07007 5.41633 3.88347 6.19344 3.26783C6.22179 3.24537 6.25174 3.22494 6.28304 3.20671L8.00893 2.20135C8.02382 2.19268 8.03901 2.18451 8.05446 2.17685Z" fill="#1B1D29"/>
</svg>
