<svg width="24" height="24" viewBox="0 0 24 24" fill="none" xmlns="http://www.w3.org/2000/svg">
<path fill-rule="evenodd" clip-rule="evenodd" d="M14.0028 6.84441L12.6121 3.91464C12.3497 3.36179 11.6503 3.36178 11.3879 3.91464L9.99719 6.84441C9.47175 7.95136 8.44032 8.74685 7.21445 8.93205L4.10474 9.40186C3.84496 9.44111 3.63501 9.61916 3.54148 9.91843C3.4473 10.2198 3.5111 10.5311 3.7326 10.7555L5.98281 13.036C6.84438 13.9092 7.22444 15.1496 7.02599 16.3526L6.49478 19.5727C6.43676 19.9244 6.5788 20.2017 6.79162 20.3624C6.9992 20.5192 7.23919 20.5474 7.47832 20.4167L10.2597 18.8964C11.3471 18.302 12.6529 18.302 13.7403 18.8964L16.5217 20.4167C16.7608 20.5474 17.0008 20.5192 17.2084 20.3624C17.4212 20.2017 17.5632 19.9244 17.5052 19.5727L16.974 16.3526C16.7756 15.1496 17.1556 13.9092 18.0172 13.036L20.2674 10.7555C20.4889 10.531 20.5527 10.2198 20.4585 9.91843C20.365 9.61916 20.155 9.44111 19.8953 9.40186L16.7856 8.93205C15.5597 8.74685 14.5283 7.95135 14.0028 6.84441ZM4.91508 14.0896C5.43211 14.6136 5.66804 15.3685 5.54599 16.1084L5.01479 19.3285C4.70742 21.1918 6.58839 22.6126 8.19776 21.7329L10.9792 20.2126C11.6183 19.8633 12.3817 19.8633 13.0208 20.2126L15.8022 21.7329C17.4116 22.6126 19.2926 21.1918 18.9852 19.3285L18.454 16.1084C18.332 15.3685 18.5679 14.6136 19.0849 14.0896L21.3351 11.8091C22.6371 10.4895 21.9187 8.19053 20.1193 7.91869L17.0096 7.44888C16.2951 7.34094 15.6774 6.87435 15.3579 6.20118L13.9672 3.27141C13.1625 1.57619 10.8375 1.5762 10.0328 3.27141L8.64211 6.20118C8.32257 6.87435 7.70489 7.34094 6.99037 7.44888L3.88066 7.91869C2.08133 8.19053 1.36287 10.4895 2.66488 11.8091L4.91508 14.0896Z" fill="color"/>
</svg>
