<svg width="20" height="20" viewBox="0 0 20 20" fill="none" xmlns="http://www.w3.org/2000/svg">
<path fill-rule="evenodd" clip-rule="evenodd" d="M9.16667 14.5833C12.1582 14.5833 14.5833 12.1582 14.5833 9.16667C14.5833 6.17512 12.1582 3.75 9.16667 3.75C6.17512 3.75 3.75 6.17512 3.75 9.16667C3.75 12.1582 6.17512 14.5833 9.16667 14.5833ZM9.16667 15.8333C12.8486 15.8333 15.8333 12.8486 15.8333 9.16667C15.8333 5.48477 12.8486 2.5 9.16667 2.5C5.48477 2.5 2.5 5.48477 2.5 9.16667C2.5 12.8486 5.48477 15.8333 9.16667 15.8333Z" fill="color"/>
<path fill-rule="evenodd" clip-rule="evenodd" d="M17.5542 17.5549C17.3102 17.799 16.9144 17.799 16.6704 17.5549L14.608 15.4925C14.3639 15.2484 14.3639 14.8527 14.608 14.6086C14.852 14.3645 15.2478 14.3645 15.4919 14.6086L17.5542 16.671C17.7983 16.9151 17.7983 17.3108 17.5542 17.5549Z" fill="color"/>
</svg>
