<svg xmlns="http://www.w3.org/2000/svg" width="48" height="48" viewBox="0 0 48 48" fill="none">
    <path d="M20.0656 6.54282C21.675 3.1524 26.325 3.15239 27.9344 6.54282L30.7158 12.4024C31.3549 13.7487 32.5902 14.6819 34.0193 14.8978L40.2387 15.8374C43.8373 16.3811 45.2743 20.9791 42.6703 23.6182L38.1698 28.1792C37.1358 29.2272 36.6639 30.7371 36.908 32.2168L37.9704 38.6571C38.5852 42.3835 34.8232 45.2253 31.6045 43.4659L26.0417 40.4252C24.7635 39.7266 23.2365 39.7266 21.9583 40.4252L16.3955 43.4659C13.1768 45.2253 9.41485 42.3835 10.0296 38.6571L11.092 32.2168C11.3361 30.7371 10.8642 29.2272 9.83016 28.1792L5.32975 23.6182C2.72573 20.9791 4.16266 16.3811 7.76132 15.8374L13.9807 14.8978C15.4098 14.6819 16.6451 13.7487 17.2842 12.4024L20.0656 6.54282Z" fill=""/>
</svg>
