<svg width="20" height="20" viewBox="0 0 20 20" fill="none" xmlns="http://www.w3.org/2000/svg">
<path fill-rule="evenodd" clip-rule="evenodd" d="M16.0597 1.04166C16.4049 1.04166 16.6847 1.32148 16.6847 1.66666V1.80338H16.6978C17.7709 1.80338 18.5855 2.70371 18.5855 3.7536C18.5855 4.09878 18.3056 4.3786 17.9605 4.3786C17.6153 4.3786 17.3355 4.09878 17.3355 3.7536C17.3355 3.33607 17.0239 3.05338 16.6978 3.05338H16.6847V4.63294L17.4185 4.88785C17.6883 4.98347 18.0068 5.13535 18.2454 5.43974C18.4899 5.75152 18.5855 6.13829 18.5855 6.57467C18.5855 7.52993 17.8371 8.35427 16.857 8.35427H16.6847V8.49184C16.6847 8.83702 16.4049 9.11684 16.0597 9.11684C15.7145 9.11684 15.4347 8.83702 15.4347 8.49184V8.35427H15.4294C14.3564 8.35427 13.5418 7.45393 13.5418 6.40404C13.5418 6.05887 13.8216 5.77904 14.1668 5.77904C14.512 5.77904 14.7918 6.05887 14.7918 6.40404C14.7918 6.82157 15.1033 7.10427 15.4294 7.10427H15.4347V5.52197L14.7088 5.26979C14.439 5.17417 14.1204 5.02229 13.8818 4.7179C13.6374 4.40612 13.5418 4.01935 13.5418 3.58297C13.5418 2.62771 14.2901 1.80338 15.2702 1.80338H15.4347V1.66666C15.4347 1.32148 15.7145 1.04166 16.0597 1.04166ZM15.4347 3.05338H15.2702C15.0331 3.05338 14.7918 3.26419 14.7918 3.58297C14.7918 3.84048 14.8469 3.92295 14.8656 3.94673C14.8899 3.97781 14.9464 4.02764 15.1246 4.09099L15.1264 4.09159L15.4347 4.1987V3.05338ZM16.6847 5.95622V7.10427H16.857C17.0941 7.10427 17.3355 6.89345 17.3355 6.57467C17.3355 6.31716 17.2803 6.2347 17.2617 6.21091C17.2373 6.17983 17.1808 6.13 17.0026 6.06665L17.0009 6.06605L16.6847 5.95622ZM7.16167 5.21774C7.032 5.27372 6.97021 5.3585 6.95432 5.46232C6.82608 6.30001 6.26241 7.05541 5.74773 7.60397C5.21559 8.17112 4.6438 8.61244 4.35943 8.81951C4.1935 8.94033 4.01896 9.02948 3.84658 9.09738L3.76884 9.128C2.67125 9.56035 2.62035 11.0948 3.68688 11.5989C4.03161 11.7619 4.33623 11.9987 4.5791 12.2927L7.1864 15.4485C7.45417 15.7726 7.94248 15.7966 8.24077 15.5004C8.60879 15.1349 9.10643 14.9297 9.62511 14.9297H10.0583C10.5438 14.9297 11.0213 15.0534 11.4457 15.2892L12.3959 15.817C12.6845 15.9773 13.0484 15.8628 13.1932 15.5662C13.3322 15.2816 13.5428 15.0379 13.8044 14.8593L15.2236 13.8903C15.4576 13.7306 15.6751 13.548 15.8731 13.3453C16.6543 12.5452 17.0916 11.4719 17.0916 10.3537V9.77173C17.0916 9.42655 17.3715 9.14673 17.7166 9.14673C18.0618 9.14673 18.3416 9.42655 18.3416 9.77173V10.3537C18.3416 11.7984 17.7766 13.1851 16.7674 14.2186C16.5117 14.4804 16.2307 14.7163 15.9285 14.9226L14.5093 15.8916C14.4268 15.948 14.3603 16.0248 14.3165 16.1146C13.8574 17.0549 12.7037 17.4179 11.789 16.9098L10.8387 16.3819C10.6 16.2493 10.3314 16.1797 10.0583 16.1797H9.62511C9.43645 16.1797 9.25545 16.2543 9.1216 16.3873C8.30149 17.2017 6.95893 17.1357 6.22275 16.2446L3.61545 13.0888C3.48949 12.9364 3.33149 12.8135 3.15269 12.729C1.09637 11.757 1.1945 8.79857 3.31072 7.96497L3.38846 7.93435C3.48164 7.89765 3.55882 7.85621 3.62363 7.80902C3.87722 7.62436 4.3795 7.23537 4.83615 6.74867C5.31025 6.24337 5.6501 5.72137 5.71872 5.27316C5.80941 4.68076 6.20343 4.2699 6.66624 4.07011C7.11838 3.87493 7.65631 3.86711 8.13502 4.06L9.17075 4.47735C9.38703 4.5645 9.61804 4.60929 9.85122 4.60929H12.2003C12.5455 4.60929 12.8253 4.88911 12.8253 5.23429C12.8253 5.57947 12.5455 5.85929 12.2003 5.85929H9.85122C9.45795 5.85929 9.06834 5.78374 8.70357 5.63676L7.66784 5.21942C7.49325 5.14907 7.30202 5.15715 7.16167 5.21774ZM7.09226 8.95756C7.14638 8.95302 7.19709 8.92834 7.23413 8.88806L7.23495 8.88715C7.26724 8.85164 7.28675 8.80658 7.29074 8.75909C7.29099 8.75606 7.29118 8.75303 7.29131 8.74999C7.29118 8.74695 7.29099 8.74392 7.29074 8.74089C7.28675 8.6934 7.26724 8.64834 7.23495 8.61283L7.23413 8.61192C7.19709 8.57164 7.14638 8.54696 7.09226 8.54242C7.08924 8.54217 7.08621 8.54197 7.08316 8.54185C7.08012 8.54197 7.07709 8.54217 7.07407 8.54242C7.01995 8.54696 6.96924 8.57164 6.9322 8.61193L6.93138 8.61283C6.89909 8.64834 6.87958 8.6934 6.87559 8.74089C6.87534 8.74392 6.87515 8.74695 6.87502 8.74999C6.87515 8.75303 6.87534 8.75606 6.87559 8.75909C6.87958 8.80658 6.89909 8.85164 6.93138 8.88715L6.9322 8.88806C6.96924 8.92834 7.01995 8.95302 7.07407 8.95756C7.07709 8.95781 7.08012 8.95801 7.08316 8.95813C7.08621 8.95801 7.08924 8.95781 7.09226 8.95756ZM6.31003 8.04631C6.50572 7.83105 6.78314 7.70832 7.07407 7.70832H7.09226C7.38318 7.70832 7.66061 7.83105 7.8563 8.04631C8.02909 8.23638 8.12483 8.48402 8.12483 8.74089V8.75909C8.12483 9.01596 8.02909 9.2636 7.8563 9.45367C7.66061 9.66893 7.38318 9.79166 7.09226 9.79166H7.07407C6.78314 9.79166 6.50572 9.66893 6.31003 9.45367C6.13724 9.2636 6.0415 9.01595 6.0415 8.75909V8.74089C6.0415 8.48402 6.13724 8.23638 6.31003 8.04631ZM9.1665 13.9583C8.82132 13.9583 8.5415 13.6785 8.5415 13.3333C8.5415 12.9881 8.82132 12.7083 9.1665 12.7083H11.6665C12.0117 12.7083 12.2915 12.9881 12.2915 13.3333C12.2915 13.6785 12.0117 13.9583 11.6665 13.9583H9.1665Z" fill="#1B1D29"/>
</svg>
