<svg width="36" height="36" viewBox="0 0 36 36" fill="none" xmlns="http://www.w3.org/2000/svg">
<path fill-rule="evenodd" clip-rule="evenodd" d="M15.8831 11.1538L15.7474 11.9614C16.215 11.9482 16.6825 11.9416 17.15 11.9416C18.1857 11.9416 19.2224 11.9611 20.2588 11.9996L20.1166 11.1589C20.0469 10.7314 20.0028 10.5779 19.9218 10.4846C19.877 10.433 19.7208 10.2916 19.0918 10.2916H16.9084C16.27 10.2916 16.1186 10.429 16.0782 10.4748C16.0015 10.5618 15.9582 10.7081 15.8831 11.1538ZM14.6504 10.9464L14.4711 12.0139C13.6934 12.0559 12.9158 12.1161 12.1382 12.1947L10.4391 12.3613C10.0955 12.3949 9.84435 12.7007 9.87803 13.0443C9.91171 13.3878 10.2175 13.639 10.561 13.6053L12.261 13.4386L12.2629 13.4384C13.8921 13.2739 15.5211 13.1916 17.15 13.1916C19.9122 13.1916 22.6833 13.3322 25.4384 13.6052C25.7819 13.6393 26.088 13.3884 26.122 13.0449C26.156 12.7014 25.9052 12.3954 25.5617 12.3613C24.2228 12.2286 22.88 12.1268 21.536 12.0566L21.533 12.0373L21.35 10.9559L21.3422 10.9074C21.2873 10.5667 21.2053 10.0564 20.8659 9.66533C20.4732 9.21279 19.8711 9.04163 19.0918 9.04163H16.9084C16.1385 9.04163 15.5358 9.20006 15.1407 9.64804C14.8018 10.0324 14.7176 10.5408 14.6602 10.8874L14.6504 10.9464ZM24.3324 15.6569C24.3546 15.3125 24.0934 15.0152 23.7489 14.993C23.4045 14.9707 23.1072 15.2319 23.085 15.5764L22.5435 23.9646L22.5434 23.9663C22.5199 24.302 22.5 24.5682 22.4533 24.8002C22.4078 25.0261 22.3446 25.1745 22.263 25.2807C22.1223 25.4639 21.7749 25.7083 20.6753 25.7083H15.3253C14.2258 25.7083 13.8784 25.4639 13.7377 25.2807C13.6561 25.1745 13.5929 25.0261 13.5474 24.8002C13.5007 24.5682 13.4808 24.302 13.4573 23.9663L13.4572 23.9646L12.9157 15.5764C12.8935 15.2319 12.5962 14.9707 12.2518 14.993C11.9073 15.0152 11.6461 15.3125 11.6683 15.6569L12.21 24.0486L12.2113 24.0678C12.2333 24.3814 12.2574 24.7262 12.322 25.047C12.389 25.3796 12.5071 25.7307 12.7463 26.0422C13.2473 26.6944 14.0999 26.9583 15.3253 26.9583H20.6753C21.9008 26.9583 22.7534 26.6944 23.2543 26.0422C23.4936 25.7307 23.6117 25.3796 23.6787 25.047C23.7433 24.7262 23.7674 24.3814 23.7894 24.0678L23.7905 24.052L24.3324 15.6569ZM15.9834 21.75C15.9834 21.4048 16.2632 21.125 16.6084 21.125H19.3834C19.7286 21.125 20.0084 21.4048 20.0084 21.75C20.0084 22.0951 19.7286 22.375 19.3834 22.375H16.6084C16.2632 22.375 15.9834 22.0951 15.9834 21.75ZM15.9167 17.7916C15.5715 17.7916 15.2917 18.0714 15.2917 18.4166C15.2917 18.7618 15.5715 19.0416 15.9167 19.0416H20.0833C20.4285 19.0416 20.7083 18.7618 20.7083 18.4166C20.7083 18.0714 20.4285 17.7916 20.0833 17.7916H15.9167Z" fill="#E43434"/>
</svg>
