<svg width="20" height="20" viewBox="0 0 20 20" fill="none" xmlns="http://www.w3.org/2000/svg">
<path fill-rule="evenodd" clip-rule="evenodd" d="M7.88309 3.15364L7.74745 3.96131C8.21497 3.94809 8.6825 3.94149 9.15004 3.94149C10.1857 3.94149 11.2224 3.96095 12.2588 3.99945L12.1166 3.15875C12.0469 2.73123 12.0028 2.57777 11.9218 2.48447C11.877 2.43284 11.7208 2.2915 11.0918 2.2915H8.90843C8.27002 2.2915 8.1186 2.42891 8.07824 2.47468C8.00147 2.56173 7.95815 2.70797 7.88309 3.15364ZM6.6504 2.94632L6.47113 4.01379C5.69343 4.05577 4.91577 4.11603 4.13815 4.19456L2.43906 4.36114C2.09553 4.39482 1.84435 4.70061 1.87803 5.04414C1.91171 5.38767 2.2175 5.63885 2.56103 5.60517L4.26103 5.43851L4.26286 5.43832C5.89209 5.27375 7.52113 5.19149 9.15004 5.19149C11.9122 5.19149 14.6833 5.33208 17.4384 5.60511C17.7819 5.63915 18.088 5.38828 18.122 5.04479C18.156 4.70129 17.9052 4.39524 17.5617 4.3612C16.2228 4.22852 14.88 4.12665 13.536 4.05651L13.533 4.03722L13.35 2.95576L13.3422 2.90726C13.2873 2.56655 13.2053 2.0563 12.8659 1.66521C12.4732 1.21267 11.8711 1.0415 11.0918 1.0415H8.90843C8.13851 1.0415 7.53576 1.19993 7.14071 1.64791C6.8018 2.03223 6.71762 2.54066 6.66024 2.88723L6.6504 2.94632ZM16.3324 7.6568C16.3546 7.31234 16.0934 7.01507 15.7489 6.99284C15.4045 6.9706 15.1072 7.23182 15.085 7.57628L14.5435 15.9645L14.5434 15.9662C14.5199 16.3019 14.5 16.568 14.4533 16.8C14.4078 17.026 14.3446 17.1744 14.263 17.2806C14.1223 17.4638 13.7749 17.7082 12.6753 17.7082H7.32535C6.22582 17.7082 5.87837 17.4638 5.73768 17.2806C5.6561 17.1744 5.59293 17.026 5.54742 16.8C5.5007 16.568 5.48079 16.3019 5.45727 15.9662L5.45715 15.9645L4.91572 7.57628C4.89348 7.23182 4.59622 6.9706 4.25176 6.99284C3.90729 7.01507 3.64608 7.31234 3.66831 7.6568L4.20997 16.0485L4.21132 16.0677C4.23327 16.3813 4.25742 16.726 4.32203 17.0468C4.38902 17.3795 4.5071 17.7305 4.74635 18.042C5.24733 18.6943 6.09988 18.9582 7.32535 18.9582H12.6753C13.9008 18.9582 14.7534 18.6943 15.2543 18.042C15.4936 17.7305 15.6117 17.3795 15.6787 17.0468C15.7433 16.726 15.7674 16.3813 15.7894 16.0677L15.7905 16.0519L16.3324 7.6568ZM7.9834 13.7498C7.9834 13.4047 8.26322 13.1248 8.6084 13.1248H11.3834C11.7286 13.1248 12.0084 13.4047 12.0084 13.7498C12.0084 14.095 11.7286 14.3748 11.3834 14.3748H8.6084C8.26322 14.3748 7.9834 14.095 7.9834 13.7498ZM7.91667 9.7915C7.57149 9.7915 7.29167 10.0713 7.29167 10.4165C7.29167 10.7617 7.57149 11.0415 7.91667 11.0415H12.0833C12.4285 11.0415 12.7083 10.7617 12.7083 10.4165C12.7083 10.0713 12.4285 9.7915 12.0833 9.7915H7.91667Z" fill="#E43434"/>
</svg>
