<svg width="155" height="106" viewBox="0 0 155 106" fill="none" xmlns="http://www.w3.org/2000/svg">
<g filter="url(#filter0_d_211_6520)">
<path d="M77.5184 78.9557C91.2701 78.9557 102.413 67.7565 102.413 53.9483C102.413 40.14 91.2701 28.9408 77.5184 28.9408C63.7666 28.9408 52.624 40.14 52.624 53.9483C52.624 67.7565 63.7666 78.9557 77.5184 78.9557Z" fill="url(#paint0_linear_211_6520)" stroke="url(#paint1_linear_211_6520)" stroke-width="1.34194"/>
<g filter="url(#filter1_d_211_6520)">
<path fill-rule="evenodd" clip-rule="evenodd" d="M88.8209 45.2642C89.5656 46.0042 89.5656 47.2039 88.8209 47.9439L74.8365 61.839C74.0918 62.579 72.8844 62.579 72.1397 61.839L65.7831 55.5231C65.0384 54.7831 65.0384 53.5834 65.7831 52.8434C66.5279 52.1034 67.7353 52.1034 68.48 52.8434L73.4881 57.8196L86.1241 45.2642C86.8688 44.5242 88.0762 44.5242 88.8209 45.2642Z" fill="white"/>
</g>
</g>
<ellipse cx="15.3226" cy="36.4813" rx="7.01989" ry="7.05263" fill="url(#paint2_linear_211_6520)"/>
<ellipse cx="98.2306" cy="24.2026" rx="2.6915" ry="2.70405" fill="#FFD855"/>
<ellipse cx="142.683" cy="69.7291" rx="8.02273" ry="8.06015" fill="url(#paint3_linear_211_6520)"/>
<ellipse cx="53.8581" cy="87.2212" rx="4.37368" ry="4.39408" fill="url(#paint4_linear_211_6520)"/>
<ellipse cx="41.4092" cy="97.6999" rx="2.01862" ry="2.02804" fill="url(#paint5_linear_211_6520)"/>
<ellipse cx="117.07" cy="14.0636" rx="4.71012" ry="4.73209" fill="url(#paint6_linear_211_6520)"/>
<ellipse cx="89.0313" cy="7.76674" rx="4.51278" ry="4.53383" fill="url(#paint7_linear_211_6520)"/>
<ellipse cx="82.0108" cy="99.4513" rx="4.51278" ry="4.53383" fill="url(#paint8_linear_211_6520)"/>
<ellipse cx="49.3759" cy="19.5345" rx="4.69718" ry="4.71909" fill="url(#paint9_linear_211_6520)"/>
<path d="M112.931 37.2079C116.879 38.5242 126.172 38.1067 131.76 25.9061C137.348 13.7056 147.316 14.2858 151.602 16.1009" stroke="url(#paint10_linear_211_6520)" stroke-width="2" stroke-linecap="round"/>
<path d="M19.4513 59.3746C10.3934 62.0586 4.35466 58.0328 3.28452 51.997" stroke="url(#paint11_linear_211_6520)" stroke-width="2" stroke-linecap="round"/>
<path d="M34.2129 71.7881C31.1935 75.8139 21.6882 83.1945 16.7678 81.1816C9.38713 78.1623 17.7742 65.7494 24.1484 76.4849C30.5226 87.2203 15.4258 99.6332 1 88.2268" stroke="url(#paint12_linear_211_6520)" stroke-width="2" stroke-linecap="round"/>
<path d="M101.318 83.5964C108.69 80.846 117.077 86.5494 116.071 96.9494" stroke="url(#paint13_linear_211_6520)" stroke-width="2" stroke-linecap="round"/>
<defs>
<filter id="filter0_d_211_6520" x="31.8241" y="10.8247" width="91.3889" height="91.6148" filterUnits="userSpaceOnUse" color-interpolation-filters="sRGB">
<feFlood flood-opacity="0" result="BackgroundImageFix"/>
<feColorMatrix in="SourceAlpha" type="matrix" values="0 0 0 0 0 0 0 0 0 0 0 0 0 0 0 0 0 0 127 0" result="hardAlpha"/>
<feOffset dy="2.68387"/>
<feGaussianBlur stdDeviation="10.0645"/>
<feComposite in2="hardAlpha" operator="out"/>
<feColorMatrix type="matrix" values="0 0 0 0 0.766667 0 0 0 0 1 0 0 0 0 0.768434 0 0 0 1 0"/>
<feBlend mode="normal" in2="BackgroundImageFix" result="effect1_dropShadow_211_6520"/>
<feBlend mode="normal" in="SourceGraphic" in2="effect1_dropShadow_211_6520" result="shape"/>
</filter>
<filter id="filter1_d_211_6520" x="63.8827" y="44.7092" width="26.8387" height="20.3687" filterUnits="userSpaceOnUse" color-interpolation-filters="sRGB">
<feFlood flood-opacity="0" result="BackgroundImageFix"/>
<feColorMatrix in="SourceAlpha" type="matrix" values="0 0 0 0 0 0 0 0 0 0 0 0 0 0 0 0 0 0 127 0" result="hardAlpha"/>
<feOffset dy="1.34194"/>
<feGaussianBlur stdDeviation="0.670968"/>
<feComposite in2="hardAlpha" operator="out"/>
<feColorMatrix type="matrix" values="0 0 0 0 0 0 0 0 0 0 0 0 0 0 0 0 0 0 0.1 0"/>
<feBlend mode="normal" in2="BackgroundImageFix" result="effect1_dropShadow_211_6520"/>
<feBlend mode="normal" in="SourceGraphic" in2="effect1_dropShadow_211_6520" result="shape"/>
</filter>
<linearGradient id="paint0_linear_211_6520" x1="81.844" y1="79.3712" x2="69.1803" y2="29.5872" gradientUnits="userSpaceOnUse">
<stop stop-color="#3CAE3D"/>
<stop offset="1" stop-color="#48E049"/>
</linearGradient>
<linearGradient id="paint1_linear_211_6520" x1="77.5184" y1="29.6118" x2="77.5184" y2="78.2847" gradientUnits="userSpaceOnUse">
<stop stop-color="#A7FF99"/>
<stop offset="0.307292" stop-color="#9CF18E"/>
<stop offset="0.5625" stop-color="#53BC42"/>
<stop offset="0.822917" stop-color="#9CF18E"/>
</linearGradient>
<linearGradient id="paint2_linear_211_6520" x1="15.3226" y1="29.4287" x2="20.4454" y2="46.523" gradientUnits="userSpaceOnUse">
<stop stop-color="#52DC53"/>
<stop offset="1" stop-color="#64C764" stop-opacity="0"/>
<stop offset="1" stop-color="white"/>
</linearGradient>
<linearGradient id="paint3_linear_211_6520" x1="142.683" y1="61.6689" x2="149.073" y2="90.0789" gradientUnits="userSpaceOnUse">
<stop stop-color="#A2ABFF"/>
<stop offset="1" stop-color="white"/>
</linearGradient>
<linearGradient id="paint4_linear_211_6520" x1="53.8581" y1="82.8271" x2="57.3417" y2="98.3152" gradientUnits="userSpaceOnUse">
<stop stop-color="#FFD855"/>
<stop offset="1" stop-color="#FFD855" stop-opacity="0"/>
</linearGradient>
<linearGradient id="paint5_linear_211_6520" x1="41.4092" y1="95.6719" x2="43.0171" y2="102.82" gradientUnits="userSpaceOnUse">
<stop stop-color="#FFD855"/>
<stop offset="1" stop-color="#FFD855" stop-opacity="0"/>
</linearGradient>
<linearGradient id="paint6_linear_211_6520" x1="117.07" y1="9.33154" x2="120.822" y2="26.0109" gradientUnits="userSpaceOnUse">
<stop stop-color="#A2ABFF"/>
<stop offset="1" stop-color="#E2E5FF"/>
</linearGradient>
<linearGradient id="paint7_linear_211_6520" x1="89.0313" y1="3.23291" x2="92.3246" y2="14.2221" gradientUnits="userSpaceOnUse">
<stop stop-color="#52DC53"/>
<stop offset="1" stop-color="white"/>
</linearGradient>
<linearGradient id="paint8_linear_211_6520" x1="82.0108" y1="94.9175" x2="85.3041" y2="105.907" gradientUnits="userSpaceOnUse">
<stop stop-color="#52DC53"/>
<stop offset="1" stop-color="white"/>
</linearGradient>
<linearGradient id="paint9_linear_211_6520" x1="49.3759" y1="14.8154" x2="52.8037" y2="26.2537" gradientUnits="userSpaceOnUse">
<stop stop-color="#52DC53"/>
<stop offset="1" stop-color="white"/>
</linearGradient>
<linearGradient id="paint10_linear_211_6520" x1="148.751" y1="10.884" x2="105.747" y2="40.4858" gradientUnits="userSpaceOnUse">
<stop stop-color="#FA84A7"/>
<stop offset="1" stop-color="#FFB0C8" stop-opacity="0.56"/>
</linearGradient>
<linearGradient id="paint11_linear_211_6520" x1="1.8881" y1="57.7735" x2="53.4283" y2="64.7582" gradientUnits="userSpaceOnUse">
<stop stop-color="#FA84A7"/>
<stop offset="1" stop-color="#FFB0C8" stop-opacity="0.56"/>
</linearGradient>
<linearGradient id="paint12_linear_211_6520" x1="44.2774" y1="70.4462" x2="-21.4831" y2="69.5066" gradientUnits="userSpaceOnUse">
<stop stop-color="#647AC8"/>
<stop offset="1" stop-color="#F7F7FF"/>
</linearGradient>
<linearGradient id="paint13_linear_211_6520" x1="104.689" y1="78.699" x2="109.316" y2="115.602" gradientUnits="userSpaceOnUse">
<stop stop-color="#FFDD68"/>
<stop offset="1" stop-color="#FFF4CF"/>
</linearGradient>
</defs>
</svg>
