<svg width="154" height="104" viewBox="0 0 154 104" fill="none" xmlns="http://www.w3.org/2000/svg">
<g filter="url(#filter0_d_545_188622)">
<circle cx="77.3733" cy="52.155" r="24.155" fill="url(#paint0_linear_545_188622)"/>
<circle cx="77.3733" cy="52.155" r="24.5844" stroke="url(#paint1_linear_545_188622)" stroke-width="0.858803"/>
</g>
<g filter="url(#filter1_d_545_188622)">
<path fill-rule="evenodd" clip-rule="evenodd" d="M72.1246 44.4643C71.4508 43.7905 70.3583 43.7905 69.6845 44.4643C69.0108 45.1381 69.0108 46.2306 69.6845 46.9044L74.935 52.1548L69.6846 57.4053C69.0108 58.0791 69.0108 59.1715 69.6846 59.8453C70.3584 60.5191 71.4508 60.5191 72.1246 59.8453L77.375 54.5948L82.6247 59.8445C83.2985 60.5183 84.391 60.5183 85.0647 59.8445C85.7385 59.1707 85.7385 58.0783 85.0647 57.4045L79.8151 52.1548L85.0648 46.9051C85.7386 46.2313 85.7386 45.1389 85.0648 44.4651C84.391 43.7913 83.2985 43.7913 82.6247 44.4651L77.375 49.7148L72.1246 44.4643Z" fill="white"/>
</g>
<path d="M21.4689 7.8614C21.0051 6.46217 22.1628 5.05903 23.6247 5.24872L35.4477 6.78291C37.0075 6.98532 37.734 8.82596 36.733 10.0392L28.6613 19.8216C27.6603 21.0348 25.7152 20.671 25.2202 19.178L21.4689 7.8614Z" fill="url(#paint2_linear_545_188622)"/>
<path d="M32.9005 37.1344C32.3991 36.5942 32.6345 35.7156 33.3388 35.4985L39.7021 33.5368C40.4537 33.3052 41.1662 33.9916 40.9627 34.7513L39.1293 41.5935C38.9258 42.3531 37.9655 42.5914 37.4304 42.0149L32.9005 37.1344Z" fill="url(#paint3_linear_545_188622)"/>
<path d="M139.396 42.1513C140.691 42.8033 140.884 44.5736 139.759 45.4889L131.907 51.8787C130.678 52.8795 128.828 52.1199 128.657 50.5438L127.466 39.6018C127.295 38.0257 128.938 36.8862 130.354 37.5991L139.396 42.1513Z" fill="url(#paint4_linear_545_188622)"/>
<path d="M138.306 14.513C139.013 14.6719 139.322 15.5072 138.888 16.0877L134.962 21.3353C134.487 21.97 133.497 21.8263 133.223 21.0826L130.755 14.3981C130.48 13.6545 131.139 12.9023 131.912 13.0761L138.306 14.513Z" fill="url(#paint5_linear_545_188622)"/>
<path d="M77.1924 15.0647C76.9754 14.8604 76.7925 14.623 76.6508 14.3616L74.4069 10.1429C74.1856 9.72789 74.0762 9.26462 74.0896 8.79964C74.1031 8.33467 74.2389 7.88436 74.4835 7.49392L76.9705 3.53024C77.2174 3.14158 77.5631 2.82632 77.9735 2.6155C78.3838 2.40468 78.8447 2.30557 79.3106 2.32793L84.0467 2.58285C84.5123 2.60858 84.9659 2.75574 85.3622 3.00963C85.7585 3.26351 86.0837 3.61523 86.3051 4.02965L88.5542 8.24824C88.7739 8.66341 88.8822 9.12621 88.8683 9.59054C88.8544 10.0549 88.7188 10.5045 88.4749 10.8947L85.9855 14.861C85.7405 15.2509 85.3956 15.567 84.9852 15.7776C84.5748 15.9882 84.1136 16.0859 83.6478 16.0607L78.9117 15.8058C78.2729 15.7714 77.6624 15.5083 77.1924 15.0647ZM77.0554 8.95828L79.1458 12.9085L83.5708 13.1433L85.8955 9.43825L83.8052 5.48801L79.3829 5.2558L77.0554 8.95828Z" fill="url(#paint6_linear_545_188622)"/>
<path d="M145.429 83.9837C145.23 84.3305 144.977 84.6433 144.68 84.9096L139.871 89.1525C139.398 89.5706 138.828 89.8577 138.216 89.9849C137.605 90.1121 136.975 90.075 136.389 89.8773L130.44 87.8647C129.856 87.6633 129.337 87.3101 128.934 86.8401C128.531 86.37 128.258 85.7993 128.142 85.184L127 78.9218C126.889 78.306 126.94 77.668 127.148 77.0716C127.356 76.4752 127.714 75.9412 128.186 75.5231L132.993 71.2735C133.466 70.8574 134.037 70.5719 134.647 70.4455C135.258 70.3191 135.887 70.3562 136.473 70.553L142.426 72.568C143.011 72.7663 143.531 73.1183 143.934 73.5884C144.336 74.0586 144.607 74.6303 144.72 75.2463L145.861 81.5084C146.015 82.3531 145.862 83.232 145.429 83.9837ZM137.5 86.0637L142.006 82.1049L140.935 76.2551L135.374 74.3738L130.868 78.3326L131.942 84.1781L137.5 86.0637Z" fill="url(#paint7_linear_545_188622)"/>
<path d="M88.596 84.2227C88.5087 84.3748 88.448 84.5408 88.4162 84.7141L87.9284 87.5054C87.8801 87.7801 87.9071 88.0652 88.0066 88.332C88.1061 88.5987 88.2747 88.8378 88.4955 89.0253L90.7386 90.9275C90.9604 91.1135 91.2258 91.2417 91.5086 91.2992C91.7913 91.3568 92.0818 91.3419 92.3513 91.2559L95.0854 90.3661C95.354 90.2782 95.5917 90.122 95.7746 89.9131C95.9576 89.7041 96.0794 89.4498 96.1279 89.1754L96.6188 86.3833C96.6661 86.1088 96.6386 85.8242 96.5389 85.5579C96.4392 85.2915 96.2709 85.0528 96.0506 84.8654L93.8055 82.962C93.5846 82.775 93.3195 82.6462 93.0368 82.5888C92.754 82.5313 92.4636 82.5472 92.1947 82.6347L89.4607 83.5246C89.0919 83.6446 88.7849 83.8925 88.596 84.2227ZM89.7189 87.7753L90.1693 85.1633L92.7244 84.3339L94.8213 86.112L94.3708 88.724L91.8168 89.5515L89.7189 87.7753Z" fill="url(#paint8_linear_545_188622)"/>
<path d="M21.8739 75.3013C21.4091 75.2949 20.9484 75.2123 20.5102 75.0569L13.4849 72.5009C12.7931 72.25 12.1793 71.8209 11.7051 71.2567C11.2308 70.6925 10.9129 70.013 10.7832 69.2865L9.47101 61.9066C9.34595 61.1795 9.41177 60.4323 9.66199 59.7386C9.91221 59.0448 10.3382 58.4283 10.898 57.9499L16.617 53.1203C17.1799 52.6463 17.857 52.3288 18.5804 52.1995C19.3039 52.0703 20.0485 52.1338 20.7398 52.3838L27.771 54.934C28.4611 55.1868 29.0731 55.6166 29.5461 56.1805C30.0191 56.7445 30.3366 57.423 30.4669 58.1484L31.779 65.5341C31.9077 66.2604 31.8436 67.0078 31.5931 67.7013C31.3427 68.3949 30.9146 69.01 30.3521 69.485L24.6331 74.3146C23.8617 74.9661 22.882 75.3164 21.8739 75.3013ZM15.2853 68.2311L21.8512 70.6361L27.191 66.1195L25.9645 59.2212L19.3986 56.8162L14.0646 61.3328L15.2853 68.2311Z" fill="url(#paint9_linear_545_188622)"/>
<path d="M47.9395 94.2226C46.5713 94.9063 44.9733 93.8638 45.0478 92.3361L45.5753 81.5148C45.6505 79.9719 47.372 79.0931 48.6657 79.9371L57.8295 85.9152C59.1233 86.7591 59.0126 88.6887 57.6309 89.3793L47.9395 94.2226Z" fill="url(#paint10_linear_545_188622)"/>
<defs>
<filter id="filter0_d_545_188622" x="32.2303" y="9.69607" width="90.2859" height="90.2857" filterUnits="userSpaceOnUse" color-interpolation-filters="sRGB">
<feFlood flood-opacity="0" result="BackgroundImageFix"/>
<feColorMatrix in="SourceAlpha" type="matrix" values="0 0 0 0 0 0 0 0 0 0 0 0 0 0 0 0 0 0 127 0" result="hardAlpha"/>
<feOffset dy="2.68387"/>
<feGaussianBlur stdDeviation="10.0645"/>
<feComposite in2="hardAlpha" operator="out"/>
<feColorMatrix type="matrix" values="0 0 0 0 0.979167 0 0 0 0 0.711528 0 0 0 0 0.652778 0 0 0 1 0"/>
<feBlend mode="normal" in2="BackgroundImageFix" result="effect1_dropShadow_545_188622"/>
<feBlend mode="normal" in="SourceGraphic" in2="effect1_dropShadow_545_188622" result="shape"/>
</filter>
<filter id="filter1_d_545_188622" x="67.4616" y="43.959" width="19.8263" height="19.8268" filterUnits="userSpaceOnUse" color-interpolation-filters="sRGB">
<feFlood flood-opacity="0" result="BackgroundImageFix"/>
<feColorMatrix in="SourceAlpha" type="matrix" values="0 0 0 0 0 0 0 0 0 0 0 0 0 0 0 0 0 0 127 0" result="hardAlpha"/>
<feOffset dy="1.71761"/>
<feGaussianBlur stdDeviation="0.858803"/>
<feComposite in2="hardAlpha" operator="out"/>
<feColorMatrix type="matrix" values="0 0 0 0 0 0 0 0 0 0 0 0 0 0 0 0 0 0 0.1 0"/>
<feBlend mode="normal" in2="BackgroundImageFix" result="effect1_dropShadow_545_188622"/>
<feBlend mode="normal" in="SourceGraphic" in2="effect1_dropShadow_545_188622" result="shape"/>
</filter>
<linearGradient id="paint0_linear_545_188622" x1="81.6867" y1="77.3883" x2="69.1687" y2="27.9477" gradientUnits="userSpaceOnUse">
<stop stop-color="#DA3A31"/>
<stop offset="1" stop-color="#F09B96"/>
</linearGradient>
<linearGradient id="paint1_linear_545_188622" x1="61.4137" y1="32.0977" x2="95.9209" y2="77.604" gradientUnits="userSpaceOnUse">
<stop stop-color="#F0A5A1"/>
<stop offset="0.484375" stop-color="#FF4841"/>
<stop offset="1" stop-color="#FFC1C1"/>
</linearGradient>
<linearGradient id="paint2_linear_545_188622" x1="32.8807" y1="14.3025" x2="4.96018" y2="-9.86445" gradientUnits="userSpaceOnUse">
<stop stop-color="#ECE5E5"/>
<stop offset="1" stop-color="#F5F5F5" stop-opacity="0"/>
</linearGradient>
<linearGradient id="paint3_linear_545_188622" x1="39.9957" y1="37.8246" x2="20.9586" y2="32.2392" gradientUnits="userSpaceOnUse">
<stop stop-color="#ECE5E5"/>
<stop offset="1" stop-color="#F5F5F5" stop-opacity="0"/>
</linearGradient>
<linearGradient id="paint4_linear_545_188622" x1="128.006" y1="44.5881" x2="155.902" y2="44.7325" gradientUnits="userSpaceOnUse">
<stop stop-color="#E2E2E2"/>
<stop offset="0.15625" stop-color="#ECECEC" stop-opacity="0.528187"/>
<stop offset="1" stop-color="#F5F5F5" stop-opacity="0"/>
<stop offset="1" stop-color="#F5F5F5" stop-opacity="0.83"/>
</linearGradient>
<linearGradient id="paint5_linear_545_188622" x1="132.229" y1="17.9992" x2="150.599" y2="11.6897" gradientUnits="userSpaceOnUse">
<stop stop-color="#ECE5E5"/>
<stop offset="1" stop-color="#F5F5F5" stop-opacity="0"/>
</linearGradient>
<linearGradient id="paint6_linear_545_188622" x1="78.3887" y1="16.5918" x2="87.2848" y2="-5.14046" gradientUnits="userSpaceOnUse">
<stop stop-color="#FF8180"/>
<stop offset="1" stop-color="white" stop-opacity="0.75"/>
</linearGradient>
<linearGradient id="paint7_linear_545_188622" x1="147.05" y1="81.9464" x2="115.91" y2="77.0993" gradientUnits="userSpaceOnUse">
<stop stop-color="#FF8180"/>
<stop offset="1" stop-color="white" stop-opacity="0.75"/>
</linearGradient>
<linearGradient id="paint8_linear_545_188622" x1="88.9984" y1="83.152" x2="97.9832" y2="94.7341" gradientUnits="userSpaceOnUse">
<stop stop-color="#FF8180"/>
<stop offset="1" stop-color="white" stop-opacity="0.75"/>
</linearGradient>
<linearGradient id="paint9_linear_545_188622" x1="24.859" y1="75.8104" x2="11.5639" y2="40.727" gradientUnits="userSpaceOnUse">
<stop stop-color="#FF8180"/>
<stop offset="1" stop-color="white" stop-opacity="0.75"/>
</linearGradient>
<linearGradient id="paint10_linear_545_188622" x1="52.6587" y1="82.8394" x2="32.4252" y2="112.203" gradientUnits="userSpaceOnUse">
<stop stop-color="#ECE5E5"/>
<stop offset="1" stop-color="#F5F5F5" stop-opacity="0"/>
</linearGradient>
</defs>
</svg>
