<svg width="154" height="106" viewBox="0 0 154 106" fill="none" xmlns="http://www.w3.org/2000/svg">
<g filter="url(#filter0_d_545_188340)">
<g filter="url(#filter1_d_545_188340)">
<ellipse cx="77.374" cy="53.158" rx="24.2236" ry="24.6195" fill="url(#paint0_linear_545_188340)"/>
<path d="M100.928 53.158C100.928 66.3952 90.3721 77.1075 77.374 77.1075C64.3759 77.1075 53.8204 66.3952 53.8204 53.158C53.8204 39.9207 64.3759 29.2085 77.374 29.2085C90.3721 29.2085 100.928 39.9207 100.928 53.158Z" stroke="url(#paint1_linear_545_188340)" stroke-width="1.34"/>
</g>
<g filter="url(#filter2_d_545_188340)">
<path d="M81.9649 67.2692H73.4648C70.9856 67.2692 69.1753 66.2954 68.4801 64.6192C67.7587 62.8689 68.4277 60.6996 70.1592 59.2329L76.2456 54.0192L70.1592 48.8054C68.4277 47.3387 67.7587 45.1694 68.4801 43.4192C69.1753 41.7306 70.9856 40.7692 73.4648 40.7692H81.9649C84.4441 40.7692 86.2543 41.7429 86.9495 43.4192C87.671 45.1694 87.002 47.3387 85.2705 48.8054L79.184 54.0192L85.2836 59.2329C87.002 60.6996 87.6841 62.8689 86.9626 64.6192C86.2543 66.2954 84.4441 67.2692 81.9649 67.2692ZM77.7148 55.264L71.484 60.5887C70.3822 61.5378 69.8968 62.9182 70.3166 63.9413C70.7101 64.8903 71.8251 65.4203 73.4648 65.4203H81.9649C83.6046 65.4203 84.7195 64.9027 85.1131 63.9413C85.5328 62.9182 85.0606 61.5378 83.9456 60.5887L77.7148 55.264ZM73.4648 42.618C71.8251 42.618 70.7101 43.1357 70.3166 44.0971C69.8968 45.1201 70.369 46.5006 71.484 47.4496L77.7148 52.7743L83.9456 47.4496C85.0475 46.5006 85.5328 45.1201 85.1131 44.0971C84.7195 43.148 83.6046 42.618 81.9649 42.618H73.4648Z" fill="white"/>
<path d="M80.8401 47.2528H74.6C74.421 47.2528 74.2588 47.3552 74.1863 47.5137C74.1138 47.6727 74.1443 47.8577 74.265 47.9862L77.4166 50.8042C77.5028 50.88 77.6116 50.9177 77.7203 50.9177C77.829 50.9177 77.9378 50.88 78.024 50.8042L81.1752 47.9862C81.2958 47.8577 81.3264 47.6727 81.2538 47.5137C81.1814 47.3552 81.0192 47.2528 80.8401 47.2528Z" fill="white"/>
<path d="M74.6003 60.7855L80.8404 60.7855C81.0194 60.7855 81.1816 60.6831 81.2541 60.5246C81.3266 60.3657 81.2961 60.1806 81.1754 60.0521L78.0238 57.2341C77.9376 57.1583 77.8288 57.1206 77.7201 57.1206C77.6114 57.1206 77.5026 57.1583 77.4165 57.2341L74.2653 60.0521C74.1446 60.1806 74.1141 60.3657 74.1866 60.5246C74.259 60.6831 74.4213 60.7855 74.6003 60.7855Z" fill="white"/>
</g>
</g>
<ellipse cx="37.4674" cy="84.9644" rx="4.37368" ry="4.44516" fill="url(#paint2_linear_545_188340)"/>
<ellipse cx="25.0841" cy="95.566" rx="2.01862" ry="2.05161" fill="url(#paint3_linear_545_188340)"/>
<ellipse cx="123.032" cy="24.1393" rx="2.6915" ry="2.73548" fill="#FFD855"/>
<ellipse cx="25.8543" cy="25.9904" rx="7.52131" ry="7.64423" fill="url(#paint4_linear_545_188340)"/>
<ellipse cx="53.151" cy="16.3076" rx="4.01136" ry="4.07692" fill="url(#paint5_linear_545_188340)"/>
<path d="M83.4808 12.9488C83.7225 13.1311 83.8873 13.3995 83.9423 13.7001C83.9524 13.7555 83.9587 13.8111 83.9611 13.8668C83.9787 14.2642 84.0777 14.7301 84.4492 14.8724C84.834 15.0198 85.2316 15.1297 85.6367 15.2006C86.049 15.2727 86.3808 14.8829 86.598 14.5251C86.6212 14.4869 86.6466 14.4498 86.6742 14.4141C86.8652 14.1663 87.1438 14.0039 87.4508 13.9614C87.7578 13.9189 88.069 13.9996 88.3184 14.1865C88.3523 14.2119 88.3847 14.239 88.4155 14.2676C88.7234 14.5539 89.1498 14.8433 89.529 14.6616C89.8974 14.4851 90.2487 14.2736 90.578 14.03C90.9114 13.7835 90.8645 13.2797 90.7624 12.8779C90.7505 12.831 90.7413 12.7832 90.7349 12.7347C90.694 12.422 90.7747 12.1054 90.96 11.8523C91.1453 11.5992 91.4205 11.4295 91.727 11.3794C91.764 11.3734 91.8011 11.3691 91.8381 11.3666C92.2602 11.3384 92.7718 11.236 92.9084 10.8357C93.0423 10.4433 93.1394 10.0389 93.1984 9.62787C93.2577 9.21534 92.8614 8.8926 92.5062 8.67463C92.4711 8.6531 92.437 8.62966 92.404 8.60435C92.1581 8.41556 91.9937 8.13722 91.9456 7.82787C91.8975 7.51851 91.9693 7.20226 92.146 6.94561C92.1716 6.90849 92.1991 6.87303 92.2283 6.83935C92.4996 6.52637 92.7741 6.1009 92.5933 5.72818C92.41 5.35014 92.1914 4.99079 91.9406 4.65508C91.6984 4.33081 91.2114 4.37092 90.8166 4.46046C90.7758 4.46972 90.7343 4.47684 90.6923 4.48171C90.3977 4.51594 90.1011 4.43735 89.8604 4.26127C89.6198 4.0852 89.4523 3.82429 89.3909 3.52953C89.3802 3.47824 89.3728 3.42657 89.3688 3.37483C89.3377 2.97871 89.2229 2.51733 88.8473 2.38768C88.443 2.24812 88.0261 2.14939 87.6026 2.09296C87.2218 2.0422 86.9185 2.37932 86.7115 2.70304C86.6827 2.7482 86.6507 2.79157 86.6158 2.83282C86.4289 3.05375 86.1699 3.19883 85.8863 3.24144C85.6068 3.28276 85.322 3.22203 85.0824 3.07003C85.0437 3.04547 85.0066 3.01878 84.9712 2.99014C84.67 2.74645 84.2727 2.51702 83.9245 2.68703C83.5318 2.87882 83.159 3.11034 82.812 3.37809C82.5155 3.60677 82.53 4.045 82.6025 4.41229C82.6133 4.46702 82.6205 4.52271 82.6237 4.57898C82.6403 4.86358 82.5574 5.14498 82.3897 5.37355C82.2219 5.60211 81.9801 5.76314 81.7069 5.82824C81.6624 5.83885 81.6175 5.84681 81.5724 5.85213C81.1924 5.89696 80.7547 6.01113 80.6237 6.37064C80.4718 6.78707 80.362 7.21807 80.2957 7.65701C80.2383 8.03751 80.5711 8.34935 80.886 8.57054C80.9234 8.5968 80.9594 8.62533 80.9939 8.65605C81.2062 8.84525 81.3453 9.10501 81.3864 9.38888C81.427 9.6764 81.3645 9.96916 81.2103 10.2138C81.1816 10.2593 81.1501 10.3027 81.116 10.3436C80.8719 10.6362 80.6383 11.0205 80.7911 11.3696C80.9651 11.7669 81.1774 12.1458 81.4247 12.5006C81.6569 12.8338 82.1473 12.8084 82.546 12.7311C82.5834 12.7238 82.6213 12.7184 82.6595 12.7148C82.9523 12.6872 83.2448 12.7706 83.4808 12.9488ZM83.6141 6.29895C84.0745 5.66982 84.7082 5.19353 85.4351 4.93031C86.162 4.66709 86.9493 4.62875 87.6976 4.82015C88.4459 5.01155 89.1215 5.42409 89.6391 6.0056C90.1566 6.58712 90.4928 7.31149 90.6051 8.08712C90.7175 8.86275 90.6009 9.6548 90.2702 10.3631C89.9395 11.0715 89.4094 11.6642 88.7471 12.0665C88.0848 12.4688 87.32 12.6626 86.5493 12.6232C85.7786 12.5839 85.0367 12.3132 84.4175 11.8455C84.0061 11.5351 83.659 11.1453 83.396 10.6984C83.1329 10.2516 82.9592 9.75647 82.8845 9.24137C82.8099 8.72627 82.836 8.20128 82.9612 7.69641C83.0863 7.19153 83.3082 6.71667 83.6141 6.29895Z" fill="url(#paint6_linear_545_188340)"/>
<path d="M21.3021 64.2097C21.6181 64.448 21.8337 64.7989 21.9056 65.1921C21.9326 65.3399 21.9386 65.4896 21.9243 65.6367C21.8858 66.0327 21.9902 66.4888 22.3577 66.6411C23.0015 66.9079 23.6751 67.0932 24.3633 67.1929C24.7775 67.2529 25.1082 66.8762 25.2679 66.4893C25.3212 66.3602 25.3916 66.2378 25.478 66.1257C25.7279 65.8017 26.0922 65.5893 26.4937 65.5337C26.8951 65.4782 27.3021 65.5838 27.6282 65.8281C27.739 65.9112 27.8375 66.008 27.9219 66.1156C28.1813 66.4465 28.603 66.7233 28.9873 66.5528C29.6244 66.2702 30.2249 65.9089 30.7752 65.4772C31.1013 65.2213 31.0624 64.7274 30.9011 64.3455C30.8454 64.2138 30.8072 64.074 30.7883 63.9296C30.7347 63.5207 30.8403 63.1067 31.0826 62.7757C31.3249 62.4447 31.6848 62.2229 32.0856 62.1573C32.217 62.1358 32.3493 62.1317 32.4796 62.1442C32.9007 62.1846 33.3988 62.0771 33.5468 61.6808C33.7938 61.0189 33.9599 60.3286 34.041 59.6255C34.0888 59.2115 33.7061 58.8904 33.3211 58.7308C33.1973 58.6794 33.0795 58.6117 32.9709 58.5284C32.6493 58.2815 32.4344 57.9175 32.3715 57.513C32.3086 57.1085 32.4025 56.6949 32.6336 56.3593C32.7133 56.2434 32.8073 56.14 32.9124 56.051C33.2285 55.7832 33.491 55.3632 33.3207 54.9856C33.0294 54.34 32.6607 53.7333 32.2231 53.1793C31.9721 52.8617 31.4942 52.893 31.1175 53.041C30.9947 53.0892 30.8654 53.1218 30.7326 53.1373C30.3473 53.182 29.9594 53.0792 29.6447 52.849C29.33 52.6187 29.1111 52.2776 29.0307 51.8921C29.0011 51.7501 28.9911 51.606 29 51.4634C29.0248 51.0669 28.9049 50.6154 28.533 50.4757C27.8707 50.2269 27.1803 50.063 26.478 49.9878C26.0959 49.9468 25.7917 50.2734 25.6305 50.6222C25.571 50.7508 25.4943 50.8716 25.4018 50.981C25.1574 51.2699 24.8187 51.4596 24.4477 51.5154C24.0823 51.5694 23.7098 51.49 23.3965 51.2912C23.2839 51.2197 23.1815 51.1345 23.0914 51.038C22.8269 50.7549 22.4322 50.5362 22.0798 50.6971C21.4306 50.9935 20.8207 51.3718 20.2644 51.8231C19.9736 52.059 19.9807 52.4908 20.1002 52.8456C20.1454 52.9799 20.173 53.1207 20.1813 53.2645C20.203 53.6366 20.0946 54.0046 19.8752 54.3035C19.6559 54.6024 19.3397 54.813 18.9824 54.8981C18.8537 54.9288 18.7227 54.9424 18.5924 54.9395C18.2098 54.9309 17.7817 55.0506 17.6418 55.4068C17.3773 56.0801 17.1977 56.7847 17.1074 57.5038C17.0594 57.8856 17.3813 58.1973 17.7238 58.3726C17.8406 58.4323 17.9503 58.5072 18.05 58.596C18.3276 58.8434 18.5096 59.1831 18.5633 59.5543C18.6164 59.9303 18.5346 60.3131 18.333 60.633C18.257 60.7537 18.1658 60.8624 18.0624 60.9568C17.781 61.2138 17.5574 61.5954 17.7017 61.9481C17.9732 62.612 18.3253 63.2387 18.7497 63.8137C18.9909 64.1405 19.4718 64.1236 19.8542 63.9867C19.9741 63.9438 20.0996 63.9156 20.2282 63.9035C20.6111 63.8675 20.9935 63.9765 21.3021 64.2097ZM21.4764 55.5136C22.0785 54.6909 22.9072 54.0681 23.8577 53.7239C24.8082 53.3797 25.8379 53.3295 26.8164 53.5798C27.7949 53.8301 28.6785 54.3696 29.3552 55.13C30.032 55.8905 30.4716 56.8377 30.6185 57.852C30.7654 58.8663 30.613 59.9021 30.1805 60.8283C29.7481 61.7546 29.055 62.5298 28.1889 63.0559C27.3228 63.5819 26.3226 63.8353 25.3148 63.7838C24.307 63.7324 23.3368 63.3785 22.527 62.7669C21.989 62.3609 21.5351 61.8511 21.1912 61.2668C20.8472 60.6825 20.62 60.035 20.5224 59.3614C20.4248 58.6878 20.4589 58.0013 20.6226 57.3411C20.7863 56.6809 21.0764 56.0599 21.4764 55.5136Z" fill="url(#paint7_linear_545_188340)"/>
<path d="M114.064 94.4265C114.418 94.6928 114.658 95.0851 114.739 95.5245C114.774 95.7186 114.777 95.9156 114.749 96.1076C114.692 96.5012 114.798 96.9547 115.164 97.1104C115.937 97.4389 116.748 97.6619 117.578 97.7737C117.993 97.8295 118.324 97.4565 118.463 97.0618C118.526 96.8852 118.616 96.7183 118.732 96.568C119.011 96.2058 119.418 95.9685 119.867 95.9063C120.315 95.8442 120.77 95.9623 121.135 96.2354C121.284 96.3473 121.413 96.4816 121.519 96.6325C121.76 96.9767 122.181 97.2497 122.567 97.0831C123.34 96.7497 124.065 96.3135 124.724 95.7858C125.048 95.5268 125.012 95.0354 124.831 94.6624C124.748 94.4912 124.692 94.306 124.666 94.1134C124.607 93.6565 124.725 93.1938 124.996 92.8239C125.266 92.4539 125.668 92.206 126.116 92.1327C126.295 92.1035 126.476 92.103 126.651 92.1297C127.07 92.1934 127.564 92.084 127.716 91.6891C128.022 90.8935 128.222 90.0599 128.312 89.2105C128.356 88.7961 127.977 88.475 127.584 88.3364C127.414 88.2763 127.252 88.1892 127.106 88.0768C126.746 87.8009 126.506 87.3941 126.436 86.942C126.366 86.4899 126.471 86.0276 126.729 85.6525C126.836 85.4972 126.966 85.3618 127.112 85.2502C127.442 84.9996 127.701 84.5807 127.534 84.2015C127.191 83.4211 126.747 82.6905 126.215 82.0289C125.961 81.7136 125.485 81.742 125.116 81.9092C124.955 81.9823 124.783 82.0307 124.604 82.0515C124.174 82.1015 123.74 81.9866 123.388 81.7293C123.037 81.4719 122.792 81.0906 122.702 80.6598C122.663 80.4724 122.655 80.2816 122.675 80.0944C122.719 79.6995 122.598 79.2508 122.227 79.1076C121.436 78.8023 120.609 78.6057 119.767 78.523C119.385 78.4855 119.08 78.809 118.935 79.1648C118.865 79.3369 118.768 79.498 118.646 79.6415C118.373 79.9644 117.995 80.1765 117.58 80.2387C117.172 80.2991 116.755 80.2104 116.405 79.9882C116.256 79.8933 116.122 79.7766 116.009 79.6429C115.758 79.3476 115.363 79.1321 115.01 79.2899C114.231 79.6369 113.503 80.0886 112.843 80.633C112.554 80.8713 112.559 81.3016 112.694 81.6507C112.761 81.823 112.801 82.006 112.812 82.1936C112.836 82.6096 112.715 83.0209 112.47 83.3549C112.224 83.689 111.871 83.9243 111.472 84.0195C111.301 84.0602 111.126 84.0741 110.954 84.0619C110.572 84.035 110.147 84.1568 110.004 84.5118C109.681 85.3128 109.467 86.1544 109.366 87.0138C109.321 87.396 109.64 87.7082 109.991 87.8668C110.149 87.9385 110.297 88.0344 110.43 88.1524C110.74 88.4289 110.943 88.8086 111.003 89.2235C111.063 89.6437 110.971 90.0716 110.746 90.4291C110.646 90.5874 110.523 90.7273 110.382 90.8445C110.089 91.0881 109.868 91.4694 110.01 91.8233C110.328 92.6211 110.751 93.3719 111.265 94.0557C111.509 94.3802 111.988 94.3661 112.363 94.2097C112.521 94.1433 112.69 94.1007 112.864 94.0844C113.292 94.0441 113.719 94.1659 114.064 94.4265ZM114.259 84.7074C114.932 83.7879 115.858 83.0918 116.921 82.7071C117.983 82.3224 119.134 82.2664 120.227 82.5461C121.321 82.8258 122.308 83.4288 123.065 84.2787C123.821 85.1286 124.313 86.1873 124.477 87.3209C124.641 88.4545 124.471 89.6121 123.987 90.6474C123.504 91.6826 122.729 92.549 121.761 93.137C120.793 93.7249 119.675 94.0081 118.549 93.9506C117.423 93.8931 116.338 93.4975 115.433 92.814C114.832 92.3602 114.325 91.7905 113.94 91.1374C113.556 90.4843 113.302 89.7607 113.193 89.0079C113.084 88.255 113.122 87.4877 113.305 86.7499C113.488 86.012 113.812 85.3179 114.259 84.7074Z" fill="url(#paint8_linear_545_188340)"/>
<ellipse cx="80.7286" cy="93.2596" rx="4.51278" ry="4.58654" fill="url(#paint9_linear_545_188340)"/>
<ellipse cx="139.677" cy="55.0385" rx="8.02273" ry="8.15385" fill="url(#paint10_linear_545_188340)"/>
<defs>
<filter id="filter0_d_545_188340" x="33.0214" y="11.0933" width="88.7053" height="89.4971" filterUnits="userSpaceOnUse" color-interpolation-filters="sRGB">
<feFlood flood-opacity="0" result="BackgroundImageFix"/>
<feColorMatrix in="SourceAlpha" type="matrix" values="0 0 0 0 0 0 0 0 0 0 0 0 0 0 0 0 0 0 127 0" result="hardAlpha"/>
<feOffset dy="2.68387"/>
<feGaussianBlur stdDeviation="10.0645"/>
<feComposite in2="hardAlpha" operator="out"/>
<feColorMatrix type="matrix" values="0 0 0 0 0.979167 0 0 0 0 0.868194 0 0 0 0 0.652778 0 0 0 1 0"/>
<feBlend mode="normal" in2="BackgroundImageFix" result="effect1_dropShadow_545_188340"/>
<feBlend mode="normal" in="SourceGraphic" in2="effect1_dropShadow_545_188340" result="shape"/>
</filter>
<filter id="filter1_d_545_188340" x="41.4259" y="16.814" width="71.8963" height="72.688" filterUnits="userSpaceOnUse" color-interpolation-filters="sRGB">
<feFlood flood-opacity="0" result="BackgroundImageFix"/>
<feColorMatrix in="SourceAlpha" type="matrix" values="0 0 0 0 0 0 0 0 0 0 0 0 0 0 0 0 0 0 127 0" result="hardAlpha"/>
<feOffset/>
<feGaussianBlur stdDeviation="5.86225"/>
<feComposite in2="hardAlpha" operator="out"/>
<feColorMatrix type="matrix" values="0 0 0 0 1 0 0 0 0 0.911667 0 0 0 0 0.779167 0 0 0 0.2 0"/>
<feBlend mode="normal" in2="BackgroundImageFix" result="effect1_dropShadow_545_188340"/>
<feBlend mode="normal" in="SourceGraphic" in2="effect1_dropShadow_545_188340" result="shape"/>
</filter>
<filter id="filter2_d_545_188340" x="66.1934" y="39.7692" width="23.0542" height="30.5" filterUnits="userSpaceOnUse" color-interpolation-filters="sRGB">
<feFlood flood-opacity="0" result="BackgroundImageFix"/>
<feColorMatrix in="SourceAlpha" type="matrix" values="0 0 0 0 0 0 0 0 0 0 0 0 0 0 0 0 0 0 127 0" result="hardAlpha"/>
<feOffset dy="1"/>
<feGaussianBlur stdDeviation="1"/>
<feComposite in2="hardAlpha" operator="out"/>
<feColorMatrix type="matrix" values="0 0 0 0 0.858333 0 0 0 0 0.425733 0 0 0 0 0.182396 0 0 0 0.15 0"/>
<feBlend mode="normal" in2="BackgroundImageFix" result="effect1_dropShadow_545_188340"/>
<feBlend mode="normal" in="SourceGraphic" in2="effect1_dropShadow_545_188340" result="shape"/>
</filter>
<linearGradient id="paint0_linear_545_188340" x1="77.374" y1="28.5385" x2="77.374" y2="77.7775" gradientUnits="userSpaceOnUse">
<stop stop-color="#F19D3A"/>
<stop offset="1" stop-color="#FFC46C"/>
</linearGradient>
<linearGradient id="paint1_linear_545_188340" x1="77.374" y1="28.5385" x2="77.374" y2="77.7775" gradientUnits="userSpaceOnUse">
<stop stop-color="#FED79D"/>
<stop offset="0.510417" stop-color="#FDC166"/>
<stop offset="1" stop-color="#FFDEAC"/>
</linearGradient>
<linearGradient id="paint2_linear_545_188340" x1="37.4674" y1="80.5193" x2="41.0285" y2="96.1697" gradientUnits="userSpaceOnUse">
<stop stop-color="#FFD855"/>
<stop offset="1" stop-color="#FFD855" stop-opacity="0"/>
</linearGradient>
<linearGradient id="paint3_linear_545_188340" x1="25.0841" y1="93.5144" x2="26.7276" y2="100.738" gradientUnits="userSpaceOnUse">
<stop stop-color="#FFD855"/>
<stop offset="1" stop-color="#FFD855" stop-opacity="0"/>
</linearGradient>
<linearGradient id="paint4_linear_545_188340" x1="32.6839" y1="32.4853" x2="8.61245" y2="7.69069" gradientUnits="userSpaceOnUse">
<stop stop-color="#F3D3AC"/>
<stop offset="1" stop-color="#FFCC91" stop-opacity="0"/>
</linearGradient>
<linearGradient id="paint5_linear_545_188340" x1="53.151" y1="12.2307" x2="56.4171" y2="26.5847" gradientUnits="userSpaceOnUse">
<stop stop-color="#FFD855"/>
<stop offset="1" stop-color="#FFD855" stop-opacity="0"/>
</linearGradient>
<linearGradient id="paint6_linear_545_188340" x1="93.1466" y1="11.9657" x2="74.2524" y2="-0.259067" gradientUnits="userSpaceOnUse">
<stop stop-color="#FCB45F"/>
<stop offset="1" stop-color="white"/>
</linearGradient>
<linearGradient id="paint7_linear_545_188340" x1="33.9421" y1="62.924" x2="9.23423" y2="46.9378" gradientUnits="userSpaceOnUse">
<stop stop-color="#FCB45F"/>
<stop offset="1" stop-color="white"/>
</linearGradient>
<linearGradient id="paint8_linear_545_188340" x1="128.191" y1="92.9895" x2="100.577" y2="75.1226" gradientUnits="userSpaceOnUse">
<stop stop-color="#FCB45F"/>
<stop offset="1" stop-color="white"/>
</linearGradient>
<linearGradient id="paint9_linear_545_188340" x1="84.8264" y1="97.1565" x2="70.3835" y2="82.2798" gradientUnits="userSpaceOnUse">
<stop stop-color="#F3D3AC"/>
<stop offset="1" stop-color="#FFCC91" stop-opacity="0"/>
</linearGradient>
<linearGradient id="paint10_linear_545_188340" x1="139.677" y1="46.8846" x2="146.209" y2="75.5925" gradientUnits="userSpaceOnUse">
<stop stop-color="#FFD855"/>
<stop offset="1" stop-color="#FFD855" stop-opacity="0"/>
</linearGradient>
</defs>
</svg>
