<svg xmlns="http://www.w3.org/2000/svg" width="94" height="110" viewBox="0 0 94 110" fill="none">
  <path d="M47.1704 88.8911C68.9304 88.8911 86.5703 71.1878 86.5703 49.3496C86.5703 27.5115 68.9304 9.80817 47.1704 9.80817C25.4104 9.80817 7.77051 27.5115 7.77051 49.3496C7.77051 71.1878 25.4104 88.8911 47.1704 88.8911Z" fill="#EAEEF9"/>
  <path d="M8.41417 26.1817C9.45511 25.8422 10.0247 24.72 9.68635 23.6754C9.34802 22.6307 8.2299 22.0591 7.18897 22.3986C6.14804 22.7382 5.57847 23.8603 5.9168 24.905C6.25513 25.9496 7.37324 26.5213 8.41417 26.1817Z" fill="#EAEEF9"/>
  <path d="M12.7403 19.692C13.4481 19.4611 13.8354 18.6981 13.6053 17.9877C13.3753 17.2773 12.615 16.8886 11.9071 17.1195C11.1993 17.3504 10.812 18.1135 11.0421 18.8238C11.2721 19.5342 12.0324 19.9229 12.7403 19.692Z" fill="#EAEEF9"/>
  <path d="M90.712 39.4196C91.9402 38.2932 92.026 36.3808 90.9036 35.1483C89.7813 33.9157 87.8758 33.8296 86.6476 34.956C85.4195 36.0824 85.3337 37.9947 86.456 39.2273C87.5784 40.4599 89.4839 40.546 90.712 39.4196Z" fill="#EAEEF9"/>
  <path d="M90.9397 25.8656C91.4568 25.3914 91.4929 24.5862 91.0203 24.0672C90.5478 23.5482 89.7455 23.512 89.2283 23.9862C88.7112 24.4605 88.6751 25.2657 89.1477 25.7847C89.6202 26.3037 90.4225 26.3399 90.9397 25.8656Z" fill="#EAEEF9"/>
  <g filter="url(#filter0_d_2998_16091)">
    <path d="M75.5531 27.2475L76.2081 80.9896C76.2081 82.7974 74.7343 84.2766 72.9329 84.2766H20.7752C18.9738 84.2766 17.5 82.7974 17.5 80.9896V11.8809C17.5 10.0731 18.9738 8.59393 20.7752 8.59393H58.6039L75.5531 27.2475Z" fill="white"/>
  </g>
  <path d="M42.8829 73.5939H40.9996C40.5902 73.5939 40.2627 73.2652 40.2627 72.8543C40.2627 72.4434 40.5902 72.1147 40.9996 72.1147H42.8829C43.2923 72.1147 43.6198 72.4434 43.6198 72.8543C43.6198 73.2652 43.2923 73.5939 42.8829 73.5939Z" fill="#E3EAF2"/>
  <path d="M37.5608 73.5939H26.5069C26.0975 73.5939 25.77 73.2652 25.77 72.8543C25.77 72.4434 26.0975 72.1147 26.5069 72.1147H37.5608C37.9702 72.1147 38.2977 72.4434 38.2977 72.8543C38.3796 73.2652 38.052 73.5939 37.5608 73.5939Z" fill="#E3EAF2"/>
  <path d="M52.0535 19.8518H27.0801C26.5069 19.8518 26.0156 19.3588 26.0156 18.7835C26.0156 18.2083 26.5069 17.7153 27.0801 17.7153H52.0535C52.6267 17.7153 53.118 18.2083 53.118 18.7835C53.118 19.3588 52.6267 19.8518 52.0535 19.8518Z" fill="#CED7E2"/>
  <path d="M36.5782 25.8505H27.0801C26.5069 25.8505 26.0156 25.3575 26.0156 24.7823C26.0156 24.207 26.5069 23.714 27.0801 23.714H36.6601C37.2332 23.714 37.7245 24.207 37.7245 24.7823C37.7245 25.3575 37.1513 25.8505 36.5782 25.8505Z" fill="#CED7E2"/>
  <path d="M58.604 8.6759V23.4673C58.604 25.5217 60.4054 27.2473 62.4524 27.2473H75.5532" fill="#EAEFF4"/>
  <path d="M67.365 37.1085H54.3461C54.3461 37.1085 54.3461 37.1085 54.2642 37.1085C54.1823 37.1085 54.2642 37.1085 54.1823 37.1085H40.754C40.754 37.1085 40.754 37.1085 40.6721 37.1085C40.5902 37.1085 40.6721 37.1085 40.5902 37.1085H27.9807C26.5887 37.1085 25.4424 38.2589 25.4424 39.738V62.5825C25.4424 63.9795 26.5887 65.2121 27.9807 65.2121H67.2832C68.6751 65.2121 69.8214 64.0617 69.8214 62.5825V39.738C69.9033 38.3411 68.757 37.1085 67.365 37.1085ZM41.4909 57.3234V52.2285H53.5273V57.3234H41.4909ZM53.5273 58.8847V63.5686H41.4909V58.8847H53.5273ZM53.5273 45.4902V50.5851H41.4909V45.4902H53.5273ZM41.4909 43.9289V38.6698H53.5273V43.9289H41.4909ZM68.3476 50.6672H55.083V45.5724H68.3476V50.6672ZM39.9352 50.6672H26.9981V45.5724H39.8533V50.6672H39.9352ZM26.9981 52.2285H39.8533V57.3234H26.9981V52.2285ZM55.083 52.2285H68.3476V57.3234H55.083V52.2285ZM68.3476 39.738V43.9289H55.083V38.6698H67.365C67.8563 38.6698 68.3476 39.1628 68.3476 39.738ZM27.9807 38.6698H39.8533V43.9289H26.9981V39.738C26.9981 39.1628 27.4894 38.6698 27.9807 38.6698ZM26.9981 62.5825V58.8847H39.8533V63.5686H27.9807C27.4894 63.5686 26.9981 63.1577 26.9981 62.5825ZM67.365 63.5686H55.083V58.8847H68.3476V62.5825C68.3476 63.1577 67.8563 63.5686 67.365 63.5686Z" fill="#E3EAF2"/>
  <g filter="url(#filter1_d_2998_16091)">
    <path d="M81.9269 80.545C81.7684 81.4202 81.5306 82.2159 81.2135 83.0115C79.3109 87.7851 75.03 91.1268 70.115 91.9224C68.3709 92.2406 66.6269 92.161 64.8035 91.8428C57.0346 90.2516 51.9608 82.5342 53.6256 74.7373C55.2904 66.9404 62.9009 61.8485 70.6699 63.5192C73.4445 64.0761 75.9813 65.4287 77.9632 67.4972C81.4513 70.7592 82.9575 75.7714 81.9269 80.545Z" fill="url(#paint0_linear_2998_16091)"/>
  </g>
  <path d="M60.5 78.0001L65.5014 83L75.5 73" stroke="#E1E7F2" stroke-width="3" stroke-linecap="round" stroke-linejoin="round"/>
  <defs>
    <filter id="filter0_d_2998_16091" x="0.553417" y="0.120642" width="92.6012" height="109.576" filterUnits="userSpaceOnUse" color-interpolation-filters="sRGB">
      <feFlood flood-opacity="0" result="BackgroundImageFix"/>
      <feColorMatrix in="SourceAlpha" type="matrix" values="0 0 0 0 0 0 0 0 0 0 0 0 0 0 0 0 0 0 127 0" result="hardAlpha"/>
      <feOffset dy="8.47329"/>
      <feGaussianBlur stdDeviation="8.47329"/>
      <feColorMatrix type="matrix" values="0 0 0 0 0.397708 0 0 0 0 0.47749 0 0 0 0 0.575 0 0 0 0.18 0"/>
      <feBlend mode="normal" in2="BackgroundImageFix" result="effect1_dropShadow_2998_16091"/>
      <feBlend mode="normal" in="SourceGraphic" in2="effect1_dropShadow_2998_16091" result="shape"/>
    </filter>
    <filter id="filter1_d_2998_16091" x="47.1467" y="60.8906" width="41.2613" height="41.2482" filterUnits="userSpaceOnUse" color-interpolation-filters="sRGB">
      <feFlood flood-opacity="0" result="BackgroundImageFix"/>
      <feColorMatrix in="SourceAlpha" type="matrix" values="0 0 0 0 0 0 0 0 0 0 0 0 0 0 0 0 0 0 127 0" result="hardAlpha"/>
      <feOffset dy="3.8515"/>
      <feGaussianBlur stdDeviation="3.0812"/>
      <feColorMatrix type="matrix" values="0 0 0 0 0.1125 0 0 0 0 0.295916 0 0 0 0 1 0 0 0 0.22 0"/>
      <feBlend mode="normal" in2="BackgroundImageFix" result="effect1_dropShadow_2998_16091"/>
      <feBlend mode="normal" in="SourceGraphic" in2="effect1_dropShadow_2998_16091" result="shape"/>
    </filter>
    <linearGradient id="paint0_linear_2998_16091" x1="53.3598" y1="77.5999" x2="82.2417" y2="77.5999" gradientUnits="userSpaceOnUse">
      <stop stop-color="#83A6FF"/>
      <stop offset="1" stop-color="#5A78FF"/>
    </linearGradient>
  </defs>
</svg>