<svg width="20" height="20" viewBox="0 0 20 20" fill="none" xmlns="http://www.w3.org/2000/svg">
<path fill-rule="evenodd" clip-rule="evenodd" d="M12.1821 16.7408C11.4947 16.9632 10.7613 17.0833 9.99984 17.0833C9.17188 17.0833 8.3771 16.9413 7.63854 16.6802C6.98999 16.4504 6.38504 16.1282 5.83814 15.7286C5.98141 15.5089 6.20796 15.2717 6.55275 15.0392C7.44659 14.4466 8.69469 14.1125 10.0059 14.1125C11.3184 14.1125 12.5611 14.4472 13.4448 15.038C13.7906 15.2709 14.0176 15.5086 14.1611 15.7286C13.5643 16.1647 12.8984 16.5086 12.1821 16.7408ZM15.1102 14.9049C14.8693 14.5783 14.5456 14.2721 14.1413 14C11.8746 12.4834 8.14131 12.4834 5.85798 14C5.45383 14.272 5.13014 14.5782 4.88925 14.9046C3.66744 13.6319 2.9165 11.9036 2.9165 9.99999C2.9165 6.08797 6.08782 2.91666 9.99984 2.91666C13.9119 2.91666 17.0832 6.08797 17.0832 9.99999C17.0832 11.9037 16.3321 13.6321 15.1102 14.9049ZM11.8631 18.1242C15.5685 17.2779 18.3332 13.9618 18.3332 9.99999C18.3332 5.39762 14.6022 1.66666 9.99984 1.66666C5.39746 1.66666 1.6665 5.39762 1.6665 9.99999C1.6665 13.8507 4.27836 17.0915 7.82716 18.0473C8.51931 18.2339 9.24742 18.3334 9.99964 18.3334C10.6408 18.3334 11.2644 18.2611 11.8631 18.1242ZM10.1218 11.6667C11.9104 11.6056 13.323 10.1399 13.3332 8.33841C13.3332 6.49617 11.8393 4.99999 9.99984 4.99999C8.15024 4.99999 6.6665 6.49617 6.6665 8.33841C6.6665 10.1399 8.08927 11.6056 9.87789 11.6667C9.95919 11.6565 10.0507 11.6565 10.1218 11.6667ZM9.85276 10.414C8.76922 10.3421 7.9165 9.44297 7.9165 8.33841C7.9165 7.18224 8.84488 6.24999 9.99984 6.24999C11.146 6.24999 12.0813 7.18283 12.0832 8.3349C12.0751 9.44833 11.2246 10.3408 10.1496 10.4138C10.0489 10.4071 9.94838 10.4077 9.85276 10.414Z" fill=""/>
</svg>
