<svg width="20" height="20" viewBox="0 0 20 20" fill="none" xmlns="http://www.w3.org/2000/svg">
<path fill-rule="evenodd" clip-rule="evenodd" d="M13.3334 8.33842C13.3232 10.1399 11.9106 11.6056 10.122 11.6667C10.0508 11.6565 9.95937 11.6565 9.87807 11.6667C8.08945 11.6056 6.66669 10.1399 6.66669 8.33842C6.66669 6.49618 8.15043 5 10 5C11.8395 5 13.3334 6.49618 13.3334 8.33842ZM7.91669 8.33842C7.91669 9.44298 8.7694 10.3421 9.85294 10.414C9.94857 10.4077 10.0491 10.4071 10.1498 10.4138C11.2248 10.3408 12.0753 9.44834 12.0834 8.33491C12.0815 7.18284 11.1461 6.25 10 6.25C8.84506 6.25 7.91669 7.18225 7.91669 8.33842Z" fill="#FFC709"/>
<path fill-rule="evenodd" clip-rule="evenodd" d="M14.1415 14C15.0331 14.6 15.5331 15.3667 15.6165 16.15C14.1331 17.5084 12.1665 18.3334 9.99978 18.3334C7.83312 18.3334 5.86645 17.5084 4.38312 16.15C4.46645 15.3667 4.96645 14.6 5.85812 14C8.14145 12.4834 11.8748 12.4834 14.1415 14ZM9.9997 17.0834C8.44142 17.0834 7.00719 16.5827 5.8382 15.7286C5.98146 15.5089 6.20801 15.2717 6.5528 15.0392C7.44665 14.4466 8.69474 14.1125 10.0059 14.1125C11.3184 14.1125 12.5611 14.4472 13.4448 15.038C13.7906 15.2709 14.0177 15.5086 14.1612 15.7286C12.9922 16.5827 11.558 17.0834 9.9997 17.0834Z" fill="#1B1D29"/>
<path fill-rule="evenodd" clip-rule="evenodd" d="M10 17.0834C13.912 17.0834 17.0834 13.912 17.0834 10C17.0834 6.088 13.912 2.91669 10 2.91669C6.088 2.91669 2.91669 6.088 2.91669 10C2.91669 13.912 6.088 17.0834 10 17.0834ZM18.3334 10C18.3334 14.6024 14.6024 18.3334 10 18.3334C5.39765 18.3334 1.66669 14.6024 1.66669 10C1.66669 5.39765 5.39765 1.66669 10 1.66669C14.6024 1.66669 18.3334 5.39765 18.3334 10Z" fill="#1B1D29"/>
</svg>
