<svg xmlns="http://www.w3.org/2000/svg" width="16" height="16" viewBox="0 0 16 16" fill="none">
  <path fill-rule="evenodd" clip-rule="evenodd" d="M7.71916 2C5.31456 2 3.33849 3.79388 3.05855 6.10522C2.05146 6.50224 1.3335 7.47321 1.3335 8.61983C1.3335 10.1184 2.55705 11.3333 4.0662 11.3333H5.75218C6.01989 11.3333 6.2369 11.1178 6.2369 10.852C6.2369 10.5862 6.01989 10.3707 5.75218 10.3707H4.0662C3.09245 10.3707 2.30294 9.58673 2.30294 8.61983C2.30294 7.80568 2.86772 7.12292 3.63348 6.93008C3.84006 6.87806 3.98818 6.69815 3.99847 6.48678C4.094 4.52437 5.72146 2.96263 7.71916 2.96263C9.69461 2.96263 11.3085 4.4894 11.4364 6.42089C11.4532 6.67523 11.6668 6.87244 11.9235 6.87062C12.9113 6.86362 13.6974 7.65724 13.6974 8.61983C13.6974 9.58673 12.9079 10.3707 11.9341 10.3707H10.2481C9.98044 10.3707 9.76342 10.5862 9.76342 10.852C9.76342 11.1178 9.98044 11.3333 10.2481 11.3333H11.9341C13.4433 11.3333 14.6668 10.1184 14.6668 8.61983C14.6668 7.27621 13.6766 6.14112 12.3571 5.93968C12.0053 3.70834 10.0659 2 7.71916 2Z" fill="color"/>
  <path d="M7.99938 5.76074C8.12841 5.76074 8.24601 5.80961 8.33471 5.88985C8.34091 5.89546 8.34699 5.90124 8.35294 5.90719L10.0921 7.64632C10.2873 7.84158 10.2873 8.15816 10.0921 8.35343C9.89681 8.54869 9.58022 8.54869 9.38496 8.35343L8.49938 7.46784V13.797C8.49938 14.0731 8.27552 14.297 7.99938 14.297C7.72324 14.297 7.49938 14.0731 7.49938 13.797V7.46785L6.61381 8.35343C6.41855 8.54869 6.10196 8.54869 5.9067 8.35343C5.71144 8.15816 5.71144 7.84158 5.9067 7.64632L7.64455 5.90847C7.73513 5.81723 7.86066 5.76074 7.99938 5.76074Z" fill="color"/>
</svg>