<svg xmlns="http://www.w3.org/2000/svg" width="20" height="20" viewBox="0 0 20 20" fill="none">
    <path fill-rule="evenodd" clip-rule="evenodd" d="M5 8.3555C2.5 8.50663 2.5 9.47146 2.5 12.5V14.1667C2.5 17.5 2.5 18.3333 5.83333 18.3333H14.1667C17.5 18.3333 17.5 17.5 17.5 14.1667V12.5C17.5 9.16666 17.5 8.33332 14.1667 8.33332H6.25V7.29166C6.25 5.79696 6.46316 4.72847 6.95383 4.0432C7.37773 3.45118 8.18111 2.91666 10 2.91666C11.8189 2.91666 12.6223 3.45118 13.0462 4.0432C13.1531 4.19249 13.2468 4.35997 13.328 4.54608C13.4424 4.80821 13.6875 4.99999 13.9735 4.99999C14.3872 4.99999 14.6973 4.61257 14.5479 4.22681C13.9512 2.68636 12.6495 1.66666 10 1.66666C5.83333 1.66666 5 4.18853 5 7.29166V8.3555ZM9.163 13.3333C9.163 12.8731 9.5361 12.5 9.99634 12.5H10.0038C10.4641 12.5 10.8372 12.8731 10.8372 13.3333C10.8372 13.7936 10.4641 14.1667 10.0038 14.1667H9.99634C9.5361 14.1667 9.163 13.7936 9.163 13.3333ZM14.1667 17.0833H5.83333C4.45471 17.0833 4.37041 16.9553 4.25713 16.7832C4.23273 16.7461 4.20699 16.707 4.16667 16.6667C3.93918 16.4392 3.75 15.8423 3.75 14.1667V12.5C3.75 10.8244 3.93918 10.2275 4.16667 9.99999C4.20699 9.95967 4.23273 9.92056 4.25713 9.88348C4.37041 9.71138 4.45471 9.58332 5.83333 9.58332H14.1667C15.5453 9.58332 15.6296 9.71138 15.7429 9.88348C15.7673 9.92056 15.793 9.95967 15.8333 9.99999C16.0608 10.2275 16.25 10.8244 16.25 12.5V14.1667C16.25 15.8423 16.0608 16.4392 15.8333 16.6667C15.793 16.707 15.7673 16.7461 15.7429 16.7832C15.6296 16.9553 15.5453 17.0833 14.1667 17.0833Z" fill=""/>
</svg>
