<svg width="18" height="12" viewBox="0 0 18 12" fill="none" xmlns="http://www.w3.org/2000/svg">
<path fill-rule="evenodd" clip-rule="evenodd" d="M4.36376 10.5832L4.36666 10.5832L12.3333 10.5832V10.3402C12.3333 9.99506 12.6131 9.71524 12.9583 9.71524C13.3035 9.71524 13.5833 9.99506 13.5833 10.3402V10.5832H13.6333C14.3425 10.5832 14.8512 10.546 15.2212 10.4741C15.5879 10.4029 15.7401 10.3121 15.8032 10.2607C15.8786 10.1993 16.0833 9.98893 16.0833 8.81873V3.18113C16.0833 2.01094 15.8786 1.80129 15.803 1.73985C15.7395 1.68825 15.5864 1.59723 15.2182 1.52588C14.8468 1.45391 14.3363 1.41663 13.625 1.41663H13.5833V1.65968C13.5833 2.00486 13.3035 2.28468 12.9583 2.28468C12.6131 2.28468 12.3333 2.00486 12.3333 1.65968V1.41663H4.36666C3.65753 1.41663 3.14881 1.45391 2.77883 1.52577C2.41213 1.597 2.25985 1.68778 2.19683 1.73912C2.12141 1.80057 1.91666 2.01094 1.91666 3.18113V8.8256C1.91666 9.99636 2.12164 10.2056 2.19592 10.266C2.25833 10.3168 2.41003 10.4072 2.77647 10.4776C3.14619 10.5487 3.65473 10.5849 4.36376 10.5832ZM4.36666 11.8332H12.9497L12.9583 11.8333L12.9669 11.8332H13.6333C16.5917 11.8332 17.3333 11.229 17.3333 8.81873V3.18113C17.3333 0.7709 16.5917 0.166626 13.625 0.166626L12.9583 0.166626L4.36666 0.166626C1.40832 0.166626 0.666656 0.7709 0.666656 3.18113V8.8256C0.666656 11.2358 1.40832 11.8401 4.36666 11.8332ZM12.9583 2.77079C13.3035 2.77079 13.5833 3.05061 13.5833 3.39579V5.1319C13.5833 5.47708 13.3035 5.7569 12.9583 5.7569C12.6131 5.7569 12.3333 5.47708 12.3333 5.1319V3.39579C12.3333 3.05061 12.6131 2.77079 12.9583 2.77079ZM12.9583 6.24301C13.3035 6.24301 13.5833 6.52284 13.5833 6.86801V8.60413C13.5833 8.9493 13.3035 9.22912 12.9583 9.22912C12.6131 9.22912 12.3333 8.9493 12.3333 8.60413V6.86801C12.3333 6.52284 12.6131 6.24301 12.9583 6.24301ZM6.25921 8.49966C6.10029 8.49966 5.94138 8.44487 5.80895 8.34899C5.57057 8.17091 5.45139 7.86956 5.50436 7.56821L5.57141 7.17519C5.6166 6.91031 5.5313 6.63989 5.34229 6.44889L5.06734 6.17103C4.85545 5.95872 4.78262 5.64367 4.8687 5.35601C4.9614 5.06836 5.19977 4.85604 5.49112 4.81495L5.85163 4.75902C6.12329 4.71687 6.35669 4.54345 6.47544 4.29551L6.64325 3.94514C6.77568 3.67118 7.04054 3.49996 7.33189 3.49996C7.62985 3.49996 7.89471 3.67118 8.02052 3.94514L8.18833 4.29551C8.30709 4.54345 8.54048 4.71687 8.81214 4.75902L9.17265 4.81495C9.464 4.85604 9.70237 5.06836 9.79507 5.35601C9.88777 5.64367 9.80832 5.95872 9.59643 6.17103L9.32148 6.44889C9.13247 6.63989 9.04717 6.91031 9.09236 7.17519L9.15941 7.56821C9.21238 7.86956 9.0932 8.17091 8.85482 8.34899C8.61645 8.52706 8.30524 8.5476 8.047 8.41063L7.73339 8.24085C7.48689 8.10741 7.18982 8.10683 6.9428 8.23932L6.62339 8.41063C6.51082 8.47227 6.38502 8.49966 6.25921 8.49966ZM6.41812 6.10254C6.27824 5.96069 6.35998 5.71994 6.55717 5.69161C6.80879 5.65052 7.0273 5.48614 7.13986 5.25328C7.22137 5.07923 7.46889 5.07923 7.55039 5.25328C7.66296 5.48614 7.88147 5.65052 8.13308 5.69161C8.3256 5.72006 8.40425 5.95514 8.2676 6.09371L8.25889 6.10254C8.07349 6.28062 7.99403 6.54087 8.03376 6.80798L8.03564 6.81934C8.06722 7.00988 7.86588 7.15339 7.69607 7.06139C7.47094 6.93811 7.20608 6.93811 6.98095 7.06139C6.81114 7.15339 6.60979 7.00988 6.64137 6.81934L6.64325 6.80798C6.68298 6.54772 6.60352 6.28746 6.41812 6.10254Z" fill="#1B1D29"/>
</svg>
