<svg xmlns="http://www.w3.org/2000/svg" width="12" height="8" viewBox="0 0 12 8" fill="none">
    <g clip-path="url(#clip0_1357_22935)">
        <path fill-rule="evenodd" clip-rule="evenodd" d="M11.295 0.793135C10.8735 0.594051 10.4013 0.74325 10.0906 1.05263C9.97451 1.16796 8.23887 3.98307 8.10193 4.20503C7.84693 4.61693 7.49661 5.12769 7.99306 5.65126C8.40871 6.09016 9.10403 5.97803 9.45968 5.58444C9.60726 5.42105 11.3923 2.54783 11.6448 2.1222C11.925 1.65034 11.8273 1.04531 11.295 0.793135Z" fill="#FF861B"/>
        <path fill-rule="evenodd" clip-rule="evenodd" d="M7.63935 0.850337C7.22323 1.09015 5.37968 4.15331 5.14355 4.62974C4.83193 5.25903 5.28387 5.90755 5.92887 5.93272C6.68564 5.96201 6.92129 5.33729 7.20726 4.90388C7.60113 4.30709 8.12274 3.4389 8.51613 2.80503C8.85774 2.25537 9.30194 1.77665 9.00435 1.18764C8.75613 0.697477 8.11113 0.578942 7.63935 0.850337Z" fill="#FF861B"/>
        <path fill-rule="evenodd" clip-rule="evenodd" d="M0.451455 2.26042C0.558874 2.42701 0.646455 2.57438 0.751455 2.73868C1.00452 3.13411 2.35694 5.44761 2.56307 5.59086C2.49339 5.40001 2.55871 5.3817 2.61533 5.0023C2.67436 4.60276 3.13645 3.73227 3.33387 3.30619C3.015 2.86957 2.3192 1.66729 1.98436 1.13456C1.69452 0.756531 1.14484 0.578499 0.69339 0.80184C0.573874 0.861337 0.548713 0.89017 0.466455 0.96843C0.0629061 1.35333 0.188229 1.85264 0.451455 2.26042Z" fill="#899197"/>
        <path d="M1.01323 6.51489H1.10807L1.39646 7.15105L1.6892 6.51489H1.78404L1.40516 7.3364H1.38581L1.01323 6.51489Z" fill="#899197"/>
        <path d="M2.14791 6.47964C2.16678 6.47964 2.18227 6.48605 2.19581 6.49887C2.20888 6.51122 2.21565 6.52678 2.21565 6.54418C2.21565 6.56202 2.20888 6.57713 2.19581 6.58994C2.18227 6.60276 2.16678 6.60871 2.14791 6.60871C2.12904 6.60871 2.11356 6.60276 2.10001 6.58994C2.08694 6.57713 2.08017 6.56202 2.08017 6.54418C2.08017 6.52678 2.08694 6.51122 2.10001 6.49887C2.11356 6.48605 2.12904 6.47964 2.14791 6.47964ZM2.10678 6.72907H2.18904V7.3364H2.10678V6.72907Z" fill="#899197"/>
        <path d="M3.10743 7.13501L3.17759 7.16979C3.15437 7.2119 3.12775 7.24622 3.09775 7.27185C3.06775 7.29794 3.03437 7.31762 2.99662 7.33089C2.95888 7.34462 2.91678 7.35149 2.86937 7.35149C2.76388 7.35149 2.68211 7.31899 2.62259 7.254C2.56356 7.18902 2.53404 7.11625 2.53404 7.03432C2.53404 6.95744 2.5592 6.88879 2.60953 6.82883C2.67291 6.7524 2.75807 6.71396 2.86453 6.71396C2.97437 6.71396 3.06243 6.75332 3.12775 6.83158C3.17469 6.88696 3.1984 6.95606 3.19937 7.0389H2.61872C2.62017 7.10938 2.64436 7.16705 2.69033 7.2119C2.73678 7.25675 2.79388 7.27918 2.86211 7.27918C2.89453 7.27918 2.92695 7.27368 2.95791 7.26316C2.98888 7.25263 3.01549 7.23844 3.03727 7.22059C3.05904 7.20275 3.08227 7.17437 3.10743 7.13501ZM3.1084 6.97162C3.09727 6.92952 3.0813 6.89657 3.06001 6.8714C3.03872 6.84668 3.01066 6.82654 2.97582 6.81144C2.94098 6.79588 2.9042 6.78856 2.86598 6.78856C2.80259 6.78856 2.74791 6.80732 2.70243 6.84577C2.66904 6.87368 2.64388 6.91579 2.62695 6.97162H3.1084Z" fill="#899197"/>
        <path d="M3.6271 6.50253H3.70936V6.72908H3.84V6.79635H3.70936V7.3364H3.6271V6.79635H3.51436V6.72908H3.6271V6.50253Z" fill="#899197"/>
        <path d="M4.16953 6.72906H4.25178V6.83799C4.28517 6.79634 4.32194 6.76522 4.36211 6.74462C4.40227 6.72449 4.44582 6.71396 4.49323 6.71396C4.54162 6.71396 4.5842 6.7254 4.62146 6.74874C4.65872 6.77162 4.6863 6.80275 4.7042 6.84165C4.72211 6.88055 4.73082 6.94142 4.73082 7.02426V7.33638H4.64856V7.04714C4.64856 6.97712 4.64517 6.93043 4.63936 6.90709C4.6292 6.86682 4.61033 6.83707 4.58323 6.81648C4.55614 6.79634 4.52082 6.78627 4.47678 6.78627C4.42646 6.78627 4.38194 6.80183 4.34227 6.83295C4.30259 6.86407 4.27646 6.90297 4.26388 6.9492C4.25614 6.97895 4.25178 7.03387 4.25178 7.11396V7.33638H4.16953V6.72906Z" fill="#899197"/>
        <path d="M5.75129 6.72906V7.33638H5.66903V7.23204C5.63419 7.27185 5.59548 7.3016 5.55242 7.32174C5.50984 7.34142 5.46242 7.35149 5.41161 7.35149C5.32064 7.35149 5.24323 7.32037 5.17887 7.25812C5.11452 7.19588 5.08258 7.12037 5.08258 7.03112C5.08258 6.94371 5.115 6.86911 5.17984 6.80732C5.24468 6.74508 5.32258 6.71396 5.41403 6.71396C5.46629 6.71396 5.51419 6.72449 5.55677 6.74554C5.59935 6.76659 5.63661 6.79817 5.66903 6.84073V6.72906H5.75129ZM5.42032 6.78947C5.37435 6.78947 5.33177 6.80046 5.29306 6.82151C5.25435 6.84302 5.22339 6.87277 5.20065 6.91121C5.17742 6.94966 5.16581 6.99039 5.16581 7.03387C5.16581 7.07597 5.17742 7.11716 5.20065 7.15606C5.22387 7.19497 5.25484 7.22517 5.29403 7.24668C5.33323 7.26819 5.37484 7.27918 5.41984 7.27918C5.46484 7.27918 5.50742 7.26865 5.54806 7.24714C5.58871 7.22563 5.61968 7.19634 5.64145 7.15973C5.66323 7.12311 5.67387 7.08192 5.67387 7.0357C5.67387 6.96567 5.64968 6.90709 5.60081 6.85995C5.55194 6.81327 5.49194 6.78947 5.42032 6.78947Z" fill="#899197"/>
        <path d="M6.14226 6.72906H6.22452V6.83387C6.25306 6.79542 6.28258 6.76705 6.31306 6.7492C6.35468 6.72586 6.39871 6.71396 6.44468 6.71396C6.47613 6.71396 6.50516 6.71991 6.53323 6.73135C6.56129 6.74279 6.58403 6.75835 6.60194 6.77757C6.61984 6.7968 6.63484 6.82426 6.6479 6.85995C6.67548 6.81236 6.70984 6.7762 6.75097 6.75149C6.79258 6.72632 6.83661 6.71396 6.88452 6.71396C6.92855 6.71396 6.96774 6.72494 7.00161 6.746C7.03597 6.76705 7.06113 6.7968 7.07758 6.83478C7.09403 6.87231 7.10226 6.92952 7.10226 7.00503V7.33638H7.01758V7.00503C7.01758 6.94005 7.01274 6.89519 7.00306 6.87094C6.99339 6.84622 6.97645 6.82654 6.95274 6.8119C6.92903 6.79725 6.90048 6.78947 6.86758 6.78947C6.8279 6.78947 6.79113 6.80092 6.75774 6.82334C6.72484 6.84531 6.70064 6.87506 6.68516 6.91259C6.66968 6.94966 6.66194 7.0119 6.66194 7.09886V7.33638H6.58016V7.02563C6.58016 6.9524 6.57484 6.90252 6.56564 6.87643C6.55597 6.84989 6.53903 6.82929 6.51484 6.81327C6.49064 6.79725 6.46258 6.78947 6.42919 6.78947C6.39097 6.78947 6.35516 6.80046 6.32226 6.82243C6.28887 6.84394 6.26419 6.87323 6.24823 6.9103C6.23226 6.94691 6.22452 7.0032 6.22452 7.07918V7.33638H6.14226V6.72906Z" fill="#899197"/>
        <path d="M7.78549 6.71396C7.88469 6.71396 7.96646 6.74783 8.03178 6.81556C8.0913 6.87689 8.12082 6.95011 8.12082 7.03432C8.12082 7.11899 8.08936 7.19313 8.02695 7.25629C7.96404 7.31945 7.88372 7.35149 7.78549 7.35149C7.68678 7.35149 7.60598 7.31945 7.54356 7.25629C7.48066 7.19313 7.4492 7.11899 7.4492 7.03432C7.4492 6.95057 7.4792 6.8778 7.53824 6.81602C7.60356 6.74783 7.68582 6.71396 7.78549 6.71396ZM7.78501 6.79085C7.7163 6.79085 7.65727 6.81465 7.60791 6.86224C7.55856 6.9103 7.53388 6.96842 7.53388 7.03616C7.53388 7.07963 7.54549 7.12082 7.56775 7.15835C7.59049 7.19634 7.62098 7.22563 7.6592 7.24622C7.69695 7.26682 7.73953 7.27689 7.78501 7.27689C7.83098 7.27689 7.87307 7.26682 7.9113 7.24622C7.94953 7.22563 7.98001 7.19634 8.00227 7.15835C8.02453 7.12082 8.03614 7.07963 8.03614 7.03616C8.03614 6.96842 8.01146 6.9103 7.96162 6.86224C7.91227 6.81465 7.85324 6.79085 7.78501 6.79085Z" fill="#899197"/>
        <path d="M8.48323 7.3364V6.49429H8.56549V6.83434C8.60033 6.79406 8.63904 6.76386 8.68162 6.74418C8.72468 6.72404 8.77162 6.71397 8.82291 6.71397C8.91339 6.71397 8.9913 6.74509 9.05565 6.80734C9.12 6.86958 9.15194 6.94509 9.15194 7.03388C9.15194 7.1213 9.11952 7.19635 9.05468 7.25814C8.98984 7.32038 8.91194 7.3515 8.82049 7.3515C8.76823 7.3515 8.72081 7.34098 8.67823 7.31992C8.63565 7.29887 8.59791 7.26729 8.56549 7.22473V7.3364H8.48323ZM8.8142 7.27599C8.86017 7.27599 8.90275 7.265 8.94146 7.24395C8.98017 7.22244 9.01113 7.19269 9.03436 7.15425C9.0571 7.1158 9.06871 7.07507 9.06871 7.03205C9.06871 6.98903 9.0571 6.9483 9.03388 6.9094C9.01065 6.87049 8.97968 6.84029 8.94049 6.81878C8.9013 6.79727 8.85968 6.78628 8.81565 6.78628C8.77065 6.78628 8.72759 6.79727 8.68694 6.81878C8.6463 6.84029 8.61484 6.86958 8.59307 6.90619C8.5713 6.94281 8.56065 6.984 8.56065 7.02976C8.56065 7.09979 8.58484 7.15837 8.6342 7.20505C8.68259 7.25219 8.74307 7.27599 8.8142 7.27599Z" fill="#899197"/>
        <path d="M9.53517 6.47964C9.55404 6.47964 9.57001 6.48605 9.58356 6.49887C9.59662 6.51122 9.60339 6.52678 9.60339 6.54418C9.60339 6.56202 9.59662 6.57713 9.58356 6.58994C9.57001 6.60276 9.55404 6.60871 9.53517 6.60871C9.51678 6.60871 9.5013 6.60276 9.48775 6.58994C9.47468 6.57713 9.46791 6.56202 9.46791 6.54418C9.46791 6.52678 9.47468 6.51122 9.48775 6.49887C9.5013 6.48605 9.51678 6.47964 9.53517 6.47964ZM9.49452 6.72907H9.57678V7.3364H9.49452V6.72907Z" fill="#899197"/>
        <path d="M9.94064 6.49429H10.0229V7.3364H9.94064V6.49429Z" fill="#899197"/>
        <path d="M10.9413 7.13501L11.0115 7.16979C10.9882 7.2119 10.9616 7.24622 10.9316 7.27185C10.9016 7.29794 10.8682 7.31762 10.8305 7.33089C10.7927 7.34462 10.7506 7.35149 10.7032 7.35149C10.5982 7.35149 10.516 7.31899 10.4565 7.254C10.3974 7.18902 10.3679 7.11625 10.3679 7.03432C10.3679 6.95744 10.3931 6.88879 10.4434 6.82883C10.5068 6.7524 10.5919 6.71396 10.6984 6.71396C10.8082 6.71396 10.8963 6.75332 10.9616 6.83158C11.0085 6.88696 11.0323 6.95606 11.0332 7.0389H10.4526C10.454 7.10938 10.4782 7.16705 10.5242 7.2119C10.5706 7.25675 10.6277 7.27918 10.696 7.27918C10.7284 7.27918 10.7608 7.27368 10.7918 7.26316C10.8227 7.25263 10.8494 7.23844 10.8711 7.22059C10.8929 7.20275 10.9161 7.17437 10.9413 7.13501ZM10.9423 6.97162C10.9311 6.92952 10.9152 6.89657 10.8939 6.8714C10.8726 6.84668 10.8445 6.82654 10.8097 6.81144C10.7748 6.79588 10.7381 6.78856 10.6998 6.78856C10.6365 6.78856 10.5818 6.80732 10.5363 6.84577C10.5029 6.87368 10.4777 6.91579 10.4608 6.97162H10.9423Z" fill="#899197"/>
        <path fill-rule="evenodd" clip-rule="evenodd" d="M3.35081 3.27735C3.19307 3.55699 2.46291 4.49932 2.40339 4.89841C2.34678 5.27827 2.49339 5.40001 2.56307 5.59086C2.69323 5.80321 3.13017 5.98399 3.50565 5.92083C3.87775 5.85813 4.11097 5.61465 4.25904 5.3753L6.22549 2.22106C6.55404 1.6888 6.55646 1.04715 5.89355 0.773464C5.445 0.58811 4.93984 0.77438 4.66162 1.1428C4.43855 1.438 3.50807 2.99818 3.35081 3.27735Z" fill="#FF861B"/>
    </g>
    <defs>
        <clipPath id="clip0_1357_22935">
            <rect width="12" height="8" fill="white"/>
        </clipPath>
    </defs>
</svg>
