<svg xmlns="http://www.w3.org/2000/svg" width="19" height="7" viewBox="0 0 19 7" fill="none">
    <g clip-path="url(#clip0_1357_22957)">
        <path fill-rule="evenodd" clip-rule="evenodd" d="M4.71787 0.557281C4.5464 0.557281 4.50921 0.561441 4.4648 0.585621C4.40502 0.618172 4.36758 0.673402 4.35345 0.749909C4.34147 0.81479 4.34037 1.26871 4.35215 1.28807C4.36612 1.31102 4.38566 1.30378 4.40323 1.26907C4.43056 1.21508 4.49216 1.15502 4.54572 1.13013C4.57817 1.11505 4.65738 1.10365 4.76894 1.09802C4.9566 1.08854 5.01102 1.0693 5.06737 0.992505C5.09079 0.960578 5.09647 0.929044 5.09762 0.824563C5.09886 0.710246 5.09516 0.690756 5.06448 0.649191C5.00876 0.573731 4.94665 0.557281 4.71787 0.557281ZM17.4703 0.673936C17.2352 0.673789 17.1636 0.697298 17.1098 0.792269L17.0783 0.84775V2.08386C17.0783 3.42554 17.0768 3.39627 17.1584 3.56969C17.2157 3.69153 17.3565 3.82922 17.4952 3.89899C17.5307 3.91689 17.5695 3.93714 17.5814 3.94398C17.6018 3.95576 17.6803 3.97978 17.8257 4.01876C17.8613 4.02829 17.9712 4.04022 18.07 4.04524C18.371 4.06055 18.63 4.04838 18.6818 4.01654C18.772 3.96103 18.7791 3.94366 18.786 3.76004C18.791 3.62688 18.7882 3.58832 18.7726 3.57826C18.7616 3.57124 18.6957 3.56544 18.6261 3.56532C18.4835 3.56508 18.2358 3.53959 18.1922 3.52074C17.9924 3.43428 17.946 3.39383 17.8795 3.24795L17.8477 3.17815L17.843 2.01873C17.8385 0.900998 17.8373 0.857258 17.8102 0.803173C17.7947 0.772316 17.7564 0.730617 17.7251 0.710544C17.6716 0.676202 17.6565 0.674059 17.4703 0.673936ZM9.70123 0.674056C9.51203 0.674056 9.50756 0.674841 9.45252 0.715757C9.33431 0.80362 9.34391 0.759716 9.33297 1.26176L9.3318 1.31653H9.12455C9.01058 1.31653 8.90711 1.32052 8.8946 1.32539C8.87588 1.33269 8.87189 1.36118 8.87189 1.48674C8.87189 1.65093 8.88364 1.69085 8.95069 1.75457C8.98594 1.78806 9.00197 1.79145 9.14537 1.79597C9.25365 1.79938 9.30654 1.80694 9.31764 1.82053C9.32889 1.83431 9.33449 2.06958 9.33646 2.61135L9.33923 3.38258L9.37726 3.48084C9.43338 3.6259 9.48995 3.71082 9.57726 3.78089C9.62009 3.81528 9.66324 3.85006 9.67315 3.85819C9.7034 3.88297 9.82389 3.9413 9.89231 3.9643C10.0831 4.02841 10.1392 4.03547 10.5191 4.04314L10.8944 4.05075L10.9409 4.01594C11.0196 3.95713 11.0421 3.89321 11.0421 3.72781C11.0421 3.60903 11.038 3.58121 11.0194 3.57395C11.0069 3.56907 10.9413 3.56508 10.8737 3.56508C10.7158 3.56508 10.5086 3.54048 10.4169 3.51086C10.2566 3.45906 10.1473 3.33711 10.1133 3.1721C10.0845 3.03264 10.0843 1.8388 10.113 1.8146C10.1271 1.80267 10.3358 1.7991 10.8639 1.80184L11.5953 1.80567L11.6033 2.58679C11.6099 3.24127 11.6149 3.37982 11.6339 3.44106C11.7154 3.70398 11.9138 3.88832 12.2133 3.97951C12.2608 3.99395 12.3212 4.0124 12.3477 4.0205C12.3742 4.02859 12.4809 4.03962 12.5848 4.04494H12.5849C12.8793 4.06001 13.1388 4.05019 13.1946 4.02193C13.2779 3.97981 13.2985 3.92594 13.2985 3.7507C13.2985 3.66597 13.2952 3.58788 13.2912 3.57718C13.2857 3.56264 13.2559 3.55909 13.1726 3.5631C13.054 3.56882 12.7643 3.54206 12.7165 3.52098C12.5088 3.42938 12.4835 3.40849 12.4103 3.2673L12.3716 3.19277L12.3668 2.52591C12.3636 2.06683 12.3669 1.8499 12.3776 1.82958C12.3926 1.80126 12.4089 1.79988 12.7803 1.79555L13.1673 1.79105L13.2126 1.74726C13.2868 1.67562 13.2985 1.63897 13.2985 1.47943C13.2985 1.36053 13.2944 1.33265 13.2758 1.32539C13.2633 1.32052 13.057 1.31653 12.8174 1.31653C12.4334 1.31653 12.3807 1.31376 12.373 1.2934C12.3682 1.2807 12.3641 1.17722 12.3641 1.06344C12.3639 0.875978 12.3608 0.851155 12.3315 0.798499C12.3133 0.765919 12.2739 0.72594 12.2419 0.707488C12.1905 0.677902 12.1651 0.674504 11.9906 0.674175C11.7598 0.673741 11.6876 0.697646 11.634 0.792268C11.6052 0.843049 11.6026 0.867696 11.6026 1.08226V1.31677L10.8516 1.31299L10.1007 1.30922L10.0935 1.0683C10.0868 0.84594 10.0837 0.823724 10.0529 0.779806C9.99405 0.695915 9.92142 0.674056 9.70123 0.674056ZM15.0968 1.29088C15.0635 1.29085 15.0329 1.29138 15.0059 1.2925C14.6655 1.30663 14.2575 1.35915 14.2242 1.39316C14.2183 1.39918 14.1995 1.40412 14.1823 1.40412C14.1393 1.40412 13.9547 1.48895 13.8573 1.55349C13.7741 1.60858 13.6146 1.77491 13.6146 1.80657C13.6146 1.81639 13.605 1.82819 13.5931 1.83281C13.5812 1.83744 13.5715 1.85077 13.5715 1.86241C13.5715 1.87406 13.5624 1.90217 13.5513 1.9249C13.5137 2.00162 13.5007 2.03897 13.4833 2.11957C13.462 2.21865 13.4491 3.18037 13.4688 3.20517C13.4761 3.21439 13.4866 3.25643 13.4922 3.29858C13.4978 3.34073 13.5082 3.37892 13.5154 3.38342C13.5225 3.38792 13.5284 3.40286 13.5284 3.41667C13.5284 3.43048 13.5506 3.48893 13.5778 3.54657C13.6306 3.65849 13.7483 3.79269 13.8527 3.86004C13.946 3.9202 14.1294 4.00312 14.1692 4.00312C14.1894 4.00312 14.2195 4.01058 14.2364 4.01972C14.2532 4.02886 14.332 4.04111 14.4115 4.04698C14.491 4.05284 14.9796 4.05686 15.4974 4.05591L16.4388 4.05423L16.4933 4.01181C16.5234 3.98848 16.5548 3.95636 16.5632 3.94045C16.5855 3.89811 16.5889 3.59715 16.5672 3.57892C16.5564 3.56975 16.2245 3.56254 15.668 3.55933C14.7948 3.55429 14.5956 3.54541 14.5609 3.5102C14.5511 3.50022 14.5312 3.49204 14.5166 3.49204C14.5021 3.49204 14.4823 3.48557 14.4727 3.47766C14.4632 3.46975 14.4338 3.4457 14.4073 3.42416C14.3219 3.35449 14.287 3.28027 14.2645 3.11973C14.2532 3.03943 14.243 2.95731 14.2419 2.93723L14.2398 2.90074L15.2981 2.89727C16.5092 2.89334 16.427 2.90245 16.5658 2.7576C16.672 2.64689 16.6904 2.58391 16.6904 2.33352C16.6902 2.1071 16.6576 1.9493 16.5886 1.84216C16.5808 1.83011 16.5707 1.80876 16.5661 1.79471C16.5614 1.78065 16.5519 1.76912 16.5449 1.76912C16.5379 1.76912 16.5322 1.76085 16.5322 1.75067C16.5322 1.72774 16.4059 1.57931 16.3864 1.57931C16.3786 1.57931 16.3516 1.56367 16.3264 1.54456C16.2641 1.49719 16.069 1.40412 16.0321 1.40412C16.0156 1.40412 15.9986 1.39828 15.9943 1.39118C15.99 1.38408 15.9556 1.37378 15.918 1.36829C15.8803 1.36281 15.8269 1.35259 15.7992 1.34558C15.6893 1.31774 15.3295 1.29111 15.0968 1.29088ZM7.13768 1.30622C6.84463 1.30759 6.55353 1.32784 6.38538 1.36637C6.23575 1.40067 6.17054 1.41827 6.14416 1.43144C5.94139 1.53274 5.88701 1.5639 5.83082 1.61107C5.79443 1.64162 5.74023 1.69787 5.71039 1.73611C5.64964 1.81396 5.56613 1.96625 5.56613 1.9992C5.56613 2.01104 5.55674 2.0512 5.54525 2.08841C5.49621 2.24722 5.47019 2.66477 5.49377 2.9153C5.52282 3.22404 5.53241 3.2952 5.54921 3.32686C5.55851 3.3444 5.56613 3.37521 5.56613 3.39534C5.56613 3.41547 5.5719 3.43556 5.57893 3.43998C5.58596 3.44439 5.59614 3.46602 5.60158 3.48803C5.61397 3.53821 5.73122 3.71874 5.76872 3.74543C5.78412 3.75638 5.82199 3.78913 5.85287 3.81816C5.92576 3.88668 6.16687 4.00312 6.23587 4.00312C6.25588 4.00312 6.28484 4.00992 6.30021 4.01828C6.31559 4.02664 6.41059 4.03817 6.51129 4.04386C6.61199 4.04955 7.09531 4.05234 7.58538 4.05009L8.4764 4.04602L8.53024 4.00983C8.60932 3.95667 8.62919 3.89521 8.62431 3.71912L8.62024 3.57239L7.69324 3.56298C7.18339 3.55781 6.74036 3.54907 6.70875 3.54357C6.67713 3.53808 6.63086 3.52425 6.60595 3.51283C6.58104 3.50142 6.55306 3.49204 6.54373 3.49204C6.5344 3.49204 6.49849 3.46858 6.46399 3.43986C6.35305 3.3475 6.3034 3.22658 6.29656 3.03214L6.29196 2.90074L7.34116 2.89715C8.20521 2.89422 8.39789 2.88997 8.4334 2.87312C8.45712 2.86187 8.49273 2.84507 8.51249 2.83573C8.66103 2.76558 8.76367 2.52527 8.73713 2.30992C8.73214 2.26945 8.72459 2.20187 8.72032 2.15971C8.7028 1.98633 8.63347 1.81303 8.53054 1.68542C8.47315 1.61428 8.2694 1.47033 8.20345 1.45433C8.17974 1.44858 8.15386 1.43912 8.14595 1.4333C8.12675 1.41916 7.9909 1.37798 7.90167 1.35925C7.72577 1.32232 7.43074 1.30485 7.13768 1.30622ZM0.845752 1.31695C0.72728 1.31639 0.705566 1.32141 0.699784 1.33672C0.690755 1.36062 0.731091 1.44659 0.995259 1.96625C1.07691 2.12686 1.18195 2.33386 1.22869 2.42621C1.35798 2.68164 1.49069 2.94111 1.50871 2.97372C1.51758 2.98978 1.54924 3.05219 1.57901 3.11242C1.60878 3.17265 1.64485 3.24165 1.65922 3.26575C1.67359 3.28984 1.68932 3.31943 1.69413 3.33147C1.72157 3.4001 1.93157 3.80831 1.97675 3.88083C2.01956 3.94956 2.05881 3.984 2.13935 4.02349C2.17041 4.03872 2.20552 4.05641 2.21738 4.0628C2.25805 4.08469 2.67403 4.07787 2.75489 4.05399C2.84191 4.02829 2.93467 3.94998 2.97935 3.86442C2.99613 3.83229 3.02169 3.78629 3.03621 3.7622C3.05072 3.73811 3.12725 3.59028 3.20624 3.43369C3.28523 3.27709 3.39017 3.07009 3.43943 2.97372C3.57364 2.71119 3.70817 2.44697 3.84584 2.17541C3.91373 2.04149 3.97561 1.9199 3.98337 1.90525C3.99113 1.89061 4.00113 1.86883 4.00561 1.85678C4.01009 1.84474 4.02024 1.82338 4.02819 1.80933C4.04866 1.77317 4.06331 1.74547 4.11902 1.63773C4.14601 1.58553 4.1842 1.51251 4.20383 1.47548C4.25165 1.38527 4.25928 1.35018 4.2355 1.33013C4.22158 1.31839 4.13346 1.31524 3.93879 1.31952C3.66997 1.32543 3.65936 1.32676 3.57861 1.36679C3.47606 1.41764 3.38786 1.5193 3.32437 1.65966C3.21228 1.90746 3.19119 1.95293 3.17893 1.97356C3.17177 1.9856 3.15952 2.01058 3.15168 2.02904C3.12767 2.08561 3.06511 2.2231 3.0076 2.34587C2.89086 2.5951 2.80839 2.77291 2.77052 2.85694C2.65939 3.10349 2.53043 3.35902 2.50565 3.3818C2.47885 3.40645 2.47626 3.40599 2.44113 3.3703C2.421 3.34985 2.37148 3.26212 2.33102 3.17533C2.29056 3.08855 2.22182 2.94199 2.17827 2.84963C1.97211 2.4124 1.90874 2.27603 1.82205 2.08308C1.80041 2.0349 1.73823 1.90275 1.68387 1.78944C1.62951 1.67612 1.58503 1.57694 1.58503 1.56901C1.58503 1.54388 1.42107 1.39457 1.35443 1.35901C1.2947 1.32714 1.27079 1.32444 0.999447 1.31916C0.935464 1.31792 0.885242 1.31713 0.845752 1.31695ZM4.71816 1.32384C4.4604 1.32384 4.44729 1.32748 4.37964 1.4179C4.35258 1.45407 4.35157 1.49258 4.34785 2.65C4.34524 3.45977 4.34894 3.8634 4.35929 3.90246C4.3703 3.944 4.39137 3.97243 4.43478 4.00438L4.49505 4.04872L4.73356 4.04416C4.96906 4.03965 4.9727 4.03908 5.02431 3.99905C5.05904 3.97211 5.08172 3.93924 5.09184 3.90109C5.10213 3.86225 5.10576 3.45672 5.10305 2.6494C5.09914 1.48118 5.09843 1.45436 5.07031 1.41628C5.00806 1.33199 4.97683 1.32384 4.71816 1.32384ZM7.10949 1.79028C7.22247 1.79019 7.33477 1.80228 7.48482 1.82652C7.75575 1.87029 7.93759 2.04259 7.93759 2.25558C7.93759 2.34781 7.90643 2.39692 7.84776 2.3971C6.80235 2.40029 6.52264 2.4123 6.4798 2.45581C6.47212 2.46362 6.45561 2.47001 6.44306 2.47001C6.4305 2.47001 6.39783 2.48945 6.37046 2.51321C6.28516 2.58728 6.27994 2.5766 6.29166 2.35264C6.30233 2.14894 6.3268 2.07769 6.41734 1.98662C6.49079 1.91274 6.62608 1.84378 6.73033 1.82706C6.88291 1.8026 6.99652 1.79036 7.10949 1.79028ZM14.9407 1.80076C15.1706 1.79844 15.514 1.82398 15.5442 1.85468C15.5532 1.86385 15.5747 1.87134 15.5919 1.87134C15.6091 1.87134 15.6313 1.88122 15.6411 1.89327C15.651 1.90531 15.6655 1.91514 15.6733 1.91514C15.6952 1.91514 15.788 2.00174 15.8253 2.05702C15.8748 2.13023 15.9052 2.26103 15.8845 2.31178C15.8522 2.39099 15.8672 2.38907 15.2186 2.39853C14.4928 2.40913 14.4428 2.41562 14.3168 2.51591C14.2318 2.58358 14.2272 2.5773 14.2386 2.40908C14.2527 2.20113 14.2865 2.07808 14.346 2.01747C14.44 1.92181 14.5792 1.85384 14.7644 1.81322C14.8 1.80542 14.864 1.80153 14.9407 1.80076Z" fill="#EF0032"/>
        <path fill-rule="evenodd" clip-rule="evenodd" d="M14.2809 5.52207C14.2523 5.52274 14.2295 5.52607 14.2199 5.53225C14.2106 5.53824 14.2052 5.55842 14.2075 5.57898C14.2115 5.61443 14.2135 5.61531 14.3011 5.62224C14.3504 5.62613 14.3969 5.63575 14.4047 5.64362C14.4259 5.6652 14.3946 5.69651 14.3518 5.69651C14.3188 5.69651 14.3164 5.6999 14.3164 5.74556C14.3164 5.77307 14.3231 5.79735 14.3317 5.8009C14.365 5.81455 14.3998 5.80803 14.4211 5.78415C14.4333 5.77038 14.4522 5.75907 14.463 5.75904C14.4738 5.75903 14.5007 5.74787 14.5227 5.73423C14.5567 5.71318 14.5628 5.70216 14.5628 5.66136C14.5628 5.59922 14.526 5.56327 14.438 5.53948C14.3923 5.52714 14.3285 5.52095 14.2809 5.52207ZM10.6847 5.57137C10.6673 5.57137 10.5437 5.66162 10.4814 5.71976L10.4474 5.75148L10.4869 5.79283C10.5086 5.81559 10.5287 5.83423 10.5315 5.83423C10.5461 5.83423 10.768 5.66566 10.768 5.65458C10.768 5.63501 10.7042 5.57137 10.6847 5.57137ZM16.3739 5.60772L16.2969 5.61144L16.2199 5.61516L16.2162 6.05325C16.2142 6.2942 16.2159 6.52136 16.2203 6.55805C16.2283 6.62715 16.2505 6.65843 16.3033 6.67538C16.3184 6.68022 16.4333 6.6826 16.5587 6.68067C16.7972 6.677 16.8009 6.67623 16.8886 6.61239C16.9629 6.55837 17.002 6.44314 17.002 6.27856C17.002 6.09661 16.9597 5.98311 16.8697 5.92319C16.8118 5.88461 16.6685 5.85925 16.5084 5.85925H16.3739V5.73349V5.60772ZM5.40893 5.60892L5.40144 5.63919C5.38387 5.7103 5.39126 5.71479 5.53793 5.72157C5.6124 5.72502 5.68029 5.73238 5.68876 5.73795C5.70062 5.74575 5.70415 5.85429 5.70415 6.21045V6.67285H5.77807H5.852V6.20346V5.73406H5.99371H6.13537V5.67149V5.60892H5.77217L5.40893 5.60892ZM6.19697 5.60892V6.14713V6.68534H6.27073H6.34445L6.34771 6.33799L6.35101 5.99068H6.52565C6.79727 5.99068 6.79895 5.99322 6.79998 6.40685L6.80071 6.68534H6.8746H6.94852V6.38183C6.94852 6.21489 6.94281 6.05771 6.93594 6.03257C6.92215 5.98211 6.84288 5.90104 6.79794 5.89142C6.67317 5.86472 6.62103 5.85925 6.4921 5.85925H6.34485V5.73406V5.60892H6.27092H6.19697ZM11.9076 5.61516L11.9044 6.1346C11.9026 6.42029 11.9039 6.66138 11.9073 6.67033C11.9116 6.68173 11.9348 6.68549 11.9845 6.68286L12.0555 6.6791L12.0617 6.33489L12.0678 5.99068H12.2354C12.5043 5.99068 12.497 5.98014 12.5052 6.37869L12.5114 6.6791H12.5853H12.6592L12.6625 6.38576C12.6652 6.14743 12.6622 6.08149 12.6467 6.03398C12.6046 5.9051 12.4873 5.85925 12.1997 5.85925H12.0625L12.059 5.73721L12.0555 5.61516H11.9815L11.9076 5.61516ZM14.9943 5.85743L14.9802 5.88869C14.9725 5.9059 14.9698 5.93446 14.9742 5.95218L14.9821 5.98439L15.2067 5.98568C15.3303 5.98636 15.4452 5.99072 15.4622 5.99539C15.5015 6.00625 15.5377 6.07715 15.5333 6.1346L15.5299 6.17844L15.2835 6.18468C15.056 6.19046 15.0342 6.19303 14.9997 6.21806C14.9608 6.24625 14.9436 6.27424 14.9211 6.34614C14.8776 6.48472 14.9514 6.66231 15.0583 6.67662C15.0805 6.67959 15.217 6.68135 15.3616 6.68055L15.6245 6.6791L15.655 6.64304L15.6855 6.60701L15.6816 6.30309L15.6778 5.9992L15.6396 5.95114C15.5802 5.87625 15.5407 5.86722 15.2498 5.86202L14.9943 5.85743ZM14.6255 5.85801L14.6218 6.19597C14.6191 6.45366 14.6144 6.5378 14.6021 6.55019C14.5904 6.56195 14.5403 6.56629 14.4205 6.5659C14.1606 6.56506 14.1579 6.56082 14.1569 6.15159C14.1561 5.84424 14.1605 5.85925 14.0714 5.85925C14.0462 5.85925 14.0189 5.866 14.0108 5.87426C13.9883 5.89716 13.9908 6.42017 14.0138 6.50825C14.0398 6.60728 14.0926 6.65448 14.1993 6.67409C14.2264 6.67907 14.3531 6.68224 14.4808 6.68112L14.713 6.6791L14.7427 6.64154L14.7723 6.60399L14.7692 6.23476L14.7661 5.86549L14.6958 5.86177L14.6255 5.85801ZM8.4333 5.85912C8.36481 5.85838 8.29842 5.86425 8.24746 5.87773C8.08704 5.92018 8.02111 5.99477 7.98843 6.17078C7.9714 6.26254 7.9715 6.28222 7.98949 6.37976C8.01132 6.49813 8.02124 6.52149 8.07587 6.58307C8.11631 6.62865 8.16619 6.65456 8.26069 6.6791C8.342 6.70021 8.51339 6.70104 8.6057 6.68075C8.77053 6.64451 8.83997 6.57901 8.88244 6.41979C8.90018 6.35324 8.89404 6.15642 8.87193 6.08373C8.85509 6.02834 8.78232 5.94041 8.73104 5.91346C8.66736 5.88001 8.54744 5.86037 8.4333 5.85912ZM10.2623 5.85925L10.2487 5.8896C10.2412 5.9063 10.2385 5.93396 10.2427 5.95106L10.2504 5.98216L10.498 5.98642C10.7426 5.99063 10.7458 5.99104 10.7696 6.02095C10.788 6.04397 10.7929 6.06645 10.7901 6.11483L10.7865 6.17843L10.5462 6.18468C10.3178 6.19063 10.3039 6.19241 10.2647 6.22078C10.1205 6.32528 10.1623 6.64453 10.3244 6.6767C10.3414 6.68006 10.4757 6.68197 10.6229 6.68096C10.9765 6.67851 10.9454 6.71008 10.9504 6.34779C10.9546 6.0366 10.9468 5.98649 10.885 5.92724C10.8284 5.87301 10.7469 5.85925 10.4823 5.85925H10.2623ZM9.9212 5.85934C9.51354 5.85959 9.39722 5.93569 9.38034 6.21314C9.36351 6.48976 9.44593 6.64301 9.6283 6.6741C9.65541 6.67872 9.7746 6.68174 9.89319 6.6808L10.1088 6.67911V6.62902V6.57898L9.89315 6.57096C9.70289 6.56391 9.6722 6.55981 9.63249 6.53601C9.56353 6.49468 9.54282 6.43905 9.53903 6.28481C9.53619 6.16943 9.53933 6.14657 9.56357 6.09739C9.6102 6.0033 9.64291 5.99196 9.88395 5.98634L10.0906 5.98151L10.0982 5.95074C10.1023 5.93381 10.0997 5.90631 10.0922 5.88961C10.0788 5.85976 10.0759 5.85925 9.9212 5.85934ZM7.48926 5.85949C7.4008 5.85962 7.31005 5.86339 7.29643 5.8707C7.28466 5.87701 7.2568 5.88905 7.23451 5.89746C7.18048 5.91783 7.11549 5.99716 7.09133 6.07219C7.06376 6.15785 7.06438 6.41362 7.09236 6.50052C7.11897 6.58316 7.18674 6.6525 7.2648 6.6769C7.31076 6.69127 7.38611 6.69507 7.5954 6.69357L7.86644 6.69158V6.62901V6.56644L7.61294 6.5602C7.3683 6.55416 7.35786 6.55285 7.31492 6.52293C7.28235 6.50024 7.26689 6.47776 7.25731 6.43915C7.22936 6.32635 7.20768 6.33489 7.52265 6.33489C7.82608 6.33489 7.85072 6.32991 7.88199 6.26259C7.90299 6.21739 7.9011 6.13251 7.87747 6.05912C7.8544 5.98747 7.76992 5.90031 7.71211 5.88857C7.69168 5.88442 7.672 5.87612 7.66835 5.87012C7.66392 5.86284 7.57772 5.85936 7.48926 5.85949ZM18.3435 5.86024C18.2521 5.85946 18.1637 5.86354 18.1296 5.87289C18.0368 5.89833 18.0378 5.89371 18.0374 6.31297L18.0372 6.68534H18.1111H18.185V6.34709V6.00884L18.2189 5.99548C18.239 5.98754 18.3139 5.98404 18.4033 5.98692C18.635 5.99438 18.6409 6.00494 18.6409 6.41459V6.68535H18.7148H18.7887V6.36885C18.7887 6.06541 18.7876 6.04999 18.761 5.99672C18.7281 5.93079 18.6795 5.89948 18.5751 5.87671C18.5291 5.86667 18.4348 5.86102 18.3434 5.86025L18.3435 5.86024ZM11.5732 5.86077C11.4264 5.86197 11.2913 5.88127 11.2343 5.91053C11.1258 5.96616 11.076 6.08209 11.076 6.27856C11.076 6.51946 11.1503 6.63862 11.3224 6.67368C11.3461 6.67851 11.4636 6.6831 11.5834 6.68389C11.7936 6.68528 11.8015 6.68443 11.8094 6.65941C11.8138 6.64514 11.8143 6.62065 11.8104 6.60498C11.8035 6.57706 11.7991 6.57635 11.5891 6.56946C11.3564 6.56182 11.32 6.55241 11.2758 6.4884C11.2357 6.43021 11.2177 6.29711 11.236 6.19245C11.2669 6.01541 11.3035 5.99387 11.5848 5.98675L11.7918 5.98149L11.7881 5.92351L11.7844 5.86549L11.6366 5.86139C11.6153 5.8608 11.5941 5.8606 11.5732 5.86077ZM13.6745 5.8608C13.5283 5.86195 13.3882 5.88008 13.3368 5.906C13.2432 5.95326 13.2031 6.01935 13.1755 6.17213C13.1619 6.24726 13.1614 6.286 13.1727 6.36614C13.2 6.55856 13.2665 6.64108 13.4231 6.67681C13.4366 6.6799 13.5517 6.68308 13.6787 6.68388L13.9097 6.68533V6.63036C13.9097 6.59177 13.9039 6.57308 13.8902 6.56775C13.8795 6.56357 13.7823 6.56018 13.674 6.56018C13.4668 6.56018 13.4359 6.5535 13.3868 6.49831C13.3486 6.45548 13.331 6.38616 13.331 6.27854C13.331 6.15345 13.3524 6.08966 13.4117 6.0376L13.458 5.99691H13.6639C13.8948 5.99691 13.9017 5.9944 13.8951 5.91328L13.8913 5.86548L13.7373 5.86138C13.7164 5.86082 13.6954 5.86064 13.6745 5.8608ZM17.1686 5.86547L17.1649 5.92399L17.1612 5.98251L17.4069 5.98657C17.7009 5.99144 17.7045 5.99296 17.7045 6.11055V6.18276L17.4612 6.18686C17.1863 6.19145 17.1699 6.19637 17.1238 6.28814C17.0885 6.35851 17.0888 6.51226 17.1245 6.58334C17.15 6.63406 17.1751 6.65448 17.2356 6.67379C17.2529 6.67932 17.3882 6.68279 17.5362 6.68148L17.8053 6.67908L17.835 6.64397C17.8645 6.60913 17.8647 6.60662 17.8646 6.33102C17.8646 6.17823 17.8589 6.03258 17.852 6.00733C17.8364 5.95008 17.7693 5.8887 17.7079 5.87548C17.6823 5.86998 17.5505 5.86547 17.415 5.86547L17.1686 5.86547ZM8.4333 5.97631C8.51978 5.97626 8.61083 5.99769 8.65064 6.03173C8.71404 6.08592 8.72729 6.12732 8.72766 6.2723C8.72805 6.42616 8.70477 6.48838 8.62894 6.53599C8.59142 6.55955 8.56234 6.56516 8.45915 6.56878C8.21893 6.57721 8.14365 6.50505 8.14365 6.26626C8.14365 6.18314 8.14923 6.1532 8.17414 6.10241C8.21023 6.02884 8.24617 6.00465 8.35041 5.98388C8.37616 5.97875 8.40447 5.97633 8.4333 5.97631ZM7.47737 5.99178C7.57417 5.99146 7.60204 5.99579 7.63235 6.01589C7.69412 6.05684 7.70369 6.07168 7.70974 6.13566L7.71556 6.19719H7.4788H7.24208L7.25075 6.14397C7.26212 6.07423 7.27327 6.05442 7.32024 6.02044C7.35417 5.99589 7.37494 5.99211 7.47737 5.99178ZM16.3739 5.99691L16.5433 5.99782C16.804 5.99922 16.828 6.02241 16.828 6.2723C16.828 6.44764 16.8169 6.48176 16.7438 6.53202C16.7067 6.55758 16.6884 6.56018 16.5459 6.56018C16.4141 6.56018 16.3877 6.55699 16.3814 6.54037C16.3773 6.52948 16.3739 6.40274 16.3739 6.25873V5.99691ZM15.5229 6.29562L15.5308 6.3278C15.5411 6.36954 15.5325 6.54293 15.5195 6.55621C15.5087 6.56722 15.207 6.57386 15.1512 6.56432C15.1008 6.55569 15.0802 6.51609 15.0806 6.42908C15.0812 6.30503 15.0827 6.30426 15.3206 6.29959L15.5229 6.29562ZM17.7045 6.29732V6.42718V6.55704L17.666 6.56485C17.6234 6.57352 17.3833 6.57257 17.3349 6.56353C17.2907 6.55527 17.2782 6.54131 17.2618 6.48169C17.2431 6.41345 17.2652 6.33664 17.3103 6.31349C17.3309 6.30292 17.4012 6.29761 17.5228 6.29749L17.7045 6.29732ZM10.5526 6.29897C10.5744 6.29907 10.5973 6.29933 10.6201 6.29984L10.7865 6.30356L10.79 6.42573C10.7935 6.54718 10.7933 6.548 10.7615 6.5603C10.7311 6.57202 10.498 6.57433 10.4155 6.56374C10.3672 6.55753 10.3429 6.51451 10.3429 6.43499C10.3429 6.35685 10.3676 6.31204 10.4157 6.30315C10.4314 6.30024 10.4871 6.29871 10.5526 6.29897ZM17.3965 6.75927V6.84124V6.92317H17.4834H17.5702L17.5665 6.84492L17.5628 6.76667L17.4797 6.76299L17.3965 6.75927Z" fill="#070707"/>
    </g>
    <defs>
        <clipPath id="clip0_1357_22957">
            <rect width="18.5" height="6.5" fill="white" transform="translate(0.5 0.5)"/>
        </clipPath>
    </defs>
</svg>
