<svg xmlns="http://www.w3.org/2000/svg" width="22" height="6" viewBox="0 0 22 6" fill="none">
    <g clip-path="url(#clip0_1357_21089)">
        <path d="M1.95781 3.11581L1.2238 5.01829H0.73198L0 3.11581H0.490467L0.977552 4.40958L1.46464 3.11581H1.95781Z" fill="#00A1E4"/>
        <path d="M2.68369 2.40378H2.19458V2.88483H2.68369V2.40378Z" fill="#00A1E4"/>
        <path d="M2.68369 3.11188H2.19458V5.01764H2.68369V3.11188Z" fill="#00A1E4"/>
        <path d="M6.59324 5.02094H6.12916C6.11427 4.96171 6.09939 4.91236 6.08315 4.83931C5.96747 4.96172 5.78346 5.02226 5.53045 5.02226C5.37797 5.02919 5.22707 4.98961 5.09884 4.90907C5.03424 4.86486 4.98219 4.80548 4.94753 4.73644C4.91288 4.66741 4.89674 4.59096 4.90062 4.51423C4.90062 4.26592 5.0012 4.09526 5.20234 4.00225C5.2948 3.95838 5.48332 3.91955 5.7679 3.88577C5.97085 3.86077 6.0703 3.80878 6.0703 3.7285C6.07103 3.69509 6.06304 3.66205 6.04707 3.63247C6.03109 3.60289 6.00766 3.57774 5.97897 3.55937C5.91754 3.51579 5.84326 3.49271 5.76723 3.49357C5.69064 3.49178 5.61563 3.51495 5.55413 3.55937C5.52127 3.58283 5.49413 3.61303 5.4746 3.64783C5.45508 3.68263 5.44366 3.72117 5.44115 3.76074H4.9676C4.97124 3.63375 5.00777 3.50972 5.07381 3.40012C5.14527 3.30091 5.24778 3.22681 5.36606 3.18888C5.50247 3.14234 5.64638 3.12005 5.7909 3.12307C6.3258 3.12746 6.59369 3.37467 6.59459 3.86472L6.59324 5.02094ZM6.06286 4.09965C5.98448 4.14942 5.89535 4.18095 5.8024 4.19178C5.70779 4.20419 5.61523 4.22853 5.52707 4.26416C5.48497 4.28516 5.45018 4.31778 5.42707 4.35794C5.40397 4.39809 5.39357 4.444 5.39718 4.48988C5.39718 4.62676 5.47114 4.6952 5.61907 4.6952C5.69216 4.6942 5.76425 4.67852 5.83082 4.64913C5.89378 4.62469 5.95023 4.58667 5.99589 4.53792C6.05078 4.46098 6.07703 4.36812 6.0703 4.27469C6.0703 4.25363 6.0703 4.22402 6.06624 4.18519C6.06218 4.14637 6.06286 4.11478 6.06286 4.09701V4.09965Z" fill="#00A1E4"/>
        <path d="M8.80338 4.08976C8.81258 4.31619 8.74456 4.53923 8.6099 4.72414C8.46039 4.91695 8.24729 5.01369 7.9706 5.01632C7.85154 5.01669 7.73384 4.99174 7.62575 4.9432C7.51765 4.89466 7.42177 4.82371 7.34483 4.73533V5.50132H6.85098V3.12372H7.33874C7.33874 3.12372 7.33874 3.40076 7.33874 3.40274C7.33874 3.40471 7.59311 3.12569 7.93204 3.12569C8.0997 3.12379 8.26428 3.16953 8.4056 3.25731C8.54232 3.33777 8.65081 3.45661 8.71679 3.59819C8.78018 3.75449 8.80966 3.92185 8.80338 4.08976ZM8.25609 4.08976C8.25609 3.72453 8.1032 3.54093 7.79674 3.54093C7.49028 3.54093 7.34889 3.73309 7.34889 4.11608C7.34189 4.25742 7.39245 4.39574 7.48961 4.50105C7.52906 4.54303 7.57716 4.57645 7.63078 4.59913C7.6844 4.6218 7.74233 4.63323 7.8008 4.63267C7.85925 4.63378 7.91725 4.62259 7.97084 4.59987C8.02444 4.57716 8.07235 4.54345 8.11132 4.50105C8.21231 4.3874 8.26333 4.23968 8.25338 4.08976H8.25609Z" fill="#00A1E4"/>
        <path d="M10.7565 5.02289H10.2545V3.85219C10.2621 3.76031 10.2403 3.66839 10.1923 3.58896C10.1422 3.52842 10.0549 3.49815 9.93045 3.49815C9.87695 3.49511 9.82346 3.50417 9.77417 3.5246C9.72487 3.54504 9.68111 3.5763 9.64632 3.61594C9.57741 3.70027 9.54167 3.80573 9.54552 3.91339V5.02289H9.04355V2.40247H9.54552V3.38101C9.59109 3.29541 9.66634 3.22827 9.75794 3.19149C9.86551 3.14281 9.98297 3.11829 10.1016 3.11976C10.2623 3.11314 10.4206 3.15952 10.5508 3.25137C10.6184 3.30377 10.672 3.37114 10.7073 3.44784C10.7426 3.52455 10.7586 3.60836 10.7538 3.69228L10.7565 5.02289Z" fill="#00A1E4"/>
        <path d="M14.9217 5.0229H14.4197V3.8522C14.4273 3.76032 14.4056 3.6684 14.3575 3.58897C14.3074 3.52843 14.2222 3.49816 14.0957 3.49816C14.0422 3.49512 13.9887 3.50417 13.9394 3.52461C13.8901 3.54505 13.8464 3.57631 13.8116 3.61595C13.7427 3.70028 13.7069 3.80574 13.7108 3.9134V5.0229H13.2095V3.1145H13.7108V3.37773C13.7563 3.29213 13.8316 3.22499 13.9232 3.18821C14.031 3.13947 14.1487 3.11495 14.2675 3.11648C14.4282 3.11006 14.5864 3.15642 14.7167 3.24809C14.7843 3.30049 14.838 3.36786 14.8733 3.44456C14.9086 3.52127 14.9245 3.60508 14.9197 3.689L14.9217 5.0229Z" fill="#00A1E4"/>
        <path d="M4.64083 5.0229H4.13886V3.8522C4.14644 3.76032 4.12471 3.6684 4.07663 3.58897C4.02656 3.52843 3.94132 3.49816 3.81482 3.49816C3.76132 3.49512 3.70783 3.50417 3.65854 3.52461C3.60924 3.54505 3.56548 3.57631 3.53069 3.61595C3.46178 3.70028 3.42604 3.80574 3.42989 3.9134V5.0229H2.92792V3.1145H3.42989V3.37773C3.47545 3.29213 3.55071 3.22499 3.64231 3.18821C3.74988 3.13952 3.86734 3.11501 3.98597 3.11648C4.14688 3.10986 4.30539 3.15623 4.43585 3.24809C4.5034 3.30049 4.55708 3.36786 4.59239 3.44456C4.62769 3.52127 4.64361 3.60508 4.6388 3.689L4.64083 5.0229Z" fill="#00A1E4"/>
        <path d="M16.891 4.19241H15.6361C15.639 4.32046 15.6903 4.44297 15.7802 4.53658C15.8521 4.60272 15.9478 4.63866 16.0468 4.6366C16.12 4.63807 16.1923 4.61937 16.2551 4.58264C16.3129 4.55114 16.3559 4.49898 16.3749 4.43721H16.8667C16.822 4.60756 16.7189 4.75798 16.5744 4.86364C16.4283 4.96585 16.2517 5.01877 16.0718 5.01433C15.4638 5.01433 15.1599 4.6853 15.1599 4.02723C15.1599 3.75019 15.237 3.52776 15.3905 3.36193C15.5441 3.19609 15.7599 3.11252 16.038 3.11252C16.6062 3.11383 16.8906 3.4738 16.891 4.19241ZM16.3985 3.89101C16.3927 3.78367 16.3484 3.68171 16.2734 3.60278C16.2416 3.56989 16.2032 3.54365 16.1607 3.52566C16.1181 3.50767 16.0722 3.49831 16.0258 3.49815C15.9817 3.49776 15.938 3.50627 15.8975 3.52315C15.857 3.54003 15.8205 3.5649 15.7904 3.5962C15.7125 3.67691 15.6649 3.78075 15.6551 3.89101H16.3985Z" fill="#00A1E4"/>
        <path d="M12.9592 4.06739C12.9592 4.35738 12.8719 4.58946 12.6973 4.76363C12.5228 4.9378 12.2865 5.02554 11.9884 5.02685C11.6853 5.02685 11.446 4.93911 11.2706 4.76363C11.1816 4.67096 11.1124 4.56194 11.0672 4.44295C11.022 4.32397 11.0017 4.19741 11.0074 4.07068C11.0016 3.94371 11.0216 3.81686 11.0664 3.69748C11.1113 3.57809 11.18 3.46852 11.2686 3.3751C11.4422 3.19962 11.6821 3.11188 11.9884 3.11188C12.2948 3.11188 12.5336 3.20203 12.7082 3.38234C12.8794 3.57071 12.9694 3.81612 12.9592 4.06739ZM12.447 4.06739C12.447 3.69558 12.2935 3.51067 11.9877 3.51067C11.6819 3.51067 11.525 3.69558 11.525 4.06739C11.525 4.4392 11.6792 4.62478 11.9877 4.62478C12.2962 4.62478 12.4477 4.43723 12.4477 4.06608L12.447 4.06739Z" fill="#00A1E4"/>
        <path d="M21.9959 1.47657C21.9866 1.27677 21.8986 1.0881 21.7503 0.949582C21.602 0.81106 21.4046 0.733272 21.199 0.732298H21.1929C21.0728 0.73261 20.9543 0.759632 20.8466 0.811298C20.7388 0.862965 20.6446 0.937909 20.5712 1.0304C20.4937 1.12892 20.44 1.24319 20.4143 1.3647C20.3852 1.49631 20.3946 1.62793 20.3703 1.75954C20.3489 1.88047 20.314 1.99875 20.2661 2.11227C20.17 2.3511 20.0014 2.55582 19.7828 2.69923C19.5642 2.84263 19.306 2.91793 19.0423 2.91511C18.772 2.91488 18.5087 2.8315 18.29 2.67689C17.8787 2.38734 17.5608 1.83588 17.4058 1.36865C17.324 1.12253 17.2631 0.892208 17.0541 0.718479C16.9347 0.618399 16.7906 0.55035 16.636 0.521058C16.5799 0.507904 16.5225 0.500842 16.4648 0.5C16.3261 0.500585 16.1893 0.531948 16.065 0.591703C15.9406 0.651458 15.8318 0.73803 15.747 0.844828C15.7431 0.848919 15.7395 0.853321 15.7362 0.857989L15.722 0.877073C15.7148 0.887163 15.7074 0.897692 15.6997 0.90866C15.5684 1.10572 15.5142 1.34214 15.5471 1.5748C15.58 1.80746 15.6978 2.02086 15.879 2.1761C15.9932 2.26966 16.1322 2.32988 16.2801 2.34983C16.3417 2.36289 16.4045 2.36929 16.4675 2.36891C16.6245 2.37747 16.7848 2.37352 16.9411 2.39392C17.4911 2.46631 18.1588 2.74467 18.3699 3.28955C18.425 3.43093 18.4543 3.58059 18.4565 3.73177C18.4577 3.80216 18.4468 3.87224 18.424 3.93906C18.3995 4.07453 18.3278 4.19767 18.221 4.28784C18.0438 4.41419 17.8063 4.36483 17.6237 4.47868C17.5736 4.51041 17.5292 4.54999 17.4924 4.59581C17.4411 4.65998 17.4048 4.73434 17.3862 4.81364C17.3737 4.86004 17.3674 4.90781 17.3673 4.95578C17.3657 5.02608 17.3783 5.09601 17.4046 5.16153C17.4309 5.22706 17.4702 5.28688 17.5203 5.33758C17.5704 5.38828 17.6303 5.42884 17.6966 5.45694C17.7628 5.48504 17.8342 5.50012 17.9065 5.50132C17.9682 5.50123 18.0294 5.4903 18.0871 5.46907C18.1819 5.4362 18.2651 5.3775 18.3266 5.29995C18.3782 5.23555 18.4148 5.16099 18.4339 5.08144C18.4529 5.00189 18.4539 4.91927 18.4368 4.8393C18.4077 4.69584 18.4206 4.48855 18.5214 4.37207C18.6223 4.27178 18.7571 4.21032 18.9009 4.199C19.0491 4.17728 19.2047 4.19308 19.3494 4.15096C19.4789 4.11301 19.5933 4.03719 19.6769 3.9338C19.7538 3.83736 19.8061 3.72462 19.8298 3.60476C19.9556 2.91445 20.2052 2.40182 21.0955 2.36562C21.2308 2.36036 21.3661 2.36562 21.4946 2.31429C21.6217 2.26223 21.7329 2.17957 21.818 2.0741C21.9534 1.90424 22.017 1.69052 21.9959 1.47657Z" fill="#00A1E4"/>
    </g>
    <defs>
        <clipPath id="clip0_1357_21089">
            <rect width="22" height="5" fill="white" transform="translate(0 0.5)"/>
        </clipPath>
    </defs>
</svg>
