<svg width="33" height="32" viewBox="0 0 33 32" fill="none" xmlns="http://www.w3.org/2000/svg">
    <path fill-rule="evenodd" clip-rule="evenodd" d="M17.5151 17.7112C17.5151 18.2632 17.0671 18.7112 16.5151 18.7112C15.9631 18.7112 15.5151 18.2632 15.5151 17.7112V13.6952C15.5151 13.1433 15.9631 12.6952 16.5151 12.6952C17.0671 12.6952 17.5151 13.1433 17.5151 13.6952V17.7112ZM16.5124 22.7392C15.9604 22.7392 15.5124 22.3232 15.5124 21.7712V21.7059C15.5124 21.1539 15.9604 20.7059 16.5124 20.7059C17.0644 20.7059 17.5124 21.1539 17.5124 21.7059C17.5124 22.2579 17.0644 22.7392 16.5124 22.7392ZM28.7271 22.4979L19.4471 6.20992C18.8484 5.16192 17.7711 4.53392 16.5644 4.53125H16.5578C15.3564 4.53125 14.2804 5.15392 13.6804 6.19525L4.28308 22.4819C3.68174 23.5219 3.68174 24.7659 4.28174 25.8059C4.88174 26.8472 5.95908 27.4672 7.16041 27.4672H25.8378C27.0364 27.4672 28.1098 26.8499 28.7124 25.8125C29.3151 24.7779 29.3204 23.5379 28.7271 22.4979Z" fill="color"/>
</svg>
