<svg xmlns="http://www.w3.org/2000/svg" width="195" height="160" viewBox="0 0 195 160" fill="none">
  <path d="M96.255 153.6C138.586 153.6 172.904 119.282 172.904 76.8C172.904 34.3181 138.586 0 96.255 0C53.9243 0 19.6062 34.3181 19.6062 76.8C19.6062 119.282 53.9243 153.6 96.255 153.6Z" fill="#EAEEF9"/>
  <path d="M181.672 45.203C185.096 45.203 187.871 42.4279 187.871 39.0046C187.871 35.5813 185.096 32.8062 181.672 32.8062C178.249 32.8062 175.474 35.5813 175.474 39.0046C175.474 42.4279 178.249 45.203 181.672 45.203Z" fill="#EAEEF9"/>
  <path d="M190.743 20.8629C193.081 20.8629 194.976 18.9677 194.976 16.6298C194.976 14.2919 193.081 12.3967 190.743 12.3967C188.405 12.3967 186.51 14.2919 186.51 16.6298C186.51 18.9677 188.405 20.8629 190.743 20.8629Z" fill="#EAEEF9"/>
  <path d="M14.3149 49.5872C16.6527 49.5872 18.5479 47.692 18.5479 45.3542C18.5479 43.0163 16.6527 41.1211 14.3149 41.1211C11.977 41.1211 10.0818 43.0163 10.0818 45.3542C10.0818 47.692 11.977 49.5872 14.3149 49.5872Z" fill="#EAEEF9"/>
  <path d="M22.1764 141.657C26.5181 141.657 30.0378 138.137 30.0378 133.795C30.0378 129.454 26.5181 125.934 22.1764 125.934C17.8346 125.934 14.3149 129.454 14.3149 133.795C14.3149 138.137 17.8346 141.657 22.1764 141.657Z" fill="#EAEEF9"/>
  <g filter="url(#filter0_d_1463_2304)">
    <path d="M167.31 46.1102H36.2361C33.3637 46.1102 31.0959 43.8425 31.0959 40.9701V11.4898C31.0959 8.61733 33.3637 6.34961 36.2361 6.34961H167.159C170.031 6.34961 172.299 8.61733 172.299 11.4898V40.9701C172.45 43.8425 170.031 46.1102 167.31 46.1102Z" fill="white"/>
  </g>
  <path d="M72.5197 22.8283H43.4929C42.737 22.8283 42.2834 22.2236 42.2834 21.6189V17.8393C42.2834 17.0834 42.8882 16.6299 43.4929 16.6299H72.5197C73.2756 16.6299 73.7291 17.2346 73.7291 17.8393V21.6189C73.7291 22.3748 73.2756 22.8283 72.5197 22.8283Z" fill="#CED6E2"/>
  <path d="M106.989 35.6787H43.4929C42.737 35.6787 42.2834 35.0739 42.2834 34.4692V30.6897C42.2834 29.9338 42.8882 29.4802 43.4929 29.4802H106.989C107.745 29.4802 108.198 30.0849 108.198 30.6897V34.4692C108.198 35.2251 107.594 35.6787 106.989 35.6787Z" fill="#CED6E2"/>
  <g filter="url(#filter1_d_1463_2304)">
    <path d="M167.31 145.285H36.2361C33.3637 145.285 31.0959 143.017 31.0959 140.145V110.665C31.0959 107.792 33.3637 105.524 36.2361 105.524H167.159C170.031 105.524 172.299 107.792 172.299 110.665V140.145C172.45 143.017 170.031 145.285 167.31 145.285Z" fill="white"/>
  </g>
  <path d="M72.5197 122.154H43.4929C42.737 122.154 42.2834 121.55 42.2834 120.945V117.165C42.2834 116.409 42.8882 115.956 43.4929 115.956H72.5197C73.2756 115.956 73.7291 116.561 73.7291 117.165V120.945C73.7291 121.55 73.2756 122.154 72.5197 122.154Z" fill="#CED6E2"/>
  <path d="M106.989 135.005H43.4929C42.737 135.005 42.2834 134.4 42.2834 133.795V130.016C42.2834 129.26 42.8882 128.806 43.4929 128.806H106.989C107.745 128.806 108.198 129.411 108.198 130.016V133.795C108.198 134.4 107.594 135.005 106.989 135.005Z" fill="#CED6E2"/>
  <g filter="url(#filter2_d_1463_2304)">
    <path d="M145.087 95.6976H14.1637C11.2913 95.6976 9.02356 93.4299 9.02356 90.5575V61.0772C9.02356 58.2047 11.2913 55.937 14.1637 55.937H145.087C147.959 55.937 150.227 58.2047 150.227 61.0772V90.5575C150.378 93.4299 147.959 95.6976 145.087 95.6976Z" fill="white"/>
  </g>
  <path d="M48.3306 72.4157H19.3038C18.5479 72.4157 18.0944 71.811 18.0944 71.2063V67.4267C18.0944 66.6708 18.6991 66.2173 19.3038 66.2173H48.3306C49.0865 66.2173 49.54 66.822 49.54 67.4267V71.2063C49.54 71.9622 49.0865 72.4157 48.3306 72.4157Z" fill="#CED6E2"/>
  <path d="M82.7999 85.4177H19.3038C18.5479 85.4177 18.0944 84.8129 18.0944 84.2082V80.4287C18.0944 79.6728 18.6991 79.2192 19.3038 79.2192H82.6487C83.4046 79.2192 83.8581 79.824 83.8581 80.4287V84.2082C84.0093 84.8129 83.4046 85.4177 82.7999 85.4177Z" fill="#CED6E2"/>
  <defs>
    <filter id="filter0_d_1463_2304" x="22.0959" y="2.34961" width="159.21" height="57.7607" filterUnits="userSpaceOnUse" color-interpolation-filters="sRGB">
      <feFlood flood-opacity="0" result="BackgroundImageFix"/>
      <feColorMatrix in="SourceAlpha" type="matrix" values="0 0 0 0 0 0 0 0 0 0 0 0 0 0 0 0 0 0 127 0" result="hardAlpha"/>
      <feOffset dy="5"/>
      <feGaussianBlur stdDeviation="4.5"/>
      <feColorMatrix type="matrix" values="0 0 0 0 0.397708 0 0 0 0 0.47749 0 0 0 0 0.575 0 0 0 0.17 0"/>
      <feBlend mode="normal" in2="BackgroundImageFix" result="effect1_dropShadow_1463_2304"/>
      <feBlend mode="normal" in="SourceGraphic" in2="effect1_dropShadow_1463_2304" result="shape"/>
    </filter>
    <filter id="filter1_d_1463_2304" x="22.0959" y="101.524" width="159.21" height="57.7607" filterUnits="userSpaceOnUse" color-interpolation-filters="sRGB">
      <feFlood flood-opacity="0" result="BackgroundImageFix"/>
      <feColorMatrix in="SourceAlpha" type="matrix" values="0 0 0 0 0 0 0 0 0 0 0 0 0 0 0 0 0 0 127 0" result="hardAlpha"/>
      <feOffset dy="5"/>
      <feGaussianBlur stdDeviation="4.5"/>
      <feColorMatrix type="matrix" values="0 0 0 0 0.397708 0 0 0 0 0.47749 0 0 0 0 0.575 0 0 0 0.17 0"/>
      <feBlend mode="normal" in2="BackgroundImageFix" result="effect1_dropShadow_1463_2304"/>
      <feBlend mode="normal" in="SourceGraphic" in2="effect1_dropShadow_1463_2304" result="shape"/>
    </filter>
    <filter id="filter2_d_1463_2304" x="0.0235596" y="51.937" width="159.21" height="57.7607" filterUnits="userSpaceOnUse" color-interpolation-filters="sRGB">
      <feFlood flood-opacity="0" result="BackgroundImageFix"/>
      <feColorMatrix in="SourceAlpha" type="matrix" values="0 0 0 0 0 0 0 0 0 0 0 0 0 0 0 0 0 0 127 0" result="hardAlpha"/>
      <feOffset dy="5"/>
      <feGaussianBlur stdDeviation="4.5"/>
      <feColorMatrix type="matrix" values="0 0 0 0 0.397708 0 0 0 0 0.47749 0 0 0 0 0.575 0 0 0 0.17 0"/>
      <feBlend mode="normal" in2="BackgroundImageFix" result="effect1_dropShadow_1463_2304"/>
      <feBlend mode="normal" in="SourceGraphic" in2="effect1_dropShadow_1463_2304" result="shape"/>
    </filter>
  </defs>
</svg>