<svg xmlns="http://www.w3.org/2000/svg" width="14" height="4" viewBox="0 0 14 4" fill="none">
  <path d="M0.5 2.00024C0.5 1.17182 1.16857 0.500244 1.99329 0.500244H2.00671C2.83143 0.500244 3.5 1.17182 3.5 2.00024C3.5 2.82867 2.83143 3.50024 2.00671 3.50024H1.99329C1.16857 3.50024 0.5 2.82867 0.5 2.00024Z" fill="color"/>
  <path d="M5.5 2.00024C5.5 1.17182 6.16857 0.500244 6.99329 0.500244H7.00671C7.83143 0.500244 8.5 1.17182 8.5 2.00024C8.5 2.82867 7.83143 3.50024 7.00671 3.50024H6.99329C6.16857 3.50024 5.5 2.82867 5.5 2.00024Z" fill="color"/>
  <path d="M10.5 2.00024C10.5 1.17182 11.1686 0.500244 11.9933 0.500244H12.0067C12.8314 0.500244 13.5 1.17182 13.5 2.00024C13.5 2.82867 12.8314 3.50024 12.0067 3.50024H11.9933C11.1686 3.50024 10.5 2.82867 10.5 2.00024Z" fill="color"/>
</svg>