<svg xmlns="http://www.w3.org/2000/svg" width="20" height="20" viewBox="0 0 20 20" fill="none">
  <path fill-rule="evenodd" clip-rule="evenodd" d="M7.88309 3.15388L7.74745 3.96155C8.21497 3.94834 8.6825 3.94173 9.15004 3.94173C10.1857 3.94173 11.2224 3.9612 12.2588 3.9997L12.1166 3.15899C12.0469 2.73147 12.0028 2.57801 11.9218 2.48471C11.877 2.43308 11.7208 2.29175 11.0918 2.29175H8.90843C8.27002 2.29175 8.1186 2.42915 8.07824 2.47492C8.00147 2.56197 7.95815 2.70822 7.88309 3.15388ZM6.6504 2.94657L6.47113 4.01403C5.69343 4.05601 4.91577 4.11627 4.13815 4.1948L2.43906 4.36138C2.09553 4.39506 1.84435 4.70085 1.87803 5.04438C1.91171 5.38791 2.2175 5.6391 2.56103 5.60542L4.26103 5.43875L4.26286 5.43857C5.89209 5.274 7.52113 5.19173 9.15004 5.19173C11.9122 5.19173 14.6833 5.33233 17.4384 5.60535C17.7819 5.63939 18.088 5.38853 18.122 5.04503C18.156 4.70154 17.9052 4.39548 17.5617 4.36144C16.2228 4.22877 14.88 4.12689 13.536 4.05675L13.533 4.03746L13.35 2.956L13.3422 2.9075C13.2873 2.5668 13.2053 2.05654 12.8659 1.66545C12.4732 1.21291 11.8711 1.04175 11.0918 1.04175H8.90843C8.13851 1.04175 7.53576 1.20018 7.14071 1.64816C6.8018 2.03247 6.71762 2.54091 6.66024 2.88748L6.6504 2.94657ZM16.3324 7.65704C16.3546 7.31258 16.0934 7.01532 15.7489 6.99308C15.4045 6.97085 15.1072 7.23206 15.085 7.57652L14.5435 15.9648L14.5434 15.9665C14.5199 16.3021 14.5 16.5683 14.4533 16.8003C14.4078 17.0262 14.3446 17.1747 14.263 17.2809C14.1223 17.464 13.7749 17.7085 12.6753 17.7085H7.32535C6.22582 17.7085 5.87837 17.464 5.73768 17.2809C5.6561 17.1747 5.59293 17.0262 5.54742 16.8003C5.5007 16.5683 5.48079 16.3021 5.45727 15.9665L5.45715 15.9648L4.91572 7.57652C4.89348 7.23206 4.59622 6.97085 4.25176 6.99308C3.90729 7.01532 3.64608 7.31258 3.66831 7.65704L4.20997 16.0487L4.21132 16.068C4.23327 16.3815 4.25742 16.7263 4.32203 17.0471C4.38902 17.3797 4.5071 17.7308 4.74635 18.0423C5.24733 18.6945 6.09988 18.9585 7.32535 18.9585H12.6753C13.9008 18.9585 14.7534 18.6945 15.2543 18.0423C15.4936 17.7308 15.6117 17.3797 15.6787 17.0471C15.7433 16.7263 15.7674 16.3815 15.7894 16.068L15.7905 16.0521L16.3324 7.65704ZM7.9834 13.7501C7.9834 13.4049 8.26322 13.1251 8.6084 13.1251H11.3834C11.7286 13.1251 12.0084 13.4049 12.0084 13.7501C12.0084 14.0953 11.7286 14.3751 11.3834 14.3751H8.6084C8.26322 14.3751 7.9834 14.0953 7.9834 13.7501ZM7.91667 9.79175C7.57149 9.79175 7.29167 10.0716 7.29167 10.4167C7.29167 10.7619 7.57149 11.0417 7.91667 11.0417H12.0833C12.4285 11.0417 12.7083 10.7619 12.7083 10.4167C12.7083 10.0716 12.4285 9.79175 12.0833 9.79175H7.91667Z" fill="color"/>
</svg>