<svg width="16" height="16" viewBox="0 0 16 16" fill="none" xmlns="http://www.w3.org/2000/svg">
<path fill-rule="evenodd" clip-rule="evenodd" d="M12.6113 5.88733C12.0799 3.53953 10.0919 2.33467 8.00179 2.33325C5.91196 2.33184 3.92279 3.5337 3.38851 5.8812C2.74585 8.72128 4.49722 11.2478 6.28653 12.9725C7.24718 13.8946 8.7541 13.892 9.7055 12.9737L9.70733 12.972C11.5033 11.2474 13.2542 8.72711 12.6113 5.88733ZM5.5933 13.6933C3.7533 11.9199 1.64664 9.04659 2.4133 5.65992C3.72664 -0.113413 12.28 -0.106747 13.5866 5.66659C14.3533 9.05325 12.2466 11.9199 10.4 13.6933C9.05997 14.9866 6.93997 14.9866 5.5933 13.6933Z" fill="color"/>
<path fill-rule="evenodd" clip-rule="evenodd" d="M7.99984 5C7.5396 5 7.1665 5.3731 7.1665 5.83333C7.1665 6.29357 7.5396 6.66667 7.99984 6.66667C8.46007 6.66667 8.83317 6.29357 8.83317 5.83333C8.83317 5.3731 8.46007 5 7.99984 5ZM6.1665 5.83333C6.1665 4.82081 6.98732 4 7.99984 4C9.01236 4 9.83317 4.82081 9.83317 5.83333C9.83317 6.84586 9.01236 7.66667 7.99984 7.66667C6.98732 7.66667 6.1665 6.84586 6.1665 5.83333Z" fill="color"/>
</svg>
