<svg width="149" height="40" viewBox="0 0 149 40" fill="none" xmlns="http://www.w3.org/2000/svg">
<path d="M38.1055 34.6247C35.6135 34.6247 32.3057 33.0377 32.3057 28.3861C32.3057 23.5941 35.9506 22.1475 38.1244 22.1475C39.8539 22.1475 41.0195 22.6338 41.3724 22.8552L40.4304 24.5606C39.9547 24.333 39.1419 24.1958 38.704 24.1958C36.8453 24.1958 35.3143 25.9168 35.3143 28.3674C35.3143 30.4032 36.7067 32.4485 38.6788 32.4485C39.3593 32.4485 39.8917 32.3362 40.3643 32.0837L41.3598 33.9014C40.6384 34.3846 39.2869 34.6216 37.9448 34.6216" fill="#FFC911"/>
<path d="M66.2979 34.3657V25.9697C66.2979 24.6353 65.315 24.3422 64.7227 24.3422C64.1147 24.3422 63.6327 24.5355 63.3019 24.9252V34.3657H60.2744V25.9229C60.2744 25.449 60.12 25.0686 59.8176 24.7787C59.5215 24.4918 59.0836 24.3422 58.5134 24.3422C57.8927 24.3422 57.4422 24.4918 57.2469 24.5667V34.3657H54.2446V22.7428C55.3504 22.4435 56.8468 22.2284 57.7951 22.1629C58.8851 22.0943 60.1169 22.2751 60.6651 22.509C61.2101 22.7366 61.6322 23.0265 61.9378 23.3663C62.2906 23.0421 62.7474 22.7584 63.3208 22.5214C63.8942 22.2845 64.6313 22.1629 65.526 22.1629C66.3766 22.1629 67.599 22.4716 68.3393 23.2759C68.6575 23.622 69.3065 24.4014 69.3065 25.9697V34.3657H66.2979Z" fill="#FFC911"/>
<path d="M52.9341 28.3922C52.9341 24.4826 50.8549 22.1567 47.2446 22.1567C43.6406 22.1567 41.4731 24.4826 41.4731 28.3922C41.4731 32.305 43.6374 34.6308 47.2446 34.6308C50.8549 34.6277 52.9341 32.3019 52.9341 28.3922ZM49.9003 28.3922C49.9003 31.563 48.4827 32.4671 47.2446 32.4671C46.0128 32.4671 44.5069 31.563 44.5069 28.3922C44.5069 25.2215 46.0128 24.3142 47.2446 24.3142C48.4827 24.3111 49.9003 25.2184 49.9003 28.3922Z" fill="#FFC911"/>
<path d="M80.4904 32.9129C79.5201 33.948 77.7905 34.5996 75.2041 34.5996C73.2257 34.5996 71.0425 34.3689 71.0425 34.3689V21.3024C71.0425 21.3024 73.0209 21.0811 74.448 21.0811C77.8535 21.0811 78.66 21.6672 79.2681 22.0444C80.125 22.5682 80.8684 23.3508 80.8684 24.5075C80.8684 26.5963 78.8963 27.1419 78.3356 27.3727V27.4101C79.2775 27.672 80.3707 28.1864 80.9409 29.2745C81.4733 30.2753 81.1488 32.1958 80.4904 32.9129ZM77.8535 24.5573C77.8535 23.4537 77.0408 22.9049 75.5223 22.9049C74.741 22.9049 74.4228 22.9985 74.0637 23.0608V26.7304H74.4732C77.2739 26.7304 77.8535 25.6361 77.8535 24.5573ZM78.2379 30.6619C78.2379 29.6361 77.8094 28.2394 74.4701 28.2394H74.0605V32.6105C75.0088 32.8568 76.3351 32.7788 77.1479 32.3579C77.7905 32.0181 78.2379 31.4382 78.2379 30.6619Z" fill="#FFC911"/>
<path d="M91.7877 34.3628C91.7877 34.3628 89.888 34.5997 88.5869 34.5997C84.1449 34.5997 82.2988 33.0346 82.2988 30.45C82.2988 28.3954 84.3781 26.4842 88.7571 26.4842V25.9386C88.7571 25.3276 88.2561 24.3049 86.5234 24.3049C85.4334 24.3049 84.545 24.651 84.0945 24.8724C84.0788 24.8287 83.1022 23.0485 83.1022 23.0485C83.8015 22.6557 85.2633 22.1475 87.2197 22.1475C89.406 22.1475 91.7845 23.326 91.7845 25.9386V34.3628H91.7877ZM88.7634 28.0244C86.3974 28.0244 85.2791 28.8413 85.2791 30.45C85.2791 31.7501 86.2336 32.7447 87.7143 32.7447C88.3002 32.7447 88.7602 32.595 88.7602 32.595V28.0244H88.7634Z" fill="#FFC911"/>
<path d="M99.9346 34.3658V26.9705C99.9346 25.421 99.692 24.654 98.4161 24.3734C97.8112 24.2393 97.0709 24.3859 96.4723 24.5449V34.3658H93.4795V22.7304C93.4795 22.7304 95.354 22.272 97.0016 22.1847C99.2446 22.0756 100.363 22.3406 101.472 23.064C102.53 23.7561 102.931 24.9689 102.931 25.8917V34.3627H99.9346V34.3658Z" fill="#FFC911"/>
<path d="M111.578 34.3658L107.605 29.7328H107.58L107.574 34.3658H104.559V21.3149H107.574L107.58 26.2784H107.621L111.093 22.4249H115.21L109.6 27.9932L115.604 34.3658H111.578Z" fill="#FFC911"/>
<path d="M17.5589 23.4661C17.5589 25.7015 16.4689 27.41 15.8136 28.018C14.5787 29.1653 13.391 29.5675 10.3005 29.5114H9.7366V34.3501H5.48047V17.614C5.48047 17.614 7.78968 17.3397 10.2218 17.3272C13.6525 17.3054 14.9914 17.9321 15.9995 18.8861C16.7745 19.6032 17.5589 21.3772 17.5589 23.4661ZM13.3753 23.385C13.3753 20.3483 11.8505 19.6219 10.7983 19.5689C10.4108 19.547 9.73975 19.5845 9.73975 19.5845V27.1637H10.3163C11.7434 27.1637 13.3753 26.0195 13.3753 23.385Z" fill="#0B73BA"/>
<path d="M27.5645 34.35H23.9731L17.9434 17.5703H23.0658C23.0658 17.5703 25.8697 27.5253 25.9075 27.756H25.9358C25.9642 27.5253 28.8971 17.5703 28.8971 17.5703H33.5723L27.5645 34.35Z" fill="#0B73BA"/>
<path d="M116.944 18.5688C116.101 19.5435 118.085 20.6761 119.369 21.1563C121.472 21.9093 123.659 22.3849 125.878 22.5714L125.871 15.7124C121.644 16.1552 118.313 17.2231 116.944 18.5688Z" fill="url(#paint0_linear_468_3054)"/>
<path d="M134.393 24.1303C138.618 23.6897 141.948 22.6216 143.318 21.2745C144.158 20.3003 142.175 19.1681 140.89 18.6872C138.788 17.9339 136.602 17.4581 134.383 17.2712L134.393 24.1303Z" fill="url(#paint1_linear_468_3054)"/>
<path d="M130.115 24.3045C124.377 24.3102 119.461 23.2197 117.403 21.6782C117.385 21.6662 117.376 21.6782 117.372 21.6822C117.372 21.6908 117.375 21.6992 117.38 21.7061L130.13 34.4187L143.204 21.3242C141.44 23.0439 136.251 24.2994 130.117 24.3057" fill="url(#paint2_linear_468_3054)"/>
<path d="M117.372 21.7319C117.372 21.7415 117.374 21.7508 117.38 21.7586V21.7283L117.376 21.7253L117.373 21.7295L117.372 21.7319ZM130.117 24.4865C124.379 24.4926 119.463 23.3355 117.406 21.6998C117.388 21.6871 117.378 21.6998 117.374 21.704C117.374 21.7118 117.376 21.7195 117.379 21.7264C117.385 21.721 117.393 21.7192 117.406 21.7295C119.463 23.5093 124.378 24.7586 130.117 24.7537C136.253 24.7465 141.441 23.2998 143.204 21.3242C141.44 23.1489 136.252 24.4811 130.117 24.4878" fill="url(#paint3_linear_468_3054)"/>
<path d="M117.057 18.5184C118.819 16.7997 124.01 15.5425 130.147 15.5356C135.884 15.5305 140.801 16.617 142.859 18.1621C142.876 18.1758 142.886 18.1661 142.889 18.1621C142.891 18.1536 142.889 18.1448 142.884 18.1375L130.131 5.42383L117.057 18.5184Z" fill="url(#paint4_linear_468_3054)"/>
<path d="M142.884 18.1502V18.1529L142.888 18.1458C142.889 18.1374 142.888 18.1289 142.884 18.1215L142.884 18.1502ZM130.147 15.4004C124.008 15.4059 118.817 16.7224 117.057 18.5181C118.819 16.8601 124.01 15.6472 130.147 15.6406C135.883 15.6356 140.801 16.6838 142.858 18.1744C142.876 18.1876 142.886 18.1783 142.889 18.1744C142.89 18.1708 142.89 18.1671 142.889 18.1635C142.888 18.1599 142.887 18.1565 142.885 18.1535C142.88 18.1573 142.871 18.1601 142.858 18.1502C140.805 16.5362 135.906 15.4015 130.186 15.401H130.147" fill="url(#paint5_linear_468_3054)"/>
<defs>
<linearGradient id="paint0_linear_468_3054" x1="124.59" y1="23.3328" x2="122.186" y2="15.7469" gradientUnits="userSpaceOnUse">
<stop stop-color="#0071BB"/>
<stop offset="0.218" stop-color="#0274BD"/>
<stop offset="0.414" stop-color="#0B7FC4"/>
<stop offset="0.603" stop-color="#1A91D0"/>
<stop offset="0.785" stop-color="#2EABE1"/>
<stop offset="0.936" stop-color="#44C7F4"/>
</linearGradient>
<linearGradient id="paint1_linear_468_3054" x1="139.289" y1="22.9437" x2="137.288" y2="16.6282" gradientUnits="userSpaceOnUse">
<stop stop-color="#FFDD00"/>
<stop offset="0.097" stop-color="#FFDD00"/>
<stop offset="0.223" stop-color="#FDD403"/>
<stop offset="0.43" stop-color="#FBBB0B"/>
<stop offset="0.689" stop-color="#F69419"/>
<stop offset="0.801" stop-color="#F48120"/>
<stop offset="1" stop-color="#F48120"/>
</linearGradient>
<linearGradient id="paint2_linear_468_3054" x1="117.372" y1="27.8715" x2="143.204" y2="27.8715" gradientUnits="userSpaceOnUse">
<stop offset="0.038" stop-color="#FFDD00"/>
<stop offset="0.283" stop-color="#FBC109"/>
<stop offset="0.769" stop-color="#F48120"/>
</linearGradient>
<linearGradient id="paint3_linear_468_3054" x1="117.372" y1="23.039" x2="143.204" y2="23.039" gradientUnits="userSpaceOnUse">
<stop stop-color="#EAC900"/>
<stop offset="0.491" stop-color="#F48120"/>
</linearGradient>
<linearGradient id="paint4_linear_468_3054" x1="117.057" y1="11.9711" x2="142.89" y2="11.9711" gradientUnits="userSpaceOnUse">
<stop offset="0.16" stop-color="#0071BB"/>
<stop offset="0.366" stop-color="#1186C9"/>
<stop offset="1" stop-color="#44C7F4"/>
</linearGradient>
<linearGradient id="paint5_linear_468_3054" x1="117.057" y1="16.9593" x2="142.89" y2="16.9593" gradientUnits="userSpaceOnUse">
<stop stop-color="#005CA6"/>
<stop offset="0.16" stop-color="#005CA6"/>
<stop offset="0.406" stop-color="#0077BC"/>
<stop offset="1" stop-color="#00B8F1"/>
</linearGradient>
</defs>
</svg>
