<svg width="460" height="364" viewBox="0 0 460 364" fill="none" xmlns="http://www.w3.org/2000/svg">
<g filter="url(#filter0_b_452_1501)">
<path d="M584.467 336.598C603.233 316.36 559.628 292.926 531.478 283.339C484.561 266.829 437.644 258.84 388.519 254.046V395.716C481.249 386.129 554.109 364.293 584.467 336.598Z" fill="url(#paint0_linear_452_1501)"/>
<path d="M5.46924 337.656L294.146 616.201L585.03 335.526C545.841 372.275 430.481 398.904 294.146 398.904C160.019 399.437 46.3145 373.872 5.46924 337.656Z" fill="url(#paint1_linear_452_1501)"/>
<path d="M4.35451 280.147C-13.8603 300.386 29.1928 323.82 57.3429 333.406C104.26 349.917 151.177 357.905 200.302 362.699V221.562C107.572 230.616 34.1605 252.453 4.35451 280.147Z" fill="url(#paint2_linear_452_1501)"/>
<path d="M582.825 278.545L294.148 0L3.26367 280.675C42.453 243.927 157.813 217.297 294.148 217.297C428.275 216.764 541.979 242.861 582.825 278.545Z" fill="url(#paint3_linear_452_1501)"/>
</g>
<defs>
<filter id="filter0_b_452_1501" x="-10" y="-10" width="609.013" height="636.201" filterUnits="userSpaceOnUse" color-interpolation-filters="sRGB">
<feFlood flood-opacity="0" result="BackgroundImageFix"/>
<feGaussianBlur in="BackgroundImageFix" stdDeviation="5"/>
<feComposite in2="SourceAlpha" operator="in" result="effect1_backgroundBlur_452_1501"/>
<feBlend mode="normal" in="SourceGraphic" in2="effect1_backgroundBlur_452_1501" result="shape"/>
</filter>
<linearGradient id="paint0_linear_452_1501" x1="488.766" y1="254.046" x2="495.678" y2="404.81" gradientUnits="userSpaceOnUse">
<stop stop-color="#F3F3F7"/>
<stop offset="1" stop-color="#F3F3F7" stop-opacity="0"/>
</linearGradient>
<linearGradient id="paint1_linear_452_1501" x1="295.25" y1="335.526" x2="304.646" y2="634.551" gradientUnits="userSpaceOnUse">
<stop stop-color="#F3F3F7"/>
<stop offset="1" stop-color="#F3F3F7" stop-opacity="0"/>
</linearGradient>
<linearGradient id="paint2_linear_452_1501" x1="100.151" y1="221.562" x2="107.018" y2="371.76" gradientUnits="userSpaceOnUse">
<stop stop-color="#F3F3F7"/>
<stop offset="1" stop-color="#F3F3F7" stop-opacity="0"/>
</linearGradient>
<linearGradient id="paint3_linear_452_1501" x1="293.044" y1="0" x2="302.441" y2="299.025" gradientUnits="userSpaceOnUse">
<stop stop-color="#F3F3F7"/>
<stop offset="1" stop-color="#F3F3F7" stop-opacity="0"/>
</linearGradient>
</defs>
</svg>
