<svg xmlns="http://www.w3.org/2000/svg" width="164" height="78" viewBox="0 0 164 78" fill="none">
  <path d="M58.4708 51.8373C54.0168 51.8373 48.0781 48.9336 48.0781 40.4147C48.0781 31.6447 54.6053 28.9954 58.5026 28.9954C60.5185 28.9211 62.5197 29.3683 64.3172 30.2948L62.6374 33.4184C61.6559 33.0038 60.6071 32.7764 59.544 32.7478C56.213 32.7478 53.4664 35.8961 53.4664 40.3868C53.4664 44.1157 55.9712 47.8628 59.5026 47.8628C60.5471 47.9053 61.5847 47.6735 62.5144 47.1899L64.2991 50.5229C62.4084 51.4933 60.2997 51.9464 58.1823 51.8373" fill="#FFC709"/>
  <path d="M109.17 51.3625V35.9889C109.208 35.5989 109.163 35.2052 109.036 34.8347C108.91 34.4642 108.706 34.1258 108.437 33.843C108.169 33.5601 107.844 33.3395 107.483 33.1963C107.123 33.0531 106.736 32.9907 106.349 33.0134C105.874 32.9858 105.399 33.067 104.96 33.2509C104.52 33.4348 104.127 33.7168 103.81 34.0757V51.3625H98.3922V35.9042C98.4085 35.5172 98.345 35.131 98.2057 34.7702C98.0664 34.4094 97.8543 34.0819 97.5831 33.8085C97.2643 33.5263 96.8935 33.3108 96.492 33.1743C96.0904 33.0378 95.6662 32.9831 95.2437 33.0134C94.4688 33.0063 93.6993 33.1446 92.9743 33.4212V51.3625H87.5977V30.0775C89.6811 29.5346 91.8085 29.1817 93.9541 29.0228C95.6924 28.894 97.4389 29.1083 99.0964 29.6537C99.9637 30.0007 100.745 30.5357 101.386 31.2214C102.111 30.5599 102.947 30.0352 103.855 29.6719C105.117 29.2004 106.459 28.9817 107.804 29.0281C109.683 29.0101 111.494 29.7426 112.842 31.0668C113.437 31.7331 113.896 32.5115 114.193 33.3574C114.489 34.2033 114.619 35.1001 114.573 35.9965V51.37L109.17 51.3625Z" fill="#FFC709"/>
  <path d="M85.7463 77.5686C85.7463 77.5686 82.3337 77.9979 80.0134 77.9979C72.0598 77.9979 68.749 75.1371 68.749 70.3985C68.749 66.6429 72.4607 63.1383 80.3177 63.1383V62.1425C80.3177 61.0201 79.4185 59.1466 76.3144 59.1466C74.806 59.1572 73.3195 59.5134 71.9665 60.1884C71.9442 60.1015 70.1944 56.848 70.1944 56.848C72.4817 55.6977 75.0124 55.1311 77.5658 55.1977C81.4715 55.1977 85.7484 57.3567 85.7484 62.1425L85.7463 77.5686ZM80.322 65.9637C76.0864 65.9637 74.0853 67.453 74.0853 70.4028C74.0734 70.9771 74.18 71.5476 74.3983 72.0778C74.6166 72.608 74.9417 73.0863 75.3529 73.4822C75.7642 73.8782 76.2525 74.183 76.7867 74.3773C77.3209 74.5715 77.8893 74.6508 78.4555 74.6103C79.0875 74.6088 79.716 74.5158 80.322 74.3344V65.9637Z" fill="#FFC709"/>
  <path d="M65.8537 74.9077C64.1209 76.806 61.0254 78.0002 56.3975 78.0002C52.8523 78.0002 48.937 77.571 48.937 77.571V53.6528C48.937 53.6528 52.4854 53.2428 55.04 53.2428C61.1357 53.2428 62.5811 54.3223 63.6819 55.0069C64.5091 55.4374 65.2088 56.0819 65.7099 56.8748C66.211 57.6678 66.4955 58.5809 66.5345 59.5213C66.5345 63.3424 63.0053 64.3402 62.001 64.763V64.8307C62.9682 65.0463 63.8814 65.4605 64.684 66.0476C65.4866 66.6347 66.1616 67.3823 66.6671 68.244C67.0778 69.3377 67.218 70.5164 67.0755 71.6774C66.9329 72.8385 66.5121 73.9467 65.8495 74.9055L65.8537 74.9077ZM61.1346 59.6135C61.1346 57.5962 59.6839 56.5853 56.9648 56.5853C56.0835 56.58 55.2045 56.6754 54.3444 56.8697V63.5913H55.0867C60.1006 63.5913 61.1399 61.5868 61.1399 59.6135H61.1346ZM61.8303 70.7958C61.8303 68.9104 61.072 66.3577 55.0867 66.3577H54.3444V74.3594C56.1885 74.8248 58.1329 74.6599 59.8747 73.8905C60.4552 73.6133 60.9464 73.1756 61.2915 72.628C61.6366 72.0804 61.8215 71.4452 61.825 70.7958" fill="#FFC709"/>
  <path d="M100.535 77.5676V64.0365C100.535 61.1994 100.111 59.7968 97.8217 59.2775C96.652 59.1179 95.4618 59.228 94.3401 59.5994V77.5676H88.9773V56.2654C91.0509 55.7648 93.161 55.4336 95.2871 55.275C99.301 55.0668 101.3 55.5551 103.289 56.8846C104.107 57.4702 104.772 58.2475 105.228 59.1499C105.684 60.0523 105.916 61.0529 105.907 62.0663V77.5676H100.535Z" fill="#FFC709"/>
  <path d="M84.8787 40.4226C84.8787 33.2653 81.1479 29.0001 74.6896 29.0001C68.2313 29.0001 64.3649 33.2653 64.3649 40.4226C64.3649 47.5798 68.2367 51.8462 74.6896 51.8462C81.1426 51.8462 84.8787 47.5851 84.8787 40.4226ZM79.4533 40.4226C79.4533 46.2342 76.9081 47.8899 74.6896 47.8899C72.4711 47.8899 69.7903 46.2342 69.7903 40.4226C69.7903 34.6109 72.4785 32.9575 74.6896 32.9575C76.9007 32.9575 79.4533 34.6174 79.4533 40.4226Z" fill="#FFC709"/>
  <path d="M121.739 77.5699L114.546 68.9855H114.498L114.568 77.5699H109.168V53.6731H114.568L114.498 62.8616H114.573L120.873 55.7065H128.236L118.19 65.9069L128.95 77.5699H121.739Z" fill="#FFC709"/>
  <path d="M114.616 24.5609C113.07 26.3229 116.709 28.3703 119.063 29.2384C122.918 30.5997 126.928 31.4593 130.998 31.7965L130.985 19.3974C123.234 20.1979 117.127 22.1283 114.616 24.5609Z" fill="url(#paint0_linear_7633_81)"/>
  <path d="M22.0075 31.5478C22.0424 34.608 20.9325 37.5684 18.9003 39.835C16.6924 41.9242 14.5799 42.6496 9.07711 42.553H8.07816V51.3628H0.5V20.8785C0.5 20.8785 4.61571 20.3871 8.9435 20.3614C15.0529 20.327 17.4379 21.4699 19.2407 23.205C20.6034 24.5195 22.0075 27.7449 22.0075 31.5478ZM14.5619 31.4019C14.5619 25.8671 11.8354 24.5463 9.9658 24.4465C9.27119 24.4111 8.07816 24.4808 8.07816 24.4808V38.2812H9.10894C11.6541 38.2812 14.5619 36.1941 14.5619 31.4019Z" fill="#0072BC"/>
  <path d="M39.8254 51.3598H33.4297L22.6892 20.8026H31.8093C31.8093 20.8026 36.8105 38.9371 36.8688 39.3513H36.9165C36.9749 38.936 42.1881 20.8026 42.1881 20.8026H50.515L39.8254 51.3598Z" fill="#0072BC"/>
  <path d="M146.759 34.6305C154.509 33.8343 160.617 31.9038 163.131 29.469C164.672 27.7082 161.033 25.662 158.677 24.7928C154.822 23.4313 150.811 22.5713 146.741 22.2336L146.759 34.6305Z" fill="url(#paint1_linear_7633_81)"/>
  <path d="M138.882 35.028C128.234 35.0388 119.112 32.9893 115.294 30.092C115.261 30.0695 115.243 30.092 115.236 30.0995C115.236 30.1157 115.241 30.1315 115.251 30.1446L138.909 54.0371L163.169 29.4268C159.896 32.6588 150.268 35.0185 138.884 35.0303" fill="url(#paint2_linear_7633_81)"/>
  <path d="M115.236 30.1489C115.236 30.1658 115.241 30.1823 115.251 30.1962V30.1425L115.244 30.1371L115.239 30.1446L115.236 30.1489ZM138.888 35.028C128.239 35.0388 119.117 32.9893 115.299 30.092C115.267 30.0695 115.249 30.092 115.241 30.0995C115.241 30.1132 115.244 30.1268 115.25 30.1392C115.26 30.1295 115.275 30.1263 115.299 30.1446C119.117 33.2972 128.237 35.5099 138.888 35.5013C150.273 35.4884 159.901 32.926 163.172 29.4268C159.899 32.6588 150.271 35.0185 138.888 35.0303" fill="url(#paint3_linear_7633_81)"/>
  <path d="M146.746 22.6595C150.789 22.9797 154.78 23.7862 158.634 25.0621C160.616 25.7478 163.501 27.2081 163.498 28.6417C163.584 27.1073 160.67 25.53 158.681 24.7928C154.826 23.4313 150.816 22.5713 146.746 22.2336V22.6595Z" fill="url(#paint4_linear_7633_81)"/>
  <path d="M114.576 24.6093C117.846 21.3794 127.477 19.0165 138.861 19.0037C149.504 18.994 158.627 21.036 162.444 23.9396C162.477 23.9654 162.495 23.9472 162.5 23.9396C162.503 23.9237 162.5 23.9073 162.492 23.8935L138.832 0L114.576 24.6093Z" fill="url(#paint5_linear_7633_81)"/>
  <path d="M162.496 23.894V23.8994L162.503 23.8854C162.506 23.8691 162.503 23.8525 162.495 23.8382L162.496 23.894ZM138.865 18.5373C127.477 18.548 117.846 21.1126 114.581 24.6108C117.85 21.3809 127.481 19.0181 138.865 19.0052C149.508 18.9955 158.632 21.0375 162.448 23.9412C162.481 23.9669 162.499 23.9487 162.504 23.9412C162.506 23.9342 162.507 23.927 162.505 23.92C162.504 23.9129 162.501 23.9063 162.497 23.9004C162.489 23.908 162.472 23.9133 162.448 23.894C158.638 20.75 149.55 18.5395 138.938 18.5385H138.865" fill="url(#paint6_linear_7633_81)"/>
  <path d="M138.909 53.713L115.298 30.0899C115.266 30.0674 115.248 30.0899 115.24 30.0974C115.24 30.1136 115.246 30.1294 115.255 30.1425L138.913 54.035L163.174 29.4247L138.909 53.713Z" fill="url(#paint7_linear_7633_81)"/>
  <path d="M119.063 29.2411C122.918 30.6024 126.928 31.462 130.998 31.7992V31.37C126.956 31.0489 122.966 30.2417 119.113 28.9653C117.13 28.2797 114.246 26.8192 114.249 25.3835C114.163 26.9201 117.076 28.4953 119.066 29.2357" fill="url(#paint8_linear_7633_81)"/>
  <defs>
    <linearGradient id="paint0_linear_7633_81" x1="128.636" y1="33.1728" x2="124.341" y2="19.4244" gradientUnits="userSpaceOnUse">
      <stop stop-color="#0071BB"/>
      <stop offset="0.218" stop-color="#0274BD"/>
      <stop offset="0.414" stop-color="#0B7FC4"/>
      <stop offset="0.603" stop-color="#1A91D0"/>
      <stop offset="0.785" stop-color="#2EABE1"/>
      <stop offset="0.936" stop-color="#44C7F4"/>
    </linearGradient>
    <linearGradient id="paint1_linear_7633_81" x1="155.741" y1="32.4858" x2="152.167" y2="21.0408" gradientUnits="userSpaceOnUse">
      <stop stop-color="#FFDD00"/>
      <stop offset="0.097" stop-color="#FFDD00"/>
      <stop offset="0.223" stop-color="#FDD403"/>
      <stop offset="0.43" stop-color="#FBBB0B"/>
      <stop offset="0.689" stop-color="#F69419"/>
      <stop offset="0.801" stop-color="#F48120"/>
      <stop offset="1" stop-color="#F48120"/>
    </linearGradient>
    <linearGradient id="paint2_linear_7633_81" x1="115.236" y1="41.7319" x2="163.169" y2="41.7319" gradientUnits="userSpaceOnUse">
      <stop offset="0.038" stop-color="#FFDD00"/>
      <stop offset="0.283" stop-color="#FBC109"/>
      <stop offset="0.769" stop-color="#F48120"/>
    </linearGradient>
    <linearGradient id="paint3_linear_7633_81" x1="115.236" y1="32.464" x2="163.172" y2="32.464" gradientUnits="userSpaceOnUse">
      <stop stop-color="#EAC900"/>
      <stop offset="0.491" stop-color="#F48120"/>
    </linearGradient>
    <linearGradient id="paint4_linear_7633_81" x1="146.746" y1="25.4376" x2="163.5" y2="25.4376" gradientUnits="userSpaceOnUse">
      <stop stop-color="#F48120"/>
      <stop offset="0.13" stop-color="#F48120"/>
      <stop offset="0.509" stop-color="#F48120"/>
      <stop offset="1" stop-color="#EAC900"/>
    </linearGradient>
    <linearGradient id="paint5_linear_7633_81" x1="114.576" y1="12.3046" x2="162.501" y2="12.3046" gradientUnits="userSpaceOnUse">
      <stop offset="0.16" stop-color="#0071BB"/>
      <stop offset="0.366" stop-color="#1186C9"/>
      <stop offset="1" stop-color="#44C7F4"/>
    </linearGradient>
    <linearGradient id="paint6_linear_7633_81" x1="114.581" y1="21.574" x2="162.506" y2="21.574" gradientUnits="userSpaceOnUse">
      <stop stop-color="#005CA6"/>
      <stop offset="0.16" stop-color="#005CA6"/>
      <stop offset="0.406" stop-color="#0077BC"/>
      <stop offset="1" stop-color="#00B8F1"/>
    </linearGradient>
    <linearGradient id="paint7_linear_7633_81" x1="115.24" y1="41.7298" x2="163.174" y2="41.7298" gradientUnits="userSpaceOnUse">
      <stop stop-color="#E8C81C"/>
      <stop offset="0.769" stop-color="#DC7727"/>
    </linearGradient>
    <linearGradient id="paint8_linear_7633_81" x1="114.248" y1="28.5914" x2="130.998" y2="28.5914" gradientUnits="userSpaceOnUse">
      <stop stop-color="#1B92D0"/>
      <stop offset="0.84" stop-color="#015DA6"/>
      <stop offset="1" stop-color="#015DA6"/>
    </linearGradient>
  </defs>
</svg>