<svg width="16" height="16" viewBox="0 0 16 16" fill="none" xmlns="http://www.w3.org/2000/svg">
<g id="pvcb-icons/question">
<path id="Union" fill-rule="evenodd" clip-rule="evenodd" d="M13.6668 8C13.6668 11.1296 11.1298 13.6667 8.00016 13.6667C4.87055 13.6667 2.3335 11.1296 2.3335 8C2.3335 4.87039 4.87055 2.33333 8.00016 2.33333C11.1298 2.33333 13.6668 4.87039 13.6668 8ZM8.00016 14.6667C11.6821 14.6667 14.6668 11.6819 14.6668 8C14.6668 4.3181 11.6821 1.33333 8.00016 1.33333C4.31826 1.33333 1.3335 4.3181 1.3335 8C1.3335 11.6819 4.31826 14.6667 8.00016 14.6667ZM5.83779 6.62467L6.43177 6.69866C6.62017 6.72195 6.79898 6.61371 6.8668 6.43627C6.95244 6.21224 7.07165 6.03549 7.22442 5.90669C7.44092 5.72445 7.71016 5.63265 8.03215 5.63265C8.36579 5.63265 8.63161 5.72034 8.82892 5.89504C9.02623 6.07043 9.1242 6.28007 9.1242 6.52602C9.1242 6.70277 9.0687 6.86445 8.95772 7.01106C8.88578 7.10424 8.6645 7.30017 8.29523 7.59956C7.92528 7.89895 7.67933 8.16887 7.55602 8.40865C7.42996 8.65392 7.38611 8.9259 7.37515 9.19857C7.36557 9.43219 7.55191 9.62676 7.78621 9.62676H8.12191C8.33566 9.62676 8.51241 9.46302 8.53159 9.25064C8.5453 9.09787 8.57064 8.98209 8.60902 8.90331C8.67341 8.76833 8.83989 8.59021 9.10707 8.36825C9.62432 7.94005 9.96138 7.60162 10.1196 7.35224C10.2772 7.10355 10.3567 6.83979 10.3567 6.56096C10.3567 6.05741 10.1423 5.61552 9.7127 5.23598C9.28383 4.85644 8.70561 4.66667 7.97941 4.66667C7.28883 4.66667 6.73185 4.8537 6.30709 5.22844C5.94536 5.5477 5.72544 5.92587 5.64803 6.36228C5.62404 6.48971 5.71105 6.60891 5.83779 6.62467ZM8.10822 10.0666H7.78622C7.55945 10.0666 7.37516 10.2509 7.37516 10.4776V10.9223C7.37516 11.149 7.55945 11.3333 7.78622 11.3333H8.10822C8.33499 11.3333 8.51927 11.149 8.51927 10.9223V10.4776C8.51927 10.2502 8.33499 10.0666 8.10822 10.0666Z" fill="color"/>
</g>
</svg>
