<svg width="24" height="24" viewBox="0 0 24 24" fill="none" xmlns="http://www.w3.org/2000/svg">
<g id="pvcb-icons/redo">
<path id="Union" d="M12.6179 2.18431C12.9304 1.91235 13.4041 1.94516 13.6761 2.25758L16.5661 5.57758C16.838 5.89001 16.8052 6.36375 16.4928 6.63571C16.4708 6.65486 16.448 6.6725 16.4245 6.68864L13.0721 9.13578C12.7376 9.38 12.2684 9.30676 12.0242 8.9722C11.7799 8.63764 11.8532 8.16845 12.1877 7.92423L14.3603 6.33829C13.6427 6.13188 12.8595 6 12 6C7.99397 6 4.75 9.24272 4.75 13.2454C4.75 17.2578 7.99453 20.5 12 20.5C16.006 20.5 19.25 17.2573 19.25 13.2546C19.25 11.7668 18.7988 10.38 18.0289 9.22585C17.799 8.88126 17.892 8.41558 18.2366 8.18573C18.5812 7.95587 19.0469 8.04888 19.2768 8.39346C20.2047 9.78459 20.75 11.4594 20.75 13.2546C20.75 18.0865 16.8336 22 12 22C7.16579 22 3.25 18.086 3.25 13.2454C3.25 8.41348 7.16636 4.5 12 4.5C12.6289 4.5 13.2221 4.5599 13.7808 4.66247L12.5447 3.24244C12.2727 2.93001 12.3055 2.45627 12.6179 2.18431Z" fill="color"/>
</g>
</svg>
